<svg width="24" height="24" viewBox="0 0 24 24" fill="none" xmlns="http://www.w3.org/2000/svg">
<g clip-path="url(#clip0)">
<path d="M0 19.7523C0 14.5788 0 9.40728 0 4.23577C0.00406145 4.2114 0.0121843 4.18703 0.0142151 4.16267C0.0324916 4.01648 0.0406145 3.87029 0.0670139 3.72613C0.247748 2.72715 0.706692 1.87843 1.45603 1.19418C2.29878 0.422612 3.29587 0.0104341 4.43713 0.00840363C9.47942 -0.00377897 14.5197 0.000281893 19.5599 0.00231233C20.1021 0.00231233 20.6281 0.107895 21.1337 0.306877C22.8802 0.999255 23.9991 2.64391 23.9991 4.52409C24.0011 9.50677 23.9991 14.4874 23.9991 19.4701C23.9991 19.8132 23.9646 20.1544 23.8874 20.4894C23.4163 22.5503 21.5988 23.998 19.4848 24C14.4892 24 9.49364 24 4.49805 24C4.18532 24 3.87462 23.9695 3.57001 23.9025C2.63182 23.7015 1.83577 23.2487 1.18594 22.5442C0.578756 21.8863 0.201042 21.1127 0.0568603 20.2275C0.0345223 20.0691 0.0203072 19.9107 0 19.7523ZM11.4431 10.1261C11.4431 11.0661 11.4431 11.992 11.4431 12.9301C11.9285 12.9301 12.4077 12.9301 12.8971 12.9301C12.8971 15.7016 12.8971 18.465 12.8971 21.2305C14.1501 21.2305 15.3949 21.2305 16.6499 21.2305C16.6499 18.461 16.6499 15.6976 16.6499 12.924C17.4013 12.924 18.1445 12.924 18.8918 12.924C18.9934 11.99 19.0949 11.0621 19.1985 10.124C18.3415 10.124 17.4967 10.124 16.6479 10.124C16.6479 10.0936 16.6479 10.0712 16.6479 10.0489C16.6479 9.56768 16.6458 9.08444 16.6499 8.60323C16.6519 8.41846 16.6601 8.23369 16.6804 8.04892C16.7149 7.77075 16.8631 7.57786 17.1373 7.48852C17.3282 7.42558 17.5251 7.40933 17.7221 7.4073C18.2542 7.40324 18.7883 7.40527 19.3203 7.40527C19.3487 7.40527 19.3792 7.40527 19.4076 7.40527C19.4076 6.46924 19.4076 5.54539 19.4076 4.61952C19.3914 4.61749 19.3812 4.61546 19.3711 4.61546C18.3131 4.61952 17.2551 4.61952 16.1971 4.6317C15.7564 4.63779 15.3238 4.71698 14.9055 4.85911C14.2191 5.09058 13.679 5.50072 13.3378 6.15046C13.0291 6.73523 12.9174 7.37075 12.9012 8.02252C12.8849 8.69054 12.8951 9.35652 12.8931 10.0245C12.8931 10.057 12.8931 10.0895 12.8931 10.1261C12.4057 10.1261 11.9264 10.1261 11.4431 10.1261Z" fill="black"/>
</g>
<defs>
<clipPath id="clip0">
<rect width="24" height="24" fill="white"/>
</clipPath>
</defs>
</svg>
