<svg width="28" height="28" viewBox="0 0 28 28" fill="none" xmlns="http://www.w3.org/2000/svg">
<path fill-rule="evenodd" clip-rule="evenodd" d="M0.5 16.6608H26.2231V22.1149H0.5V16.6608ZM2.14846 18.3092V20.4664H24.5746V18.3092H2.14846Z" fill="black"/>
<path fill-rule="evenodd" clip-rule="evenodd" d="M23.5091 17.485V21.2907H21.8607V17.485H23.5091Z" fill="black"/>
<path fill-rule="evenodd" clip-rule="evenodd" d="M8.66258 17.0906V21.6858H7.01413V17.0906H8.66258Z" fill="black"/>
<path fill-rule="evenodd" clip-rule="evenodd" d="M22.7031 8.44054C22.5808 7.9164 22.3503 7.42235 22.0254 6.9895L23.3439 6C23.8055 6.61509 24.134 7.31843 24.3085 8.066C24.4829 8.8136 24.4993 9.58888 24.3566 10.3431L24.3492 10.3822L24.3381 10.4204C24.1904 10.9275 24.0195 11.3605 23.8709 11.7352L23.8686 11.741C23.7171 12.1233 23.5965 12.4275 23.5113 12.7374C23.3556 13.3041 23.309 13.923 23.6296 14.9297L22.0589 15.4301C21.6452 14.1313 21.6784 13.1868 21.9218 12.3007C22.0312 11.9024 22.1813 11.5241 22.3211 11.1715C22.3269 11.1569 22.3327 11.1423 22.3385 11.1277C22.4827 10.7639 22.6228 10.4067 22.7439 9.99849C22.8363 9.48188 22.8225 8.95205 22.7031 8.44054Z" fill="black"/>
<path fill-rule="evenodd" clip-rule="evenodd" d="M25.772 9.95827C25.6771 9.55286 25.4992 9.1704 25.2489 8.8345L26.5708 7.84954C26.9558 8.36629 27.2304 8.95598 27.377 9.58249C27.5237 10.209 27.5394 10.8587 27.4229 11.4915L27.4166 11.5258L27.4074 11.5594C27.2877 11.998 27.1477 12.3661 27.0258 12.6796C27.0161 12.7046 27.0065 12.729 26.9972 12.753C26.885 13.0411 26.7987 13.2626 26.7357 13.4885C26.6166 13.9151 26.5745 14.376 26.8239 15.1693L25.2513 15.6636C24.91 14.5778 24.9397 13.7911 25.1479 13.0453C25.2343 12.7359 25.3506 12.4378 25.4567 12.166C25.4677 12.1378 25.4786 12.1098 25.4894 12.0821C25.604 11.7874 25.7139 11.4961 25.8076 11.1599C25.8764 10.7611 25.8643 10.3527 25.772 9.95827Z" fill="black"/>
</svg>
