<svg width="24" height="24" viewBox="0 0 24 24" fill="none" xmlns="http://www.w3.org/2000/svg">
<path d="M23.348 2.3895C22.9569 3.61804 22.2614 4.52483 21.2934 5.22267C22.2219 5.13074 23.0991 4.85494 23.9526 4.47468C23.9684 4.49557 23.9842 4.51647 24 4.54154C23.6049 5.03045 23.2295 5.54026 22.8067 5.99992C22.459 6.376 22.052 6.69358 21.6806 7.04878C21.6134 7.11146 21.5581 7.23264 21.5621 7.32457C21.6292 11.1941 20.4715 14.6165 18.1482 17.5917C16.5598 19.6267 14.5644 21.06 12.2055 21.9083C10.5183 22.5142 8.77972 22.7566 6.99769 22.6856C5.16036 22.6145 3.40204 22.1883 1.73066 21.3776C1.15772 21.1018 0.616398 20.7508 0.0632203 20.4332C0.0474152 20.4249 0.0395127 20.4082 0 20.3622C2.09022 20.5711 4.04215 20.1825 5.85973 19.142C6.32598 18.8746 6.75667 18.5486 7.19526 18.2269C4.95884 18.0012 3.44946 16.8061 2.61179 14.5579C3.37438 14.6917 4.08561 14.675 4.80869 14.466C1.88475 13.7264 0.794205 10.935 0.924597 9.29275C1.59631 9.6563 2.29569 9.88613 3.1136 9.91538C2.03095 9.09217 1.33948 8.05167 1.05894 6.72701C0.782351 5.41072 0.968061 4.16545 1.60026 2.96616C4.27527 6.29661 7.64965 8.11435 11.7708 8.42358C11.7392 8.0851 11.6997 7.7717 11.6839 7.45411C11.6207 6.28825 11.9091 5.21431 12.5413 4.26157C13.4659 2.87423 14.7422 2.10534 16.3464 2.00923C17.7491 1.92566 18.974 2.41039 19.9974 3.43C20.1515 3.58461 20.2819 3.63476 20.4952 3.58043C21.3961 3.34642 22.2575 3.02048 23.0635 2.53993C23.1426 2.49814 23.2176 2.46053 23.348 2.3895Z" fill="black"/>
</svg>
