<svg width="24" height="24" viewBox="0 0 24 24" fill="none" xmlns="http://www.w3.org/2000/svg">
<path d="M3.11276 17.6333C3.04461 16.9169 2.94919 16.32 2.94919 15.723C2.94919 15.2753 2.82652 15.0813 2.43123 14.9321C1.14994 14.4247 1 14.171 1 12.7085C1 10.7088 1.27261 10.3207 3.05824 9.85812C5.42999 9.26118 7.829 9.29103 10.228 9.5895C10.3098 9.60442 10.4052 9.60442 10.596 9.61934C10.596 9.09702 10.596 8.60455 10.596 8.127C10.596 6.6048 10.596 5.09753 10.596 3.57533C10.596 2.56054 10.7732 2.14268 11.6592 1.84421C12.627 1.51589 13.6357 1.24727 14.6307 1.14281C16.8934 0.90403 19.1698 0.90403 21.3779 1.62036C22.8092 2.08299 23 2.38146 23 3.97827C23 8.321 23 12.6787 23 17.0214C23 18.3496 22.7683 18.7077 21.6097 19.1256C19.8377 19.7673 17.9975 19.7972 16.1574 19.8419C15.6121 19.8569 15.0805 20.1404 14.5489 20.3195C14.4672 20.3493 14.3854 20.5135 14.3854 20.603C14.4126 21.6626 13.7038 21.9909 12.9814 22.2595C11.1004 22.946 9.15118 23.0803 7.20198 22.9162C5.92069 22.8117 4.63941 22.5879 3.38538 22.2446C2.15861 21.9163 1.95415 21.4835 1.95415 20.1106C1.95415 19.9912 1.96778 19.8569 1.95415 19.7375C1.81784 18.6331 2.17224 17.8422 3.11276 17.6333ZM22.0322 4.39613C18.5019 5.42585 15.0397 5.42585 11.5774 4.3812C11.3048 6.1571 11.4411 6.50034 12.7906 6.81373C15.3259 7.41067 17.8885 7.50021 20.4238 6.87342C22.3866 6.4108 22.0867 6.57495 22.0322 4.39613ZM11.5093 7.51513C11.5093 7.79868 11.5093 8.05238 11.5093 8.30608C11.5093 9.57457 11.4957 9.64919 12.627 9.88797C13.9083 10.1566 15.2169 10.3655 16.5254 10.4103C18.1747 10.4849 19.8377 10.3506 21.4188 9.72381C21.6778 9.61935 22.005 9.35072 22.0458 9.09702C22.1413 8.58962 22.0731 8.05238 22.0731 7.51513C18.5155 8.5747 15.0533 8.5747 11.5093 7.51513ZM22.0731 10.6192C19.2243 11.6489 16.3482 11.5445 13.4176 11.2012C13.4176 11.8429 13.3903 12.3951 13.4312 12.9324C13.4449 13.0965 13.663 13.3651 13.7993 13.3801C16.1574 13.6188 18.5155 13.7233 20.8327 13.0816C22.0595 12.7533 22.0459 12.7234 22.0595 11.3355C22.0731 11.1266 22.0731 10.9028 22.0731 10.6192ZM2.0223 11.4997C3.6171 12.8876 11.2776 12.8428 12.4498 11.4251C11.1276 10.082 3.28996 10.0671 2.0223 11.4997ZM22.005 3.26194C22.005 3.15748 22.0186 3.05301 22.0186 2.94855C21.7051 2.81424 21.4052 2.63515 21.0917 2.57546C19.8786 2.36653 18.6791 2.11283 17.4523 2.05314C15.6803 1.9636 13.9083 2.03822 12.2045 2.69485C11.9727 2.78439 11.7819 2.94855 11.5638 3.08286C11.5911 3.1724 11.6047 3.24702 11.632 3.33656C15.1078 4.41105 18.57 4.50059 22.005 3.26194ZM15.4213 14.559C15.2986 15.0515 15.2441 15.4395 15.7348 15.723C15.9529 15.8424 16.0756 16.1708 16.2664 16.3797C16.3891 16.514 16.5663 16.708 16.7026 16.6931C17.943 16.6035 19.2107 16.5886 20.4102 16.3051C22.482 15.8126 22.0459 15.8872 22.0731 13.9173C22.0731 13.8725 22.0459 13.8427 22.005 13.7681C19.8786 14.5889 17.6568 14.6187 15.4213 14.559ZM3.91698 15.9021C3.80793 16.7826 3.82156 16.902 4.55762 17.096C5.66171 17.3646 6.7658 17.6034 7.89715 17.7079C9.84634 17.887 11.7819 17.7377 13.6766 17.1259C14.2082 16.9468 14.6444 16.6632 14.3581 15.9171C10.8823 16.9617 7.42007 16.9468 3.91698 15.9021ZM1.99504 12.7533C1.79058 13.395 2.00867 13.8128 2.60843 13.9472C3.63073 14.171 4.63941 14.4247 5.67534 14.5292C7.69269 14.753 9.71004 14.6038 11.6729 14.0068C12.2181 13.8427 12.7497 13.6039 12.4362 12.7831C8.96035 13.8128 5.48451 13.8278 1.99504 12.7533ZM2.97646 19.9912C2.7311 20.797 3.07187 21.1552 3.72615 21.3492C5.7026 21.9312 7.70632 22.0805 9.72367 21.8566C10.8005 21.7372 11.8501 21.4537 12.9133 21.2C13.1314 21.1552 13.3086 20.9313 13.4994 20.7821C9.88724 21.0209 6.39777 21.0209 2.97646 19.9912ZM4.91202 18.3347C4.8575 18.4093 4.78934 18.469 4.73482 18.5436C4.95291 18.7376 5.14374 19.051 5.3891 19.1256C6.39777 19.3793 7.42007 19.6479 8.44238 19.7524C10.5551 19.9613 12.6543 19.8867 14.6989 19.1555C15.4077 18.9018 15.4486 18.7824 15.2577 18.0063C11.8501 19.0808 8.38786 18.9316 4.91202 18.3347ZM22.0731 17.096C20.1512 17.3646 18.2565 17.6333 16.3482 17.9019C16.3482 18.1556 16.3482 18.454 16.3482 18.7973C18.0929 18.8122 19.7559 18.7077 21.3779 18.1556C21.9368 17.9466 22.2367 17.6183 22.0731 17.096ZM14.4944 14.6187C13.6493 14.3202 13.0632 14.3501 12.4362 14.753C11.9455 15.0664 11.3321 15.1709 10.7596 15.3052C10.2007 15.4395 9.62825 15.5141 9.05576 15.6186C10.8414 15.5738 12.6543 15.6037 14.4944 14.6187Z" fill="black"/>
</svg>
