<svg width="24" height="24" viewBox="0 0 24 24" fill="none" xmlns="http://www.w3.org/2000/svg">
<path d="M22.989 20.8011C22.989 20.944 22.989 21.098 22.989 21.2409C22.4063 21.8236 21.8126 22.4173 21.2299 23C21.087 23 20.933 23 20.7901 23C18.4703 20.6362 16.1504 18.2834 13.8526 15.9415C13.5777 16.1064 13.4348 16.1944 13.2919 16.2714C8.63019 18.987 2.66017 16.5242 1.27486 11.3018C1.16492 10.917 1.08796 10.5322 1 10.1364C1 9.50974 1 8.89405 1 8.26737C1.03298 8.16842 1.07696 8.06946 1.09895 7.95952C1.6047 4.68316 4.03448 2.04448 7.25587 1.26387C7.69565 1.15392 8.14643 1.08796 8.58621 1C8.94903 1 9.32284 1 9.68566 1C9.83958 1.03298 10.0045 1.08796 10.1584 1.09895C14.3693 1.53873 17.6457 5.50775 17.3158 9.70765C17.1949 11.1589 16.7661 12.4893 15.9195 13.8196C16.0955 13.9515 16.2824 14.0725 16.4363 14.2154C18.6242 16.4253 20.8121 18.6132 22.989 20.8011ZM15.1169 9.22389C15.1279 5.94753 12.4893 3.28686 9.19091 3.25387C5.93653 3.23188 3.23188 5.90355 3.2099 9.16891C3.18791 12.4453 5.89255 15.1719 9.16892 15.1719C12.4343 15.1719 15.1059 12.5112 15.1169 9.22389Z" fill="black"/>
</svg>
