<svg width="28" height="28" viewBox="0 0 28 28" fill="none" xmlns="http://www.w3.org/2000/svg">
<path fill-rule="evenodd" clip-rule="evenodd" d="M3.12915 7.97665C2.74235 7.97665 2.42592 8.29122 2.42592 8.6828V23.1755C2.42592 23.5671 2.74235 23.8817 3.12915 23.8817H24.8709C25.2576 23.8817 25.5741 23.5671 25.5741 23.1755V8.6828C25.5741 8.29122 25.2576 7.97665 24.8709 7.97665H3.12915ZM0.5 8.6828C0.5 7.23074 1.67552 6.05073 3.12915 6.05073H24.8709C26.3245 6.05073 27.5 7.23074 27.5 8.6828V23.1755C27.5 24.6276 26.3245 25.8076 24.8709 25.8076H3.12915C1.67552 25.8076 0.5 24.6276 0.5 23.1755V8.6828Z" fill="black"/>
<path fill-rule="evenodd" clip-rule="evenodd" d="M3.81206 6.05073H8.62333V25.8076H3.81206V6.05073ZM5.73798 7.97665V23.8817H6.6974V7.97665H5.73798Z" fill="black"/>
<path fill-rule="evenodd" clip-rule="evenodd" d="M19.478 6.05073H24.2893V25.8076H19.478V6.05073ZM21.4039 7.97665V23.8817H22.3634V7.97665H21.4039Z" fill="black"/>
<path fill-rule="evenodd" clip-rule="evenodd" d="M5.25462 2H22.8468V6.09762H20.9208V3.92592H7.18054V6.09762H5.25462V2Z" fill="black"/>
</svg>
