<svg width="24" height="24" viewBox="0 0 24 24" fill="none" xmlns="http://www.w3.org/2000/svg">
<g clip-path="url(#clip0)">
<path d="M23.9935 12.0271C23.9935 13.6148 24.0139 15.2094 23.9867 16.7971C23.9322 19.8431 22.5292 22.0441 19.7914 23.3797C18.872 23.8295 17.8777 23.9998 16.8561 23.9998C13.6212 23.9998 10.3862 23.9998 7.15125 23.9998C3.23524 23.9998 0.0683855 20.9198 0.0275228 17.0015C-0.00652941 13.6625 -0.00652941 10.3235 0.0275228 6.9845C0.0683855 3.10716 3.21481 0.0202764 7.10357 0.00664778C10.3726 -0.000166526 13.6416 -0.00698083 16.9106 0.00664778C20.8334 0.0202764 23.9458 3.1276 23.9935 7.05264C24.0071 8.70852 23.9935 10.3712 23.9935 12.0271ZM2.20005 11.9658C2.20005 13.5876 2.20005 15.2094 2.20005 16.838C2.20005 17.5944 2.32264 18.3303 2.66316 19.0118C3.58257 20.8244 5.06725 21.7852 7.09676 21.8056C10.3522 21.8329 13.6075 21.8193 16.8629 21.8056C17.2239 21.8056 17.5917 21.7716 17.939 21.6966C20.2341 21.1855 21.7801 19.2911 21.7937 16.9402C21.8141 13.6489 21.8005 10.3576 21.7937 7.06627C21.7937 6.71874 21.7528 6.3644 21.6711 6.02368C21.1603 3.77496 19.3011 2.22811 16.9923 2.20767C13.6552 2.18041 10.3181 2.19404 6.9878 2.20086C6.67452 2.20086 6.35442 2.24174 6.04114 2.30988C3.75283 2.81414 2.20686 4.71534 2.18643 7.06627C2.18643 8.69489 2.20005 10.3303 2.20005 11.9658Z" fill="black"/>
<path d="M12.0136 18.5417C8.42449 18.5485 5.46876 15.5979 5.46876 12C5.46195 8.42246 8.40406 5.47186 11.9795 5.45824C15.5686 5.43779 18.538 8.3952 18.5448 11.9863C18.5516 15.5775 15.6095 18.5349 12.0136 18.5417ZM11.9864 16.3611C14.3904 16.3679 16.3382 14.4463 16.3587 12.034C16.3791 9.60815 14.4449 7.65244 12.0204 7.64563C9.59589 7.63881 7.65491 9.57408 7.6481 12C7.6481 14.3986 9.58227 16.3475 11.9864 16.3611Z" fill="black"/>
<path d="M19.4301 5.5877C19.4233 6.12603 18.9602 6.56896 18.4154 6.55533C17.8774 6.5417 17.4415 6.07833 17.4619 5.52637C17.4756 4.99486 17.925 4.57237 18.4563 4.57918C18.9943 4.57918 19.437 5.03574 19.4301 5.5877Z" fill="black"/>
</g>
<defs>
<clipPath id="clip0">
<rect width="24" height="24" fill="white"/>
</clipPath>
</defs>
</svg>
