<svg width="27" height="27" viewBox="0 0 27 27" fill="none" xmlns="http://www.w3.org/2000/svg">
<path fill-rule="evenodd" clip-rule="evenodd" d="M13.5 2.67814C7.52325 2.67814 2.67814 7.52325 2.67814 13.5C2.67814 19.4767 7.52325 24.3219 13.5 24.3219C19.4767 24.3219 24.3219 19.4767 24.3219 13.5C24.3219 7.52325 19.4767 2.67814 13.5 2.67814ZM0.5 13.5C0.5 6.3203 6.3203 0.5 13.5 0.5C20.6797 0.5 26.5 6.3203 26.5 13.5C26.5 20.6797 20.6797 26.5 13.5 26.5C6.3203 26.5 0.5 20.6797 0.5 13.5Z" fill="black"/>
<path d="M13.6992 9.66873C14.8231 9.66873 15.7031 9.93447 16.3391 10.4659C16.9751 10.9887 17.2932 11.7249 17.2932 12.6746C17.2932 13.6242 16.9751 14.3648 16.3391 14.8963C15.7031 15.419 14.8231 15.6804 13.6992 15.6804H10.8633V18.8169H10.6019V9.66873H13.6992ZM13.7254 15.4321C14.7883 15.4321 15.6029 15.1925 16.1692 14.7133C16.7443 14.2341 17.0318 13.5545 17.0318 12.6746C17.0318 11.7946 16.7443 11.115 16.1692 10.6358C15.6029 10.1566 14.7883 9.91704 13.7254 9.91704H10.8633V15.4321H13.7254Z" fill="black"/>
<path fill-rule="evenodd" clip-rule="evenodd" d="M9.51283 8.57966H13.6992C14.9859 8.57966 16.1427 8.88417 17.0341 9.62741C17.9597 10.39 18.3822 11.4566 18.3822 12.6746C18.3822 13.8943 17.9588 14.9621 17.0375 15.732L17.0307 15.7377C16.1391 16.4705 14.9836 16.7695 13.6992 16.7695H11.9524V19.906H9.51283V8.57966ZM11.9524 14.343H13.7254C14.6402 14.343 15.166 14.1355 15.4658 13.8819L15.472 13.8766C15.7541 13.6416 15.9427 13.2943 15.9427 12.6746C15.9427 12.0548 15.7541 11.7075 15.472 11.4725L15.4657 11.4672C15.166 11.2136 14.6402 11.0061 13.7254 11.0061H11.9524V14.343Z" fill="black"/>
</svg>
