<svg width="28" height="28" viewBox="0 0 28 28" fill="none" xmlns="http://www.w3.org/2000/svg">
<path fill-rule="evenodd" clip-rule="evenodd" d="M25.5137 10.3278C25.4398 10.2608 25.3383 10.2223 25.2307 10.2257L25.2159 10.2262H2.76349L2.74872 10.2257C2.698 10.2241 2.64779 10.2323 2.60114 10.2496C2.55451 10.2668 2.51296 10.2925 2.47845 10.3243C2.44398 10.356 2.41728 10.3931 2.39895 10.4329C2.38208 10.4695 2.3724 10.5082 2.36993 10.5472V18.615C2.37229 18.6557 2.38246 18.696 2.40045 18.734C2.41981 18.775 2.44808 18.813 2.48453 18.845C2.52102 18.8771 2.56485 18.9025 2.61375 18.9187C2.66268 18.9349 2.71495 18.9413 2.76712 18.9372L2.80364 18.9343H6.9735V20.8043H2.87205C2.5858 20.8215 2.29852 20.7841 2.02595 20.6938C1.74022 20.5992 1.47591 20.4482 1.24949 20.2491C1.02303 20.0499 0.839112 19.8065 0.709921 19.5333C0.580706 19.2599 0.509211 18.9629 0.500397 18.6604L0.5 18.6468V10.5124L0.500474 10.4976C0.509811 10.2045 0.577964 9.91668 0.700487 9.65064C0.82299 9.38465 0.997195 9.14616 1.21224 8.94828C1.42724 8.75043 1.6789 8.59697 1.95243 8.49579C2.2207 8.39656 2.50542 8.34931 2.79109 8.35623H25.1882C25.7695 8.34206 26.337 8.55031 26.7694 8.94223C27.2066 9.33847 27.471 9.89144 27.499 10.4831L27.5 10.5052V18.6553L27.499 18.6774C27.471 19.2691 27.2066 19.822 26.7694 20.2183C26.337 20.6102 25.7695 20.8184 25.1882 20.8043H21.0678V18.9343H25.2159L25.2307 18.9348C25.3383 18.9382 25.4398 18.8997 25.5137 18.8327C25.5829 18.77 25.6223 18.688 25.6301 18.604V10.5566C25.6223 10.4725 25.5829 10.3905 25.5137 10.3278Z" fill="black"/>
<path fill-rule="evenodd" clip-rule="evenodd" d="M6.47227 1H21.4446V10.2057H6.47227V1ZM8.34221 2.86993V8.33578H19.5746V2.86993H8.34221Z" fill="black"/>
<path fill-rule="evenodd" clip-rule="evenodd" d="M22.5347 16.3051H5.3611V14.4351H22.5347V16.3051Z" fill="black"/>
<path fill-rule="evenodd" clip-rule="evenodd" d="M6.47227 14.4351H21.4446V27.9775H6.47227V14.4351ZM8.34221 16.3051V26.1075H19.5746V16.3051H8.34221Z" fill="black"/>
<path fill-rule="evenodd" clip-rule="evenodd" d="M21.5228 13.124H19.4769V11.254H21.5228V13.124Z" fill="black"/>
</svg>
