<svg width="28" height="28" viewBox="0 0 28 28" fill="none" xmlns="http://www.w3.org/2000/svg">
<path fill-rule="evenodd" clip-rule="evenodd" d="M9.78599 6.2821L19.072 9.74772V21.3791L9.78044 25.1492L0.5 21.2225V9.74772L9.78599 6.2821ZM1.88453 10.7088V20.305L9.79154 23.6505L17.6874 20.4467V10.7088L9.78599 7.75991L1.88453 10.7088Z" fill="black"/>
<path fill-rule="evenodd" clip-rule="evenodd" d="M9.09383 7.02101H10.4784V17.1014L18.6304 20.2676L18.1292 21.5582L9.09383 18.0489V7.02101Z" fill="black"/>
<path fill-rule="evenodd" clip-rule="evenodd" d="M0.951447 20.1149L9.54517 16.9263L10.0268 18.2244L1.43308 21.413L0.951447 20.1149Z" fill="black"/>
<path fill-rule="evenodd" clip-rule="evenodd" d="M11.6019 11.3167L15.6605 12.845V20.5777L11.6019 19.0211V11.3167ZM12.9865 13.3175V18.0692L14.2759 18.5638V13.8031L12.9865 13.3175Z" fill="black"/>
<path fill-rule="evenodd" clip-rule="evenodd" d="M8.08085 11.6136V16.1236L3.41374 17.7938V13.2839L8.08085 11.6136ZM4.79827 14.2589V15.8278L6.69632 15.1486V13.5796L4.79827 14.2589Z" fill="black"/>
<path fill-rule="evenodd" clip-rule="evenodd" d="M18.3803 3L27.5 6.43025V17.9282L18.3852 21.6591L9.24153 18.0659V6.42988L18.3803 3ZM10.6261 7.38908V17.1224L18.3747 20.1674L26.1155 16.9989V7.38871L18.3797 4.47903L10.6261 7.38908Z" fill="black"/>
<path fill-rule="evenodd" clip-rule="evenodd" d="M17.6873 3.73952H19.0718V13.7084L27.0585 16.8185L26.5561 18.1087L17.6873 14.6551V3.73952Z" fill="black"/>
<path fill-rule="evenodd" clip-rule="evenodd" d="M20.14 7.97416L24.1616 9.50974V17.1452L20.14 15.6096V7.97416ZM21.5245 9.98483V14.6563L22.7771 15.1345V10.4631L21.5245 9.98483Z" fill="black"/>
</svg>
