<svg width="28" height="28" viewBox="0 0 28 28" fill="none" xmlns="http://www.w3.org/2000/svg">
<path fill-rule="evenodd" clip-rule="evenodd" d="M14.1772 20.5228C9.87679 20.4095 5.592 21.0859 1.53451 22.5186L1.01767 21.055C5.25086 19.5602 9.72111 18.8538 14.2078 18.9709C18.365 18.9718 21.3983 19.5104 23.4085 20.0586C24.4141 20.3328 25.1625 20.6091 25.6665 20.8209C25.9185 20.9267 26.1093 21.0164 26.2404 21.0816C26.306 21.1142 26.3567 21.1407 26.3926 21.1599C26.4106 21.1696 26.4249 21.1774 26.4356 21.1833L26.4488 21.1908L26.4534 21.1934L26.4552 21.1944L26.4559 21.1948C26.4563 21.195 26.4566 21.1952 26.0693 21.8678C25.682 22.5403 25.6823 22.5405 25.6825 22.5407L25.6813 22.54C25.6776 22.5379 25.6702 22.5338 25.6592 22.5279C25.6372 22.5162 25.6008 22.4971 25.5496 22.4717C25.4474 22.4209 25.2865 22.3449 25.0653 22.2519C24.6229 22.066 23.9388 21.8121 23.0001 21.5561C21.1235 21.0444 18.2243 20.5231 14.1976 20.5231H14.1874L14.1772 20.5228Z" fill="black"/>
<path fill-rule="evenodd" clip-rule="evenodd" d="M4.05424 6.95711C2.95024 6.95711 2.05222 7.85462 2.05222 8.96552C2.05222 10.0764 2.95024 10.9739 4.05424 10.9739C5.15824 10.9739 6.05626 10.0764 6.05626 8.96552C6.05626 7.85462 5.15824 6.95711 4.05424 6.95711ZM0.5 8.96552C0.5 7.00072 2.08961 5.40489 4.05424 5.40489C6.01887 5.40489 7.60848 7.00072 7.60848 8.96552C7.60848 10.9303 6.01887 12.5261 4.05424 12.5261C2.08961 12.5261 0.5 10.9303 0.5 8.96552Z" fill="black"/>
<path fill-rule="evenodd" clip-rule="evenodd" d="M19.1723 11.7198C19.5824 11.8447 19.8135 12.2784 19.6886 12.6884L17.4596 20.0059C17.3347 20.4159 16.9011 20.6471 16.4911 20.5222C16.081 20.3973 15.8499 19.9636 15.9748 19.5536L18.2038 12.2361C18.3287 11.8261 18.7623 11.5949 19.1723 11.7198Z" fill="black"/>
<path fill-rule="evenodd" clip-rule="evenodd" d="M12.6869 9.24598L25.9406 13.2896C25.9255 13.0551 25.8859 12.7893 25.8163 12.4958C25.6528 11.806 25.3382 11.0287 24.879 10.2662C23.9554 8.73279 22.5045 7.35007 20.6661 6.81235C18.8196 6.27225 16.8368 6.62817 15.2179 7.38387C14.4129 7.75968 13.7219 8.22381 13.206 8.69579C12.9965 8.88753 12.8244 9.07268 12.6869 9.24598ZM14.5613 5.97735C16.4192 5.1101 18.7974 4.64848 21.1019 5.32255C23.4146 5.99901 25.1456 7.70031 26.2087 9.46539C26.7428 10.3522 27.1228 11.2778 27.3267 12.1376C27.5268 12.9818 27.5736 13.8325 27.3605 14.5334C27.3006 14.7305 27.1648 14.8957 26.983 14.9926C26.8013 15.0895 26.5885 15.1101 26.3915 15.05L11.3217 10.4523C11.1248 10.3922 10.9598 10.2563 10.863 10.0745C10.7663 9.89276 10.7458 9.67999 10.806 9.48307C11.0164 8.7949 11.5275 8.12773 12.1582 7.55063C12.8018 6.96173 13.628 6.41303 14.5613 5.97735Z" fill="black"/>
<path fill-rule="evenodd" clip-rule="evenodd" d="M21.604 5.92315C21.6656 6.34734 21.3717 6.74115 20.9475 6.80277C19.5951 6.99922 18.547 7.99739 17.7988 9.08507C17.4332 9.61652 17.1617 10.1375 16.9817 10.5267C16.8921 10.7205 16.8261 10.8794 16.7832 10.9879C16.7618 11.0421 16.7463 11.0835 16.7365 11.1101L16.7261 11.1388L16.7244 11.1437C16.5849 11.5488 16.1434 11.7647 15.7381 11.6254C15.3328 11.4861 15.1171 11.0446 15.2564 10.6392L15.9904 10.8914C15.2564 10.6392 15.2563 10.6395 15.2564 10.6392L15.2573 10.6365L15.2588 10.6323L15.2635 10.619C15.2673 10.6081 15.2727 10.5931 15.2797 10.5743C15.2935 10.5367 15.3134 10.4838 15.3396 10.4175C15.392 10.285 15.4695 10.0986 15.5729 9.87504C15.779 9.42948 16.0921 8.82737 16.5199 8.20535C17.3587 6.98609 18.7333 5.55589 20.7244 5.26667C21.1486 5.20506 21.5424 5.49897 21.604 5.92315Z" fill="black"/>
<path fill-rule="evenodd" clip-rule="evenodd" d="M19.9896 5.52865C20.2691 5.20368 20.7591 5.1668 21.0841 5.4463C22.5938 6.74467 22.9246 8.69537 22.931 10.1656C22.9343 10.9181 22.8533 11.5934 22.7723 12.0792C22.7316 12.3231 22.6905 12.5217 22.659 12.6614C22.6433 12.7314 22.6299 12.7867 22.6201 12.8258C22.6152 12.8453 22.6112 12.8608 22.6083 12.872L22.6047 12.8856L22.6035 12.89L22.6031 12.8915C22.603 12.8918 22.6028 12.8927 21.854 12.6884L22.6028 12.8927C22.49 13.3062 22.0634 13.55 21.6498 13.4372C21.2366 13.3245 20.9929 12.8984 21.105 12.4852C21.1051 12.485 21.105 12.4853 21.105 12.4852L21.1053 12.4842L21.1067 12.4789L21.1143 12.449C21.1213 12.4211 21.1319 12.3776 21.1448 12.3202C21.1706 12.2054 21.2059 12.0356 21.2412 11.8239C21.3121 11.3986 21.3816 10.8142 21.3788 10.1724C21.373 8.85408 21.0659 7.47792 20.072 6.62315C19.747 6.34365 19.7101 5.85363 19.9896 5.52865Z" fill="black"/>
</svg>
