<svg width="28" height="28" viewBox="0 0 28 28" fill="none" xmlns="http://www.w3.org/2000/svg">
<path fill-rule="evenodd" clip-rule="evenodd" d="M14.0001 17.9862C12.9182 17.9862 11.8641 18.3312 10.9905 18.9716L9.90849 19.7647L8.3222 17.6006L9.40424 16.8075C10.7377 15.8301 12.3473 15.303 14.0001 15.303C15.6529 15.303 17.2626 15.8301 18.596 16.8075L19.6781 17.6006L18.0918 19.7647L17.0097 18.9716C16.1361 18.3312 15.082 17.9862 14.0001 17.9862Z" fill="black"/>
<path fill-rule="evenodd" clip-rule="evenodd" d="M14.0001 12.8334C11.4065 12.8334 8.87877 13.653 6.77669 15.1759L5.69024 15.963L4.11606 13.7901L5.2025 13.003C7.76213 11.1486 10.8407 10.1502 14.0001 10.1502C17.1594 10.1502 20.238 11.1486 22.7976 13.003L23.8841 13.7901L22.3099 15.963L21.2234 15.1759C19.1213 13.653 16.5936 12.8334 14.0001 12.8334Z" fill="black"/>
<path fill-rule="evenodd" clip-rule="evenodd" d="M14 7.68319C10.1066 7.68319 6.31319 8.91976 3.16493 11.2155L2.08094 12.006L0.5 9.83803L1.58399 9.04756C5.19107 6.4172 9.53797 5 14 5C18.462 5 22.8089 6.4172 26.416 9.04756L27.5 9.83803L25.9191 12.006L24.8351 11.2155C21.6868 8.91976 17.8934 7.68319 14 7.68319Z" fill="black"/>
<path d="M14.0099 23.9449C14.8936 23.9449 15.61 23.2272 15.61 22.3419C15.61 21.4566 14.8936 20.7388 14.0099 20.7388C13.1262 20.7388 12.4098 21.4566 12.4098 22.3419C12.4098 23.2272 13.1262 23.9449 14.0099 23.9449Z" fill="black"/>
</svg>
