<svg width="28" height="28" viewBox="0 0 28 28" fill="none" xmlns="http://www.w3.org/2000/svg">
<path fill-rule="evenodd" clip-rule="evenodd" d="M24.2914 9.47418C23.4127 8.88669 22.1699 8.60096 20.8304 8.60096V6.78586C22.3827 6.78586 24.0209 7.10992 25.3003 7.96524C26.6269 8.85222 27.5 10.2709 27.5 12.2451C27.5 14.2192 26.6269 15.6379 25.3003 16.5249C24.0209 17.3802 22.3827 17.7043 20.8304 17.7043V15.8892C22.1699 15.8892 23.4127 15.6034 24.2914 15.016C25.1228 14.4601 25.6849 13.603 25.6849 12.2451C25.6849 10.8871 25.1228 10.03 24.2914 9.47418Z" fill="black"/>
<path fill-rule="evenodd" clip-rule="evenodd" d="M0.5 5H22.2771V5.90755C22.2771 8.11489 22.2764 10.2649 22.1149 12.2292C21.9536 14.1919 21.6281 16.0331 20.946 17.6159C20.2557 19.2178 19.1986 20.5573 17.5996 21.4823C16.0155 22.3987 13.9733 22.8657 11.3778 22.8657C8.78231 22.8657 6.74115 22.3987 5.1588 21.482C3.56153 20.5566 2.50717 19.2166 1.81981 17.6146C1.14067 16.0317 0.817958 14.1906 0.658757 12.2282C0.499996 10.2713 0.499998 8.12969 0.5 5.93109V5ZM2.31553 6.81511C2.31812 8.69783 2.33658 10.4625 2.46792 12.0815C2.62029 13.9596 2.92072 15.5771 3.48786 16.8989C4.04677 18.2015 4.86183 19.2122 6.06869 19.9114C7.29046 20.6192 8.98814 21.0506 11.3778 21.0506C13.7674 21.0506 15.4667 20.6192 16.6907 19.9111C17.9 19.2116 18.7177 18.2004 19.2791 16.8976C19.8487 15.5757 20.1516 13.9583 20.3059 12.0805C20.4389 10.4619 20.4586 8.69743 20.4615 6.81511H2.31553Z" fill="black"/>
</svg>
