<svg width="25" height="25" viewBox="0 0 25 25" fill="none" xmlns="http://www.w3.org/2000/svg">
<path d="M4.19017 5.39911C4.19017 5.36828 4.19017 5.34657 4.19017 5.32373C4.19017 4.99021 4.18573 4.65783 4.19165 4.32431C4.20496 3.58417 4.64867 3.04163 5.4784 2.68298C5.73427 2.57333 6.01677 2.51394 6.31109 2.50823C6.7267 2.50023 7.14379 2.49566 7.56087 2.50594C8.15692 2.52079 8.65091 2.71839 9.06652 3.04049C9.50135 3.37744 9.71877 3.78748 9.72764 4.26149C9.73504 4.61557 9.7306 4.96965 9.7306 5.32373C9.7306 5.34657 9.7306 5.36827 9.7306 5.39569C11.5764 5.39569 13.4163 5.39569 15.2666 5.39569C15.2666 5.37399 15.2666 5.35228 15.2666 5.33058C15.2666 4.99592 15.2607 4.66012 15.2681 4.32545C15.2858 3.54648 15.765 2.99023 16.6613 2.64529C16.8876 2.55848 17.1346 2.5128 17.389 2.50823C17.8046 2.50137 18.2217 2.49566 18.6388 2.50709C19.2393 2.52193 19.7377 2.72296 20.1548 3.04963C20.6088 3.40485 20.81 3.8366 20.8085 4.33002C20.807 4.66126 20.8085 4.99249 20.8085 5.32373C20.8085 5.34657 20.8085 5.36828 20.8085 5.39911C20.8425 5.39911 20.8721 5.39911 20.9002 5.39911C21.48 5.39911 22.0583 5.4014 22.6381 5.39911C23.5284 5.39455 24.2532 5.89482 24.4395 6.47848C24.4795 6.60298 24.4972 6.73434 24.4972 6.86226C24.5002 11.6503 24.5016 16.4373 24.4972 21.2253C24.4972 21.8512 24.1038 22.3024 23.3805 22.5788C23.172 22.6588 22.9442 22.6816 22.7135 22.6885C22.6795 22.6896 22.644 22.6896 22.61 22.6896C15.8715 22.6896 9.1316 22.6873 2.39315 22.6919C1.48799 22.6919 0.755872 22.2007 0.563598 21.6171C0.520706 21.4857 0.505916 21.3464 0.505916 21.2105C0.5 18.0649 0.5 14.9193 0.5 11.7748C0.5 10.1392 0.5 8.50473 0.5 6.86911C0.5 6.32657 0.809117 5.91196 1.37854 5.60814C1.67435 5.45051 2.01304 5.39911 2.36801 5.39911C2.94187 5.39911 3.51721 5.39911 4.09108 5.39911C4.12066 5.39911 4.15024 5.39911 4.19017 5.39911ZM22.6499 9.7303C15.8789 9.7303 9.11533 9.7303 2.35174 9.7303C2.35174 13.5761 2.35174 17.4184 2.35174 21.2596C9.12124 21.2596 15.8834 21.2596 22.6499 21.2596C22.6499 17.415 22.6499 13.5749 22.6499 9.7303ZM18.9612 5.95879C18.9612 5.42424 18.9612 4.8897 18.9612 4.35401C18.9612 4.10501 18.7911 3.9748 18.4672 3.97366C18.3075 3.97366 18.1463 3.97252 17.9865 3.97366C17.8209 3.9748 17.6552 3.97023 17.4911 3.98051C17.3003 3.99193 17.1642 4.09359 17.1272 4.23865C17.1169 4.27977 17.1139 4.32203 17.1139 4.36315C17.1139 5.42082 17.1139 6.47963 17.1139 7.5373C17.1139 7.55671 17.1139 7.57499 17.1154 7.59441C17.1287 7.78401 17.2855 7.91194 17.531 7.92221C17.6937 7.92907 17.8564 7.92564 18.0191 7.92564C18.2039 7.9245 18.3888 7.92907 18.5737 7.91879C18.7408 7.90965 18.868 7.84112 18.9272 7.71776C18.9523 7.66408 18.9612 7.6024 18.9612 7.54415C18.9627 7.0176 18.9612 6.48762 18.9612 5.95879ZM7.8833 5.95422C7.8833 5.41739 7.8833 4.88056 7.8833 4.34373C7.8833 4.10844 7.71173 3.9748 7.40705 3.97366C7.10829 3.97252 6.811 3.97137 6.51224 3.97366C6.20904 3.97594 6.03599 4.10958 6.03599 4.34487C6.03599 5.41396 6.03599 6.4842 6.03599 7.55329C6.03599 7.79086 6.20904 7.9245 6.51668 7.92564C6.73114 7.92678 6.9456 7.92678 7.16005 7.92564C7.27394 7.92564 7.38782 7.92793 7.50023 7.91879C7.6999 7.90394 7.83893 7.8 7.87295 7.64695C7.88182 7.60925 7.8833 7.57156 7.8833 7.53387C7.88478 7.0096 7.8833 6.48191 7.8833 5.95422Z" fill="black"/>
</svg>
