<svg width="28" height="28" viewBox="0 0 28 28" fill="none" xmlns="http://www.w3.org/2000/svg">
<path fill-rule="evenodd" clip-rule="evenodd" d="M8.99231 14.2775H18.9767L22.0485 20.3716H5.92047L8.99231 14.2775ZM9.92503 15.7921L8.38016 18.857H19.5888L18.0439 15.7921H9.92503Z" fill="black"/>
<path fill-rule="evenodd" clip-rule="evenodd" d="M4.20709 10.4317C3.69483 10.4317 3.31041 10.8326 3.31041 11.2896C3.31041 11.7466 3.69483 12.1475 4.20709 12.1475C4.71935 12.1475 5.10377 11.7466 5.10377 11.2896C5.10377 10.8326 4.71935 10.4317 4.20709 10.4317ZM1.79575 11.2896C1.79575 9.96241 2.89237 8.917 4.20709 8.917C5.52181 8.917 6.61844 9.96241 6.61844 11.2896C6.61844 12.6167 5.52181 13.6622 4.20709 13.6622C2.89237 13.6622 1.79575 12.6167 1.79575 11.2896Z" fill="black"/>
<path fill-rule="evenodd" clip-rule="evenodd" d="M23.7635 11.0178C23.3115 11.0178 22.9759 11.371 22.9759 11.7692C22.9759 12.1674 23.3115 12.5206 23.7635 12.5206C24.2155 12.5206 24.5511 12.1674 24.5511 11.7692C24.5511 11.371 24.2155 11.0178 23.7635 11.0178ZM21.4612 11.7692C21.4612 10.5008 22.509 9.50312 23.7635 9.50312C25.018 9.50312 26.0658 10.5008 26.0658 11.7692C26.0658 13.0376 25.018 14.0353 23.7635 14.0353C22.509 14.0353 21.4612 13.0376 21.4612 11.7692Z" fill="black"/>
<path fill-rule="evenodd" clip-rule="evenodd" d="M4.39516 12.9433L4.463 12.9483C5.034 12.991 5.59099 13.1455 6.10082 13.4034C6.61069 13.6612 7.06343 14.0173 7.43138 14.4513C7.79938 14.8854 8.07494 15.3884 8.24071 15.9308C8.40648 16.4731 8.4588 17.043 8.39432 17.606L8.31744 18.2771H0.606739L0.528151 17.6082C0.463186 17.0552 0.510948 16.4952 0.668473 15.9607C0.825987 15.4263 1.08992 14.9287 1.44417 14.4963C1.79839 14.0639 2.2358 13.7053 2.73057 13.4403C3.22531 13.1754 3.76803 13.0091 4.32751 12.9504L4.39516 12.9433ZM4.41801 14.4647C4.07653 14.5088 3.74678 14.6143 3.4456 14.7756C3.12461 14.9475 2.84284 15.1791 2.61587 15.4561C2.38894 15.7331 2.22117 16.0503 2.12134 16.389C2.08515 16.5117 2.05813 16.6366 2.04033 16.7625H6.87937C6.86032 16.6312 6.83123 16.5012 6.79219 16.3735C6.68712 16.0297 6.5119 15.709 6.27603 15.4308C6.04013 15.1525 5.74829 14.9224 5.4173 14.755C5.10636 14.5978 4.76727 14.4992 4.41801 14.4647Z" fill="black"/>
<path fill-rule="evenodd" clip-rule="evenodd" d="M23.7618 13.2083L23.8411 13.2164C24.9085 13.3259 25.8926 13.8437 26.5762 14.6629C27.2605 15.4828 27.5872 16.5374 27.48 17.5961L27.4111 18.2771H20.1352L20.0659 17.5965C19.9584 16.5412 20.2821 15.4897 20.9616 14.6704C21.6407 13.8517 22.6192 13.3316 23.6826 13.2169L23.7618 13.2083ZM23.7659 14.7325C23.1195 14.8221 22.5344 15.1467 22.1274 15.6374C21.854 15.9671 21.6748 16.3548 21.6 16.7625H25.9453C25.8699 16.353 25.6891 15.9638 25.4134 15.6334C25.0035 15.1423 24.4149 14.8189 23.7659 14.7325Z" fill="black"/>
<path fill-rule="evenodd" clip-rule="evenodd" d="M13.9848 8.51466C13.5327 8.51466 13.1971 8.86792 13.1971 9.26608C13.1971 9.66424 13.5327 10.0175 13.9848 10.0175C14.4368 10.0175 14.7724 9.66424 14.7724 9.26608C14.7724 8.86792 14.4368 8.51466 13.9848 8.51466ZM11.6825 9.26608C11.6825 7.99773 12.7303 7 13.9848 7C15.2393 7 16.2871 7.99773 16.2871 9.26608C16.2871 10.5344 15.2393 11.5322 13.9848 11.5322C12.7303 11.5322 11.6825 10.5344 11.6825 9.26608Z" fill="black"/>
<path fill-rule="evenodd" clip-rule="evenodd" d="M13.9845 10.7231L14.0657 10.7319C15.1291 10.8466 16.1076 11.3667 16.7866 12.1854C17.4662 13.0047 17.7898 14.0562 17.6824 15.1115L17.6131 15.7921H10.3334L10.2679 15.1069C10.1668 14.0505 10.4953 13.0002 11.1777 12.1825C11.8596 11.3654 12.8392 10.8466 13.9032 10.7319L13.9845 10.7231ZM13.9844 12.2478C13.3367 12.3379 12.7501 12.6624 12.3406 13.153C12.0658 13.4823 11.8846 13.8696 11.8072 14.2775H16.1483C16.0735 13.8698 15.8943 13.4821 15.6208 13.1524C15.2143 12.6622 14.63 12.3377 13.9844 12.2478Z" fill="black"/>
</svg>
