<svg width="28" height="28" viewBox="0 0 28 28" fill="none" xmlns="http://www.w3.org/2000/svg">
<path fill-rule="evenodd" clip-rule="evenodd" d="M0.5 13.1072H27.5V20.9029H0.5V13.1072ZM2.32396 14.9311V19.0789H25.676V14.9311H2.32396Z" fill="black"/>
<path fill-rule="evenodd" clip-rule="evenodd" d="M2.37653 5H25.6459V15.0144H2.37653V5ZM4.20048 6.82396V13.1905H23.822V6.82396H4.20048Z" fill="black"/>
<path fill-rule="evenodd" clip-rule="evenodd" d="M2.37653 23.1014V19.9911H4.20048V23.1014H2.37653Z" fill="black"/>
<path fill-rule="evenodd" clip-rule="evenodd" d="M23.8 23.1014V19.9911H25.6239V23.1014H23.8Z" fill="black"/>
<path fill-rule="evenodd" clip-rule="evenodd" d="M5.12402 9.72733H13.5156V14.9933H5.12402V9.72733ZM6.94798 11.5513V13.1694H11.6917V11.5513H6.94798Z" fill="black"/>
<path fill-rule="evenodd" clip-rule="evenodd" d="M14.5511 9.72733H22.9427V14.9933H14.5511V9.72733ZM16.375 11.5513V13.1694H21.1187V11.5513H16.375Z" fill="black"/>
</svg>
