<svg width="24" height="24" viewBox="0 0 24 24" fill="none" xmlns="http://www.w3.org/2000/svg">
<rect width="24" height="24" fill="white"/>
<path fill-rule="evenodd" clip-rule="evenodd" d="M12 0.702191C5.76039 0.702191 0.702191 5.76039 0.702191 12C0.702191 18.2396 5.76039 23.2978 12 23.2978C18.2396 23.2978 23.2978 18.2396 23.2978 12C23.2978 5.76039 18.2396 0.702191 12 0.702191ZM0 12C0 5.37258 5.37258 0 12 0C18.6274 0 24 5.37258 24 12C24 18.6274 18.6274 24 12 24C5.37258 24 0 18.6274 0 12Z" fill="black"/>
<path d="M17.2371 12.9703L14.9469 12.1294C14.8459 12.097 14.7449 12.0647 14.6438 12.0323C15.3848 11.062 15.89 9.67115 15.89 7.98921C15.89 4.88408 14.6438 3.42856 11.9831 3.42856C9.32247 3.42856 8.07633 4.88408 8.07633 7.98921C8.07633 9.60646 8.54784 10.9973 9.28879 11.9676C9.01935 12.0323 8.74992 12.1294 8.51416 12.2264L6.72915 12.938C4.87678 13.6819 3.42856 15.2345 3.42856 16.4959V18.5337C3.42856 18.7278 3.59696 18.8571 3.76535 18.8571C3.96743 18.8571 4.10215 18.6954 4.10215 18.5337V16.4959C4.10215 15.5256 5.41565 14.1671 6.9649 13.5525L8.74992 12.841C9.05303 12.7116 9.38983 12.6145 9.7603 12.5499C10.4339 13.1968 11.2085 13.5525 11.9831 13.5525C12.7241 13.5525 13.4987 13.1968 14.1386 12.5822C14.3407 12.6469 14.5091 12.6792 14.7112 12.7439L17.0014 13.5849C18.5506 14.1671 19.8978 15.4609 19.8978 16.4313V18.469C19.8978 18.6631 20.0662 18.7924 20.2346 18.7924C20.403 18.7924 20.5714 18.6307 20.5714 18.469V16.4313C20.5714 15.2021 19.0895 13.6819 17.2371 12.9703ZM11.9831 12.8733C10.6696 12.8733 8.7836 11.1267 8.7836 7.98921C8.7836 4.56063 10.4002 4.1078 11.9831 4.1078C13.5661 4.1078 15.1827 4.56063 15.1827 7.98921C15.1827 11.1267 13.2966 12.8733 11.9831 12.8733Z" fill="black"/>
</svg>
