<svg width="24" height="24" viewBox="0 0 24 24" fill="none" xmlns="http://www.w3.org/2000/svg">
<path fill-rule="evenodd" clip-rule="evenodd" d="M12 1.17293C6.02038 1.17293 1.17293 6.02038 1.17293 12C1.17293 17.9796 6.02038 22.8271 12 22.8271C17.9796 22.8271 22.8271 17.9796 22.8271 12C22.8271 6.02038 17.9796 1.17293 12 1.17293ZM0.5 12C0.5 5.64873 5.64873 0.5 12 0.5C18.3513 0.5 23.5 5.64873 23.5 12C23.5 18.3513 18.3513 23.5 12 23.5C5.64873 23.5 0.5 18.3513 0.5 12Z" fill="black"/>
<path d="M17.0189 12.9299L14.8242 12.124C14.7273 12.093 14.6305 12.062 14.5337 12.031C15.2437 11.1011 15.7279 9.76819 15.7279 8.15633C15.7279 5.18058 14.5337 3.78571 11.9839 3.78571C9.43404 3.78571 8.23982 5.18058 8.23982 8.15633C8.23982 9.70619 8.69168 11.0391 9.40176 11.969C9.14355 12.031 8.88534 12.124 8.65941 12.217L6.94877 12.8989C5.17358 13.6119 3.78571 15.0997 3.78571 16.3086V18.2614C3.78571 18.4474 3.94709 18.5714 4.10847 18.5714C4.30212 18.5714 4.43123 18.4164 4.43123 18.2614V16.3086C4.43123 15.3787 5.69 14.0768 7.1747 13.4879L8.88534 12.8059C9.17583 12.6819 9.49859 12.5889 9.85363 12.5269C10.4991 13.1469 11.2415 13.4879 11.9839 13.4879C12.6939 13.4879 13.4363 13.1469 14.0495 12.5579C14.2432 12.6199 14.4046 12.6509 14.5982 12.7129L16.793 13.5189C18.2777 14.0768 19.5688 15.3167 19.5688 16.2466V18.1995C19.5688 18.3854 19.7301 18.5094 19.8915 18.5094C20.0529 18.5094 20.2143 18.3544 20.2143 18.1995V16.2466C20.2143 15.0687 18.7941 13.6119 17.0189 12.9299ZM11.9839 12.8369C10.7251 12.8369 8.91762 11.1631 8.91762 8.15633C8.91762 4.87061 10.4669 4.43665 11.9839 4.43665C13.5008 4.43665 15.0501 4.87061 15.0501 8.15633C15.0501 11.1631 13.2426 12.8369 11.9839 12.8369Z" fill="black"/>
</svg>
