<svg width="28" height="28" viewBox="0 0 28 28" fill="none" xmlns="http://www.w3.org/2000/svg">
<path fill-rule="evenodd" clip-rule="evenodd" d="M5.49054 9.1262C4.65636 10.5812 4.16642 12.2099 4.0589 13.8862C3.95137 15.5625 4.22917 17.2411 4.87063 18.7919C5.51209 20.3427 6.4999 21.7239 7.75724 22.8288C9.01456 23.9336 10.5077 24.7325 12.1209 25.1639C13.7341 25.5953 15.4244 25.6477 17.0609 25.3171C18.6974 24.9864 20.2366 24.2816 21.5592 23.2569C22.8818 22.2321 23.9524 20.9148 24.6877 19.4068C25.423 17.8988 25.8032 16.2406 25.7987 14.5608L25.7987 14.5596C25.7965 12.8471 25.4004 11.1585 24.6415 9.62572L26.1661 8.87084C27.041 10.6379 27.4975 12.5841 27.5 14.5575L26.6493 14.5586L27.5 14.5563C27.5 14.5567 27.5 14.5571 27.5 14.5575C27.505 16.4965 27.066 18.4109 26.2169 20.1524C25.3675 21.8943 24.1305 23.4168 22.6012 24.6017C21.0719 25.7866 19.2915 26.6021 17.3978 26.9846C15.504 27.3672 13.548 27.3065 11.6814 26.8074C9.81479 26.3082 8.08786 25.3841 6.63425 24.1067C5.18066 22.8294 4.03941 21.2333 3.29854 19.4422C2.55768 17.6511 2.23697 15.7128 2.36112 13.7773C2.48527 11.8419 3.05096 9.9609 4.01463 8.28004L5.49054 9.1262Z" fill="black"/>
<path fill-rule="evenodd" clip-rule="evenodd" d="M9.25249 5.95278L7.40433 3.24717L8.80913 2.28757L10.6573 4.99318L9.25249 5.95278Z" fill="black"/>
<path fill-rule="evenodd" clip-rule="evenodd" d="M12.5777 4.55444L11.9148 1.34404L13.5809 1L14.2438 4.21039L12.5777 4.55444Z" fill="black"/>
<path fill-rule="evenodd" clip-rule="evenodd" d="M16.0078 4.23562L16.5703 1.02522L18.246 1.31882L17.6836 4.52922L16.0078 4.23562Z" fill="black"/>
<path fill-rule="evenodd" clip-rule="evenodd" d="M19.3483 5.13947L21.0156 2.3329L22.4783 3.20184L20.8109 6.00841L19.3483 5.13947Z" fill="black"/>
<path fill-rule="evenodd" clip-rule="evenodd" d="M22.039 6.98221L24.3894 4.70061L25.5743 5.92132L23.224 8.20292L22.039 6.98221Z" fill="black"/>
<path fill-rule="evenodd" clip-rule="evenodd" d="M5.84878 6.48842L7.87216 11.5368L6.29301 12.1697L4.9013 8.69736L1.12979 10.2003L0.5 8.61989L5.84878 6.48842Z" fill="black"/>
<path d="M15.2431 18.1178V19.4652H9.84331V18.3934L12.5994 15.7905C12.892 15.5115 13.0893 15.2733 13.1914 15.0759C13.2935 14.8718 13.3445 14.671 13.3445 14.4737C13.3445 14.1879 13.2458 13.9701 13.0485 13.8204C12.858 13.6639 12.5755 13.5856 12.2013 13.5856C11.8882 13.5856 11.6058 13.6469 11.354 13.7694C11.1022 13.8851 10.8913 14.062 10.7212 14.3002L9.51666 13.5244C9.79567 13.1093 10.1802 12.786 10.6701 12.5547C11.1601 12.3165 11.7215 12.1974 12.3544 12.1974C12.8852 12.1974 13.3479 12.2859 13.7426 12.4628C14.1441 12.6329 14.4537 12.8779 14.6715 13.1977C14.8961 13.5108 15.0084 13.8816 15.0084 14.3104C15.0084 14.6983 14.9267 15.0623 14.7634 15.4026C14.6 15.7428 14.2836 16.1307 13.8141 16.5662L12.1706 18.1178H15.2431Z" fill="black"/>
<path d="M22.3688 17.9647H21.2052V19.4652H19.5924V17.9647H15.7441V16.8521L19.1126 12.3199H20.8479L17.7244 16.6173H19.6434V15.2801H21.2052V16.6173H22.3688V17.9647Z" fill="black"/>
</svg>
