<svg width="28" height="28" viewBox="0 0 28 28" fill="none" xmlns="http://www.w3.org/2000/svg">
<path fill-rule="evenodd" clip-rule="evenodd" d="M2.68113 5.32255C3.16878 5.32255 3.56411 5.71787 3.56411 6.20552V23.9394C3.56411 24.427 3.16878 24.8224 2.68113 24.8224C2.19348 24.8224 1.79816 24.427 1.79816 23.9394V6.20552C1.79816 5.71787 2.19348 5.32255 2.68113 5.32255Z" fill="black"/>
<path fill-rule="evenodd" clip-rule="evenodd" d="M25.3193 5.32269C25.8069 5.32269 26.2023 5.71802 26.2023 6.20567V23.9395C26.2023 24.4272 25.8069 24.8225 25.3193 24.8225C24.8316 24.8225 24.4363 24.4272 24.4363 23.9395V6.20567C24.4363 5.71802 24.8316 5.32269 25.3193 5.32269Z" fill="black"/>
<path fill-rule="evenodd" clip-rule="evenodd" d="M25.3754 10.5194H2.88779V8.7534H25.3754V10.5194Z" fill="black"/>
<path fill-rule="evenodd" clip-rule="evenodd" d="M25.3754 19.8925H2.88779V18.1265H25.3754V19.8925Z" fill="black"/>
<path d="M2.68107 7.34911C3.88564 7.34911 4.86214 6.37553 4.86214 5.17455C4.86214 3.97358 3.88564 3 2.68107 3C1.4765 3 0.5 3.97358 0.5 5.17455C0.5 6.37553 1.4765 7.34911 2.68107 7.34911Z" fill="black"/>
<path d="M25.3189 7.34911C26.5235 7.34911 27.5 6.37553 27.5 5.17455C27.5 3.97358 26.5235 3 25.3189 3C24.1144 3 23.1379 3.97358 23.1379 5.17455C23.1379 6.37553 24.1144 7.34911 25.3189 7.34911Z" fill="black"/>
<path fill-rule="evenodd" clip-rule="evenodd" d="M7.60779 19.0092V9.63611H9.37374V19.0092H7.60779Z" fill="black"/>
<path fill-rule="evenodd" clip-rule="evenodd" d="M13.2488 19.0092V9.63611H15.0148V19.0092H13.2488Z" fill="black"/>
<path fill-rule="evenodd" clip-rule="evenodd" d="M18.8894 19.0092V9.63611H20.6554V19.0092H18.8894Z" fill="black"/>
</svg>
