<svg width="28" height="28" viewBox="0 0 28 28" fill="none" xmlns="http://www.w3.org/2000/svg">
<path fill-rule="evenodd" clip-rule="evenodd" d="M6.7456 2.07468C6.35644 2.07468 6.07468 2.37915 6.07468 2.71354V25.2865C6.07468 25.6209 6.35644 25.9253 6.7456 25.9253H21.114C21.5032 25.9253 21.7849 25.6209 21.7849 25.2865V2.71354C21.7849 2.37914 21.5032 2.07468 21.114 2.07468H6.7456ZM4 2.71354C4 1.19646 5.24786 0 6.7456 0H21.114C22.6117 0 23.8596 1.19646 23.8596 2.71354V25.2865C23.8596 26.8035 22.6117 28 21.114 28H6.7456C5.24786 28 4 26.8035 4 25.2865V2.71354Z" fill="black"/>
<path fill-rule="evenodd" clip-rule="evenodd" d="M23.1829 5.55746H5.39797V3.48278H23.1829V5.55746Z" fill="black"/>
<path fill-rule="evenodd" clip-rule="evenodd" d="M23.1829 24.2002H5.39797V22.1255H23.1829V24.2002Z" fill="black"/>
<path fill-rule="evenodd" clip-rule="evenodd" d="M19.1641 10.7359L11.8133 17.9488L8.69518 14.8892L10.1482 13.4084L11.8133 15.0422L17.711 9.25509L19.1641 10.7359Z" fill="black"/>
</svg>
