<svg width="25" height="25" viewBox="0 0 25 25" fill="none" xmlns="http://www.w3.org/2000/svg">
<path d="M14.6788 5.72468C16.1467 7.20028 17.629 8.69038 19.0968 10.1696C15.3388 13.9474 11.57 17.7361 7.81922 21.5103C6.35136 20.0347 4.86547 18.5446 3.3904 17.0654C7.14119 13.2948 10.91 9.50975 14.6788 5.72468Z" fill="black"/>
<path d="M15.849 4.48813C16.3972 3.93705 16.9454 3.38234 17.5044 2.83126C17.6847 2.65361 17.865 2.4687 18.0742 2.33093C18.7883 1.85599 19.7512 1.88499 20.3824 2.46508C21.1361 3.16118 21.8683 3.88992 22.5679 4.64766C23.1594 5.28575 23.1377 6.11238 22.5391 6.7541C21.8286 7.50821 21.082 8.2297 20.3499 8.96206C20.3391 8.97293 20.3211 8.98019 20.3138 8.98381C18.8316 7.48646 17.3493 5.99636 15.849 4.48813Z" fill="black"/>
<path d="M2.11873 18.3483C3.5938 19.8276 5.06526 21.3104 6.54394 22.7969C6.12197 22.902 5.67837 23.0108 5.23837 23.1196C4.07347 23.4024 2.90495 23.6851 1.74004 23.9716C1.20628 24.1021 0.906934 23.812 1.02595 23.2718C1.383 21.6476 1.74365 20.0197 2.1043 18.3955C2.11151 18.3701 2.11873 18.3483 2.11873 18.3483Z" fill="black"/>
</svg>
