<svg width="28" height="28" viewBox="0 0 28 28" fill="none" xmlns="http://www.w3.org/2000/svg">
<path fill-rule="evenodd" clip-rule="evenodd" d="M12.5735 5.89083C12.8709 5.68875 13.2613 5.68766 13.5599 5.88807L25.3888 13.828C25.7108 14.0441 25.8537 14.4454 25.7407 14.8165C25.6277 15.1875 25.2854 15.4411 24.8976 15.4411H21.3186V13.6784H22.0032L13.0717 7.68329L4.24702 13.6784H4.79862V15.4411H1.38139C0.994444 15.4411 0.652755 15.1887 0.539006 14.8188C0.425258 14.449 0.56606 14.0482 0.886133 13.8307L12.5735 5.89083Z" fill="black"/>
<path fill-rule="evenodd" clip-rule="evenodd" d="M11.0168 2.66147C11.0171 2.66608 11.0173 2.67068 11.0174 2.67527C11.0174 2.67648 11.0174 2.67713 11.0174 2.67718L11.0174 2.67717C11.0174 2.67708 11.0174 2.67578 11.0173 2.67319L11.0171 2.66794L11.017 2.66446L11.0169 2.66251L11.0168 2.66147ZM13.2635 3.52036C12.8072 4.20095 12.4619 4.94718 12.2406 5.73247C12.1086 6.20096 12.3814 6.68778 12.8499 6.8198C13.3184 6.95183 13.8052 6.67906 13.9372 6.21057C14.1082 5.60386 14.3756 5.0259 14.7304 4.49759L14.7305 4.49764L14.7368 4.48802C15.1893 3.79493 15.4362 2.74396 15.1441 1.8C14.9908 1.30455 14.6851 0.834215 14.1859 0.496147C13.6924 0.161919 13.074 0 12.361 0C10.9224 0 10.0561 0.592655 9.61477 1.35257C9.41302 1.69993 9.32536 2.03976 9.2866 2.28703C9.26697 2.41232 9.25904 2.51924 9.25619 2.59922C9.25476 2.63939 9.2546 2.6733 9.25494 2.69993C9.25512 2.71326 9.25542 2.72482 9.25575 2.73448L9.25627 2.74756L9.25653 2.75302L9.25666 2.75548L9.25672 2.75664C9.25675 2.7572 9.25678 2.75775 10.1368 2.70908L9.25678 2.75775C9.28367 3.24375 9.69944 3.61594 10.1854 3.58906C10.6665 3.56245 11.036 3.15485 11.0174 2.67527C11.0174 2.67289 11.0175 2.66835 11.0177 2.66186C11.0184 2.64189 11.0208 2.60602 11.028 2.55995C11.043 2.46452 11.0753 2.34741 11.139 2.23784C11.2284 2.08387 11.4743 1.76265 12.361 1.76265C12.8107 1.76265 13.0617 1.86359 13.1975 1.9556C13.3277 2.04376 13.4113 2.16302 13.4602 2.32104C13.5721 2.68256 13.4764 3.19134 13.2635 3.52036Z" fill="black"/>
<path fill-rule="evenodd" clip-rule="evenodd" d="M4.56415 12.1625C4.56415 11.6758 4.95873 11.2812 5.44547 11.2812H20.8331C21.3198 11.2812 21.7144 11.6758 21.7144 12.1625V27.1187C21.7144 27.6054 21.3198 28 20.8331 28H5.44547C4.95873 28 4.56415 27.6054 4.56415 27.1187V12.1625ZM6.3268 13.0439V26.2373H19.9518V13.0439H6.3268Z" fill="black"/>
</svg>
