<svg xmlns="http://www.w3.org/2000/svg" width="64" height="64" viewBox="0 0 64 64"><g fill="#005473" fill-rule="evenodd"><path fill-rule="nonzero" d="M32 0C14.358 0 0 14.358 0 32s14.358 32 32 32 32-14.358 32-32S49.642 0 32 0zm0 61.555C15.686 61.555 2.445 48.28 2.445 32S15.72 2.445 32 2.445C48.314 2.445 61.555 15.72 61.555 32S48.28 61.555 32 61.555z"/><path fill-rule="nonzero" d="M17.607 18.725c.873.838 1.712 1.677 2.585 2.515.908.873 1.782 1.747 2.655 2.585 0 0 0 .035.035.035-.105.664-.21 1.328-.35 1.991-.07.315-.104.63-.174.944-.21 1.152-.384 2.34-.594 3.458l-.21 1.223v.14c-.034.803.315 1.467.874 1.851.594.35 1.327.35 2.026 0a844.68 844.68 0 0 0 6.708-3.528s.035 0 .035-.035c0 0 .034 0 .034.035l4.193 2.2 2.41 1.258c.21.105.629.35 1.153.35.35 0 .699-.105 1.083-.35.978-.664.803-1.746.733-2.096l-.174-.943c-.35-2.096-.734-4.262-1.118-6.393v-.07l.07-.07.07-.07c1.746-1.677 3.563-3.388 5.275-5.135.419-.42.698-1.153.664-1.782-.035-.419-.245-1.362-1.747-1.607-1.013-.14-1.991-.28-3.005-.419-1.432-.21-2.934-.42-4.401-.629-.14 0-.175-.035-.175-.035s-.035-.035-.07-.104c-.559-1.153-1.153-2.341-1.712-3.494-.524-1.013-1.013-2.061-1.537-3.074-.174-.385-.629-1.293-1.816-1.328-1.223-.035-1.712.978-1.887 1.328-1.188 2.41-2.236 4.576-3.249 6.568-.035.034-.07.104-.105.14-.593.104-1.152.174-1.781.279-.315.035-.629.07-.943.14l-.56.07c-1.432.209-2.934.418-4.366.663-.594.105-1.118.42-1.433.908-.244.42-.314.874-.174 1.328.314.42.699.873.978 1.153zm1.048-1.782c1.432-.244 2.935-.454 4.367-.664l.559-.07c.314-.035.594-.07.908-.14.629-.07 1.293-.174 1.956-.314.56-.104 1.014-.594 1.258-1.048a295.037 295.037 0 0 0 3.249-6.567c.175-.35.21-.35.28-.35h.07s.07.07.209.35c.489 1.048 1.013 2.06 1.537 3.109.559 1.153 1.153 2.305 1.712 3.493.314.664.803 1.013 1.572 1.118 1.467.21 2.934.42 4.367.629 1.013.14 1.99.28 3.004.42.105 0 .175.034.245.034-.035.14-.105.314-.175.384-1.712 1.747-3.528 3.459-5.275 5.136l-.07.07c-.49.489-.699 1.013-.559 1.711a495.04 495.04 0 0 1 1.118 6.393l.175.944c.035.279.035.349 0 .384-.07.035-.105.07-.455-.105l-2.41-1.258c-1.397-.733-2.795-1.467-4.157-2.2-.594-.315-1.153-.315-1.712 0a844.677 844.677 0 0 1-6.708 3.528c-.174.105-.279.07-.279.07s-.07-.105-.07-.28l.21-1.152c.174-1.118.384-2.271.594-3.459.07-.314.105-.629.174-.908.14-.699.245-1.433.35-2.166.07-.56-.21-1.118-.524-1.433a192.913 192.913 0 0 0-2.69-2.62c-.874-.838-1.712-1.676-2.585-2.515a1.323 1.323 0 0 1-.35-.454c-.035-.035.035-.07.105-.07z"/><path d="M41.293 47.72c-1.503.28-2.97.56-4.472.804-1.083.21-2.166.49-3.284.524-2.34.07-4.681 0-7.022.035-2.864.035-5.59-.384-8.174-1.816-2.061-1.153-4.227-2.132-6.323-3.18-.909-.454-1.433-1.362-1.293-2.27.21-1.677 1.816-2.55 3.354-1.782 1.362.664 2.69 1.362 4.052 2.026 1.223.63 2.515.908 3.878.908h9.782c.349-.07.593-.279.628-.663.035-.384-.14-.664-.524-.804-.175-.07-.384-.07-.594-.07h-5.869c-1.327-.035-2.34-1.257-2.13-2.55.174-1.223 1.082-1.991 2.375-1.991 1.782 0 3.563.035 5.31 0a9.705 9.705 0 0 1 5.03 1.258c.804.454 1.642.838 2.48 1.187a8.121 8.121 0 0 0 3.04.594v-1.432c-.699-.14-1.432-.21-2.061-.454a36.909 36.909 0 0 1-3.18-1.433c-1.222-.628-2.48-1.152-3.842-1.152-2.41-.035-4.82-.035-7.231 0-1.782.035-3.389 1.676-3.494 3.458-.07.943.175 1.782.699 2.585a6.728 6.728 0 0 1-3.633-.698c-1.398-.7-2.76-1.398-4.192-2.097-1.538-.733-3.424-.349-4.507.909-1.642 1.921-1.083 4.786 1.188 5.939 2.41 1.222 4.82 2.375 7.196 3.633 1.957 1.013 4.018 1.467 6.184 1.502 2.69.07 5.38.035 8.035 0 .803 0 1.572-.07 2.375-.175 2.061-.349 4.123-.733 6.149-1.118.104-.034.28-.174.28-.279.034-.42 0-.838 0-1.258-.036-.14-.106-.174-.21-.14zm4.401 2.83c-.803 0-1.013-.21-1.013-.978V37.799c0-.734.245-.978.978-.978h3.529v-1.502H45.38c-1.293 0-2.27.978-2.27 2.27v12.227c0 1.188.907 2.201 2.06 2.271 1.328.07 2.655 0 4.018 0V50.55h-3.494z"/></g></svg>