<svg width="64" height="64" viewBox="0 0 64 64" fill="none" xmlns="http://www.w3.org/2000/svg"><path fill-rule="evenodd" clip-rule="evenodd" d="M50.69 11.055c.963-.14 1.96-.04 2.628.627.685.684.748 1.694.579 2.637-.176.985-.646 2.175-1.401 3.546-1.473 2.676-4.137 6.232-8.31 10.622l4.124 18.214c.481 1.522.713 2.997.655 4.195-.029.602-.133 1.187-.356 1.685-.225.502-.608.99-1.22 1.218-1.084.408-2.131-.236-2.833-.882-.616-.567-1.216-1.353-1.753-2.272l-.055.015-7.377-13.773c-3.572 3.107-7.069 5.825-9.963 7.797l.2 5.725c.079.64.054 1.283-.079 1.838-.12.506-.395 1.196-1.03 1.537-.709.386-1.397.108-1.813-.258a2.461 2.461 0 0 1-.353-.39l-.129.061-2.53-6.616c-.07-.108-.237-.33-.596-.687-.35-.348-.57-.513-.681-.585l-6.622-2.529.06-.127a2.461 2.461 0 0 1-.389-.35c-.364-.413-.648-1.098-.268-1.81.34-.638 1.034-.914 1.54-1.035a5.255 5.255 0 0 1 1.84-.077l5.638.194c1.941-2.925 4.628-6.463 7.702-10.06l-13.616-7.288.018-.056c-.91-.533-1.688-1.127-2.252-1.738-.646-.7-1.297-1.748-.886-2.836v-.001c.23-.61.719-.991 1.221-1.216.498-.222 1.084-.326 1.686-.355 1.2-.058 2.675.173 4.197.655l17.912 4.047c4.495-4.287 8.14-6.935 10.885-8.36 1.407-.732 2.624-1.167 3.626-1.312zM14.496 41.68l4.338 1.657a1.927 1.927 0 0 1 .493.2c.295.166.67.452 1.16.94.49.487.777.858.945 1.148a1.921 1.921 0 0 1 .206.495l1.666 4.358.045-.021.299.843c.01-.206.001-.435-.03-.675l-.007-.05-.241-6.93.463-.31c3.138-2.099 7.12-5.199 11.16-8.778l.947-.839 7.809 14.578.062-.018.374.731c.563 1.098 1.18 1.936 1.724 2.437.486.447.73.473.778.477a.552.552 0 0 0 .096-.159c.086-.192.162-.508.184-.963.043-.905-.136-2.151-.577-3.532l-.013-.042-4.38-19.345.373-.389c4.324-4.505 6.973-8.05 8.372-10.591.703-1.276 1.063-2.25 1.185-2.934.061-.34.056-.57.03-.713a.509.509 0 0 0-.05-.152l-.002-.003a.145.145 0 0 0-.038-.025.615.615 0 0 0-.15-.047c-.155-.032-.395-.043-.742.008-.698.1-1.692.43-2.99 1.106-2.59 1.346-6.211 3.966-10.81 8.4l-.389.374-19.046-4.303-.042-.013c-1.38-.442-2.627-.62-3.534-.577-.455.022-.772.098-.966.184a.57.57 0 0 0-.16.097c.005.054.038.297.478.773.504.546 1.342 1.162 2.439 1.723l.75.385-.019.062 14.362 7.687-.825.946c-3.538 4.062-6.6 8.09-8.663 11.26l-.308.474-6.861-.236-.05-.007a3.775 3.775 0 0 0-.659-.032l.836.292-.022.049z" fill="#fff"/></svg>