<svg width="96" height="96" viewBox="0 0 96 96" fill="none" xmlns="http://www.w3.org/2000/svg"><path fill-rule="evenodd" clip-rule="evenodd" d="M48.026 0c-.49 0-.979.186-1.353.56L37.62 9.584a1.917 1.917 0 0 0 2.707 2.715l1.31-1.307v13.654c0 1.059.859 1.917 1.917 1.917h8.942a1.917 1.917 0 0 0 1.917-1.917V10.993l1.31 1.307a1.917 1.917 0 1 0 2.708-2.715L49.399.578A1.91 1.91 0 0 0 48.027 0M45.47 7.563V22.73h5.109V7.562l-2.554-2.8-2.555 2.8zm2.556 20.303L82.05 40.397v42.009L48.01 96 14 81.857v-41.46l34.026-12.531zM17.833 77.832L46.109 67.47V32.657L17.834 43.071v34.762zm30.18-6.979L21.18 80.69 48.04 91.86l26.832-10.716-17.804-6.82-1.566-.59v-.01l-7.489-2.87zm30.203 7.466l-8.896-3.408V51.829l-13.818-5.106v22.895l-5.56-2.13v-34.83L78.217 43.07V78.32zm-18.88-26.093V71.08l6.15 2.312V54.5l-6.15-2.272zm-18.33 10.815v-15.24L24.892 53.42v15.242l16.117-5.62zm-12.282.223v-7.121l8.449-2.945v7.12l-8.449 2.946z" fill="#005473"/></svg>