<svg width="96" height="96" viewBox="0 0 96 96" fill="none" xmlns="http://www.w3.org/2000/svg"><path fill-rule="evenodd" clip-rule="evenodd" d="M53.929 25.523c2.407-.686 5.19-1.599 7.805-2.743 3.273-1.431 6.583-3.35 8.415-5.874.95-1.309 1.55-2.85 1.458-4.58-.091-1.719-.854-3.396-2.2-5.015-1.348-1.62-2.861-2.678-4.534-3.103-1.682-.428-3.318-.162-4.806.489-2.875 1.257-5.45 4.061-7.533 6.933-2.127 2.93-3.93 6.2-5.194 8.712l-.068.135-.069-.135c-1.263-2.512-3.067-5.781-5.194-8.712-2.083-2.872-4.658-5.676-7.533-6.933-1.488-.651-3.124-.917-4.806-.49-1.673.426-3.186 1.484-4.534 3.104-1.346 1.62-2.109 3.296-2.2 5.015-.093 1.73.508 3.271 1.459 4.58 1.831 2.524 5.141 4.443 8.414 5.874 2.616 1.144 5.399 2.057 7.805 2.743H9v17.843h4.703v48.632h24.522V92H56.94v-.002h24.525V43.366h4.703V25.523h-32.24zm-9.45-2.659a79.944 79.944 0 0 0-.456-.922c-1.221-2.427-2.926-5.508-4.895-8.22-2.012-2.773-4.12-4.906-6.079-5.763-.929-.406-1.747-.492-2.502-.3-.764.194-1.672.725-2.673 1.929-1.003 1.206-1.343 2.176-1.383 2.928-.04.74.2 1.492.785 2.3 1.24 1.708 3.787 3.315 6.96 4.702 3.1 1.357 6.516 2.386 9.182 3.078.37.096.725.186 1.062.268zm8.902 6.22H41.785v59.353h11.596V29.083zm3.56 59.353h20.965V43.366H56.941v45.071zm0-48.632V29.083h25.667v10.722H56.941zM38.225 88.437V43.366H17.263v45.071h20.962zm0-48.632V29.083H12.56v10.722h25.665zm12.9-17.209c-.37.096-.725.186-1.061.268.143-.293.295-.602.456-.922 1.221-2.427 2.926-5.508 4.895-8.22 2.012-2.773 4.12-4.906 6.079-5.763.929-.406 1.747-.492 2.502-.3.765.194 1.672.725 2.673 1.929 1.003 1.206 1.343 2.176 1.383 2.928.04.74-.2 1.492-.785 2.3-1.24 1.708-3.787 3.315-6.96 4.702-3.1 1.357-6.516 2.386-9.182 3.078z" fill="#005473"/></svg>