<svg width="96" height="96" viewBox="0 0 96 96" fill="none" xmlns="http://www.w3.org/2000/svg"><path d="M82.142 61.435h-4.666v-9.602H20.818v9.568H16.05v-1.907c0-7.903.034-15.841 0-23.745-.033-3.362 1.108-5.928 4.028-7.591.403-.243.705-1.11.705-1.664.067-5.13.034-10.296.034-15.426 0-4.957 2.92-8.042 7.72-8.042a8193.9 8193.9 0 0 1 41.285 0c4.666 0 7.62 3.085 7.653 7.938.034 5.13.034 10.295 0 15.426 0 .936.1 1.56 1.04 2.045 2.25 1.213 3.592 3.293 3.626 5.858.067 8.978 0 17.956 0 27.142zM20.75 46.807h56.692V36.13c0-3.327-.604-3.951-3.792-3.951H24.51c-.57 0-1.142-.035-1.679.07-1.309.242-2.114 1.074-2.114 2.495 0 3.986.033 7.973.033 12.063zm51.893-19.481c.033-.59.067-1.11.067-1.595V11.345c0-2.807-.739-3.535-3.525-3.535H28.94c-.436 0-.906-.035-1.342.034-1.242.174-2.148.936-2.148 2.253-.034 5.72 0 11.405 0 17.229h4.766v-6.413c0-2.496.671-3.259 3.054-3.259h31.518c2.417 0 3.122.728 3.122 3.19.033 2.114 0 4.263 0 6.482h4.733zm-9.399-4.75H34.915v4.75h28.33v-4.75z" fill="#005473"/><path d="M13.418 69.876h-2.061v5.119H10.07v-5.12H8V68.84h5.418v1.035zM20.036 68.84v6.155H18.75v-2.593h-2.713v2.593h-1.287V68.84h1.287v2.527h2.713V68.84h1.287zM26.668 73.96v1.035h-4.746V68.84h4.616v1.035h-3.33v1.53h2.621v.988h-2.62v1.567h3.46zM36.52 74.995h-1.474l-2.154-3.618-.531-1.035h-.01l.038 1.09v3.563h-1.156V68.84h1.464l2.154 3.61.531 1.043h.019l-.038-1.09V68.84h1.157v6.155zM43.572 72.57c0 .833-.224 1.461-.672 1.884-.441.423-1.094.634-1.958.634-.864 0-1.52-.211-1.968-.634-.44-.423-.661-1.05-.661-1.884v-3.73h1.286v3.674c0 .516.11.899.327 1.147.223.249.562.373 1.016.373.454 0 .79-.124 1.007-.373.218-.248.327-.63.327-1.147V68.84h1.296v3.73zM52.046 74.995H50.89v-3.208l.056-1.8h-.019l-1.706 5.008h-1.054l-1.697-5.008h-.018l.065 1.8v3.208H45.35V68.84h1.865l1.11 3.357.391 1.39h.02l.4-1.38 1.1-3.367h1.81v6.155zM53.927 68.84h2.694c.734 0 1.281.147 1.642.439.36.286.54.7.54 1.24 0 .342-.102.64-.307.895-.205.249-.494.404-.867.466v.01c.422.062.749.223.979.484.236.255.354.566.354.933 0 .535-.193.951-.578 1.25-.386.292-.942.438-1.67.438h-2.787V68.84zm2.517 2.583c.684 0 1.026-.264 1.026-.792 0-.529-.342-.793-1.026-.793h-1.268v1.585h1.268zm.159 2.602c.342 0 .597-.068.764-.205.175-.143.262-.345.262-.606s-.087-.46-.261-.597c-.168-.137-.423-.205-.765-.205h-1.427v1.613h1.427zM65.218 73.96v1.035H60.47V68.84h4.616v1.035h-3.329v1.53h2.62v.988h-2.62v1.567h3.46zM69.076 72.636H67.92v2.359h-1.268V68.84h2.713c.703 0 1.25.168 1.642.504.397.33.596.796.596 1.399 0 .441-.108.81-.326 1.11-.218.298-.528.512-.932.643l1.622 2.499h-1.445l-1.446-2.36zm-1.156-.98h1.278c.373 0 .646-.071.82-.214.18-.15.27-.376.27-.68 0-.305-.09-.53-.27-.672-.174-.15-.447-.224-.82-.224H67.92v1.79zM79.057 68.747c.603 0 1.125.128 1.567.382.447.255.79.622 1.026 1.1.242.473.363 1.036.363 1.689 0 .652-.121 1.218-.364 1.697a2.524 2.524 0 0 1-1.025 1.09c-.442.256-.964.383-1.567.383s-1.128-.127-1.576-.382a2.58 2.58 0 0 1-1.035-1.091c-.236-.479-.354-1.045-.354-1.697 0-.653.118-1.216.354-1.688a2.569 2.569 0 0 1 1.035-1.1c.448-.255.973-.383 1.576-.383zm0 1.054c-.522 0-.926.183-1.212.55-.28.36-.42.883-.42 1.567 0 .683.14 1.209.42 1.575.286.361.69.541 1.212.541.516 0 .914-.18 1.194-.54.286-.367.429-.893.429-1.576 0-.684-.143-1.206-.43-1.567-.279-.367-.677-.55-1.193-.55zM84.878 69.876v1.557h2.62v1.044h-2.62v2.518H83.59V68.84h4.606v1.035h-3.32zM21.372 92.796h-3.214l-4.7-7.893-1.16-2.259h-.02l.081 2.38v7.772H9.837V79.37h3.194l4.7 7.873 1.16 2.279h.04l-.082-2.38v-7.772h2.523v13.427zM28.295 92.796h-2.808V79.37h2.808v13.427zM44.033 85.696v7.1h-2.055l-.061-1.607C41.103 92.396 39.781 93 37.95 93c-1.235 0-2.32-.271-3.256-.814-.935-.542-1.668-1.329-2.197-2.36-.515-1.044-.773-2.285-.773-3.723 0-1.424.265-2.658.794-3.703.542-1.044 1.302-1.844 2.278-2.4.99-.556 2.143-.835 3.459-.835 1.451 0 2.631.265 3.54.794.922.529 1.648 1.363 2.177 2.502l-2.584 1.12c-.203-.692-.576-1.215-1.119-1.567-.529-.367-1.173-.55-1.933-.55-1.166 0-2.075.4-2.726 1.2-.651.801-.977 1.94-.977 3.419 0 1.532.32 2.692.957 3.479.637.786 1.573 1.18 2.807 1.18.95 0 1.723-.224 2.32-.672.596-.46.895-1.125.895-1.993v-.306h-3.927v-2.075h6.348zM59.244 79.369v13.427h-2.808v-5.655h-5.92v5.655h-2.808V79.37h2.808v5.513h5.92V79.37h2.808zM73.979 81.627h-4.496v11.17h-2.808v-11.17h-4.517V79.37h11.82v2.258zM81.409 79.165c1.248 0 2.32.21 3.214.631.896.407 1.682 1.058 2.36 1.953l-1.932 1.892c-.353-.732-.82-1.275-1.404-1.627-.583-.367-1.323-.55-2.218-.55-.814 0-1.444.156-1.892.468-.434.299-.65.699-.65 1.2 0 .462.223.828.67 1.1.448.27 1.255.508 2.422.711 1.22.231 2.19.516 2.909.855.719.339 1.241.766 1.566 1.282.34.502.51 1.132.51 1.892 0 .827-.238 1.546-.713 2.156-.461.597-1.112 1.058-1.953 1.384-.827.325-1.777.488-2.848.488-1.479 0-2.693-.204-3.642-.61a5.43 5.43 0 0 1-2.279-1.892l1.669-1.994c.501.827 1.078 1.404 1.729 1.73.65.311 1.458.467 2.42.467.869 0 1.527-.136 1.974-.407.462-.271.692-.658.692-1.16 0-.366-.217-.67-.651-.915-.42-.244-1.18-.475-2.279-.692-1.261-.258-2.271-.563-3.031-.915-.746-.353-1.289-.787-1.628-1.302-.339-.516-.508-1.153-.508-1.913 0-.8.217-1.519.65-2.156.435-.651 1.066-1.16 1.893-1.526.84-.366 1.824-.55 2.95-.55z" fill="#BC9764"/></svg>