<svg width="160" height="160" viewBox="0 0 160 160" fill="none" xmlns="http://www.w3.org/2000/svg"><path fill="#fff" d="M0 0h160v160H0z"/><g clip-path="url(#clip0)"><path d="M27 69.429V67.82c.257-.825.418-1.714.804-2.475 1.21-2.4 3.235-3.621 5.882-4.007 4.585-.653 9.16-1.393 13.746-2.089 4.072-.621 8.143-1.254 12.214-1.854.783-.117 1.275-.492 1.608-1.221 1.5-3.257 3.021-6.493 4.542-9.74 2.347-5.024 4.704-10.039 7.04-15.064.846-1.81 2.143-3.15 4.018-3.867.578-.225 1.189-.343 1.789-.504h1.714c.086.032.16.075.247.086 2.507.418 4.307 1.789 5.432 4.05.3.61.578 1.221.868 1.843 3.632 7.757 7.275 15.514 10.896 23.282.3.643.718.996 1.446 1.093 2.1.289 4.2.632 6.29.953 6.696 1.029 13.393 2.047 20.089 3.097 3.118.492 5.164 2.26 6.096 5.282.118.375.183.76.279 1.135v1.608c-.332 1.907-1.254 3.46-2.614 4.842-6.332 6.461-12.622 12.965-18.943 19.447-.472.482-.686.986-.568 1.682.493 2.904.954 5.807 1.425 8.711 1.029 6.332 2.036 12.675 3.096 18.996.665 4.007-1.425 7.564-5.164 8.625-.343.097-.675.182-1.018.268h-1.821c-.964-.354-1.982-.6-2.872-1.093a4832.97 4832.97 0 0 1-23.014-12.75c-.696-.386-1.296-.396-2.003-.011-6.6 3.675-13.2 7.35-19.833 10.983-2.067 1.157-4.017 2.635-6.492 2.871h-.858c-.192-.032-.375-.086-.567-.107-3.9-.439-6.836-4.211-6.247-8.079.536-3.546 1.136-7.082 1.714-10.618.954-5.882 1.897-11.753 2.883-17.635.139-.825-.097-1.393-.654-1.961-6.418-6.557-12.804-13.146-19.2-19.714-.943-.965-1.64-2.068-1.993-3.365-.096-.364-.171-.728-.257-1.092zm80.132 56.732c1.093-.011 1.714-.804 1.554-1.768-.579-3.589-1.168-7.179-1.747-10.779-.921-5.646-1.81-11.303-2.764-16.95-.461-2.732.193-5.068 2.154-7.06 6.428-6.579 12.825-13.179 19.242-19.768.472-.493.74-1.018.504-1.682-.225-.654-.739-.9-1.393-.997-3.739-.557-7.478-1.136-11.218-1.714-4.896-.75-9.793-1.543-14.7-2.24-3.085-.439-5.153-2.035-6.45-4.874-2.443-5.39-5.003-10.725-7.51-16.093-1.308-2.797-2.615-5.593-3.922-8.379-.386-.814-.868-1.093-1.64-.986-.61.086-.9.504-1.135 1.018-1.96 4.2-3.932 8.4-5.893 12.6-1.928 4.115-3.846 8.24-5.785 12.354-1.147 2.443-3.075 3.868-5.754 4.275l-9.257 1.414c-5.69.879-11.39 1.757-17.079 2.625-.653.097-1.168.322-1.403.975-.247.675 0 1.2.482 1.693 2.207 2.26 4.414 4.532 6.61 6.793 4.243 4.36 8.486 8.732 12.74 13.093 1.79 1.843 2.507 4.018 2.1 6.557-.214 1.36-.44 2.71-.654 4.071a8403.214 8403.214 0 0 1-2.625 16.104l-1.318 8.025c-.096.578.097 1.061.568 1.414.45.332.954.375 1.468.139.182-.085.354-.182.525-.267 7.607-4.222 15.225-8.433 22.832-12.665 2.572-1.435 5.1-1.435 7.682 0 7.65 4.265 15.311 8.497 22.972 12.74.3.15.643.267.814.332z" fill="#005473"/></g><defs><clipPath id="clip0"><path fill="#fff" transform="translate(27 27)" d="M0 0h105v105H0z"/></clipPath></defs></svg>