<svg width="64" height="64" viewBox="0 0 64 64" fill="none" xmlns="http://www.w3.org/2000/svg"><path fill-rule="evenodd" clip-rule="evenodd" d="M10.416 16h35.73v20.34a12.3 12.3 0 0 1-.909 4.64c-.6 1.473-1.48 2.811-2.59 3.94a11.955 11.955 0 0 1-3.882 2.635c-1.453.612-3.01.926-4.584.926H22.38a11.876 11.876 0 0 1-8.466-3.562 12.235 12.235 0 0 1-3.498-8.58V16zm2 2v18.34c0 2.694 1.053 5.276 2.924 7.177a9.876 9.876 0 0 0 7.04 2.964h11.802c1.306 0 2.6-.26 3.807-.77a9.955 9.955 0 0 0 3.233-2.194 10.156 10.156 0 0 0 2.163-3.291 10.3 10.3 0 0 0 .76-3.887V18h-31.73z" fill="#fff"/><path fill-rule="evenodd" clip-rule="evenodd" d="M44.398 24.466c1.307-1.504 3.105-2.48 5.133-2.48 4.323 0 7.47 4.293 7.47 9.093s-3.148 9.09-7.47 9.09c-2.028 0-3.826-.976-5.133-2.48l-.245-.283V24.748l.245-.282zm1.755 1.046v11.131c.956.98 2.135 1.526 3.378 1.526 2.824 0 5.47-2.953 5.47-7.09 0-4.137-2.647-7.093-5.47-7.093-1.243 0-2.422.546-3.378 1.526zM7 47.69a1 1 0 0 1 1-1h42.577a1 1 0 1 1 0 2H8a1 1 0 0 1-1-1z" fill="#fff"/></svg>