<svg xmlns="http://www.w3.org/2000/svg" width="64" height="64" viewBox="0 0 64 64"><g fill="#005473" fill-rule="evenodd"><path fill-rule="nonzero" d="M32 0C14.358 0 0 14.358 0 32s14.358 32 32 32 32-14.358 32-32S49.642 0 32 0zm0 61.59c-16.314 0-29.555-13.276-29.555-29.555C2.445 15.72 15.72 2.48 32 2.48c16.314 0 29.555 13.275 29.555 29.555S48.28 61.59 32 61.59z"/><path d="M22.218 29.799c-.943 0-1.677.769-1.677 1.677a1.7 1.7 0 0 0 1.677 1.677 1.7 1.7 0 0 0 1.677-1.677c0-.908-.733-1.677-1.677-1.677z"/><path fill-rule="nonzero" d="M46.568 35.074v-3.563c.035-.384.035-1.991-1.223-3.354-.908-1.013-2.236-1.572-3.948-1.747V13.94c0-2.9-2.34-5.24-5.24-5.24H21.485c-2.9 0-5.24 2.34-5.24 5.24v35.424c0 2.899 2.34 5.24 5.24 5.24h14.672c2.795 0 5.1-2.236 5.24-4.996h3.39a4.204 4.204 0 0 0 4.191-4.192v-6.533c-.035-1.677-1.013-3.144-2.41-3.808zm-3.04-5.31c.664.699.594 1.572.594 1.572v3.319h-2.725v-5.8c.944.14 1.677.455 2.131.91zm-6.847 4.891V31.336c0-.035-.07-.908.56-1.572.418-.489 1.152-.768 2.095-.908v5.799h-2.655zm-.524 17.852H21.485a3.131 3.131 0 0 1-3.144-3.144V13.939a3.131 3.131 0 0 1 3.144-3.144h14.672a3.131 3.131 0 0 1 3.144 3.144V26.41c-1.711.175-3.039.77-3.912 1.747-1.188 1.363-1.153 2.935-1.153 3.354v3.354c-1.642.559-2.795 2.13-2.795 3.947v6.533a4.204 4.204 0 0 0 4.192 4.192h3.668c-.14 1.677-1.502 2.97-3.144 2.97z"/></g></svg>