<svg width="64" height="64" viewBox="0 0 64 64" fill="none" xmlns="http://www.w3.org/2000/svg"><path fill-rule="evenodd" clip-rule="evenodd" d="M22.373 9C20.576 9 19 10.586 19 12.696v28.096c0 2.11 1.576 3.696 3.373 3.696h19.963c1.797 0 3.373-1.586 3.373-3.696V12.696c0-2.11-1.576-3.696-3.373-3.696H22.373zM17 12.696C17 9.618 19.34 7 22.373 7h19.963c3.034 0 5.373 2.618 5.373 5.696v28.096c0 3.078-2.34 5.696-5.373 5.696H22.373c-3.034 0-5.373-2.618-5.373-5.696V12.696z" fill="#fff"/><path fill-rule="evenodd" clip-rule="evenodd" d="M24.836 35.38c-.943 0-1.734.782-1.734 1.778s.79 1.776 1.734 1.776c.943 0 1.734-.78 1.734-1.776s-.79-1.777-1.734-1.777zm-3.734 1.778c0-2.072 1.657-3.777 3.734-3.777s3.734 1.705 3.734 3.777c0 2.07-1.657 3.776-3.734 3.776s-3.734-1.705-3.734-3.776zM39.874 35.38c-.944 0-1.735.782-1.735 1.778s.791 1.776 1.735 1.776c.943 0 1.734-.78 1.734-1.776s-.791-1.777-1.734-1.777zm-3.735 1.778c0-2.072 1.658-3.777 3.735-3.777s3.734 1.705 3.734 3.777c0 2.07-1.657 3.776-3.734 3.776s-3.735-1.705-3.735-3.776zM17 16.72h30.71v14.495H17V16.72zm2 2v10.495h26.71V18.72H19z" fill="#fff"/><path fill-rule="evenodd" clip-rule="evenodd" d="M32.039 30.215V17.72h2v12.496h-2zM30.085 13.165a.144.144 0 0 0-.148.14v.498c0 .07.06.14.148.14h4.54c.088 0 .148-.07.148-.14v-.498c0-.07-.06-.14-.148-.14h-4.54zm-2.148.14c0-1.188.969-2.14 2.148-2.14h4.54c1.18 0 2.148.952 2.148 2.14v.498c0 1.188-.969 2.14-2.148 2.14h-4.54a2.144 2.144 0 0 1-2.148-2.14v-.498zM24.145 45.33a1 1 0 0 1 .915-.596h15.49a1 1 0 0 1 .915.596l4.387 9.958a1 1 0 0 1-.915 1.404H20.672a1 1 0 0 1-.915-1.404l4.388-9.958zm1.567 1.404l-3.507 7.958h21.199l-3.506-7.958H25.712z" fill="#fff"/><path fill-rule="evenodd" clip-rule="evenodd" d="M42.473 51.16H23.139v-2h19.334v2z" fill="#fff"/></svg>