<svg xmlns="http://www.w3.org/2000/svg" width="64" height="64" viewBox="0 0 64 64"><g fill="#005473" fill-rule="evenodd"><path d="M37.49 28.28a2.138 2.138 0 0 0-2.125 2.126v10.863c0 1.164.962 2.126 2.126 2.126h8.974c1.132 0 2.075-.932 2.125-2.143V30.406a2.138 2.138 0 0 0-2.125-2.126h-8.974zm-3.896 2.126a3.91 3.91 0 0 1 3.897-3.897h8.974a3.91 3.91 0 0 1 3.897 3.897v10.863l-.001.032c-.075 2.089-1.726 3.865-3.896 3.865h-8.974a3.91 3.91 0 0 1-3.897-3.897V30.406z"/><path d="M37.786 24.148c0-.49.396-.886.886-.886h6.553c.49 0 .886.397.886.886v3.247c0 .49-.397.886-.886.886h-6.553a.885.885 0 0 1-.886-.886v-3.247zm1.771.885v1.476h4.782v-1.476h-4.782zm-1.299 20.133a.709.709 0 1 0 0 1.417.709.709 0 0 0 0-1.417zm-2.48.708a2.48 2.48 0 1 1 4.96 0 2.48 2.48 0 0 1-4.96 0zm10.097-.708a.708.708 0 1 0 0 1.417.708.708 0 0 0 0-1.417zm-2.48.708a2.48 2.48 0 1 1 4.96 0 2.48 2.48 0 0 1-4.96 0zM28.103 33.89c0-.489.397-.885.886-.885h9.21a.886.886 0 1 1 0 1.771h-9.21a.886.886 0 0 1-.886-.886zm1.3 2.893c0-.489.396-.885.885-.885h7.911a.886.886 0 1 1 0 1.77h-7.911a.886.886 0 0 1-.886-.885zm1.475 2.893c0-.489.397-.885.886-.885h6.435a.886.886 0 1 1 0 1.771h-6.435a.886.886 0 0 1-.886-.886z"/><path d="M24.384 17.476c-6.065 0-10.982 4.917-10.982 10.982 0 6.064 4.917 10.981 10.982 10.981.785 0 1.546-.056 2.294-.216a.886.886 0 1 1 .371 1.732c-.905.194-1.797.255-2.665.255-7.043 0-12.753-5.71-12.753-12.752 0-7.043 5.71-12.753 12.753-12.753 2.54 0 4.884.762 6.839 1.96a.886.886 0 1 1-.926 1.51c-1.705-1.044-3.731-1.699-5.913-1.699z"/><path d="M24.207 17.83c.489 0 .885.397.885.886v1.299a.886.886 0 1 1-1.771 0v-1.3c0-.488.397-.885.886-.885zM13.875 29.225c0-.49.396-.886.885-.886h1.299a.886.886 0 1 1 0 1.772H14.76a.886.886 0 0 1-.885-.886zm10.332 6.849c.489 0 .885.396.885.885v1.3a.886.886 0 0 1-1.771 0v-1.3c0-.489.397-.885.886-.885zm0-14.406c.489 0 .885.396.885.885v6.145l3.51 2.393a.886.886 0 1 1-.998 1.463l-3.896-2.656a.885.885 0 0 1-.387-.732v-6.613c0-.489.397-.885.886-.885z"/><path d="M24.207 17.3a11.134 11.134 0 0 0-11.16 11.158c0 6.18 5.033 11.158 11.16 11.158 1 0 1.975-.11 2.879-.377a.886.886 0 0 1 .5 1.7c-1.103.324-2.253.449-3.38.449-7.098 0-12.93-5.767-12.93-12.93 0-7.16 5.77-12.93 12.93-12.93 3.736 0 7.163 1.583 9.514 4.189a.886.886 0 0 1-1.315 1.187c-2.017-2.236-4.967-3.605-8.198-3.605z"/><path d="M35.306 18.657c.49 0 .886.396.886.886v2.892c0 .49-.397.886-.886.886H32.59a.886.886 0 0 1 0-1.771h1.83v-2.007c0-.49.397-.886.886-.886z"/><path d="M32 2.952C15.957 2.952 2.952 15.957 2.952 32S15.957 61.048 32 61.048 61.048 48.043 61.048 32 48.043 2.952 32 2.952zM0 32C0 14.327 14.327 0 32 0c17.673 0 32 14.327 32 32 0 17.673-14.327 32-32 32C14.327 64 0 49.673 0 32z"/></g></svg>