<svg width="160" height="160" viewBox="0 0 160 160" fill="none" xmlns="http://www.w3.org/2000/svg"><path fill="#fff" d="M0 0h160v160H0z"/><path d="M35.66 106.433c-.344-3.291-.825-6.034-.825-8.777 0-2.058-.62-2.95-2.614-3.635C25.757 91.69 25 90.524 25 83.803c0-9.19 1.375-10.972 10.385-13.098 11.966-2.743 24.07-2.606 36.175-1.234.412.068.894.068 1.856.137V62.75 41.834c0-4.663.894-6.583 5.365-7.955 4.883-1.508 9.972-2.743 14.992-3.223 11.417-1.097 22.902-1.097 34.043 2.195 7.221 2.126 8.184 3.497 8.184 10.835v59.936c0 6.103-1.169 7.749-7.015 9.669-8.94 2.949-18.225 3.086-27.509 3.292-2.751.068-5.433 1.371-8.115 2.194-.413.137-.826.892-.826 1.303.138 4.869-3.438 6.378-7.083 7.612-9.491 3.155-19.326 3.772-29.16 3.018a114.945 114.945 0 0 1-19.257-3.086c-6.19-1.509-7.22-3.498-7.22-9.807 0-.548.068-1.166 0-1.714-.689-5.075 1.1-8.709 5.845-9.67zm95.457-60.827c-17.812 4.732-35.28 4.732-52.749-.069-1.375 8.161-.688 9.738 6.12 11.178 12.793 2.743 25.722 3.155 38.514.275 9.903-2.126 8.39-1.372 8.115-11.384zM78.024 59.938v3.635c0 5.83-.069 6.172 5.64 7.27 6.464 1.233 13.067 2.194 19.669 2.4 8.321.342 16.712-.275 24.689-3.155 1.307-.48 2.958-1.715 3.164-2.88.481-2.332.137-4.8.137-7.27-17.949 4.87-35.418 4.87-53.299 0zm53.299 14.264c-14.373 4.732-28.884 4.252-43.67 2.675 0 2.949-.138 5.486.068 7.955.069.754 1.17 1.989 1.857 2.057 11.898 1.097 23.796 1.577 35.487-1.371 6.19-1.51 6.121-1.646 6.19-8.024.068-.96.068-1.989.068-3.292zM30.158 78.248c8.047 6.378 46.697 6.172 52.611-.342-6.67-6.172-46.215-6.24-52.611.342zM130.98 40.394c0-.48.068-.96.068-1.44-1.581-.617-3.094-1.44-4.676-1.714-6.121-.96-12.173-2.126-18.363-2.4-8.94-.412-17.88-.07-26.477 2.948-1.17.412-2.132 1.166-3.233 1.783.138.412.207.755.344 1.166 17.537 4.938 35.006 5.349 52.337-.343zM97.762 92.307c-.619 2.263-.894 4.046 1.582 5.349 1.1.548 1.719 2.057 2.682 3.017.619.617 1.513 1.509 2.201 1.44 6.258-.411 12.654-.48 18.706-1.783 10.454-2.263 8.253-1.92 8.39-10.972 0-.206-.137-.343-.343-.686-10.729 3.772-21.939 3.909-33.218 3.635zm-58.044 6.172c-.55 4.046-.482 4.594 3.232 5.486 5.57 1.234 11.141 2.331 16.85 2.811 9.834.823 19.6.138 29.16-2.674 2.681-.823 4.882-2.126 3.438-5.555-17.537 4.801-35.006 4.732-52.68-.068zm-9.698-14.47c-1.031 2.949.07 4.869 3.095 5.486 5.158 1.029 10.247 2.194 15.474 2.674 10.179 1.03 20.357.343 30.26-2.4 2.751-.754 5.433-1.851 3.852-5.623-17.537 4.732-35.075 4.8-52.68-.137zm4.952 33.26c-1.238 3.703.481 5.349 3.783 6.24 9.972 2.675 20.081 3.36 30.26 2.332 5.433-.549 10.728-1.852 16.093-3.018 1.1-.205 1.994-1.234 2.957-1.92C69.84 122 52.235 122 34.972 117.269zm9.766-7.612c-.275.342-.619.617-.894.96 1.1.891 2.063 2.331 3.301 2.674 5.09 1.166 10.247 2.4 15.405 2.88 10.66.96 21.251.618 31.567-2.743 3.576-1.166 3.783-1.714 2.82-5.28-17.194 4.937-34.662 4.252-52.2 1.509zm86.585-5.692c-9.697 1.234-19.256 2.468-28.884 3.703v4.114c8.803.069 17.193-.411 25.377-2.948 2.82-.96 4.333-2.469 3.507-4.869zM93.085 92.581c-4.263-1.372-7.22-1.234-10.384.617-2.476 1.44-5.57 1.92-8.46 2.538-2.82.617-5.707.96-8.596 1.44 9.01-.206 18.156-.069 27.44-4.595z" fill="#005473"/></svg>