<svg width="160" height="160" viewBox="0 0 160 160" fill="none" xmlns="http://www.w3.org/2000/svg"><path fill="#fff" d="M0 0h160v160H0z"/><path d="M98.568 120.642c-2.754-1.985-4.543-.068-6.608 1.985-1.515 1.506-4.061 1.575-5.851.548-2.065-1.232-3.166-.616-4.405.958-.276.343-.689.753-1.102.822-4.474.547-8.466 2.806-12.734 3.833-4.13 1.027-7.365-1.78-8.328-6.229-.276-1.369-.689-1.78-2.066-2.054-3.441-.684-5.85-2.67-6.4-6.229-.207-1.506-.965-1.712-2.135-2.054-5.988-1.711-8.122-6.435-5.231-11.842.688-1.37.344-1.986-.344-2.944-3.717-4.86-6.333-10.268-8.122-16.087-1.033-3.217-3.167-5.476-5.438-7.803-.275-.343-.757-.754-1.101-.754-5.163.822-7.16-3.422-9.981-6.16-7.64-7.257-7.572-7.325-.138-14.65 6.608-6.503 13.147-13.006 19.755-19.509 3.373-3.286 5.782-3.286 9.086-.069 2.271 2.26 4.612 4.45 6.883 6.709.757.685 1.583 1.37 1.721 2.464.688 5.203 5.094 7.188 8.466 10.063 1.652 1.438 3.51 2.054 5.713.959.895-.411 2.066-.548 3.03-.411 2.408.342 4.267-.48 6.263-1.849 4.268-2.943 9.086-3.011 13.835-1.3 3.51 1.232 6.746 1.164 9.912-.548 1.652-.89 3.511-1.985 2.616-4.45-.069-.273.069-.684.137-1.026.551-2.67 10.394-12.253 13.148-12.801 1.652-.342 2.89.342 3.992 1.438 7.296 7.256 14.661 14.443 21.957 21.7 2.547 2.6 2.547 4.86-.068 7.461-2.823 2.807-5.782 5.545-8.742 8.283-.62.616-1.514 1.164-2.34 1.37-7.021 1.642-10.738 6.434-12.735 12.937-1.858 5.956-4.611 11.432-8.879 16.018-1.101 1.232-1.996 2.191-1.445 4.108.481 1.711 0 3.696-1.377 4.723-2.616 1.917-3.579 4.176-4.061 7.324-.413 3.286-3.304 4.587-6.883 5.066zm-25.882-63.73c-.068-.275-.068-.617-.137-.89-7.434 2.121-12.184-1.986-16.658-6.64-.069-.07-.137-.138-.206-.275-1.17-1.78-2.134-1.232-3.373.069-6.264 6.503-12.665 12.938-19.067 19.304-1.307 1.3-1.307 2.122 0 3.217 3.167 2.67 4.819 6.23 6.127 10.063 1.514 4.655 3.785 9.036 6.676 13.006 1.033 1.37 2.134 2.054 3.993 1.985 3.923-.068 6.952 2.191 7.778 5.888.344 1.574.757 2.122 2.409 2.532 3.373.753 5.713 2.875 6.126 6.504.138 1.095.482 1.642 1.652 1.779 3.992.548 6.264 2.944 7.09 6.846.481 2.396 2.133 2.19 3.648 1.232 1.927-1.301 1.858-2.875.137-4.518-4.749-4.655-9.43-9.31-14.18-13.965-1.032-1.026-1.995-2.19-.756-3.49 1.376-1.438 2.478-.206 3.441.821 4.406 4.312 8.811 8.693 13.216 13.006 1.928 1.917 3.855 3.902 5.92 5.75 1.17 1.095 2.478 1.164 3.717.069 1.17-1.096 1.239-2.396.344-3.697-.55-.821-1.308-1.574-2.065-2.259-4.818-4.723-9.705-9.378-14.455-14.17-1.239-1.232-3.58-2.533-1.858-4.45 1.858-2.122 3.166.411 4.336 1.575 3.58 3.354 7.09 6.845 10.6 10.268 3.098 3.012 6.195 6.092 9.293 9.104 1.445 1.37 3.097 1.643 4.612.274 1.652-1.506 1.514-3.217 0-4.792l-1.446-1.437-19.893-19.373c-1.032-1.026-2.133-2.122-.826-3.49 1.377-1.438 2.478-.138 3.51.752.414.343.827.822 1.24 1.164 5.85 5.613 11.701 11.295 17.552 16.908 1.515 1.506 3.235 2.601 5.025.753 1.79-1.78.826-3.491-.757-4.997-3.992-3.834-7.847-7.667-11.77-11.5-1.033-1.027-2.066-2.19-.895-3.491 1.239-1.37 2.478-.274 3.51.684 3.373 3.286 6.815 6.435 10.05 9.857 1.445 1.506 2.202 1.301 3.441-.137 3.717-4.312 6.539-9.104 7.778-14.649.758-3.422 2.341-6.092 4.887-8.351 1.446-1.3 2.685-2.875 4.199-4.039 1.515-1.232 1.17-1.985 0-3.217-5.369-5.134-10.669-10.405-15.9-15.608-1.101-1.095-1.79-1.643-3.373-.342-4.543 3.765-9.705 4.313-15.143 2.259-5.3-1.985-9.637-.616-13.285 3.354-4.75 5.134-9.499 10.2-14.248 15.334-.482.48-.964.958-1.377 1.506-1.652 2.396-1.17 4.518.826 6.366 2.203 2.054 3.648.548 5.163-1.027l10.944-10.884c.895-.89 1.927-2.19 3.166-1.095 1.102.958.895 2.601-.206 3.491-1.996 1.711-.826 2.875.344 4.244 3.58 3.834 7.985 5.613 13.216 5.203 1.445-.137 3.029-.274 3.235 1.574.207 2.054-1.514 2.19-3.097 2.328-5.025.342-9.43-1.233-13.56-3.902-1.928-1.233-2.685-4.724-5.163-3.97-2.065.615-3.51 3.148-5.231 4.86-.757.753-1.446 1.506-2.134 2.19-1.101 1.095-2.41 1.575-3.992 1.712-3.58.273-5.851-1.643-7.434-4.518-1.652-2.944-1.102-6.846 1.308-9.516 3.923-4.518 7.984-8.83 11.976-13.143zM52.45 43.014c-.138-.274-.207-.616-.482-.822a439.697 439.697 0 0 0-8.122-7.872c-1.17-1.163-1.859-.068-2.547.616-7.64 7.53-15.212 15.06-22.921 22.59-1.377 1.37-1.515 2.26-.07 3.628 2.272 2.122 4.475 4.245 6.54 6.504 1.377 1.574 2.34 1.574 3.855.068C36.068 60.128 43.57 52.598 51.004 45c.62-.547 1.308-1.027 1.446-1.985zm67.112-9.241c-.413.273-.826.479-1.171.821l-8.053 8.42c-1.101 1.095-.413 1.78.344 2.533 6.815 6.708 13.698 13.417 20.443 20.194 1.377 1.369 2.203 1.027 3.373-.137 2.272-2.26 4.543-4.518 6.952-6.572 1.721-1.506 1.308-2.464-.137-3.833-6.815-6.64-13.492-13.28-20.237-19.989-.413-.547-.964-.958-1.514-1.437zm-52.313 83.514c-2.478.205-3.855 1.506-3.993 3.902-.137 2.259 1.928 4.381 4.13 4.107 2.272-.274 3.855-1.574 3.717-4.107-.069-2.465-1.514-3.628-3.854-3.902zm-17.415-8.831c2.822 0 4.061-1.506 4.405-3.765.276-2.122-1.79-4.244-4.06-4.107-2.41.137-3.855 1.438-3.855 3.902 0 2.464 1.376 3.765 3.51 3.97zm8.88.479c-2.41.069-3.924 1.438-4.062 3.697-.137 2.464 1.308 4.039 3.924 4.107 2.615.069 4.06-1.506 4.06-3.97 0-2.328-1.513-3.697-3.922-3.834z" fill="#005473"/></svg>