<svg width="160" height="160" viewBox="0 0 160 160" fill="none" xmlns="http://www.w3.org/2000/svg"><path fill="#fff" d="M0 0h160v160H0z"/><path d="M33.948 106.704c-.353-3.39-.848-6.214-.848-9.039 0-2.118-.635-3.036-2.684-3.742C23.777 91.522 23 90.32 23 83.4c0-9.462 1.413-11.298 10.665-13.487 12.29-2.825 24.722-2.683 37.153-1.271.424.07.918.07 1.907.141v-7.061-21.537c0-4.802.918-6.78 5.51-8.191 5.014-1.554 10.24-2.825 15.397-3.32 11.725-1.13 23.52-1.13 34.963 2.26 7.416 2.19 8.405 3.602 8.405 11.157v61.717c0 6.284-1.201 7.979-7.204 9.956-9.183 3.037-18.718 3.178-28.253 3.39-2.826.07-5.58 1.412-8.335 2.259-.424.141-.847.918-.847 1.342.14 5.013-3.532 6.567-7.276 7.838-9.747 3.248-19.847 3.884-29.947 3.107a117.726 117.726 0 0 1-19.777-3.178c-6.357-1.553-7.417-3.601-7.417-10.097 0-.565.07-1.201 0-1.766-.706-5.225 1.13-8.968 6.004-9.956zm98.037-62.634c-18.294 4.872-36.234 4.872-54.175-.071-1.412 8.403-.706 10.027 6.287 11.51 13.137 2.824 26.416 3.248 39.554.282 10.171-2.189 8.617-1.412 8.334-11.721zM77.457 58.828v3.742c0 6.002-.07 6.355 5.792 7.485 6.64 1.271 13.42 2.26 20.201 2.472 8.546.353 17.163-.283 25.357-3.249 1.342-.494 3.037-1.765 3.249-2.965.494-2.401.141-4.943.141-7.485-18.435 5.013-36.375 5.013-54.74 0zm54.74 14.687c-14.762 4.873-29.665 4.378-44.851 2.754 0 3.037-.142 5.65.07 8.191.071.777 1.201 2.048 1.907 2.119 12.22 1.13 24.439 1.624 36.447-1.412 6.356-1.554 6.286-1.695 6.356-8.262.071-.989.071-2.048.071-3.39zm-103.9 4.167c8.264 6.567 47.96 6.355 54.034-.353-6.851-6.356-47.465-6.426-54.034.353zm103.547-38.98c0-.493.071-.988.071-1.482-1.625-.636-3.179-1.483-4.803-1.765-6.287-.989-12.502-2.19-18.859-2.472-9.182-.423-18.365-.07-27.194 3.037-1.2.423-2.19 1.2-3.32 1.835.142.424.213.777.354 1.2 18.011 5.085 35.952 5.509 53.751-.352zM97.729 92.158c-.636 2.33-.919 4.167 1.624 5.508 1.13.565 1.766 2.119 2.755 3.107.635.636 1.554 1.554 2.26 1.483 6.428-.424 12.996-.494 19.212-1.836 10.736-2.33 8.476-1.977 8.617-11.298 0-.212-.141-.353-.353-.706-11.019 3.884-22.532 4.025-34.115 3.742zm-59.614 6.356c-.565 4.166-.494 4.731 3.32 5.649 5.721 1.271 11.442 2.401 17.305 2.895 10.1.847 20.13.141 29.948-2.754 2.754-.847 5.015-2.189 3.531-5.72-18.01 4.943-35.951 4.873-54.104-.07zm-9.959-14.9c-1.06 3.037.07 5.014 3.179 5.65 5.297 1.058 10.524 2.259 15.892 2.753 10.453 1.06 20.907.353 31.078-2.471 2.825-.777 5.58-1.907 3.955-5.79-18.01 4.872-36.022 4.942-54.104-.142zm5.086 34.248c-1.272 3.813.494 5.508 3.884 6.426 10.242 2.753 20.625 3.46 31.078 2.4 5.58-.564 11.02-1.906 16.528-3.107 1.13-.211 2.049-1.271 3.037-1.977-18.717 1.13-36.799 1.13-54.527-3.742zm10.03-7.838c-.283.353-.636.635-.919.988 1.13.918 2.12 2.401 3.39 2.754 5.227 1.201 10.525 2.472 15.822 2.966 10.948.988 21.825.635 32.42-2.825 3.673-1.2 3.885-1.765 2.896-5.437-17.658 5.084-35.599 4.378-53.61 1.554zm88.925-5.861c-9.959 1.271-19.777 2.542-29.665 3.813v4.237c9.04.07 17.658-.424 26.063-3.037 2.896-.988 4.45-2.542 3.602-5.013zM92.926 92.44c-4.38-1.412-7.417-1.271-10.666.635-2.543 1.483-5.721 1.977-8.688 2.613-2.895.636-5.862.989-8.829 1.483 9.253-.212 18.647-.07 28.183-4.731z" fill="#005473"/></svg>