<svg width="96" height="96" viewBox="0 0 96 96" fill="none" xmlns="http://www.w3.org/2000/svg"><path d="M8.7 74.51c.639-3.803 1.145-7.688 2.025-11.518.56-2.464.213-4.179-1.813-5.893-2.825-2.384-5.41-5.116-8.023-7.795-.507-.509-.96-1.42-.88-2.035.08-.429 1.093-.938 1.76-1.018 4.451-.724 8.93-1.366 13.408-1.982.826-.108 1.226-.456 1.572-1.152 1.946-4.018 3.919-7.983 5.891-11.974.107-.187.187-.402.294-.59.853-1.472 1.999-1.472 2.772.055 1.413 2.732 2.719 5.49 4.078 8.25.587 1.205 1.333 2.357 1.733 3.616.48 1.5 1.493 1.848 2.852 2.009 4.265.562 8.53 1.178 12.768 1.848.56.08 1.36.536 1.493.991.133.482-.24 1.313-.64 1.714a459.638 459.638 0 0 1-9.65 9.43c-.746.722-1.012 1.392-.826 2.437.774 4.286 1.493 8.598 2.24 12.884.053.268.106.536.133.804.107 1.634-.773 2.25-2.24 1.5a628.99 628.99 0 0 1-7.303-3.83c-1.733-.912-3.465-1.795-5.171-2.76-.667-.375-1.173-.321-1.84.027a884.229 884.229 0 0 1-12.235 6.482c-1.52.804-2.479.188-2.399-1.5zM7.125 49.304c1.946 2.143 3.866 4.554 6.078 6.67 1.546 1.473 2.532 2.813 1.68 5.01-.294.776-.32 1.66-.48 2.49-.4 2.304-.774 4.58-1.2 7.099 3.172-1.661 6.158-3.134 9.037-4.795 1.519-.884 2.692-.884 4.211.027 2.852 1.687 5.838 3.134 8.903 4.74-.053-.481-.053-.803-.106-1.097-.587-3.456-1.226-6.938-1.76-10.42-.08-.482.187-1.206.534-1.554 2.372-2.41 4.824-4.741 7.25-7.098.267-.268.506-.563.853-.991-3.332-.51-6.477-1.099-9.623-1.42-1.84-.188-2.985-.804-3.758-2.625-1.28-3-2.88-5.893-4.452-9.027-1.733 3.536-3.412 6.884-5.011 10.26-.347.722-.747 1.07-1.546 1.178-3.706.482-7.357 1.071-10.61 1.553zM50.083 44.65c1.065-2.2 2.064-4.472 3.28-6.646.778-1.4.872-2.503-.056-3.906-1.295-1.953-2.382-4.074-3.495-6.167-.217-.4-.331-1.034-.173-1.395.125-.246.831-.376 1.251-.306 2.836.35 5.674.756 8.508 1.177.521.082.826-.06 1.16-.421 1.899-2.098 3.803-4.159 5.712-6.236.098-.095.185-.211.283-.306.78-.745 1.478-.541 1.677.525.374 1.913.678 3.823 1.014 5.743.143.837.392 1.67.411 2.507.026.998.58 1.39 1.378 1.73 2.494 1.1 4.979 2.232 7.438 3.393.326.148.732.567.732.868-.005.317-.38.755-.694.929a291.02 291.02 0 0 1-7.545 4.02c-.582.307-.864.667-.936 1.336-.291 2.744-.62 5.495-.928 8.234-.015.173-.03.345-.061.513-.226 1.013-.87 1.23-1.63.514-1.267-1.201-2.514-2.415-3.76-3.628-.893-.862-1.79-1.707-2.656-2.597-.339-.346-.656-.404-1.123-.31a560.633 560.633 0 0 1-8.594 1.768c-1.067.219-1.542-.327-1.193-1.339zm3.523-15.61c.803 1.648 1.542 3.456 2.511 5.136.679 1.171 1.04 2.161.132 3.345-.317.42-.49.954-.735 1.43-.653 1.33-1.284 2.649-1.991 4.105 2.224-.447 4.302-.812 6.348-1.31 1.082-.268 1.795-.06 2.557.764 1.435 1.533 2.994 2.944 4.573 4.466.053-.303.11-.498.13-.687.258-2.206.487-4.438.782-6.65.037-.308.328-.7.6-.85 1.872-1.045 3.778-2.027 5.672-3.03.21-.115.408-.252.695-.45-1.936-.902-3.745-1.82-5.6-2.574-1.086-.441-1.674-1.02-1.82-2.265-.245-2.052-.704-4.096-1.103-6.282-1.683 1.843-3.3 3.581-4.872 5.35-.34.378-.644.519-1.15.442-2.34-.366-4.665-.656-6.729-.94zM77.05 56.659c.607-1.514 1.166-3.074 1.874-4.578.453-.968.464-1.708-.219-2.598-.953-1.24-1.775-2.602-2.614-3.944-.164-.256-.269-.673-.18-.92.071-.17.535-.29.818-.263 1.905.102 3.814.24 5.72.388.35.03.547-.078.753-.335 1.166-1.485 2.338-2.946 3.512-4.418.061-.068.114-.15.175-.217.485-.532.958-.43 1.14.271.339 1.257.63 2.514.944 3.777.133.55.338 1.094.39 1.65.064.663.45.898.998 1.087 1.712.616 3.42 1.255 5.11 1.913.225.084.514.344.529.544.011.211-.218.52-.42.65a194.32 194.32 0 0 1-4.835 3.03c-.374.23-.544.484-.561.932-.066 1.841-.157 3.688-.234 5.526a3.533 3.533 0 0 1-.017.344c-.103.685-.522.86-1.06.419-.901-.741-1.788-1.49-2.675-2.24-.634-.533-1.27-1.054-1.888-1.606-.242-.215-.456-.238-.763-.154-1.872.543-3.75 1.062-5.64 1.578-.7.195-1.041-.146-.856-.836zM78.67 46.1c.611 1.061 1.187 2.23 1.911 3.304.507.748.794 1.39.244 2.221-.191.295-.282.658-.423.986-.372.917-.731 1.824-1.134 2.826 1.46-.4 2.827-.741 4.166-1.168.707-.229 1.192-.123 1.738.39 1.027.954 2.13 1.82 3.253 2.76.021-.204.05-.337.054-.463.07-1.481.118-2.978.211-4.465.01-.206.186-.481.36-.594 1.197-.783 2.42-1.525 3.635-2.281.135-.087.26-.187.442-.333-1.331-.51-2.578-1.037-3.85-1.453-.742-.243-1.16-.6-1.316-1.423-.26-1.355-.66-2.694-1.028-4.13-1.034 1.304-2.03 2.537-2.994 3.788-.208.268-.405.376-.745.348-1.575-.134-3.137-.22-4.524-.313z" fill="#005473"/></svg>