<svg width="64" height="64" viewBox="0 0 64 64" fill="none" xmlns="http://www.w3.org/2000/svg"><path fill-rule="evenodd" clip-rule="evenodd" d="M17.89 26.076l-2.884 24.258-.003.021a.332.332 0 0 0 .077.262.284.284 0 0 0 .226.1H48.42v1l.023-1a.283.283 0 0 0 .224-.1.319.319 0 0 0 .076-.26l-.003-.023-2.883-24.266a.207.207 0 0 0-.06-.061.509.509 0 0 0-.3-.097H18.25a.501.501 0 0 0-.296.098.222.222 0 0 0-.065.068zm27.968-.004v-.001.001zm2.552 26.645H15.342a2.284 2.284 0 0 1-1.765-.781 2.32 2.32 0 0 1-.556-1.848l2.884-24.258c.143-1.201 1.301-1.92 2.346-1.92h27.246c1.04 0 2.208.704 2.346 1.923v.004l2.882 24.25a2.332 2.332 0 0 1-.552 1.846 2.299 2.299 0 0 1-1.763.784z" fill="#fff"/><path fill-rule="evenodd" clip-rule="evenodd" d="M21.634 23.355C21.634 17.193 26.116 12 31.875 12c5.76 0 10.243 5.195 10.243 11.355 0 .565-.038 1.129-.113 1.688a1 1 0 0 1-.991.867H22.738a1 1 0 0 1-.99-.866 12.524 12.524 0 0 1-.114-1.69zm0 0h1-1zM31.875 14c-4.447 0-8.24 4.078-8.24 9.355v.002c0 .184.004.369.013.553h16.455c.01-.184.014-.37.015-.555M31.875 14c4.448 0 8.242 4.08 8.243 9.355L31.875 14z" fill="#fff"/><path d="M22.894 30.371c.86 0 1.555-.706 1.555-1.576 0-.87-.696-1.576-1.555-1.576s-1.555.705-1.555 1.576c0 .87.696 1.576 1.555 1.576zM41.117 30.371c.86 0 1.556-.706 1.556-1.576 0-.87-.697-1.576-1.556-1.576-.859 0-1.555.705-1.555 1.576 0 .87.696 1.576 1.555 1.576z" fill="#fff"/></svg>