<svg width="64" height="64" viewBox="0 0 64 64" fill="none" xmlns="http://www.w3.org/2000/svg"><path fill-rule="evenodd" clip-rule="evenodd" d="M16.635 17.163c-.24.113-.343.228-.36.255l-.003.006-4.573 7.293h.063l30.96.011-4.57-7.302c-.022-.035-.13-.151-.367-.263a1.644 1.644 0 0 0-.667-.163H17.305c-.196 0-.444.056-.67.163zm-6.758 9.535l-1.753-.045 6.451-10.289c.294-.473.768-.803 1.208-1.01A3.65 3.65 0 0 1 17.305 15h19.813c.53 0 1.066.14 1.52.354.442.209.912.539 1.207 1.006l.001.003 6.458 10.317-1.762.037h-.027l-.077.002-.306.004c-.274.002-.688.005-1.254.005l-31.116-.01a94.439 94.439 0 0 1-1.748-.017l-.1-.002h-.037z" fill="#fff"/><path fill-rule="evenodd" clip-rule="evenodd" d="M6.611 24.717H44.29v1l.003-1a14.71 14.71 0 0 1 10.39 4.347A14.875 14.875 0 0 1 59 39.507l-1 .003 1 .003a2.632 2.632 0 0 1-.764 1.848 2.612 2.612 0 0 1-1.846.771H45.02l-.085-.905a4.362 4.362 0 0 0-1.396-2.808 4.301 4.301 0 0 0-2.903-1.13 4.3 4.3 0 0 0-2.903 1.13 4.362 4.362 0 0 0-1.396 2.808l-.086.905H21.048l-.086-.905a4.362 4.362 0 0 0-1.396-2.808 4.3 4.3 0 0 0-2.903-1.13 4.3 4.3 0 0 0-2.903 1.13 4.362 4.362 0 0 0-1.396 2.808l-.086.905H6.607a2.613 2.613 0 0 1-1.843-.772A2.632 2.632 0 0 1 4 39.513V27.335a2.63 2.63 0 0 1 .764-1.847 2.61 2.61 0 0 1 1.844-.77h.003zM57 39.51a12.875 12.875 0 0 0-3.737-9.035 12.71 12.71 0 0 0-8.975-3.757H6.613a.61.61 0 0 0-.43.181.63.63 0 0 0-.183.442v12.168c0 .167.067.326.183.442.115.117.27.181.43.182h3.912a6.357 6.357 0 0 1 1.886-3.189 6.3 6.3 0 0 1 4.252-1.653 6.3 6.3 0 0 1 4.253 1.653 6.357 6.357 0 0 1 1.885 3.19h11.697a6.357 6.357 0 0 1 1.885-3.19 6.3 6.3 0 0 1 4.253-1.653 6.3 6.3 0 0 1 4.252 1.653 6.357 6.357 0 0 1 1.885 3.19h9.612c.161-.002.317-.066.432-.182a.632.632 0 0 0 .183-.442z" fill="#fff"/><path fill-rule="evenodd" clip-rule="evenodd" d="M22.952 41.031c.021.205.032.41.032.616v.001a6.368 6.368 0 0 1-1.85 4.49A6.304 6.304 0 0 1 16.665 48a6.304 6.304 0 0 1-4.471-1.862 6.368 6.368 0 0 1-1.82-5.096l1.992.181a4.368 4.368 0 0 0 1.247 3.504A4.304 4.304 0 0 0 16.663 46a4.304 4.304 0 0 0 3.052-1.273 4.367 4.367 0 0 0 1.268-3.078m1.968-.618l-1.99.202 1.99-.202zm-1.99.202c.015.138.022.277.022.416l-.021-.416zM46.925 41.034c.02.205.03.41.03.616v.015a6.367 6.367 0 0 1-1.887 4.42 6.304 6.304 0 0 1-4.433 1.824 6.304 6.304 0 0 1-4.432-1.825 6.367 6.367 0 0 1-1.887-4.419v-.017c0-.21.011-.412.03-.607l1.99.182c-.012.142-.02.28-.02.417a4.367 4.367 0 0 0 1.293 3.022 4.303 4.303 0 0 0 3.026 1.247 4.304 4.304 0 0 0 3.027-1.247 4.367 4.367 0 0 0 1.293-3.023c0-.137-.007-.273-.02-.409l1.99-.196zM26.21 15h10.914c.53 0 1.067.14 1.522.354.44.207.915.538 1.208 1.01l.002.004 6.447 10.307-1.76.037h-.028l-.076.002-.307.004c-.274.003-.69.005-1.257.005H26.209V15zm16.513 9.723l-4.569-7.305c-.017-.027-.12-.142-.36-.255a1.657 1.657 0 0 0-.67-.163H28.21v7.723h14.514z" fill="#fff"/></svg>