<svg xmlns="http://www.w3.org/2000/svg" width="64" height="64" viewBox="0 0 64 64"><g fill="#005473" fill-rule="evenodd"><path d="M19.188 32.767c-.735 0-1.299.592-1.299 1.3v3.541h29.462v-3.542c0-.735-.592-1.299-1.3-1.299H19.189zm-3.07 1.3a3.065 3.065 0 0 1 3.07-3.071h26.864a3.065 3.065 0 0 1 3.07 3.07v4.428c0 .49-.397.886-.886.886H17.004a.886.886 0 0 1-.886-.886v-4.428z"/><path d="M17.004 20.487c.489 0 .885.396.885.885v21.964a.886.886 0 0 1-1.771 0V21.372c0-.489.397-.885.886-.885zm4.073 8.265c-.735 0-1.298.592-1.298 1.3v.826h7.616v-.827c0-.735-.592-1.299-1.3-1.299h-5.018zm-3.07 1.3a3.065 3.065 0 0 1 3.07-3.071h5.019a3.065 3.065 0 0 1 3.07 3.07v1.712c0 .49-.396.886-.886.886h-9.387a.886.886 0 0 1-.886-.886v-1.712zm30.23 7.556c.488 0 .885.397.885.886v4.841a.886.886 0 1 1-1.771 0v-4.841c0-.49.396-.886.885-.886zm-3.72-12.752s-.237-1.063-.414-1.299-1.299-.413-1.299-.413 1.122-.295 1.3-.472c.176-.178.472-1.3.472-1.3s.236 1.122.413 1.3c.177.177 1.358.472 1.358.472s-1.122.177-1.3.354c-.176.177-.53 1.358-.53 1.358zM10.45 37.668s-.236-1.063-.413-1.299-1.3-.413-1.3-.413 1.123-.295 1.3-.472c.177-.177.472-1.3.472-1.3s.236 1.123.413 1.3c.178.177 1.358.472 1.358.472s-1.121.177-1.299.354c-.295.177-.53 1.358-.53 1.358zm29.816 8.502s-.237-1.063-.414-1.299-1.299-.413-1.299-.413 1.122-.295 1.3-.473c.176-.177.472-1.299.472-1.299s.236 1.122.413 1.3c.177.177 1.358.472 1.358.472s-1.122.177-1.3.354c-.176.177-.53 1.358-.53 1.358zM24.974 21.373s-.236-1.063-.413-1.3c-.177-.235-1.3-.412-1.3-.412s1.123-.296 1.3-.473c.177-.177.472-1.299.472-1.299s.236 1.122.413 1.3c.178.176 1.358.472 1.358.472s-1.121.177-1.298.354c-.296.177-.532 1.358-.532 1.358z"/><path d="M32 2.952C15.957 2.952 2.952 15.957 2.952 32S15.957 61.048 32 61.048 61.048 48.043 61.048 32 48.043 2.952 32 2.952zM0 32C0 14.327 14.327 0 32 0c17.673 0 32 14.327 32 32 0 17.673-14.327 32-32 32C14.327 64 0 49.673 0 32z"/></g></svg>