<svg width="160" height="160" viewBox="0 0 160 160" fill="none" xmlns="http://www.w3.org/2000/svg"><path fill="#fff" d="M0 0h160v160H0z"/><path fill-rule="evenodd" clip-rule="evenodd" d="M24.5 34.41a3.5 3.5 0 0 1 3.5-3.5h103.97a3.5 3.5 0 0 1 3.5 3.5v103.92a3.5 3.5 0 0 1-3.5 3.5H28a3.5 3.5 0 0 1-3.5-3.5V34.41zm7 3.5v96.92h96.97V37.91H31.5z" fill="#005473"/><path fill-rule="evenodd" clip-rule="evenodd" d="M24.5 34.41a3.5 3.5 0 0 1 3.5-3.5h103.97a3.5 3.5 0 0 1 3.5 3.5v28.078a3.5 3.5 0 0 1-3.5 3.5H28a3.5 3.5 0 0 1-3.5-3.5V34.41zm7 3.5v21.078h96.97V37.91H31.5z" fill="#005473"/><path fill-rule="evenodd" clip-rule="evenodd" d="M48.64 17.5a3.5 3.5 0 0 1 3.5 3.5v24.767a3.5 3.5 0 1 1-7 0V21a3.5 3.5 0 0 1 3.5-3.5zM111.022 17.5a3.5 3.5 0 0 1 3.5 3.5v24.767a3.5 3.5 0 1 1-7 0V21a3.5 3.5 0 0 1 3.5-3.5zM79.949 79.784c-1.396 2.825-2.8 5.644-4.215 8.46l-.004.006-.003.006a4.298 4.298 0 0 1-2.71 2.203l-.19.052-.196.03c-1.876.286-3.76.555-5.626.822-.688.098-1.373.196-2.055.295l-.233.033-1.49.216 6.64 6.444a4.17 4.17 0 0 1 1.367 3.903c-.538 3.078-1.073 6.159-1.604 9.244 2.763-1.456 5.523-2.912 8.282-4.368a4.234 4.234 0 0 1 4.173 0c2.75 1.452 5.506 2.905 8.262 4.357-.52-3.025-1.045-6.049-1.574-9.072a4.285 4.285 0 0 1 1.289-4.03c1.502-1.435 2.99-2.883 4.49-4.343l.76-.74.008-.007 1.403-1.382-.689-.099c-2.902-.415-5.816-.831-8.724-1.265l-.144-.021-.14-.034a4.331 4.331 0 0 1-2.725-1.99l-.02-.033-.019-.033c-.303-.532-.582-1.112-.792-1.55l-.131-.27a1713.952 1713.952 0 0 1-3.39-6.834zm-.376-9.241a5.218 5.218 0 0 1 5.181 3.153c1.608 3.274 3.226 6.545 4.856 9.81l.007.014.006.014.147.303c2.41.355 4.823.7 7.245 1.046l2.107.302.014.002 2.11.32a5.111 5.111 0 0 1 4.322 3.716 5.155 5.155 0 0 1-1.475 5.258l-3.885 3.824-.007.007-.762.742c-1.173 1.141-2.355 2.292-3.546 3.438.576 3.304 1.148 6.61 1.715 9.918l.003.015.002.016c.045.276.075.435.11.62.03.151.062.32.108.583a5.217 5.217 0 0 1-7.712 5.636c-3.374-1.778-6.75-3.557-10.12-5.336a18655.5 18655.5 0 0 1-10.11 5.33 5.2 5.2 0 0 1-7.608-2.971l-.016-.054-.015-.053a7.613 7.613 0 0 1-.199-1.007l-.066-.514.086-.511a3339.196 3339.196 0 0 1 2.015-11.669l-8.152-7.91a5.356 5.356 0 0 1-1.803-4.24l.003-.062.005-.061a5.142 5.142 0 0 1 4.324-4.681l.009-.001c1.75-.273 3.505-.526 5.233-.775l.245-.035c.702-.102 1.4-.202 2.094-.3 1.364-.196 2.716-.39 4.067-.59 1.692-3.374 3.37-6.756 5.034-10.145a5.242 5.242 0 0 1 4.426-3.152h.002z" fill="#005473"/></svg>