<svg width="96" height="96" viewBox="0 0 96 96" fill="none" xmlns="http://www.w3.org/2000/svg"><path fill-rule="evenodd" clip-rule="evenodd" d="M35.745 11.941a2.032 2.032 0 0 1 2.793.596l3.829 5.872a1.988 1.988 0 0 1-.602 2.765 2.032 2.032 0 0 1-2.792-.596l-3.83-5.872a1.988 1.988 0 0 1 .602-2.765zM60.923 11.852a1.99 1.99 0 0 1 .714 2.739l-3.551 5.963a2.031 2.031 0 0 1-2.766.707 1.989 1.989 0 0 1-.714-2.739l3.55-5.963a2.031 2.031 0 0 1 2.767-.707zM48.437 9a2.01 2.01 0 0 1 2.02 2v6.483c0 1.104-.904 2-2.02 2a2.01 2.01 0 0 1-2.02-2V11c0-1.105.905-2 2.02-2z" fill="#005473"/><path d="M51.586 29.73l9.649 16.853 9.877-16.853M25.764 29.73l9.65 16.853L45.29 29.73M35.528 46.583L48.287 87.87l13.062-41.287" stroke="#005473" stroke-width="4" stroke-linecap="round" stroke-linejoin="round"/><path d="M11 46.583h74.6M48.267 87.87L85.6 46.8l-10.806-17.07H21.866L11 46.8 48.267 87.87z" stroke="#005473" stroke-width="4" stroke-miterlimit="10"/></svg>