<svg width="64" height="64" viewBox="0 0 64 64" fill="none" xmlns="http://www.w3.org/2000/svg"><path fill-rule="evenodd" clip-rule="evenodd" d="M15.973 19c-.546 0-1.058.204-1.425.548a1.71 1.71 0 0 0-.558 1.247v7.96h35.144v-7.96a1.71 1.71 0 0 0-.557-1.247A2.088 2.088 0 0 0 47.152 19H15.973zm-2.793-.91A4.087 4.087 0 0 1 15.973 17h31.178c1.037 0 2.042.385 2.793 1.09a3.709 3.709 0 0 1 1.19 2.705v9.96H11.99v-9.96c0-1.028.437-2 1.19-2.706z" fill="#fff"/><path fill-rule="evenodd" clip-rule="evenodd" d="M11.759 30.813c-.481 0-.759.35-.759.649v9.771c0 .298.278.649.759.649h39.607c.481 0 .759-.35.759-.649v-9.771c0-.298-.278-.649-.76-.649H11.76zM9 31.462c0-1.523 1.297-2.649 2.759-2.649h39.607c1.461 0 2.759 1.126 2.759 2.649v9.771c0 1.523-1.298 2.649-2.76 2.649H11.76C10.297 43.882 9 42.756 9 41.233v-9.771z" fill="#fff"/><path fill-rule="evenodd" clip-rule="evenodd" d="M45.485 43.874c-.04.038-.049.072-.049.096v1.106c0 .024.009.058.049.095.04.038.108.072.196.072h3.208a.285.285 0 0 0 .197-.072c.04-.037.048-.071.048-.095V43.97c0-.024-.008-.058-.048-.096a.285.285 0 0 0-.197-.071h-3.208a.285.285 0 0 0-.196.071zm-2.049.096c0-1.257 1.068-2.167 2.245-2.167h3.208c1.178 0 2.245.91 2.245 2.167v1.106c0 1.257-1.067 2.166-2.245 2.166h-3.208c-1.177 0-2.245-.91-2.245-2.166V43.97zM14.039 43.874c-.04.038-.049.072-.049.096v1.106c0 .024.009.058.049.095a.285.285 0 0 0 .196.072h3.208a.285.285 0 0 0 .197-.072c.04-.037.048-.071.048-.095V43.97c0-.024-.008-.058-.048-.096a.285.285 0 0 0-.197-.071h-3.208a.285.285 0 0 0-.196.071zm-2.049.096c0-1.257 1.068-2.167 2.245-2.167h3.208c1.178 0 2.245.91 2.245 2.167v1.106c0 1.257-1.067 2.166-2.245 2.166h-3.208c-1.177 0-2.245-.91-2.245-2.166V43.97zM19.836 25.415c-.04.038-.049.072-.049.096v2.877c0 .024.009.058.049.095.04.039.108.072.196.072h6.932a.285.285 0 0 0 .197-.072c.04-.037.048-.07.048-.095v-2.877c0-.024-.008-.058-.048-.096a.285.285 0 0 0-.197-.071h-6.932a.285.285 0 0 0-.196.071zm-2.049.096c0-1.257 1.067-2.167 2.245-2.167h6.932c1.178 0 2.245.91 2.245 2.167v2.877c0 1.257-1.067 2.167-2.245 2.167h-6.932c-1.178 0-2.245-.91-2.245-2.167v-2.877zM35.964 25.415c-.04.038-.049.072-.049.096v2.877c0 .024.009.058.049.095a.285.285 0 0 0 .196.072h6.932a.285.285 0 0 0 .197-.072c.04-.037.048-.07.048-.095v-2.877c0-.024-.008-.058-.048-.096a.285.285 0 0 0-.197-.071H36.16a.285.285 0 0 0-.196.071zm-2.049.096c0-1.257 1.067-2.167 2.245-2.167h6.932c1.178 0 2.245.91 2.245 2.167v2.877c0 1.257-1.067 2.167-2.245 2.167H36.16c-1.178 0-2.245-.91-2.245-2.167v-2.877z" fill="#fff"/><path fill-rule="evenodd" clip-rule="evenodd" d="M9 38.476h45.125v2.992c0 1.273-1.001 2.406-2.337 2.406H11.336C10.002 43.874 9 42.747 9 41.468v-2.992zm2 2v.992c0 .27.2.406.336.406h40.452c.135 0 .337-.138.337-.406v-.992H11z" fill="#fff"/></svg>