<svg width="160" height="160" viewBox="0 0 160 160" fill="none" xmlns="http://www.w3.org/2000/svg"><path fill="#fff" d="M0 0h160v160H0z"/><path d="M140 136.25V140H20v-3.75c1.266-.422 2.531-1.172 3.844-1.219 3.562-.187 7.125-.047 10.781-.047.047-.984.14-1.687.14-2.39V87.641 40.578c0-3.281.563-3.797 3.844-3.797h8.157c0-4.5-.094-8.765.047-13.031.046-1.266.843-2.484 1.312-3.75h63.75c.469 1.266 1.266 2.484 1.313 3.75.187 4.266.046 8.531.046 13.031h7.454c4.218 0 4.546.282 4.546 4.5v93.703c3.891 0 7.407-.093 10.922.047 1.313.047 2.578.797 3.844 1.219zm-89.438-1.406c.422-2.578.516-4.5-2.062-5.953-2.297-1.313-3.094-3.891-2.672-6.563.469-3 1.078-6 1.922-8.906.469-1.594 1.36-3.188 2.39-4.5 1.782-2.297 4.313-2.25 6.235-.047.61.703 1.266 1.5 1.5 2.344 1.031 3.984 2.156 7.969 2.813 12 .374 2.343-.704 4.734-2.813 5.812-2.766 1.407-2.156 3.469-2.063 5.766h10.172v-25.219c0-2.812.657-3.516 3.422-3.516a1612.15 1612.15 0 0 1 21.094 0c2.953 0 3.563.657 3.563 3.61v25.172h10.125c.234-2.391.703-4.453-2.063-5.813-2.016-1.031-3.14-3.328-2.766-5.578.703-4.125 1.641-8.25 2.86-12.234.609-2.016 2.062-3.844 4.547-3.891 2.437 0 3.937 1.781 4.546 3.797 1.219 3.984 2.157 8.109 2.86 12.234.422 2.391-.797 4.641-2.906 5.766-2.766 1.453-2.11 3.516-1.828 5.719h10.359V41.938H39.875v92.953c3.656-.047 7.125-.047 10.688-.047zm1.313-98.156h56.203V25.25H51.875v11.438zm19.266 98.109h17.671v-23.672H71.142v23.672zm-17.297-21.235h-1.172c-.61 3.094-1.313 6.188-1.781 9.329-.282 1.64.656 2.765 2.343 2.859 1.688.047 2.72-.984 2.485-2.672-.563-3.234-1.266-6.375-1.875-9.516zm53.484-.046c-.375 0-.797.046-1.172.046-.609 3.094-1.312 6.188-1.828 9.282-.281 1.64.656 2.765 2.344 2.812 1.64.047 2.719-1.031 2.484-2.672-.468-3.14-1.218-6.281-1.828-9.468z" fill="#005473"/><path d="M115.015 61.484c0 2.813.047 5.625 0 8.438-.046 2.531-.75 3.328-3.14 3.328-4.594.047-9.235 0-13.828 0-2.11 0-3.094-1.031-3.094-3.188.047-5.624 0-11.25 0-16.874 0-2.438.797-3.188 3.234-3.188h13.36c2.718 0 3.422.75 3.422 3.516.093 2.672.046 5.297.046 7.968zm-14.765-6.328v12.938h9.562V55.156h-9.562zM115.015 88.438v8.437c0 2.11-.937 3.188-3.093 3.188H98.094c-2.11 0-3.141-.985-3.141-3.141.047-5.625 0-11.25 0-16.875 0-2.484.797-3.234 3.187-3.281 4.547-.047 9.047-.047 13.594 0 2.438 0 3.188.797 3.235 3.234.093 2.813.046 5.625.046 8.438zm-5.109-6.47h-9.656V94.86h9.656V81.97zM44.797 61.672c0-2.906.047-5.766 0-8.672-.046-2.063.891-3 2.954-3 4.687.047 9.375.047 14.062 0 2.11 0 2.953 1.031 2.953 3.047 0 5.719-.047 11.39 0 17.11 0 2.156-.937 3.187-3.094 3.187H47.844c-2.11 0-3.14-1.031-3.093-3.188.093-2.86.046-5.672.046-8.484zm5.11-6.469v12.938h9.75V55.203h-9.75zM44.798 88.25v-8.672c0-1.969.937-2.86 2.859-2.86h14.297c1.828 0 2.765.891 2.765 2.72V97.25c0 1.828-.984 2.766-2.765 2.766-4.828.047-9.656.047-14.531 0-1.782 0-2.672-1.032-2.672-2.86.047-2.953.047-5.906.047-8.906zm5.015 6.61h9.844V81.968h-9.844v12.89zM89.938 88.484v8.672c0 1.969-.985 2.86-2.86 2.906-4.687.047-9.375 0-14.062 0-1.969 0-3.047-.89-3-3 .047-5.859 0-11.718 0-17.53 0-1.829.89-2.766 2.719-2.766h14.25c2.062 0 2.953 1.078 2.906 3.093.047 2.86.047 5.766.047 8.625zm-5.063 6.375V81.922h-9.797v12.937h9.797zM70.062 61.578c0-2.906.047-5.765 0-8.672-.047-2.062.984-2.953 3-2.953 4.594.047 9.187.047 13.781 0 2.156 0 3.14.985 3.094 3.14-.047 5.673-.047 11.391 0 17.063 0 2.203-1.125 3.094-3.188 3.094-4.5 0-9.047.047-13.547 0-2.484-.047-3.14-.75-3.187-3.281 0-2.766.047-5.578.047-8.39zm14.812 6.61V55.156h-9.703v13.032h9.703z" fill="#005473"/></svg>