<svg width="160" height="160" viewBox="0 0 160 160" fill="none" xmlns="http://www.w3.org/2000/svg"><path fill="#fff" d="M0 0h160v160H0z"/><path d="M89.002 106.427h24.23V116H89.323c-3.31 0-5.311-1.956-5.311-5.217-.027-17.215 0-34.43 0-51.619 0-3.103 1.975-5.138 5.123-5.138C100.396 54 111.63 54 122.891 54c3.069 0 5.07 2.035 5.097 5.034.027 1.435 0 2.87 0 4.434h-4.83c-.053-.704-.08-1.382-.133-2.165H89.029c-.027 14.972-.027 29.944-.027 45.124zm16.865 7.147c1.307.026 2.508-1.069 2.508-2.347.027-1.252-1.014-2.296-2.348-2.348-1.361-.052-2.482.991-2.482 2.322-.027 1.252 1.041 2.347 2.322 2.373z" fill="#005473"/><path d="M17.079 106c-.027-4.336-.079-8.698-.079-13.034 0-12.538 0-25.075.026-37.587 0-1.515.026-3.082.368-4.545.918-4.048 4.487-6.713 9.132-6.79 6.246-.08 12.492-.027 18.764-.027h57.446c3.228 0 6.115.862 8.319 3.396.289.34.525.757.945 1.358H28.625c-.865 0-1.758.026-2.597.235-2.966.705-4.173 2.272-4.147 5.302.131 16.717.263 33.408.368 50.125 0 .522-.08 1.018-.105 1.541-1.706 0-3.386.026-5.065.026zM147 92.043v18.615c0 3.382-1.901 5.322-5.28 5.322-6.152.027-12.329.027-18.481 0-3.168 0-5.227-1.992-5.227-5.139-.027-12.532 0-25.065 0-37.623 0-3.278 1.953-5.192 5.28-5.192C129.443 68 135.621 68 141.773 68c3.168 0 5.227 2.019 5.227 5.139v18.904zm-24.078-19.507v33.376h19.194V72.536h-19.194zm9.531 41.032c1.267.026 2.35-1.022 2.403-2.281.052-1.363-.951-2.438-2.324-2.464-1.32-.027-2.376.97-2.429 2.254-.052 1.311 1.03 2.439 2.35 2.491zM16.883 106.027c1.676 0 3.352-.027 5.028-.027 7.62.027 15.267.054 22.888.054H79v9.892c-.419.027-.89.054-1.336.054H14.447c-2.121 0-2.41-.298-2.435-2.493 0-1.843-.027-3.713 0-5.556.026-1.382.471-1.843 1.833-1.87 1.047-.054 2.042-.054 3.038-.054zm47.766 7.48c2.252 0 4.53.027 6.783 0 1.728 0 2.828-.976 2.828-2.466.026-1.491-1.047-2.466-2.802-2.466-4.478 0-8.983 0-13.46.027-1.808 0-2.829.921-2.829 2.439 0 1.517 1.021 2.466 2.802 2.493 2.252 0 4.452-.027 6.678-.027z" fill="#005473"/></svg>