<svg xmlns="http://www.w3.org/2000/svg" width="64" height="64" viewBox="0 0 64 64"><g fill="#005473" fill-rule="evenodd"><path d="M28.494 36.75a1.033 1.033 0 0 1-1.965-.637l.984.315-.984-.316v-.001l.001-.002.002-.006.005-.015.015-.043c.012-.034.03-.078.051-.132.044-.108.108-.252.196-.423a5.78 5.78 0 0 1 .869-1.237c.846-.92 2.232-1.81 4.332-1.81 2.097 0 3.506.887 4.376 1.794.428.445.721.89.91 1.225a5.183 5.183 0 0 1 .282.591l.006.015.002.006v.003c.001 0 .001.001-.97.351l.971-.35a1.033 1.033 0 0 1-1.944.7 3.1 3.1 0 0 0-.15-.307 3.982 3.982 0 0 0-.597-.803c-.547-.57-1.44-1.159-2.886-1.159-1.443 0-2.3.586-2.812 1.143a3.705 3.705 0 0 0-.67 1.038l-.021.055-.003.006z"/><path d="M23.358 32.323a1.033 1.033 0 0 1-1.965-.64l.983.317a75.278 75.278 0 0 1-.982-.319v-.001l.001-.003.003-.008.007-.022.024-.067a7.46 7.46 0 0 1 .444-.942 9.294 9.294 0 0 1 1.644-2.126c1.607-1.556 4.255-3.036 8.424-3.036 4.168 0 6.842 1.479 8.475 3.029a9.552 9.552 0 0 1 1.684 2.118 7.61 7.61 0 0 1 .463.939l.025.066.008.022.003.008v.003l.001.001c0 .001 0 .002-.949.328l.95-.326a1.033 1.033 0 0 1-1.953.676l-.01-.025a5.558 5.558 0 0 0-.325-.654 7.489 7.489 0 0 0-1.32-1.657c-1.259-1.195-3.427-2.462-7.052-2.462-3.625 0-5.759 1.266-6.986 2.455a7.224 7.224 0 0 0-1.278 1.65 5.377 5.377 0 0 0-.31.65 1.568 1.568 0 0 0-.01.026z"/><path d="M17.24 26.982a82.58 82.58 0 0 1-.889-.528h.001l.002-.004.004-.007.014-.023a8.076 8.076 0 0 1 .22-.334c.152-.217.376-.518.675-.876.6-.714 1.509-1.657 2.762-2.597 2.518-1.888 6.406-3.75 11.912-3.75 5.505 0 9.421 1.861 11.966 3.746 1.267.939 2.19 1.88 2.8 2.594.306.357.534.657.688.874a8.069 8.069 0 0 1 .226.332l.014.023.005.008.001.002.001.002-.882.538.883-.537a1.033 1.033 0 0 1-1.764 1.076v-.001h-.001v-.002l-.004-.005-.028-.043a10.712 10.712 0 0 0-.709-.924 14.998 14.998 0 0 0-2.46-2.277c-2.238-1.657-5.732-3.34-10.736-3.34-5.004 0-8.466 1.682-10.672 3.337a14.612 14.612 0 0 0-2.418 2.273 10.48 10.48 0 0 0-.692.92l-.027.044-.004.007a1.033 1.033 0 0 1-1.777-1.055l.889.527zM32 41.712a.915.915 0 1 0 0 1.83.915.915 0 0 0 0-1.83zm-2.982.915a2.981 2.981 0 1 1 5.963 0 2.981 2.981 0 0 1-5.963 0z"/><path d="M32 2.952C15.957 2.952 2.952 15.957 2.952 32S15.957 61.048 32 61.048 61.048 48.043 61.048 32 48.043 2.952 32 2.952zM0 32C0 14.327 14.327 0 32 0c17.673 0 32 14.327 32 32 0 17.673-14.327 32-32 32C14.327 64 0 49.673 0 32z"/></g></svg>