<svg xmlns="http://www.w3.org/2000/svg" width="64" height="64" viewBox="0 0 64 64"><g fill="#005473" fill-rule="evenodd"><path d="M17.358 22.849c0-.49.396-.886.885-.886H28.28c.49 0 .886.397.886.886v7.97a5.9 5.9 0 0 1-5.904 5.904 5.9 5.9 0 0 1-5.904-5.904v-7.97zm1.771.885v7.085a4.129 4.129 0 0 0 4.133 4.133 4.129 4.129 0 0 0 4.133-4.133v-7.085h-8.266z"/><path d="M23.262 34.952c.49 0 .886.397.886.886v9.446a.886.886 0 1 1-1.772 0v-9.446c0-.49.397-.886.886-.886z"/><path d="M19.66 45.284c0-.489.397-.886.886-.886h5.373a.886.886 0 1 1 0 1.772h-5.373a.886.886 0 0 1-.885-.886zm3.99-17.73c-.626.22-1.404.49-2.336.49a9.188 9.188 0 0 1-2.784-.442 5.562 5.562 0 0 1-.236-.083l-.016-.007-.005-.002h-.002l-.001-.001.328-.823-.33.823a.886.886 0 0 1 .656-1.646l.004.002.028.01.127.044a7.42 7.42 0 0 0 2.23.354c.6 0 1.119-.17 1.76-.393l.076-.027c.597-.208 1.332-.465 2.18-.465a8.19 8.19 0 0 1 2.806.511l.051.02.016.006.005.003h.003l-.343.817.344-.816a.886.886 0 0 1-.685 1.634l-.002-.001h.002-.003l-.026-.01a6.02 6.02 0 0 0-.59-.184 6.421 6.421 0 0 0-1.579-.21c-.533 0-1.012.164-1.671.394l-.006.003zm10.307-5.044a.886.886 0 0 1 .818-.547h10.037a.886.886 0 0 1 .658 1.477l-.001.003-.657-.594.657.594v-.001l-.002.003-.024.028a4.639 4.639 0 0 0-.424.615c-.245.424-.443.93-.443 1.417 0 .697.064 1.163.15 1.507a4.699 4.699 0 0 0 .356.948c.13.286.29.632.41 1.076.128.478.205 1.04.205 1.783 0 3.198-2.633 5.904-5.904 5.904-3.236 0-5.904-2.376-5.904-5.904 0-.808.076-1.409.204-1.906.129-.5.303-.86.447-1.153.14-.29.245-.505.326-.806.08-.302.145-.724.145-1.39 0-.59-.209-1.113-.44-1.508a3.67 3.67 0 0 0-.424-.583l-.002-.002v.001l.002.001-.19-.963zm9.255 1.224a6.427 6.427 0 0 1 .92-1.453l.015-.017.005-.006.002-.002c0-.001.001-.002.658.593v.885h-1.6zm-6.821 0h6.821c-.222.495-.408 1.106-.408 1.771 0 .809.076 1.42.201 1.93.126.513.296.89.44 1.207.006.01.01.021.015.032.138.3.241.526.321.823.082.302.145.706.145 1.322 0 2.234-1.854 4.133-4.133 4.133-2.313 0-4.132-1.638-4.132-4.133 0-.698.064-1.145.147-1.463.081-.316.187-.539.324-.82l.014-.03c.137-.28.305-.626.43-1.095.13-.484.206-1.066.206-1.846 0-.706-.173-1.328-.391-1.83zm-1.616-.885v.885h1.616a5.347 5.347 0 0 0-.963-1.484l-.017-.017-.006-.006-.002-.003h-.001v-.001l-.627.626z"/><path d="M39.793 34.952c.49 0 .886.397.886.886v9.446a.886.886 0 1 1-1.771 0v-9.446c0-.49.396-.886.885-.886z"/><path d="M36.192 45.284c0-.489.396-.886.885-.886h5.373a.886.886 0 0 1 0 1.772h-5.373a.886.886 0 0 1-.885-.886zm4.102-17.75c-.509.219-1.19.51-2.036.51a6.598 6.598 0 0 1-2.41-.463 4.308 4.308 0 0 1-.157-.068l-.047-.022-.016-.008-.005-.002-.002-.001-.001-.001.395-.793-.396.793a.886.886 0 0 1 .788-1.587m0 0l.018.009.091.039a4.828 4.828 0 0 0 1.742.333c.447 0 .826-.147 1.349-.371l.074-.032c.478-.206 1.12-.482 1.884-.482a6.032 6.032 0 0 1 2.319.47 3.818 3.818 0 0 1 .198.093l.015.008.006.003.002.001c.001 0 .002.001-.415.782l.417-.78a.886.886 0 0 1-.833 1.562l.004.002-.015-.007a3.71 3.71 0 0 0-.436-.168 4.261 4.261 0 0 0-1.262-.195c-.378 0-.713.136-1.26.371l-.011.005"/><path d="M37.288 17.901a.886.886 0 0 1 1.018.73l2.007 12.162a.886.886 0 0 1-1.748.289l-2.007-12.163a.886.886 0 0 1 .73-1.018zm8.114 2.527c-1.046 0-1.89.844-1.89 1.89a.886.886 0 0 1-1.77 0 3.657 3.657 0 0 1 3.66-3.661 3.657 3.657 0 0 1 3.66 3.66 3.657 3.657 0 0 1-3.66 3.661 3.628 3.628 0 0 1-1.797-.47.886.886 0 0 1 .879-1.539c.272.156.591.238.918.238 1.046 0 1.89-.844 1.89-1.89 0-1.045-.844-1.889-1.89-1.889z"/><path d="M32 2.952C15.957 2.952 2.952 15.957 2.952 32S15.957 61.048 32 61.048 61.048 48.043 61.048 32 48.043 2.952 32 2.952zM0 32C0 14.327 14.327 0 32 0c17.673 0 32 14.327 32 32 0 17.673-14.327 32-32 32C14.327 64 0 49.673 0 32z"/></g></svg>