<svg width="64" height="64" viewBox="0 0 64 64" fill="none" xmlns="http://www.w3.org/2000/svg"><path d="M20.73 39.58c-2.604 0-5.125.012-7.635-.01-.448 0-.906-.031-1.343-.127-2.531-.57-4.125-3.003-3.677-5.605.094-.57.24-1.131.365-1.702.5-2.264 1.812-3.882 3.812-4.95.718-.38 1.437-.772 2.062-1.1-.302-1.015-.719-1.977-.875-2.982-.614-3.754 2.146-7.488 5.874-8.016 4.614-.656 8.53 3.056 8.082 7.773-.26 2.792-1.76 4.812-4.301 5.88-2.594 1.09-5.03.666-7.218-1.132-.312-.254-.52-.296-.854-.095-.802.465-1.625.867-2.427 1.322-1.489.846-2.333 2.168-2.676 3.839-.094.465-.209.93-.282 1.396-.354 2.094 1.042 3.881 3.125 3.913 2.968.042 5.937.01 8.905.01a.773.773 0 0 0 .385-.095c1.292-.782 2.573-1.575 3.864-2.369l.125-.095c-2.239-3.902-.635-7.741 1.646-9.497 2.656-2.051 6.238-2.02 8.81.117 2.396 1.998 3.573 5.785 1.49 9.37.969.55 1.938 1.1 2.896 1.65.104.063.229.116.302.2.645.74 1.479.751 2.364.73 2.468-.032 4.926-.01 7.395-.01 2.437 0 3.864-1.756 3.384-4.178-.083-.444-.166-.899-.27-1.343-.407-1.777-1.448-3.046-3.031-3.881-.719-.381-1.448-.751-2.166-1.153-.26-.148-.417-.095-.636.095-2.156 1.83-4.593 2.295-7.197 1.248-2.54-1.015-4.01-3.014-4.405-5.764-.531-3.743 2.208-7.403 5.884-7.942 3.906-.571 7.489 2.094 8.062 5.965.26 1.766-.105 3.394-1.01 4.96.218.127.426.243.624.349.667.37 1.344.719 2.01 1.1 1.927 1.1 2.99 2.823 3.458 4.98.23 1.048.48 2.105.271 3.184-.469 2.358-2.375 3.934-4.801 3.945-2.417.01-4.823 0-7.239 0h-.458c.302 1.269.677 2.496.896 3.743.51 2.983-1.656 5.648-4.645 5.67-5.104.041-10.207.03-15.31 0-2.698-.011-4.948-2.328-4.719-4.96.115-1.312.573-2.592.886-3.893.01-.148.104-.296.198-.54zm11.258 7.848c2.52 0 5.03.01 7.551 0 1.656-.01 3-1.09 3.229-2.707.093-.656-.052-1.365-.156-2.03-.313-2.031-1.26-3.639-3.104-4.612-.77-.402-1.531-.825-2.312-1.206-.136-.063-.406-.031-.531.064-2.938 2.411-6.447 2.411-9.332.01-.125-.105-.417-.137-.573-.063-.719.338-1.417.74-2.125 1.11-1.76.91-2.822 2.338-3.176 4.315-.073.381-.146.762-.209 1.143-.375 2.252 1.031 3.965 3.291 3.976h7.447zm.042-10.269c3-.021 5.457-2.538 5.457-5.573 0-3.067-2.478-5.584-5.499-5.584-3 0-5.52 2.559-5.488 5.605.03 3.077 2.51 5.573 5.53 5.552zm-6.155-14.954c.03-3.077-2.406-5.595-5.448-5.626-2.978-.032-5.488 2.485-5.51 5.51-.02 3.098 2.386 5.594 5.427 5.647 3 .053 5.5-2.453 5.53-5.531zm12.237-.053c.01 3.088 2.458 5.574 5.489 5.584 2.99.01 5.478-2.517 5.468-5.552 0-3.11-2.469-5.626-5.52-5.605-2.99.01-5.437 2.527-5.437 5.573z" fill="#fff"/></svg>