<svg width="96" height="96" viewBox="0 0 96 96" fill="none" xmlns="http://www.w3.org/2000/svg"><path d="M3 48.253c1.271-1.15 2.734-1.938 4.467-2.245 2.171-.383 4.894.635 6.244 2.365-1.598 1.599-3.477 2.563-5.84 2.333-1.777-.165-3.33-.92-4.646-2.103-.067-.055-.158-.087-.225-.131v-.22zM82.29 48.615c1.27-1.15 2.733-1.938 4.466-2.245 2.171-.383 4.894.635 6.244 2.365-1.598 1.6-3.477 2.563-5.84 2.333-1.777-.164-3.33-.92-4.646-2.103-.067-.054-.157-.087-.225-.131v-.22zM47.666 5c.102.131.192.263.293.383 2.475 2.87 2.993 6.669-.18 9.844-.068.066-.135.12-.248.22-1.147-1.04-2.002-2.234-2.317-3.724-.551-2.639.405-4.818 2.227-6.723h.225z" fill="#005473"/><path d="M61.401 15.502c1.103-.592 2.216-.876 3.353-.515.664.208 1.282.58 1.856.964.36.24.585.34 1.013.12 1.406-.723 2.891-1.139 4.489-.766.517.12 1.001.383 1.586.613-.416.449-.754.8-1.08 1.16-1.924 2.158-3.364 4.567-3.769 7.447-.112.788-.056 1.598-.056 2.398 0 .427.191.624.675.657 3.071.23 5.75-.778 8.224-2.41 1.058-.711 2.025-1.554 3.083-2.365.641.778.866 1.698.765 2.705-.113 1.15-.596 2.168-1.215 3.143-.09.142-.124.438-.034.536 1.508 1.665 1.823 3.493.822 5.563 2.317.81 3.442 2.43 3.454 4.774 2.362.548 4.466 1.303 4.995 3.833-1.778.284-3.533.448-5.232.854-2.43.58-4.556 1.74-6.221 3.624-.316.361-.327.613-.012.975 1.62 1.894 3.69 3.099 6.11 3.679 1.518.361 3.093.47 4.646.69.18.022.371.022.574.033-.158 1.226-.788 2.179-1.778 2.814-.81.525-1.744.887-2.644 1.292-.247.11-.461.164-.472.504-.079 2.025-1.07 3.405-3.06 4.062-.046.01-.09.066-.158.11 1.069 2.003.63 3.766-.945 5.354 1.08 2.059 1.811 4.14.36 6.417-.214-.197-.394-.34-.563-.504-2.317-2.102-4.927-3.69-8.123-4.161-.765-.11-1.563-.088-2.351-.077-.844.022-.878.088-.923.931-.112 1.993.383 3.865 1.26 5.661.833 1.709 1.98 3.22 3.32 4.588l.37.395c-1.237 1.28-3.195 1.106-6.401-.559-1.699 1.61-3.657 2.004-5.783 1.04-.45.657-.81 1.314-1.294 1.873-.81.92-1.912 1.336-3.127 1.39-.495.022-.653.176-.754.647-.282 1.325-.822 2.54-1.924 3.438-.585.482-1.159.712-1.98.8-.057-.811-.09-1.621-.192-2.42-.326-2.727-1.17-5.268-2.992-7.425-.405-.47-.9-.876-1.34-1.314-.292-.285-.54-.263-.865-.01-1.508 1.17-2.543 2.66-3.286 4.368-.798 1.84-1.17 3.756-1.249 5.738-.01.307-.045.613-.078.964-1.137-.143-1.992-.69-2.7-1.479-.743-.82-1.216-1.795-1.53-2.836-.09-.284-.192-.438-.518-.449-2.104-.087-3.522-1.073-4.163-3.055-.011-.054-.056-.098-.101-.175-.416.12-.833.274-1.26.362-1.474.306-2.813-.033-3.927-.986-.495-.416-.799-.383-1.316-.066-1.204.745-2.532 1.216-3.994.942-.585-.11-1.125-.394-1.79-.646.282-.307.44-.482.609-.657 2.17-2.278 3.825-4.818 4.331-7.95.135-.821.056-1.664.101-2.507.023-.471-.247-.58-.652-.614-1.89-.197-3.69.143-5.434.833-2.026.799-3.77 2.015-5.345 3.47-.146.132-.303.264-.46.406-.923-1.227-1.036-2.562-.665-3.942.192-.712.552-1.39.81-2.092.057-.164.08-.448-.022-.558-1.429-1.555-1.733-3.263-.731-5.168-.068-.044-.124-.099-.18-.12-1.936-.636-2.903-1.994-3.027-3.92-.022-.428-.202-.538-.562-.647-1.373-.427-2.667-1.04-3.522-2.212-.394-.526-.619-1.172-.956-1.828 1.192-.11 2.216-.154 3.229-.307 3.172-.482 6.008-1.62 8.18-4.063.382-.438.37-.733-.012-1.15-1.789-1.948-4.062-3.098-6.638-3.657-1.53-.328-3.094-.46-4.67-.69-.157-1.61 1.722-3.12 4.917-3.854.034-2.31 1.114-3.975 3.454-4.774-1.012-2.18-.663-4.084 1.024-5.76-1.271-1.982-2.194-3.997-.72-6.198 1.215.91 2.34 1.84 3.567 2.64 1.957 1.28 4.129 2.047 6.514 2.168a7.69 7.69 0 0 0 1.508-.088c.157-.022.37-.285.393-.46.304-1.84-.078-3.592-.753-5.289-.8-1.982-2.037-3.69-3.51-5.234a30.57 30.57 0 0 1-.518-.547c1.293-.931 2.677-.997 4.106-.636.72.187 1.384.526 2.093.767.169.055.461.077.574-.022 1.608-1.39 3.352-1.675 5.31-.7.045-.077.101-.121.124-.187.619-1.84 1.969-2.792 3.915-2.934.506-.044.675-.23.821-.668.394-1.238 1.013-2.355 2.06-3.198a4.074 4.074 0 0 1 2.08-.909c.08.898.124 1.763.237 2.617.405 3 1.429 5.75 3.735 7.884 1.227 1.128 1.002 1.074 2.15-.01 1.945-1.84 2.97-4.184 3.453-6.746.236-1.248.326-2.53.484-3.843.799.044 1.496.394 2.093.941 1.023.942 1.496 2.158 1.811 3.45.045.164.225.416.36.416 2.194.175 3.769 1.171 4.58 3.307zM47.608 64.996l.157.383c1.541 3.778 3.454 7.326 6.402 10.26 1.71 1.708 3.667 3.055 6.03 3.778.439.131.698.088.923-.35.945-1.763 1.395-3.647 1.507-5.618.192-3.307-.483-6.493-1.586-9.603-.461-1.281-.99-2.54-1.508-3.854.248.098.45.175.653.262 3.735 1.566 7.583 2.738 11.7 2.815 2.51.043 4.917-.34 7.179-1.479.45-.23.551-.46.394-.93-.822-2.508-2.386-4.523-4.343-6.286-2.847-2.562-6.222-4.281-9.788-5.683-.27-.11-.54-.219-.9-.361.292-.12.495-.197.697-.274 3.432-1.325 6.683-2.956 9.484-5.332 2.138-1.807 3.882-3.899 4.782-6.57.259-.778.259-.789-.484-1.15-2.947-1.435-6.064-1.632-9.26-1.26-3.352.395-6.525 1.413-9.619 2.716-.157.066-.315.12-.55.219.134-.307.213-.482.292-.668 1.564-3.537 2.745-7.172 2.88-11.06.09-2.584-.281-5.091-1.564-7.413-.191-.35-.394-.448-.799-.328-2.261.668-4.151 1.916-5.816 3.504-2.757 2.617-4.624 5.803-6.143 9.209-.27.613-.53 1.237-.822 1.938-.123-.285-.202-.482-.281-.679-1.44-3.548-3.24-6.898-5.93-9.723-1.72-1.818-3.7-3.296-6.142-4.107-.956-.317-.968-.317-1.395.537-1.541 3.077-1.643 6.318-1.137 9.625.462 3.011 1.452 5.87 2.712 8.65.067.143.101.285.157.438a.876.876 0 0 1-.123.011c-.462-.186-.934-.383-1.395-.57-3.702-1.466-7.516-2.507-11.555-2.452-2.295.033-4.5.46-6.548 1.533-.349.186-.461.361-.338.767.44 1.412 1.137 2.693 2.037 3.876 2.408 3.154 5.67 5.267 9.237 6.975 1.204.57 2.453 1.062 3.668 1.599-.023.033-.045.066-.068.076-.157.066-.315.12-.473.187-3.678 1.423-7.155 3.186-10.08 5.825-1.924 1.741-3.454 3.734-4.276 6.198-.157.481-.09.733.405.985 2.734 1.369 5.648 1.643 8.641 1.39 3.465-.284 6.75-1.291 9.935-2.616.292-.12.596-.241 1-.405-.224.514-.404.908-.573 1.314-1.721 4.106-2.948 8.3-2.531 12.811.168 1.774.63 3.471 1.507 5.06.18.328.394.459.754.306.754-.307 1.553-.548 2.273-.931 3.127-1.642 5.423-4.14 7.178-7.074 1.271-2.113 2.318-4.336 3.443-6.471z" fill="#005473"/><path d="M71.417 24.961c-.034-2.003.495-3.821 2.025-5.266 1.418-1.336 3.196-1.917 5.13-2.048.26-.022.45.033.473.372.27 3.778-3.645 7.468-7.482 7.019-.033-.011-.056-.033-.146-.077zM71.425 71.621c4.31-.34 7.966 3.22 7.572 7.37-1.89.022-3.6-.504-5.074-1.643-1.879-1.456-2.52-3.438-2.498-5.727zM23.647 71.62c-.011 2.441-.731 4.511-2.824 5.956-1.26.877-2.7 1.304-4.241 1.424-.36.033-.563-.044-.552-.46.113-3.471 2.588-7.216 7.617-6.92zM47.52 81.223c3.466 3.087 3.005 7.216.338 10.161-.247.274-.438.252-.675-.011-2.542-2.748-3.24-6.953.338-10.15zM23.613 25.006c-2.96.36-5.862-1.358-6.965-4.183-.337-.855-.427-1.796-.618-2.705-.068-.296.067-.482.416-.493 3.949-.11 7.38 3.296 7.2 7.14.012.076-.01.142-.033.24z" fill="#005473"/></svg>