<svg xmlns="http://www.w3.org/2000/svg" width="64" height="64" viewBox="0 0 64 64"><g fill="#005473" fill-rule="evenodd"><path d="M29.048 13.048c0-.49.396-.886.885-.886h17.418c.489 0 .885.397.885.886v29.52c0 .49-.396.886-.885.886h-8.266a.886.886 0 0 1 0-1.771h7.38v-27.75H30.819v7.263a.886.886 0 1 1-1.771 0v-8.148z"/><path d="M21.963 30.288a2.138 2.138 0 0 0-2.125 2.125v12.104c0 1.164.961 2.125 2.125 2.125H32a2.138 2.138 0 0 0 2.125-2.125V32.413A2.138 2.138 0 0 0 32 30.288H21.963zm-3.897 2.125a3.91 3.91 0 0 1 3.897-3.896H32a3.91 3.91 0 0 1 3.897 3.896v12.104A3.91 3.91 0 0 1 32 48.413H21.963a3.91 3.91 0 0 1-3.897-3.896V32.413z"/><path d="M22.612 25.978c0-.49.397-.886.886-.886h7.026c.489 0 .886.397.886.886v3.483a.886.886 0 0 1-.886.886h-7.026a.886.886 0 0 1-.886-.886v-3.483zm1.772.886v1.712h5.254v-1.712h-5.254zm-1.358 21.55a.827.827 0 1 0 0 1.652.827.827 0 0 0 0-1.653zm-2.598.826a2.598 2.598 0 1 1 5.196 0 2.598 2.598 0 0 1-5.196 0zm10.804-.827a.827.827 0 1 0 0 1.653.827.827 0 0 0 0-1.653zm-2.597.827a2.598 2.598 0 1 1 5.195 0 2.598 2.598 0 0 1-5.195 0zM12.22 36.369c0-.49.397-.886.886-.886h9.86a.886.886 0 1 1 0 1.772h-9.86a.886.886 0 0 1-.886-.886zm1.358 3.13c0-.49.397-.886.886-.886h8.502a.886.886 0 0 1 0 1.771h-8.502a.886.886 0 0 1-.886-.886zm1.594 3.07c0-.49.397-.886.886-.886h6.908a.886.886 0 0 1 0 1.77h-6.908a.886.886 0 0 1-.886-.885z"/><path d="M32 2.952C15.957 2.952 2.952 15.957 2.952 32S15.957 61.048 32 61.048 61.048 48.043 61.048 32 48.043 2.952 32 2.952zM0 32C0 14.327 14.327 0 32 0c17.673 0 32 14.327 32 32 0 17.673-14.327 32-32 32C14.327 64 0 49.673 0 32z"/></g></svg>