<svg width="54" height="54" viewBox="0 0 54 54" fill="none" xmlns="http://www.w3.org/2000/svg"><path d="M27.027 41.714c-8.24 0-14.914-6.559-14.914-14.656 0-8.097 6.674-14.655 14.914-14.655 8.24 0 14.914 6.558 14.914 14.655s-6.757 14.656-14.914 14.656zm0-25.344c-5.933 0-10.794 4.777-10.794 10.607 0 5.83 4.861 10.607 10.794 10.607 5.933 0 10.794-4.696 10.794-10.607 0-5.83-4.861-10.607-10.794-10.607zM42.188 14.427c1.32 0 2.39-1.051 2.39-2.348s-1.07-2.348-2.39-2.348-2.39 1.051-2.39 2.348 1.07 2.348 2.39 2.348z" fill="#414141"/><path d="M40.622 53.536H14.75c-6.592 0-10.3-3.563-10.712-4.049C.082 45.52 0 40.095 0 39.852V13.617c0-5.425 3.049-8.42 3.708-8.988C7.663.582 13.678.5 13.925.5h26.78c.247 0 5.767.324 9.723 4.21 3.79 3.725 3.625 8.826 3.543 9.636v25.83c0 5.02-3.05 8.34-3.79 9.068-3.214 4.049-9.312 4.292-9.559 4.292zM13.925 4.386s-4.614.082-7.416 2.916v.161l-.164.081c-.083.081-2.39 2.106-2.39 6.154v26.154s.082 4.13 2.884 6.882l.082.081c.083.081 2.802 2.834 7.828 2.834h25.79c.33 0 4.615-.324 6.51-2.834l.083-.162.164-.162s2.637-2.51 2.637-6.315V14.103s.33-3.967-2.39-6.64c-2.718-2.672-6.674-3.076-7.086-3.076H13.925z" fill="#414141"/></svg>