<svg width="70" height="70" viewBox="0 0 70 70" fill="none" xmlns="http://www.w3.org/2000/svg"><path d="M3 34.858c.906-.82 1.949-1.383 3.184-1.601 1.547-.274 3.488.453 4.45 1.687-1.139 1.14-2.478 1.828-4.162 1.664-1.267-.117-2.373-.656-3.312-1.5-.048-.039-.112-.062-.16-.094v-.156zM34.835 4c.073.094.137.187.209.273 1.764 2.047 2.133 4.758-.128 7.024-.048.046-.097.085-.177.156-.818-.742-1.427-1.594-1.652-2.656-.393-1.883.289-3.438 1.588-4.797h.16z" fill="#1A1919"/><path d="M44.641 11.445c.788-.423 1.584-.626 2.397-.368.474.149.917.415 1.327.689.257.172.418.242.724.086 1.005-.517 2.066-.814 3.208-.548.37.086.716.274 1.134.438-.297.32-.538.571-.772.83-1.375 1.54-2.404 3.262-2.694 5.32-.08.563-.04 1.142-.04 1.713 0 .305.137.446.482.47 2.196.164 4.11-.556 5.88-1.722.755-.508 1.447-1.11 2.203-1.69.458.556.62 1.213.547 1.933-.08.821-.426 1.549-.869 2.245-.064.102-.088.313-.024.384 1.078 1.189 1.303 2.496.587 3.974 1.657.58 2.461 1.737 2.47 3.412 1.688.39 3.192.93 3.57 2.738-1.27.203-2.526.32-3.74.61-1.737.415-3.257 1.244-4.447 2.59-.225.258-.233.438-.008.696 1.158 1.354 2.638 2.215 4.367 2.63 1.085.257 2.211.336 3.321.492.129.016.266.016.41.024a2.724 2.724 0 0 1-1.27 2.01c-.58.376-1.247.634-1.89.923-.177.079-.33.118-.338.36-.056 1.448-.764 2.434-2.188 2.903-.032.008-.064.047-.112.078.764 1.432.45 2.692-.676 3.826.772 1.471 1.295 2.958.258 4.585-.153-.14-.282-.242-.402-.36-1.657-1.502-3.523-2.636-5.807-2.973-.547-.078-1.118-.063-1.68-.055-.604.016-.628.063-.66.665-.08 1.424.273 2.762.9 4.045.596 1.22 1.416 2.3 2.373 3.279l.265.281c-.884.916-2.284.79-4.576-.399-1.214 1.15-2.613 1.432-4.133.744-.322.469-.58.938-.925 1.338-.58.657-1.367.954-2.236.993-.354.016-.466.125-.539.462-.2.946-.587 1.815-1.375 2.456-.418.345-.828.509-1.415.572-.04-.58-.065-1.158-.137-1.73-.233-1.948-.836-3.763-2.14-5.304-.289-.337-.643-.626-.956-.939-.21-.204-.386-.188-.62-.008-1.077.837-1.817 1.901-2.348 3.122-.571 1.314-.836 2.684-.893 4.1-.008.219-.032.438-.056.688-.812-.101-1.423-.493-1.93-1.056-.53-.587-.869-1.283-1.094-2.026-.064-.204-.137-.313-.37-.321-1.504-.063-2.517-.767-2.975-2.183-.008-.04-.04-.07-.073-.125-.297.086-.595.195-.9.258-1.054.219-2.011-.024-2.807-.704-.354-.298-.571-.274-.941-.047-.86.532-1.81.868-2.855.673-.418-.079-.804-.282-1.279-.462.201-.22.314-.344.434-.47 1.553-1.627 2.735-3.442 3.097-5.68.096-.586.04-1.189.072-1.791.016-.337-.177-.415-.466-.438-1.351-.141-2.638.101-3.885.594-1.447.571-2.694 1.44-3.82 2.48-.104.094-.217.188-.33.29-.659-.876-.74-1.831-.474-2.817.137-.508.394-.993.579-1.494.04-.117.056-.32-.016-.4-1.021-1.11-1.239-2.33-.523-3.692-.048-.031-.088-.07-.128-.086-1.384-.454-2.075-1.424-2.164-2.801-.016-.305-.145-.384-.402-.462-.981-.305-1.906-.743-2.517-1.58-.282-.376-.443-.837-.684-1.307.853-.078 1.585-.11 2.308-.219 2.268-.344 4.295-1.158 5.847-2.903.274-.313.265-.524-.008-.821-1.279-1.393-2.903-2.214-4.745-2.613-1.094-.235-2.212-.329-3.337-.493-.113-1.15 1.23-2.23 3.514-2.754.024-1.651.796-2.84 2.469-3.412-.724-1.556-.475-2.918.732-4.115-.909-1.416-1.568-2.856-.515-4.428.869.65 1.673 1.314 2.55 1.885 1.399.916 2.951 1.463 4.656 1.55.362.015.724-.008 1.078-.063.112-.016.265-.204.281-.329.217-1.314-.056-2.566-.539-3.779-.57-1.416-1.455-2.636-2.509-3.74-.12-.125-.233-.242-.37-.39.925-.666 1.914-.713 2.935-.455.515.133.99.376 1.496.548.121.04.33.055.41-.015 1.15-.994 2.397-1.198 3.797-.501.032-.055.072-.086.088-.133.442-1.315 1.407-1.995 2.799-2.097.361-.031.482-.164.587-.477.281-.884.724-1.683 1.471-2.285a2.913 2.913 0 0 1 1.488-.65c.056.642.089 1.26.17 1.87.289 2.144 1.02 4.108 2.67 5.634.876.806.715.767 1.535-.008 1.392-1.314 2.123-2.989 2.47-4.82.168-.891.232-1.807.345-2.746.571.032 1.07.282 1.496.673.732.673 1.07 1.541 1.295 2.465.032.117.16.297.257.297 1.568.125 2.694.837 3.273 2.363zm-9.86 35.364l.113.274c1.102 2.7 2.469 5.234 4.576 7.331 1.222 1.22 2.622 2.183 4.31 2.7.314.093.5.062.66-.251.676-1.26.997-2.605 1.078-4.014.136-2.363-.346-4.64-1.134-6.861-.33-.916-.708-1.816-1.078-2.754.177.07.322.125.467.187 2.67 1.12 5.42 1.956 8.363 2.011 1.794.031 3.515-.242 5.131-1.056.322-.164.394-.329.282-.665-.587-1.792-1.705-3.231-3.104-4.491-2.035-1.83-4.448-3.06-6.997-4.06a74.83 74.83 0 0 0-.644-.259c.21-.086.354-.14.5-.196 2.452-.946 4.776-2.112 6.779-3.81 1.528-1.29 2.774-2.785 3.418-4.694.185-.556.185-.564-.346-.822-2.107-1.025-4.335-1.166-6.619-.9-2.397.282-4.664 1.01-6.876 1.94-.113.048-.225.087-.394.157.096-.219.153-.344.209-.477 1.118-2.527 1.962-5.125 2.059-7.902.064-1.847-.201-3.638-1.118-5.297-.137-.25-.281-.32-.571-.235-1.617.478-2.968 1.37-4.158 2.504-1.97 1.87-3.305 4.147-4.39 6.58-.194.438-.379.884-.588 1.385-.089-.204-.145-.345-.201-.485-1.03-2.535-2.316-4.93-4.238-6.948-1.23-1.299-2.646-2.355-4.391-2.934-.684-.227-.692-.227-.998.383-1.101 2.199-1.174 4.515-.812 6.878.33 2.151 1.038 4.193 1.938 6.18.049.102.073.204.113.314-.064.007-.072.007-.088.007-.33-.133-.668-.273-.998-.406-2.646-1.049-5.372-1.792-8.26-1.753-1.64.023-3.216.329-4.68 1.095-.249.133-.33.259-.241.548.314 1.01.812 1.925 1.456 2.77 1.72 2.253 4.053 3.763 6.602 4.984.86.406 1.753.758 2.622 1.142-.016.023-.032.047-.048.055-.113.047-.225.086-.338.133-2.63 1.017-5.115 2.276-7.206 4.162-1.375 1.244-2.469 2.668-3.056 4.428-.112.345-.064.525.29.705 1.954.977 4.037 1.173 6.176.993 2.477-.203 4.826-.923 7.101-1.87l.716-.29c-.16.368-.29.65-.41.94-1.23 2.934-2.107 5.93-1.81 9.154.121 1.267.45 2.48 1.078 3.614.129.235.282.329.539.22.539-.22 1.11-.392 1.624-.666 2.236-1.173 3.877-2.957 5.132-5.054.908-1.51 1.656-3.098 2.46-4.624z" fill="#292831"/><path d="M51.765 18.241c-.024-1.43.352-2.726 1.443-3.757 1.01-.954 2.278-1.367 3.657-1.461.184-.016.32.023.337.265.192 2.695-2.599 5.328-5.333 5.008-.024-.008-.04-.023-.104-.055zM51.77 51.53c3.072-.243 5.678 2.296 5.397 5.257-1.347.016-2.566-.36-3.616-1.172-1.34-1.039-1.797-2.453-1.78-4.086zM17.716 51.529c-.008 1.742-.521 3.219-2.013 4.25-.898.625-1.925.93-3.023 1.015-.257.024-.401-.03-.393-.328.08-2.476 1.844-5.148 5.429-4.937zM34.733 58.38c2.47 2.204 2.14 5.149.24 7.25-.176.196-.313.18-.481-.008-1.812-1.96-2.31-4.96.24-7.242zM17.692 18.273c-2.109.257-4.178-.97-4.964-2.985-.24-.609-.304-1.28-.44-1.93-.049-.21.047-.343.296-.35 2.815-.079 5.26 2.35 5.132 5.093.008.054-.008.101-.024.172zM59.366 35c.906-.82 1.949-1.383 3.183-1.602 1.548-.273 3.489.454 4.451 1.688-1.139 1.14-2.478 1.828-4.162 1.664-1.267-.117-2.373-.656-3.312-1.5-.048-.039-.112-.063-.16-.094V35z" fill="#1A1919"/></svg>