<svg width="70" height="70" viewBox="0 0 70 70" fill="none" xmlns="http://www.w3.org/2000/svg"><path d="M63.91 13H6.086A5.047 5.047 0 0 0 1 18.085V52.85a5.047 5.047 0 0 0 5.085 5.085H63.91a5.047 5.047 0 0 0 5.085-5.085V18.085C69.114 15.247 66.749 13 63.91 13zm2.72 39.851a2.625 2.625 0 0 1-2.6 2.602H6.084a2.625 2.625 0 0 1-2.602-2.602V18.085c0-1.42 1.183-2.602 2.602-2.602H63.91c1.419 0 2.601 1.183 2.601 2.602V52.85h.119z" fill="#292831"/><path d="M29.617 37.242c-.354-.118-.827-.236-1.3-.355.946-1.537 1.419-3.43 1.419-5.676 0-5.085-2.129-7.568-6.386-7.568s-6.386 2.483-6.386 7.568c0 2.247.592 4.139 1.42 5.558-.592.118-1.065.355-1.656.473-3.075 1.3-6.504 4.02-6.504 6.504v2.956c0 .71.591 1.183 1.182 1.183.592 0 1.183-.591 1.183-1.183v-2.956c0-.828 2.01-2.956 4.967-4.257.71-.237 1.537-.473 2.483-.591.946.827 2.01 1.3 3.075 1.3 1.064 0 2.128-.473 3.074-1.182.828.118 1.538.355 2.247.591 3.43 1.3 5.321 3.43 5.321 4.257v2.957c0 .709.592 1.182 1.183 1.182.71 0 1.182-.591 1.182-1.182v-2.957c.237-2.72-3.192-5.321-6.504-6.622zm-6.149.355c-1.537 0-3.902-2.602-3.902-6.504 0-4.14 1.419-5.085 3.902-5.085 2.484 0 3.903.828 3.903 5.085-.119 4.02-2.365 6.504-3.903 6.504z" fill="#292831"/></svg>