<svg width="70" height="70" viewBox="0 0 70 70" fill="none" xmlns="http://www.w3.org/2000/svg"><path d="M63.063 33.376H6.933c-1.305 0-2.492.475-3.56 1.187V18.187c0-.712-.593-1.187-1.186-1.187C1.475 17 1 17.593 1 18.187V52.6c0 .712.593 1.187 1.187 1.187.712 0 1.186-.593 1.186-1.187v-3.56h63.25v3.56c0 .712.593 1.187 1.187 1.187.712 0 1.186-.593 1.186-1.187V39.31c.119-3.323-2.61-5.934-5.933-5.934zm-56.13 2.492h56.249c1.898 0 3.56 1.543 3.56 3.56v1.068H3.373V39.31c0-1.898 1.543-3.44 3.56-3.44zm-3.56 10.68V42.87h63.25v3.68H3.373z" fill="#292831"/><path d="M7.882 28.392c1.187.83 2.73 1.424 4.51 1.899 1.067.237 2.017.356 3.085.356 2.492 0 4.628-.712 4.984-2.492.118-.712.118-2.018-1.899-3.442-1.187-.83-2.73-1.424-4.51-1.898-3.56-.831-7.475-.238-8.069 2.136-.118.593 0 2.017 1.899 3.441zm3.204-3.56c.712 0 1.543.119 2.492.237 2.967.594 4.39 1.9 4.51 2.374-.238.356-2.137.95-5.103.237-2.967-.712-4.51-2.017-4.51-2.373.119-.119 1.068-.475 2.611-.475z" fill="#414141"/></svg>