<svg width="82" height="81" viewBox="0 0 82 81" fill="none" xmlns="http://www.w3.org/2000/svg"><path d="M41.04 62.945c-12.511 0-22.646-10.017-22.646-22.383 0-12.367 10.135-22.383 22.647-22.383 12.512 0 22.647 10.016 22.647 22.383 0 12.366-10.26 22.383-22.647 22.383zm0-38.707c-9.008 0-16.39 7.296-16.39 16.2s7.382 16.2 16.39 16.2c9.01 0 16.392-7.172 16.392-16.2 0-8.904-7.382-16.2-16.391-16.2zM64.063 21.27c2.004 0 3.629-1.605 3.629-3.586 0-1.98-1.625-3.586-3.629-3.586s-3.628 1.605-3.628 3.586c0 1.98 1.624 3.586 3.628 3.586z" fill="#fff"/><path d="M61.685 81H22.398c-10.01 0-15.64-5.441-16.266-6.183C.125 68.757 0 60.472 0 60.1V20.034C0 11.748 4.63 7.173 5.63 6.307 11.637.124 20.77 0 21.147 0H61.81c.375 0 8.758.495 14.764 6.43 5.756 5.69 5.505 13.48 5.38 14.717v39.448c0 7.668-4.63 12.738-5.755 13.85C71.32 80.63 62.06 81 61.685 81zM21.145 5.936s-7.006.124-11.26 4.452v.247l-.25.124c-.126.123-3.63 3.215-3.63 9.398v39.944s.126 6.307 4.38 10.511l.125.124c.125.123 4.255 4.328 11.887 4.328H61.56c.5 0 7.007-.494 9.885-4.328l.125-.248.25-.247s4.004-3.833 4.004-9.646v-39.82s.5-6.059-3.628-10.14c-4.13-4.08-10.135-4.7-10.76-4.7h-40.29z" fill="#fff"/></svg>