<svg width="70" height="70" viewBox="0 0 70 70" fill="none" xmlns="http://www.w3.org/2000/svg"><path d="M54.552 42.092l-8.55-3.269-1.132-.377c2.767-3.772 4.653-9.179 4.653-15.717C49.523 10.659 44.87 5 34.937 5s-14.585 5.658-14.585 17.729c0 6.287 1.76 11.693 4.526 15.465-1.006.252-2.012.63-2.892 1.006l-6.664 2.767C8.407 44.859 3 50.894 3 55.797v7.922c0 .755.629 1.257 1.257 1.257.755 0 1.258-.628 1.258-1.257v-7.921c0-3.773 4.904-9.053 10.687-11.442l6.664-2.767c1.132-.503 2.39-.88 3.773-1.131 2.514 2.514 5.406 3.898 8.298 3.898 2.766 0 5.658-1.384 8.047-3.773.755.252 1.383.378 2.138.63l8.55 3.268c5.784 2.264 10.813 7.293 10.813 11.065v7.922c0 .754.629 1.257 1.258 1.257.628 0 1.257-.629 1.257-1.257v-7.922c0-4.778-5.532-10.688-12.448-13.454zm-19.615-.377c-4.904 0-11.945-6.79-11.945-18.986C22.992 9.4 29.027 7.64 34.937 7.64S46.882 9.4 46.882 22.73c0 12.196-7.041 18.986-11.945 18.986z" fill="#292831"/></svg>