<svg width="91" height="87" viewBox="0 0 91 87" fill="none" xmlns="http://www.w3.org/2000/svg"><path d="M8.74 65.839c-.283-2.836-.677-5.198-.677-7.561 0-1.773-.508-2.54-2.143-3.131C.62 53.139 0 52.134 0 46.345c0-7.915 1.128-9.451 8.514-11.282 9.81-2.363 19.733-2.245 29.656-1.064.339.06.733.06 1.523.119V28.21 10.195c0-4.017.733-5.671 4.398-6.852 4.003-1.3 8.175-2.363 12.29-2.777 9.36-.945 18.776-.945 27.91 1.89C90.21 4.288 91 5.469 91 11.79v51.628c0 5.257-.959 6.675-5.75 8.329-7.33 2.54-14.942 2.658-22.554 2.835-2.255.06-4.454 1.182-6.653 1.89-.338.119-.676.768-.676 1.123.113 4.194-2.82 5.494-5.807 6.557-7.781 2.717-15.844 3.249-23.906 2.599-5.3-.414-10.6-1.3-15.787-2.658-5.075-1.3-5.92-3.013-5.92-8.448 0-.472.056-1.004 0-1.476-.564-4.372.902-7.502 4.792-8.33zm78.257-52.396c-14.603 4.076-28.924 4.076-43.245-.06-1.128 7.03-.564 8.389 5.018 9.63 10.487 2.362 21.087 2.716 31.574.235 8.119-1.83 6.878-1.18 6.653-9.805zM43.47 25.789v3.13c0 5.021-.056 5.317 4.624 6.262 5.3 1.063 10.712 1.89 16.125 2.067 6.822.296 13.7-.236 20.24-2.717 1.072-.413 2.425-1.477 2.594-2.48.395-2.01.113-4.136.113-6.262-14.716 4.194-29.036 4.194-43.696 0zm43.696 12.286c-11.784 4.076-23.68 3.663-35.802 2.304 0 2.54-.113 4.726.056 6.852.056.65.959 1.713 1.522 1.773 9.754.945 19.508 1.358 29.093-1.182 5.075-1.3 5.018-1.418 5.075-6.911.056-.827.056-1.713.056-2.836zM4.23 41.56c6.596 5.494 38.283 5.317 43.132-.295-5.47-5.316-37.889-5.375-43.132.295zM86.884 8.953c0-.413.056-.827.056-1.24-1.296-.532-2.537-1.24-3.833-1.477-5.018-.827-9.98-1.831-15.054-2.067-7.33-.355-14.66-.06-21.707 2.54-.959.354-1.748 1.004-2.65 1.536.113.354.169.65.282 1.004 14.377 4.253 28.698 4.607 42.906-.296zM59.652 53.67c-.508 1.95-.733 3.485 1.297 4.608.902.472 1.41 1.772 2.199 2.599.507.531 1.24 1.3 1.804 1.24 5.13-.354 10.374-.413 15.335-1.536 8.57-1.949 6.766-1.654 6.88-9.451 0-.177-.114-.295-.283-.59-8.795 3.248-17.986 3.366-27.232 3.13zm-47.586 5.316c-.451 3.486-.395 3.958 2.65 4.726 4.566 1.063 9.133 2.009 13.813 2.422 8.063.709 16.069.118 23.906-2.304 2.199-.709 4.003-1.83 2.819-4.784-14.377 4.135-28.698 4.075-43.188-.06zm-7.95-12.463c-.846 2.54.056 4.194 2.537 4.725 4.229.886 8.4 1.89 12.686 2.304 8.344.886 16.689.295 24.808-2.068 2.255-.65 4.454-1.594 3.157-4.843-14.377 4.076-28.754 4.135-43.188-.118zm4.06 28.649c-1.016 3.19.394 4.608 3.1 5.375 8.176 2.304 16.464 2.895 24.808 2.009 4.454-.473 8.796-1.595 13.194-2.6.902-.177 1.635-1.063 2.424-1.653-14.941.945-29.375.945-43.527-3.131zm8.005-6.557c-.225.295-.507.532-.732.827.902.768 1.691 2.009 2.706 2.304 4.172 1.004 8.4 2.067 12.63 2.48 8.738.828 17.421.532 25.879-2.362 2.931-1.004 3.1-1.477 2.311-4.549-14.095 4.254-28.416 3.663-42.794 1.3zm70.985-4.903c-7.95 1.063-15.787 2.127-23.68 3.19v3.544c7.217.06 14.095-.354 20.805-2.54 2.311-.827 3.552-2.126 2.875-4.194zm-31.348-9.806c-3.496-1.181-5.92-1.063-8.514.532-2.03 1.24-4.567 1.654-6.935 2.186-2.311.531-4.68.827-7.047 1.24 7.386-.177 14.884-.059 22.496-3.958z" fill="#fff"/></svg>