<svg width="116" height="105" viewBox="0 0 116 105" fill="none" xmlns="http://www.w3.org/2000/svg"><path d="M85.664 6.982c-3.583-3.402-.2-6.982 0-6.982.181 0 3.584 3.56 0 6.982z" fill="#fff"/><path d="M76.283 7.972s5.637.099 9.381 9.969c3.744-9.87 9.38-9.97 9.38-9.97s-.14-3.144-3.442-3.144c0 0-.342-3.007-2.697-3.264 0 5.776-3.241 7.655-3.241 7.655s-3.301-1.82-3.301-7.576c-2.295.297-2.9 3.165-2.9 3.165-3.28.02-3.18 3.165-3.18 3.165zM85.664 50.757c-3.583 3.402-.201 6.982 0 6.982.181-.02 3.584-3.58 0-6.982z" fill="#fff"/><path d="M76.283 49.748s5.637-.1 9.38-9.97c3.745 9.87 9.382 9.97 9.382 9.97s-.141 3.145-3.443 3.145c0 0-.342 2.987-2.697 3.244 0-5.776-3.241-7.655-3.241-7.655s-3.301 1.82-3.301 7.576c-2.295-.297-2.9-3.165-2.9-3.165-3.28.02-3.18-3.145-3.18-3.145zM63.4 28.86c-3.463 3.52-7.086.198-7.086 0-.02-.178 3.603-3.501 7.086 0z" fill="#fff"/><path d="M64.406 38.078s.101-5.539 10.146-9.198c-10.045-3.7-10.146-9.218-10.146-9.218s-3.2.138-3.2 3.382c0 0-3.06.337-3.322 2.651 5.878 0 7.81 3.185 7.81 3.185s-1.851 3.244-7.71 3.244c.303 2.255 3.222 2.848 3.222 2.848 0 3.224 3.2 3.105 3.2 3.105zM107.948 28.86c3.463 3.52 7.106.198 7.106 0-.02-.178-3.643-3.501-7.106 0z" fill="#fff"/><path d="M106.921 38.078s-.1-5.539-10.145-9.198c10.045-3.7 10.145-9.218 10.145-9.218s3.201.138 3.201 3.382c0 0 3.04.337 3.302 2.651-5.879 0-7.791 3.185-7.791 3.185s1.852 3.244 7.71 3.244c-.302 2.255-3.221 2.848-3.221 2.848.02 3.224-3.201 3.105-3.201 3.105zM101.426 44.328c4.972-.08 5.153 4.787 5.012 4.925-.141.139-5.093-.02-5.012-4.925z" fill="#fff"/><path d="M107.324 37.128s-4.046 3.837-13.79-.534c4.45 9.573.544 13.55.544 13.55s2.376 2.116 4.69-.179c0 0 2.416 1.88 4.248.435-4.167-4.094-3.22-7.674-3.22-7.674s3.643-1.01 7.79 3.066c1.409-1.8-.222-4.253-.222-4.253 2.315-2.275-.04-4.411-.04-4.411zM69.922 13.391c.08-4.905-4.892-5.063-5.013-4.925-.14.119.02 4.985 5.013 4.925z" fill="#fff"/><path d="M77.27 7.576s-3.906 3.976.543 13.55c-9.763-4.372-13.81-.535-13.81-.535s-2.153-2.334.162-4.609c0 0-1.913-2.353-.423-4.173 4.167 4.094 7.79 3.165 7.79 3.165s1.007-3.58-3.12-7.655c1.832-1.385 4.328.217 4.328.217 2.335-2.274 4.53.04 4.53.04zM101.426 13.372c-.101-4.886 4.872-5.064 5.012-4.926.121.139-.04 5.005-5.012 4.926z" fill="#fff"/><path d="M94.078 7.576s3.906 3.976-.543 13.55c9.743-4.372 13.789-.535 13.789-.535s2.154-2.334-.181-4.609c0 0 1.912-2.353.443-4.173-4.167 4.094-7.81 3.165-7.81 3.165s-1.007-3.58 3.119-7.655c-1.831-1.385-4.328.217-4.328.217-2.315-2.274-4.489.04-4.489.04zM69.922 44.328c-4.992-.08-5.153 4.806-5.012 4.925.12.139 5.073-.02 5.013-4.925z" fill="#fff"/><path d="M64.004 37.128s4.046 3.837 13.79-.534c-4.45 9.573-.544 13.57-.544 13.57s-2.376 2.116-4.69-.16c0 0-2.396 1.88-4.248.416 4.167-4.094 3.22-7.655 3.22-7.655s-3.643-1.009-7.79 3.066c-1.409-1.8.222-4.253.222-4.253-2.315-2.314.04-4.45.04-4.45zM.573 52.22a.66.66 0 0 1 .644-.652c.362 0 .664.296.664.652v4.51h6.704v-4.51c0-.356.302-.652.664-.652a.66.66 0 0 1 .644.652v10.286a.66.66 0 0 1-.644.653.664.664 0 0 1-.664-.653v-4.569H1.902v4.57a.664.664 0 0 1-.665.652.66.66 0 0 1-.644-.653V52.22h-.02zM12.691 57.383v-.02c0-3.145 2.416-5.914 5.938-5.914 3.543 0 5.919 2.73 5.919 5.875v.04c0 3.144-2.416 5.914-5.959 5.914-3.543 0-5.898-2.75-5.898-5.895zm10.508 0v-.02c0-2.59-1.933-4.707-4.59-4.707s-4.55 2.096-4.55 4.688v.04c0 2.59 1.933 4.707 4.59 4.707 2.658-.02 4.55-2.117 4.55-4.708zM29.621 52.834H26.24c-.322 0-.624-.258-.624-.594 0-.316.282-.613.624-.613h8.072c.322 0 .624.277.624.613 0 .336-.281.593-.624.593H30.93v9.653a.664.664 0 0 1-1.33 0v-9.652h.021zM37.31 62.407V52.28a.66.66 0 0 1 .645-.653h7.227c.342 0 .604.257.604.593a.6.6 0 0 1-.604.594h-6.563v3.897h5.818c.322 0 .604.276.604.593a.588.588 0 0 1-.604.593h-5.818v3.996h6.643c.343 0 .604.257.604.593a.6.6 0 0 1-.604.594h-7.307a.693.693 0 0 1-.644-.673zM48.443 52.22a.66.66 0 0 1 .644-.652c.363 0 .665.296.665.652v9.653h6.039c.322 0 .604.277.604.614a.6.6 0 0 1-.604.593h-6.704a.66.66 0 0 1-.644-.653V52.22zM.573 72.832a.66.66 0 0 1 .644-.653c.362 0 .664.297.664.653v10.286a.664.664 0 0 1-.664.652.66.66 0 0 1-.644-.652V72.832zM5.304 72.851c0-.336.302-.632.644-.632h.181c.302 0 .483.138.664.375l7.066 8.842v-8.624c0-.336.282-.633.644-.633.342 0 .624.297.624.633v10.306c0 .336-.241.613-.604.613h-.06c-.282 0-.483-.159-.684-.396l-7.207-9.06v8.843a.643.643 0 0 1-.644.632.639.639 0 0 1-.624-.632V72.85zM18.428 72.91a.66.66 0 0 1 .644-.652h3.382c3.664 0 6.18 2.473 6.18 5.677v.04c0 3.224-2.536 5.716-6.18 5.716h-3.382a.66.66 0 0 1-.644-.653V72.911zm4.046 9.575c2.94 0 4.811-1.959 4.811-4.49v-.04c0-2.532-1.872-4.53-4.81-4.53h-2.738v9.06h2.737zM30.909 77.994v-.04c0-3.144 2.416-5.914 5.959-5.914 3.542 0 5.918 2.73 5.918 5.875v.04c0 3.145-2.416 5.914-5.939 5.914-3.563 0-5.938-2.71-5.938-5.875zm10.508 0v-.04c0-2.59-1.933-4.707-4.59-4.707s-4.55 2.097-4.55 4.688v.04c0 2.59 1.933 4.707 4.59 4.707 2.658 0 4.55-2.077 4.55-4.688zM45.544 72.851c0-.336.302-.632.644-.632h.182c.302 0 .483.138.664.375l7.066 8.842v-8.624c0-.336.282-.633.644-.633.342 0 .624.297.624.633v10.306c0 .336-.242.613-.604.613h-.06c-.282 0-.484-.159-.685-.396l-7.206-9.06v8.843a.643.643 0 0 1-.645.632.639.639 0 0 1-.624-.632V72.85zM58.669 83.038V72.911a.66.66 0 0 1 .644-.653h7.227a.6.6 0 0 1 .604.593.588.588 0 0 1-.604.594h-6.563v3.897h5.818c.322 0 .604.276.604.593a.588.588 0 0 1-.604.593h-5.818v3.996h6.644a.6.6 0 0 1 .603.594.6.6 0 0 1-.603.593h-7.308a.693.693 0 0 1-.644-.673zM69.398 82.305c-.16-.1-.241-.278-.241-.495 0-.356.282-.633.624-.633.16 0 .322.06.402.138 1.087.91 2.194 1.346 3.664 1.346 1.57 0 2.597-.811 2.597-1.939v-.02c0-1.068-.584-1.661-3.02-2.176-2.677-.573-3.905-1.424-3.905-3.303v-.04c0-1.8 1.61-3.125 3.825-3.125 1.53 0 2.637.376 3.704 1.128.14.099.282.277.282.514a.622.622 0 0 1-.624.613.671.671 0 0 1-.383-.118c-.986-.693-1.932-.99-3-.99-1.51 0-2.475.811-2.475 1.84v.04c0 1.068.603 1.68 3.16 2.215 2.597.554 3.785 1.484 3.785 3.224v.04c0 1.958-1.671 3.224-3.966 3.224-1.731.06-3.14-.475-4.429-1.483zM80.571 72.832a.66.66 0 0 1 .644-.653c.362 0 .664.297.664.653v10.286a.664.664 0 0 1-.664.652.66.66 0 0 1-.644-.652V72.832zM84.556 82.84l4.71-10.128c.162-.356.424-.574.826-.574h.06c.403 0 .665.218.806.574l4.71 10.127c.06.12.08.238.08.337a.622.622 0 0 1-.623.613c-.322 0-.523-.218-.644-.475l-1.208-2.63H86.89l-1.207 2.67c-.121.277-.343.435-.624.435a.6.6 0 0 1-.604-.594c.02-.118.04-.237.1-.356zm8.234-3.343l-2.678-5.836-2.677 5.836h5.355zM.07 98.625v-.04c0-3.125 2.335-5.914 5.837-5.914 1.752 0 2.9.455 3.966 1.227.141.118.262.296.262.514a.66.66 0 0 1-.644.653.748.748 0 0 1-.423-.159c-.825-.613-1.772-1.048-3.221-1.048-2.577 0-4.429 2.136-4.429 4.688v.04c0 2.729 1.772 4.747 4.61 4.747a5.6 5.6 0 0 0 3.362-1.147v-2.849H6.27a.58.58 0 0 1-.584-.573c0-.317.262-.594.584-.594h3.744a.66.66 0 0 1 .644.653v3.481c0 .317-.14.594-.443.792a7.168 7.168 0 0 1-4.227 1.384C2.324 104.5.07 101.889.07 98.625zM13.618 93.522a.66.66 0 0 1 .644-.653h4.348c1.43 0 2.577.415 3.301 1.147.564.554.906 1.345.906 2.255v.04c0 1.879-1.288 2.967-3.1 3.323l2.899 3.659c.14.159.221.297.221.475 0 .336-.322.633-.664.633-.262 0-.463-.138-.624-.336l-3.281-4.174h-3.342v3.877a.665.665 0 0 1-.664.653.66.66 0 0 1-.644-.653V93.522zm4.871 5.182c1.752 0 3-.89 3-2.353v-.02c0-1.405-1.108-2.255-2.98-2.255h-3.583v4.628h3.563zM25.112 98.625v-.04c0-3.144 2.415-5.914 5.958-5.914s5.919 2.73 5.919 5.875v.04c0 3.145-2.416 5.914-5.959 5.914-3.543 0-5.918-2.73-5.918-5.875zm10.488 0v-.04c0-2.59-1.933-4.727-4.59-4.727s-4.55 2.097-4.55 4.688v.04c0 2.591 1.933 4.707 4.59 4.707 2.657.02 4.55-2.077 4.55-4.668zM39.565 99.535v-6.072a.66.66 0 0 1 .644-.653c.362 0 .664.296.664.653v5.993c0 2.473 1.35 3.857 3.563 3.857 2.134 0 3.503-1.266 3.503-3.778v-6.072c0-.356.302-.653.664-.653a.66.66 0 0 1 .645.653v5.973c0 3.323-1.953 5.064-4.852 5.064-2.879-.02-4.831-1.741-4.831-4.965zM52.368 93.522a.66.66 0 0 1 .645-.653h3.704c2.617 0 4.348 1.365 4.348 3.62v.04c0 2.472-2.094 3.738-4.57 3.738h-2.818v3.462a.664.664 0 0 1-.664.652.66.66 0 0 1-.645-.652V93.522zm4.188 5.578c1.932 0 3.18-1.009 3.18-2.512v-.04c0-1.642-1.248-2.472-3.12-2.472h-2.94V99.1h2.88z" fill="#fff"/></svg>