<svg width="109" height="33" viewBox="0 0 109 33" fill="none" xmlns="http://www.w3.org/2000/svg"><path d="M75.512 15.617V4.087c-.048-.011-.097-.024-.158-.048-.147.232-.306.451-.452.683-2.162 3.44-4.335 6.881-6.472 10.334-.256.403-.513.598-1.014.573a39.126 39.126 0 0 0-2.93 0c-.44.013-.696-.146-.928-.512-2.162-3.49-4.335-6.966-6.509-10.456a1.786 1.786 0 0 0-.525-.585v11.492c-.305.025-.525.05-.745.05-1.257 0-2.527-.025-3.785.011-.586.025-.757-.146-.757-.744.024-4.71.012-9.43.012-14.152 0-.22.024-.44.037-.72h1.44c1.979 0 3.945.012 5.923-.012.464-.013.733.134.977.537 2.003 3.27 4.03 6.539 6.057 9.796.097.171.22.318.39.574.428-.696.806-1.306 1.185-1.916 1.722-2.83 3.431-5.66 5.165-8.491.134-.22.44-.464.672-.464C75.537.001 77.979.013 80.42.025c.073 0 .159.024.293.049.013.232.037.476.037.708 0 4.697-.012 9.394.012 14.09 0 .574-.134.782-.733.757-1.465-.036-2.942-.012-4.518-.012zM19.718 7.577c.17.048.438.122.706.207 1.218.391 1.998 1.222 2.12 2.493a8.903 8.903 0 0 1-.135 2.542c-.268 1.295-1.205 2.077-2.448 2.37-1.023.245-2.082.404-3.117.416-5.42.037-10.84.025-16.26.025-.158 0-.316-.025-.535-.037-.012-.22-.037-.415-.037-.611C.012 10.216.024 5.45 0 .684 0 .134.17 0 .694 0c4.81.024 9.622-.024 14.432.037 1.45.012 2.935.122 4.336.464 2.4.574 3.471 3.495 2.07 5.56-.438.623-1.205 1.014-1.814 1.516zm-14.384 4.79h2.619c2.618-.012 5.237 0 7.843-.037 1.035-.012 1.559-.55 1.596-1.466.048-1.039-.33-1.503-1.401-1.699-.231-.049-.487-.049-.73-.049H6.015c-.219 0-.438.012-.682.025v3.226zm5.2-6.147h.61c1.352 0 2.716.025 4.067-.012 1.328-.025 1.95-.819 1.632-2.016-.182-.685-.645-1.015-1.656-1.027-3.142-.024-6.284-.012-9.426-.012-.39 0-.475.17-.463.525.012.672.024 1.345 0 2.017-.037.427.146.537.548.537 1.571-.024 3.13-.012 4.689-.012zM84.323.026h3.518c1.353 0 2.705.012 4.058-.012.406-.012.677.11.947.415 3.272 3.636 6.568 7.26 9.852 10.896.135.146.185.366.283.549l.258-.183c.013-.257.037-.513.037-.77 0-3.391.013-6.795-.012-10.187 0-.537.111-.757.713-.732 1.329.049 2.669.024 3.998.012.405 0 .578.085.578.537-.013 4.856-.013 9.724-.013 14.58 0 .134-.037.269-.061.488h-.677c-2.25 0-4.513-.012-6.764.013-.455 0-.751-.147-1.058-.476-3.284-3.6-6.593-7.199-9.876-10.786-.136-.147-.246-.317-.37-.476a1.244 1.244 0 0 0-.184.085v11.592c-.258.024-.418.06-.578.06H84.79c-.32 0-.553-.012-.553-.439.012-4.966.012-9.92.012-14.885 0-.073.037-.122.074-.28zM25.299 0h5.265v8.705c0 .403.036.818.085 1.221.159 1.307.672 1.905 1.991 2.076 2.553.33 5.119.33 7.672 0 1.368-.183 1.905-.806 2.04-2.173.073-.733.085-1.466.085-2.198.012-2.527 0-5.043 0-7.619h5.29c.012.183.036.366.036.537v9.585c0 .525-.049 1.05-.122 1.575-.195 1.587-1.026 2.735-2.565 3.174-1.32.367-2.7.696-4.068.72-3.36.074-6.706-.012-10.066-.085-.745-.012-1.49-.195-2.223-.378-2.309-.562-3.396-1.71-3.469-4.09-.11-3.614-.049-7.24-.049-10.867A.423.423 0 0 0 25.3 0zM22.579 31.947c17.288-3.33 34.624-4.44 52.105-4.099l-3.867.165c-1.285.055-2.582.099-3.867.187-4.85.33-9.711.593-14.548 1.055a391.737 391.737 0 0 0-15.663 1.824c-3.746.506-7.468 1.22-11.19 1.88-.521.087-.933.043-1.37-.199-.473-.274-.957-.494-1.6-.813zM14.63 26.715c-.27-.104-.456-.196-.64-.253-.763-.241-.813-.276-.542-.976.222-.55.517-1.078.788-1.618.098-.206.197-.401.345-.723-.96.103-1.797.16-2.61.31-.197.034-.382.321-.492.54-.493.94-.948 1.905-1.453 2.926-.43-.172-.825-.344-1.342-.55.308-.655.591-1.298.899-1.929.27-.55.837-1.056.074-1.813 1.07.046 1.243-.62 1.55-1.171.21-.39.48-.769.629-1.182.344-.918 1.095-1.056 2.043-1.021-.492 1.01-.972 1.996-1.502 3.11.96-.08 1.822-.15 2.684-.253.123-.011.246-.23.332-.378.394-.609.788-1.206 1.145-1.837.357-.642.862-.906 1.699-.746a945.591 945.591 0 0 0-3.607 7.564zM86.842 19.999c-.494 1.032-.924 1.962-1.366 2.88-.754 1.58-1.47 3.172-2.29 4.714-.702 1.325-2.211 1.427-3.148.23-.17-.217-.104-.6-.143-.905.338.025.702-.013.989.114.247.115.403.42.715.778.52-.969 1.002-1.886 1.496-2.804a77.451 77.451 0 0 0-.09-.089c-.326.204-.638.446-.977.624-.494.268-1.027.383-1.535.052-.52-.345-.56-.841-.468-1.415.3-1.848 2.433-3.963 4.293-4.167.794-.076 1.587-.012 2.524-.012zm-5.53 4.013c0 .587.274.612.625.395a9.104 9.104 0 0 0 2.81-2.841c.092-.14.052-.344.066-.522-.183 0-.39-.052-.547.012-1.275.497-2.186 1.402-2.823 2.574-.078.128-.104.306-.13.382zM25.882 26.819c-.341-.13-.622-.238-.939-.356.025-.202.061-.403.11-.711-.183.13-.317.237-.45.32-.354.237-.683.51-1.061.687-.988.462-1.89-.107-1.829-1.185.074-1.292.756-2.311 1.682-3.188.915-.842 2-1.34 3.267-1.434.378-.024.573-.178.72-.51.23-.545.499-1.079.755-1.612.28-.58.573-.7 1.39-.51-1.22 2.845-2.426 5.666-3.645 8.498zm-2.681-1.02c1.048-.13 3.071-2.512 3.351-3.935-1.718.06-3.937 2.667-3.351 3.935zM62.462 23.72c-.446.842-.851 1.582-1.257 2.333-.432-.205-.824-.399-1.284-.615.19-.386.379-.762.554-1.149.879-1.786 1.757-3.56 2.622-5.358.19-.387.365-.649.96-.558.284.046.608-.068 1.095-.136-.757 1.4-1.446 2.685-2.136 3.982l.135.113c1-.512 1.987-1.023 2.947-1.513.27.296.5.558.77.854-1.013.489-2.054 1-3.149 1.536.946.728 1.825 1.41 2.757 2.127-.594.16-1.08.33-1.581.42-.122.024-.324-.158-.46-.284-.635-.546-1.257-1.114-1.973-1.752zM45.158 20.877c-.833 1.774-1.627 3.457-2.42 5.14-.782-.127-1.115-.473-.68-1.291-.614.415-1.05.738-1.523 1.014-.564.334-1.179.473-1.78.046-.602-.415-.64-.968-.423-1.556.448-1.221 1.268-2.258 2.241-3.18.23-.22.807-.127 1.383-.208-.55.784-1.012 1.43-1.447 2.075-.307.472-.576.98-.845 1.475-.052.104-.026.3.051.357.077.058.307.058.397 0 .423-.276.896-.542 1.23-.899.73-.772 1.383-1.602 2.061-2.42.257-.311.461-.657 1.012-.45.167.058.397-.046.743-.103zM56.354 24.918c.398-.255.874-.463 1.182-.787.796-.834 1.515-1.714 2.26-2.583.308-.358.514-.822 1.194-.578.141.046.36-.058.668-.128-.848 1.795-1.644 3.497-2.453 5.21a58.802 58.802 0 0 1-.886-.393l.141-.926c-.32.231-.513.416-.757.544-.45.255-.886.544-1.387.695-.77.243-1.618-.325-1.605-1.054.013-.405.102-.857.308-1.216.424-.73.976-1.401 1.438-2.107.424-.66 1.002-.88 1.824-.649-.655 1.297-1.9 2.328-2.21 3.775.13.07.206.127.283.197zM22.579 20.86c-.643 1.657-1.285 3.197-1.846 4.777-.28.776-.56 1.424-1.518 1.126.011-.117.023-.285.035-.479-.07.026-.129.026-.176.052-.327.181-.642.414-.993.518-1.016.31-1.764-.492-1.542-1.606.362-1.838 2.582-3.961 4.253-4.13.315-.026.607-.207.922-.259.246-.039.503 0 .865 0zm-1.507 1.152c-1.624.22-3.481 2.537-3.248 3.935 1.776-.582 2.208-2.447 3.248-3.935z" fill="#fff"/><path d="M79.404 23.522c.14.124.281.248.46.411-.179.182-.332.401-.562.535-.96.564-2.06.832-3.287.67-.909-.116-1.42-.67-1.318-1.358.23-1.625 2.456-3.02 4.656-2.934.627.029 1.113.239 1.33.688.23.459-.064.822-.524 1.08-1.01.564-2.188.831-3.428.985-.307.038-.69.009-.665.372.025.363.383.42.767.43 1.036.01 1.893-.286 2.571-.879zm-2.916-.784c.038.058.09.115.128.182.857-.24 1.726-.468 2.583-.727.141-.047.205-.238.307-.363-.179-.067-.37-.19-.537-.181-1.061.057-1.88.449-2.481 1.09zM90.68 23.226c.643.37.411.717.012 1.03-1.018.786-2.216 1.064-3.53.867-.709-.115-1.16-.66-1.186-1.33-.077-1.563 1.47-3.264 3.389-3.692a6.4 6.4 0 0 1 1.34-.127c.618 0 1.082.277 1.275.81.194.509-.013.949-.476 1.284-1.031.718-2.242 1.03-3.492 1.238-.31.047-.696.012-.67.44.026.44.374.521.76.521 1.031 0 1.881-.347 2.577-1.041zm-2.9-1.007c.039.07.078.15.116.22.85-.278 1.714-.544 2.551-.857.168-.058.232-.312.348-.474-.206-.07-.425-.232-.618-.209-1.005.128-1.817.567-2.397 1.32zM72.863 25.926a2.072 2.072 0 0 0-.306-.138c-.82-.357-.856-.402-.477-1.23.33-.725.697-1.427 1.04-2.14.098-.196.159-.414.306-.77-2.276.839-2.753 2.817-3.769 4.405-.354-.196-.66-.368-1.052-.587.771-1.553 1.554-3.117 2.313-4.624.403.035.71.058 1.076.08-.036.162-.073.334-.134.576.318-.15.6-.288.88-.414.551-.242 1.114-.288 1.603.115.465.38.38.885.184 1.334-.526 1.127-1.089 2.231-1.664 3.393zM46.643 20.842c.245.068.405.136.564.158.147.012.307-.022.527-.056-.073.215-.135.384-.22.633.367-.181.662-.328.968-.452.54-.215 1.079-.249 1.545.124.466.373.38.882.184 1.311-.503 1.108-1.08 2.181-1.63 3.29-.38-.125-.7-.227-1.067-.351.184-1.345 1.177-2.408 1.569-3.81-1.14.385-1.814 1.097-2.354 1.866-.54.757-.895 1.639-1.348 2.498a37.97 37.97 0 0 0-1.092-.61c.785-1.538 1.57-3.064 2.354-4.6zM55.733 18.357c-.351.644-.664 1.254-1.015 1.91h1.73c-.063.576-.314.858-.978.813-.915-.068-1.467.317-1.818 1.108-.514 1.164-1.178 2.283-1.792 3.413-.075.146-.175.282-.276.452-.388-.226-.727-.43-1.216-.724.74-1.277 1.517-2.622 2.344-4.057-.614.046-1.115.08-1.63.125-.037-.26-.074-.486-.112-.814.59-.057 1.19-.08 1.78-.192.276-.057.589-.237.764-.44.301-.351.514-.77.765-1.165.363-.588.539-.655 1.454-.43zM33.78 20.897c-.133.326-.24.582-.4.978.574-.291 1.04-.524 1.494-.768.533-.291 1.026-.489 1.346.22.04.082.134.14.254.268-.52.21-.973.43-1.453.594-1.4.477-2.4 1.28-2.827 2.57-.053.163-.146.326-.226.489-.453.977-.453.977-1.573.465.36-1.535 1.08-2.954 1.84-4.374.053-.093.226-.174.36-.209.36-.093.72-.14 1.186-.233zM97.263 20.792c-2.402.52-3.642 2.07-4.102 4.392a18.03 18.03 0 0 0-.538-.31l-.57-.31c.537-1.349 1.02-2.732 1.645-4.048.132-.288.757-.343 1.262-.542-.132.398-.209.641-.319.984.494-.287.9-.52 1.295-.763.406-.255.757-.376.987.21.055.089.154.155.34.387zM99.868 19.974c-.726 1.763-1.4 3.403-2.087 5.02-.04.11-.324.22-.441.183a2.566 2.566 0 0 1-.83-.453c-.104-.098-.156-.38-.078-.514.674-1.261 1.388-2.486 2.049-3.747.311-.612.869-.244 1.387-.49zM30.395 21.71c-.105.325-.21.612-.296.924-.392 1.297-.793 2.582-1.166 3.879-.134.461-.305.499-.611.274-.63-.474-.65-.461-.325-1.31.373-.96.745-1.92 1.137-2.868.372-.886.382-.886 1.26-.899zM30.395 20.603c0-.386.28-.68.528-.622.136.036.304.186.336.314.048.23-.336.586-.568.544-.136-.036-.24-.186-.296-.236zM99 18.61c.016-.774.294-1.343.548-1.226.135.073.302.394.317.642.04.497-.333 1.183-.571 1.066-.127-.073-.23-.38-.294-.482z" fill="#fff"/></svg>