<svg width="320" height="105" viewBox="0 0 320 105" fill="none" xmlns="http://www.w3.org/2000/svg"><g clip-path="url(#clip0)"><path d="M19.718 81.365v-9.007h-14.6v9.007H0V59.297h5.118v8.332h14.6v-8.332h5.117v22.068h-5.117zM91.815 81.365v-9.007H77.14v9.007h-5.042V59.297h5.042v8.332h14.675v-8.332h5.118v22.068h-5.118zM35.673 59.297h-5.117v22.068h5.117V59.297zM53.734 81.966c-1.881 0-3.612-.226-5.268-.751-1.655-.526-3.085-1.201-4.29-2.102-2.934-2.252-4.44-5.179-4.44-8.782 0-3.528 1.506-6.455 4.516-8.707 1.204-.976 2.71-1.726 4.365-2.177 1.656-.525 3.462-.75 5.343-.75 2.408 0 4.591.45 6.472 1.276 1.882.826 3.688 2.177 5.193 3.978l.753.826-4.666 2.252-.452-.45c-.978-1.052-2.032-1.802-3.236-2.328-1.204-.525-2.634-.825-4.29-.825-1.204 0-2.333.15-3.31.45-1.055.3-1.882.75-2.635 1.276-1.806 1.351-2.71 3.002-2.71 5.104 0 .976.227 1.952.603 2.777.376.826.978 1.577 1.73 2.177.753.6 1.656 1.126 2.71 1.426 1.054.376 2.333.526 3.688.526 2.032 0 3.763-.45 5.117-1.201a6.909 6.909 0 0 0 2.333-2.327h-9.03v-4.729h15.427v1.201c0 1.726-.376 3.378-.978 4.879a11.134 11.134 0 0 1-2.86 3.828c-1.204 1.05-2.71 1.876-4.365 2.402-1.73.45-3.612.75-5.72.75z" fill="#BC9764"/><path d="M125.456 81.44l-6.171-8.707h-12.041v8.707h-3.161V59.222h17.761c2.333 0 4.139.6 5.494 1.802 1.279 1.2 1.957 2.927 1.957 5.029 0 .975-.151 1.801-.452 2.552-.301.75-.677 1.35-1.204 1.876-.527.526-1.129.976-1.806 1.276-.678.3-1.43.526-2.258.676l-.527.075 6.096 8.782h-3.688v.15zm-18.212-11.484h13.998c1.505 0 2.709-.3 3.462-.976.828-.675 1.279-1.651 1.279-2.852 0-2.702-1.731-4.129-5.042-4.129h-13.697v7.957zM135.992 81.44V59.222h22.427V62h-19.266v6.53h13.396v2.778h-13.396v7.356h20.169v2.777h-23.33zM187.093 81.44l-5.945-19.89-6.021 19.89h-4.365l-7.375-22.218h3.612l5.946 19.966 6.02-19.966h4.29l6.021 19.966 5.945-19.966h3.613l-7.3 22.218h-4.441zM224.045 81.44l-2.634-5.104h-15.804l-2.634 5.104h-3.387l11.816-22.218h4.365l11.815 22.218h-3.537zm-16.933-7.881h12.718l-6.321-12.085-6.397 12.085zM253.773 81.44l-6.171-8.707H235.56v8.707h-3.161V59.222h17.761c2.333 0 4.14.6 5.494 1.802 1.28 1.2 1.957 2.927 1.957 5.029 0 .975-.15 1.801-.451 2.552-.302.75-.678 1.35-1.205 1.876-.526.526-1.128.976-1.806 1.276-.677.3-1.43.526-2.258.676l-.526.075 6.096 8.782h-3.688v.15zM235.56 69.956h13.998c1.506 0 2.71-.3 3.462-.976.828-.675 1.28-1.651 1.28-2.852 0-2.702-1.731-4.129-5.043-4.129H235.56v7.957zM264.309 81.44V59.222h14.148c1.957 0 3.763.3 5.344.826a11.497 11.497 0 0 1 3.988 2.252c1.054.976 1.882 2.177 2.484 3.528.602 1.426.903 3.002.903 4.653 0 1.577-.301 3.003-.903 4.354-.602 1.35-1.505 2.477-2.71 3.528a9.91 9.91 0 0 1-3.762 2.176c-1.43.526-2.936.75-4.591.75h-14.901v.151zm3.16-2.777h12.042a8.868 8.868 0 0 0 3.236-.6c.978-.376 1.881-.976 2.559-1.727.677-.75 1.279-1.576 1.655-2.627a9.2 9.2 0 0 0 .602-3.303c0-1.276-.225-2.402-.677-3.453a8.5 8.5 0 0 0-1.806-2.702c-.753-.75-1.731-1.35-2.785-1.726a10.701 10.701 0 0 0-3.612-.6h-11.364v16.738h.15zM307.809 81.966c-2.86 0-5.494-.3-7.676-.901-2.108-.6-3.914-1.501-5.494-2.702l1.731-2.252c1.806 1.05 3.612 1.876 5.418 2.402 1.882.525 3.914.825 6.096.825 2.785 0 4.892-.375 6.397-1.125 1.505-.751 2.258-1.877 2.258-3.228 0-.9-.301-1.651-.828-2.102-.527-.45-1.279-.825-2.182-1.05-.904-.226-2.032-.376-3.387-.526-1.355-.075-2.86-.225-4.516-.3-1.731-.15-3.311-.3-4.59-.526-1.28-.225-2.333-.525-3.236-.975-.828-.376-1.43-.976-1.882-1.652-.376-.675-.602-1.501-.602-2.552 0-2.026.903-3.603 2.86-4.804 1.957-1.2 4.741-1.801 8.429-1.801 4.666 0 8.73 1.05 11.891 3.152l-1.882 2.102a26.797 26.797 0 0 0-4.967-1.876 21.276 21.276 0 0 0-5.343-.676c-2.409 0-4.29.3-5.569.9-1.355.601-2.032 1.502-2.032 2.553 0 1.126.752 2.026 2.182 2.477.677.225 1.355.375 2.183.525.752.075 1.655.15 2.558.225l2.936.15c1.053.076 2.107.15 3.311.3 2.784.376 4.892 1.052 6.171 2.027 1.28.976 1.957 2.327 1.957 4.129 0 2.326-.979 4.053-3.01 5.329-2.108 1.276-5.193 1.952-9.182 1.952z" fill="#005473"/><path d="M100.546 6.455c-3.236-3.152-.151-6.455 0-6.455.15 0 3.236 3.303 0 6.455zm0 46.763c.15 0 3.236-3.303 0-6.456-3.236 3.153-.151 6.456 0 6.456zM80.301 26.57c-3.16-3.227-6.472-.15-6.472 0 .075.225 3.312 3.303 6.472 0zm40.49 0c3.16 3.228 6.472.15 6.472 0-.075-.15-3.387-3.227-6.472 0zm-5.946 14.262c-.075 4.503 4.44 4.653 4.591 4.578.075-.15-.075-4.653-4.591-4.578zM86.247 12.31c.075-4.504-4.44-4.654-4.591-4.579-.075.15.075 4.654 4.59 4.579zm28.598 0c4.516.075 4.666-4.429 4.591-4.579-.151-.075-4.666.075-4.591 4.579zM86.247 40.833c-4.516-.075-4.666 4.428-4.591 4.578.15.075 4.666-.075 4.59-4.578zm39.435-11.26c-.301 2.102-2.935 2.628-2.935 2.628 0 1.876-1.129 2.552-1.956 2.777.451.75.752 2.027-.527 3.303 0 0 1.505 2.251.225 3.903-3.762-3.753-7.074-2.853-7.074-2.853s-.828 3.303 2.935 7.056c-1.655 1.351-3.838-.375-3.838-.375-1.355 1.35-2.785 1.05-3.537.6-.301.826-.978 2.102-2.935 2.102 0 0-.301 2.777-2.484 3.002 0-5.329-2.935-7.055-2.935-7.055s-3.01 1.651-3.01 6.98c-2.107-.3-2.634-2.927-2.634-2.927-1.882 0-2.559-1.201-2.785-2.027-.828.376-2.182.676-3.462-.675 0 0-2.182 1.726-3.838.375 3.763-3.753 2.935-7.056 2.935-7.056s-3.311-.9-7.074 2.853c-1.28-1.652.226-3.903.226-3.903-1.28-1.276-.979-2.553-.527-3.303-.828-.225-1.957-.9-1.957-2.777 0 0-2.634-.526-2.935-2.627 5.343 0 7-3.003 7-3.003s-1.732-2.927-7.075-2.927c.226-2.102 3.01-2.477 3.01-2.477 0-1.952 1.204-2.702 2.107-2.927-.376-.826-.752-2.177.602-3.528 0 0-1.73-2.177-.376-3.828 3.763 3.753 7.075 2.927 7.075 2.927s.903-3.303-2.86-7.056c1.655-1.276 3.913.226 3.913.226 1.28-1.276 2.559-.976 3.311-.526.226-.825.904-1.951 2.785-1.951 0 0 .527-2.627 2.634-2.928 0 5.33 3.01 6.98 3.01 6.98s2.936-1.726 2.936-7.055c2.107.225 2.483 3.003 2.483 3.003 1.882 0 2.634 1.126 2.935 2.026.753-.45 2.032-.825 3.387.526 0 0 2.258-1.502 3.913-.226-3.763 3.754-2.86 7.056-2.86 7.056s3.312.826 7.075-2.927c1.354 1.651-.377 3.828-.377 3.828 1.355 1.35 1.054 2.777.603 3.528.827.3 2.107.975 2.107 2.927 0 0 2.784.3 3.01 2.477-5.343 0-7.074 2.927-7.074 2.927s1.505 2.928 6.848 2.928zm-17.083-3.002c5.87-2.177 6.999-5.254 7.3-6.305-.979-.6-3.989-1.951-9.633.676 2.558-5.63 1.279-8.632.677-9.608-1.129.225-4.139 1.426-6.322 7.28-2.182-5.779-5.193-6.98-6.322-7.28-.602.976-1.956 3.978.678 9.608-5.645-2.552-8.655-1.276-9.633-.676.226 1.126 1.43 4.129 7.3 6.305-5.87 2.177-7 5.18-7.3 6.305.978.6 3.988 1.952 9.633-.675-2.559 5.63-1.28 8.632-.678 9.607 1.13-.225 4.14-1.426 6.322-7.28 2.183 5.854 5.268 6.98 6.322 7.28.602-.975 1.957-3.978-.677-9.607 5.644 2.552 8.654 1.276 9.633.675-.301-1.05-1.43-4.128-7.3-6.305z" fill="#BC9764"/><path d="M104.083 93.525c0-.226.226-.45.452-.45.225 0 .451.224.451.45v10.358h6.472c.226 0 .377.15.377.375s-.151.376-.377.376h-6.848c-.226 0-.452-.226-.452-.451V93.525h-.075zM116.501 98.929c0-3.153 2.333-6.005 5.795-6.005 3.462 0 5.795 2.777 5.795 5.93 0 3.152-2.333 5.93-5.795 5.93-3.462.075-5.795-2.702-5.795-5.855zm10.762 0c0-2.852-2.107-5.18-4.892-5.18-2.86 0-4.892 2.328-4.892 5.105 0 2.852 2.108 5.179 4.892 5.179 2.785.075 4.892-2.252 4.892-5.104zM137.272 100.13l-4.515-6.305c-.075-.075-.075-.15-.075-.225 0-.225.225-.45.451-.45.151 0 .301.074.376.224l4.215 6.005 4.214-6.005a.415.415 0 0 1 .377-.225c.226 0 .451.225.451.376 0 .15-.075.225-.15.3l-4.44 6.23v4.203c0 .225-.226.451-.452.451s-.452-.226-.452-.451v-4.128zM146.228 104.108l4.892-10.658c.151-.225.301-.376.602-.376s.452.15.602.376l4.892 10.583c.075.075.075.15.075.225 0 .225-.15.376-.376.376s-.376-.151-.451-.301l-1.355-2.927h-6.773l-1.355 3.002c-.075.226-.226.301-.376.301-.226 0-.377-.15-.377-.376-.075-.075-.075-.15 0-.225zm8.505-3.453l-3.011-6.68-3.01 6.68h6.021zM163.387 93.525c0-.226.225-.45.451-.45s.452.224.452.45v10.358h6.472c.226 0 .376.15.376.375s-.15.376-.376.376h-6.848c-.226 0-.452-.226-.452-.451V93.525h-.075zM178.589 93.975h-3.687c-.226 0-.377-.15-.377-.375s.151-.376.377-.376h8.203c.226 0 .376.15.376.376 0 .225-.15.375-.376.375h-3.688v10.358a.486.486 0 0 1-.451.451c-.226 0-.452-.226-.452-.451V93.975h.075zM193.265 100.13l-4.516-6.305c-.075-.075-.075-.15-.075-.225 0-.225.226-.45.451-.45.151 0 .301.074.377.224l4.214 6.005 4.215-6.005a.413.413 0 0 1 .376-.225c.226 0 .452.225.452.376 0 .15-.076.225-.151.3l-4.44 6.23v4.203c0 .225-.226.451-.452.451a.485.485 0 0 1-.451-.451v-4.128zM213.133 93.6c0-.225.226-.45.451-.45h3.763c2.559 0 4.29 1.275 4.29 3.527 0 2.402-2.107 3.678-4.515 3.678h-3.086v3.903c0 .225-.226.451-.452.451a.486.486 0 0 1-.451-.451V93.6zm4.064 6.005c2.107 0 3.612-1.126 3.612-2.853 0-1.801-1.43-2.777-3.462-2.777h-3.236v5.63h3.086zM227.583 93.6c0-.225.226-.45.452-.45h4.44c1.43 0 2.559.45 3.236 1.125.527.526.903 1.276.903 2.102 0 1.951-1.43 3.002-3.387 3.303l3.312 4.203c.075.075.15.225.15.3 0 .225-.225.45-.451.45a.415.415 0 0 1-.377-.225l-3.537-4.578h-3.763v4.428a.485.485 0 0 1-.451.451c-.226 0-.452-.226-.452-.451V93.6h-.075zm4.741 5.554c1.957 0 3.387-.976 3.387-2.627 0-1.576-1.204-2.477-3.311-2.477h-3.914v5.18h3.838v-.076zM242.483 98.929c0-3.153 2.333-6.005 5.795-6.005 3.462 0 5.795 2.777 5.795 5.93 0 3.152-2.333 5.93-5.795 5.93-3.537.075-5.795-2.702-5.795-5.855zm10.687 0c0-2.852-2.107-5.18-4.892-5.18-2.86 0-4.892 2.328-4.892 5.105 0 2.852 2.108 5.179 4.892 5.179 2.86.075 4.892-2.252 4.892-5.104zM259.944 98.929c0-3.153 2.258-6.005 5.72-6.005 1.731 0 2.86.45 3.913 1.276a.57.57 0 0 1 .151.376c0 .225-.226.45-.452.45-.075 0-.15 0-.301-.15-.903-.676-1.881-1.201-3.462-1.201-2.784 0-4.741 2.402-4.741 5.104 0 3.002 1.882 5.179 4.967 5.179 1.43 0 2.86-.6 3.688-1.276v-3.303h-3.612c-.226 0-.377-.15-.377-.375s.151-.375.377-.375h3.988c.226 0 .452.225.452.45v3.753c0 .15-.151.375-.301.526-1.054.825-2.484 1.501-4.215 1.501-3.687 0-5.795-2.702-5.795-5.93zM276.802 93.6c0-.225.226-.45.451-.45h4.441c1.429 0 2.558.45 3.236 1.125.526.526.903 1.276.903 2.102 0 1.951-1.43 3.002-3.387 3.303l3.311 4.203c.076.075.151.225.151.3 0 .225-.226.45-.452.45a.414.414 0 0 1-.376-.225l-3.537-4.578h-3.763v4.428a.486.486 0 0 1-.451.451c-.226 0-.452-.226-.452-.451V93.6h-.075zm4.741 5.554c1.957 0 3.387-.976 3.387-2.627 0-1.576-1.204-2.477-3.312-2.477h-3.913v5.18h3.838v-.076zM291.402 104.108l4.891-10.658c.151-.225.301-.376.602-.376.302 0 .452.15.603.376l4.891 10.583c.076.075.076.15.076.225 0 .225-.151.376-.377.376a.509.509 0 0 1-.451-.301l-1.355-2.927h-6.773l-1.355 3.002c-.075.226-.226.301-.376.301-.226 0-.376-.15-.376-.376-.076-.075 0-.15 0-.225zm8.579-3.453l-3.01-6.68-3.011 6.68h6.021zM308.636 93.525c0-.226.226-.45.451-.45h.076c.15 0 .301.074.451.224l4.516 6.606 4.515-6.606c.075-.15.226-.225.452-.225h.075c.226 0 .452.225.452.45v10.734c0 .225-.226.451-.452.451s-.452-.226-.452-.451v-9.607l-4.214 6.155a.414.414 0 0 1-.376.225.415.415 0 0 1-.377-.225l-4.214-6.155v9.682c0 .226-.151.376-.376.376-.226 0-.377-.15-.377-.376V93.525h-.15z" fill="#939598"/></g><defs><clipPath id="clip0"><path fill="#fff" d="M0 0h320v104.859H0z"/></clipPath></defs></svg>