<svg width="48" height="48" viewBox="0 0 48 48" fill="none" xmlns="http://www.w3.org/2000/svg"><path d="M40.923 21.023a5.381 5.381 0 0 0 2.065-2.663 5.621 5.621 0 0 0 .118-3.419 5.423 5.423 0 0 0-1.875-2.81 5.076 5.076 0 0 0-3.121-1.081c-1.125 0-2.22.379-3.121 1.08a5.422 5.422 0 0 0-1.875 2.811 5.62 5.62 0 0 0 .118 3.419 5.38 5.38 0 0 0 2.065 2.663c-1.842.734-3.353 2.158-4.237 3.992a9.91 9.91 0 0 0-3.58-2.469 6.768 6.768 0 0 0 2.597-3.35 7.072 7.072 0 0 0 .15-4.3 6.822 6.822 0 0 0-2.36-3.537A6.385 6.385 0 0 0 23.94 10a6.385 6.385 0 0 0-3.926 1.36 6.821 6.821 0 0 0-2.36 3.535 7.07 7.07 0 0 0 .15 4.301 6.768 6.768 0 0 0 2.597 3.35 9.886 9.886 0 0 0-3.51 2.385c-.89-1.796-2.385-3.19-4.199-3.913a5.38 5.38 0 0 0 2.065-2.663 5.62 5.62 0 0 0 .119-3.419A5.422 5.422 0 0 0 13 12.126a5.076 5.076 0 0 0-3.12-1.081c-1.126 0-2.22.379-3.121 1.08a5.422 5.422 0 0 0-1.876 2.811 5.62 5.62 0 0 0 .119 3.419 5.38 5.38 0 0 0 2.065 2.663 7.94 7.94 0 0 0-3.68 3.012A8.432 8.432 0 0 0 2 28.683c0 4.527 3.529 5.153 7.882 5.153 1.559 0 3.006-.08 4.228-.392.626 4.554 4.79 5.223 9.835 5.223 5.047 0 9.223-.672 9.836-5.25 1.244.333 2.735.42 4.337.42 4.353 0 7.882-.625 7.882-5.154a8.432 8.432 0 0 0-1.393-4.652 7.94 7.94 0 0 0-3.684-3.008z" stroke="#fff" stroke-width="2" stroke-linecap="round" stroke-linejoin="round"/><path d="M27.436 22.546a6.766 6.766 0 0 0 2.597-3.35 7.07 7.07 0 0 0 .149-4.3 6.82 6.82 0 0 0-2.36-3.534 6.384 6.384 0 0 0-3.924-1.36 6.384 6.384 0 0 0-3.926 1.36 6.82 6.82 0 0 0-2.359 3.535 7.07 7.07 0 0 0 .15 4.3 6.767 6.767 0 0 0 2.596 3.35 9.987 9.987 0 0 0-4.627 3.785 10.603 10.603 0 0 0-1.748 5.848c0 5.693 4.438 6.487 9.914 6.487 5.475 0 9.913-.789 9.913-6.487 0-2.089-.61-4.128-1.748-5.848a9.988 9.988 0 0 0-4.627-3.786v0z" stroke="#fff" stroke-width="2" stroke-linecap="round" stroke-linejoin="round"/></svg>