<svg width="48" height="48" viewBox="0 0 48 48" fill="none" xmlns="http://www.w3.org/2000/svg"><path d="M40.42 43.717H7.33a1.284 1.284 0 0 1-1.003-.44 1.321 1.321 0 0 1-.315-1.061l2.885-24.269c.068-.572.678-1.037 1.353-1.037h27.246c.68 0 1.288.457 1.352 1.037l2.884 24.269a1.33 1.33 0 0 1-.313 1.059 1.296 1.296 0 0 1-1 .442v0zM33.014 16.91a11.75 11.75 0 0 0 .103-1.555C33.117 9.637 28.98 5 23.875 5c-5.103 0-9.24 4.636-9.24 10.355-.001.52.034 1.04.103 1.555h18.276z" stroke="#fff" stroke-width="2" stroke-linecap="round" stroke-linejoin="round"/><path d="M14.894 22.371c.86 0 1.556-.706 1.556-1.576 0-.87-.697-1.576-1.556-1.576-.859 0-1.555.705-1.555 1.576 0 .87.696 1.576 1.555 1.576zM33.117 22.371c.86 0 1.556-.706 1.556-1.576 0-.87-.697-1.576-1.556-1.576-.859 0-1.555.705-1.555 1.576 0 .87.696 1.576 1.555 1.576z" fill="#fff"/></svg>