<svg width="48" height="48" viewBox="0 0 48 48" fill="none" xmlns="http://www.w3.org/2000/svg"><path d="M39.344 38.963l-4.251-18.778c8.71-9.076 10.854-14.464 9.519-15.795-1.335-1.331-6.856.49-16.13 9.431L10.004 9.646c-2.918-.933-5.477-.83-5.907.304-.384 1.018 1.078 2.548 3.403 3.74l-.015.046 13.986 7.486c-3.563 4.09-6.655 8.155-8.748 11.372l-6.247-.215c-1.109-.15-2.155.093-2.415.585-.236.438.233.948 1.084 1.245l-.01.02 5.436 2.076s.304-.023 1.212.88c.908.903.888 1.202.888 1.202l2.084 5.45.02-.01c.3.85.808 1.32 1.248 1.077.493-.262.735-1.305.586-2.413l-.22-6.326c3.185-2.13 7.203-5.258 11.268-8.86l7.592 14.172.047-.013c1.194 2.33 2.725 3.783 3.743 3.398 1.135-.424 1.237-2.98.305-5.899z" stroke="#fff" stroke-width="2" stroke-miterlimit="10"/></svg>