<svg width="48" height="48" viewBox="0 0 48 48" fill="none" xmlns="http://www.w3.org/2000/svg"><path d="M5.131 10h30.92v17.728c0 1.341-.26 2.67-.766 3.908a10.227 10.227 0 0 1-2.179 3.314 10.04 10.04 0 0 1-3.26 2.214A9.911 9.911 0 0 1 26 37.94H15.182a9.97 9.97 0 0 1-7.107-2.991 10.298 10.298 0 0 1-2.944-7.222V10zM40.07 15.487c-1.549 0-2.958.743-4.013 1.958v10.918c1.055 1.215 2.464 1.959 4.013 1.959 3.275 0 5.93-3.32 5.93-7.416s-2.655-7.419-5.93-7.419z" stroke="#fff" stroke-width="2" stroke-miterlimit="10"/><path d="M2 38.132h39.029" stroke="#fff" stroke-width="2" stroke-linecap="round" stroke-linejoin="round"/></svg>