<svg width="48" height="48" viewBox="0 0 48 48" fill="none" xmlns="http://www.w3.org/2000/svg"><path d="M8.094 10h31.811c.808 0 1.582.3 2.152.835.571.535.892 1.26.892 2.017v9.14H5.05v-9.14c0-.756.32-1.482.891-2.017A3.15 3.15 0 0 1 8.094 10v0zM44.205 22.053H3.795c-.992 0-1.795.753-1.795 1.682v9.97c0 .929.803 1.682 1.795 1.682h40.41c.992 0 1.795-.753 1.795-1.682v-9.97c0-.93-.803-1.682-1.795-1.682z" stroke="#fff" stroke-width="2" stroke-miterlimit="10"/><path d="M41.678 35.306h-3.273c-.701 0-1.27.533-1.27 1.19v1.13c0 .657.569 1.19 1.27 1.19h3.273c.702 0 1.27-.533 1.27-1.19v-1.13c0-.657-.568-1.19-1.27-1.19zM9.594 35.306H6.321c-.701 0-1.27.533-1.27 1.19v1.13c0 .657.569 1.19 1.27 1.19h3.273c.702 0 1.27-.533 1.27-1.19v-1.13c0-.657-.568-1.19-1.27-1.19zM19.309 16.473h-7.073c-.702 0-1.27.533-1.27 1.19V20.6c0 .657.568 1.19 1.27 1.19h7.073c.701 0 1.27-.533 1.27-1.19v-2.936c0-.657-.569-1.19-1.27-1.19zM35.764 16.473H28.69c-.701 0-1.27.533-1.27 1.19V20.6c0 .657.569 1.19 1.27 1.19h7.073c.701 0 1.27-.533 1.27-1.19v-2.936c0-.657-.569-1.19-1.27-1.19z" stroke="#fff" stroke-width="2" stroke-miterlimit="10"/><path d="M2 31.912v2.032c0 .79.614 1.434 1.364 1.434h41.272c.75 0 1.364-.647 1.364-1.434v-2.032H2z" stroke="#fff" stroke-width="2" stroke-miterlimit="10"/></svg>