<svg width="48" height="48" viewBox="0 0 48 48" fill="none" xmlns="http://www.w3.org/2000/svg"><path d="M33.446 19.13l-25.832-.01c-.94 0-1.544-.015-1.544-.015l4.584-7.359c.257-.42.96-.746 1.562-.746h16.448c.602 0 1.299.327 1.561.746l4.585 7.375s-.43.009-1.364.009z" stroke="#fff" stroke-width="2" stroke-miterlimit="10"/><path d="M34.618 19.12H3.338a1.333 1.333 0 0 0-.945.398c-.25.254-.392.598-.393.957v10.172c.001.359.142.703.393.957.25.254.59.397.945.399h3.95a4.492 4.492 0 0 1 1.424-2.884 4.385 4.385 0 0 1 2.97-1.163c1.1 0 2.158.415 2.97 1.163a4.491 4.491 0 0 1 1.426 2.884h11.111a4.492 4.492 0 0 1 1.425-2.884 4.385 4.385 0 0 1 2.97-1.163c1.099 0 2.158.415 2.97 1.163a4.492 4.492 0 0 1 1.426 2.884h8.681c.355-.001.695-.144.946-.398.25-.255.392-.599.393-.958v0a11.635 11.635 0 0 0-3.343-8.14 11.344 11.344 0 0 0-8.04-3.386v0zM7.287 32.003a4.501 4.501 0 0 0 1.273 3.594 4.389 4.389 0 0 0 3.123 1.31 4.389 4.389 0 0 0 3.123-1.31 4.501 4.501 0 0 0 1.272-3.594M27.189 32.003c-.013.142-.02.285-.02.431a4.5 4.5 0 0 0 1.319 3.113 4.388 4.388 0 0 0 3.096 1.283c1.158 0 2.27-.46 3.096-1.283A4.5 4.5 0 0 0 36 32.434c0-.144-.007-.288-.02-.431" stroke="#fff" stroke-width="2" stroke-miterlimit="10"/><path d="M30.23 11.746c-.257-.42-.959-.746-1.56-.746h-8.232v8.126h13.005c.938 0 1.367-.01 1.367-.01l-4.58-7.37z" stroke="#fff" stroke-width="2" stroke-miterlimit="10"/></svg>