<svg width="48" height="48" viewBox="0 0 48 48" fill="none" xmlns="http://www.w3.org/2000/svg"><path d="M33.453 2H15.034C12.806 2 11 3.94 11 6.332v25.922c0 2.393 1.806 4.333 4.034 4.333h18.419c2.228 0 4.034-1.94 4.034-4.333V6.332C37.487 3.94 35.68 2 33.453 2z" stroke="#fff" stroke-width="2" stroke-miterlimit="10"/><path d="M17.307 31.463c1.393 0 2.522-1.147 2.522-2.562 0-1.415-1.13-2.562-2.522-2.562-1.393 0-2.523 1.147-2.523 2.562 0 1.415 1.13 2.562 2.523 2.562zM31.18 31.463c1.394 0 2.523-1.147 2.523-2.562 0-1.415-1.13-2.562-2.522-2.562-1.394 0-2.523 1.147-2.523 2.562 0 1.415 1.13 2.562 2.523 2.562zM37.487 22.496H11V10.967H37.487v11.529zM24.875 10.967v11.529" stroke="#fff" stroke-width="2" stroke-miterlimit="10"/><path d="M26.338 5.843H22.15c-.585 0-1.06.47-1.06 1.052v.458c0 .581.475 1.052 1.06 1.052h4.188c.585 0 1.06-.47 1.06-1.052v-.458c0-.581-.475-1.052-1.06-1.052zM35.852 46H13.465l4.048-9.187h14.292L35.852 46z" stroke="#fff" stroke-width="2" stroke-linecap="round" stroke-linejoin="round"/><path d="M15.741 40.896h17.837" stroke="#fff" stroke-width="2" stroke-miterlimit="10"/></svg>