<svg width="86" height="65" viewBox="0 0 86 65" fill="none" xmlns="http://www.w3.org/2000/svg"><path d="M54.894 59.286c-1.766-1.298-2.914-.044-4.239 1.299-.971.985-2.605 1.03-3.753.358-1.325-.806-2.032-.403-2.827.627-.176.224-.441.492-.706.537-2.87.358-5.431 1.836-8.17 2.507-2.649.672-4.724-1.164-5.342-4.074-.177-.895-.442-1.164-1.325-1.343-2.208-.448-3.754-1.747-4.107-4.075-.132-.985-.618-1.119-1.369-1.343-3.842-1.12-5.21-4.209-3.356-7.746.442-.895.22-1.298-.22-1.925-2.385-3.179-4.063-6.716-5.211-10.522-.663-2.104-2.032-3.582-3.489-5.104-.176-.224-.486-.493-.706-.493-3.312.538-4.593-2.238-6.403-4.03-4.902-4.745-4.858-4.79-.089-9.58 4.24-4.255 8.435-8.508 12.674-12.761 2.163-2.15 3.71-2.15 5.829-.045 1.457 1.477 2.958 2.91 4.415 4.388.486.447 1.016.895 1.104 1.611.442 3.403 3.268 4.702 5.432 6.582 1.06.94 2.252 1.343 3.665.627.574-.269 1.325-.358 1.943-.269 1.546.224 2.738-.313 4.018-1.209 2.738-1.925 5.83-1.97 8.876-.85 2.252.806 4.328.76 6.359-.358 1.06-.583 2.252-1.299 1.678-2.91-.044-.18.044-.448.088-.672.354-1.747 6.668-8.015 8.434-8.373 1.06-.224 1.855.224 2.562.94 4.68 4.746 9.405 9.447 14.086 14.194 1.634 1.7 1.634 3.179-.044 4.88-1.81 1.836-3.71 3.627-5.608 5.418-.398.402-.972.76-1.501.895-4.505 1.075-6.89 4.209-8.17 8.462-1.192 3.896-2.958 7.477-5.696 10.477-.707.806-1.28 1.433-.927 2.687.309 1.12 0 2.418-.884 3.09-1.678 1.253-2.296 2.73-2.605 4.79-.265 2.15-2.12 3-4.416 3.313zM38.291 17.602c-.044-.18-.044-.403-.089-.582-4.769 1.388-7.816-1.299-10.686-4.343-.044-.045-.088-.09-.132-.18-.751-1.164-1.37-.805-2.164.045-4.018 4.254-8.125 8.463-12.232 12.627-.839.85-.839 1.388 0 2.104 2.031 1.746 3.091 4.074 3.93 6.582a30.723 30.723 0 0 0 4.284 8.507c.662.895 1.368 1.343 2.56 1.298 2.518-.045 4.46 1.433 4.99 3.85.221 1.03.486 1.389 1.546 1.657 2.164.493 3.665 1.88 3.93 4.254.088.716.31 1.075 1.06 1.164 2.561.358 4.018 1.925 4.548 4.477.31 1.568 1.37 1.433 2.34.806 1.237-.85 1.193-1.88.089-2.955-3.047-3.044-6.05-6.089-9.097-9.134-.662-.671-1.28-1.432-.485-2.283.883-.94 1.59-.134 2.208.537 2.826 2.821 5.652 5.686 8.478 8.507 1.236 1.254 2.473 2.552 3.797 3.761.751.717 1.59.761 2.385.045.75-.716.795-1.567.22-2.418-.352-.537-.838-1.03-1.324-1.477-3.091-3.09-6.226-6.134-9.273-9.269-.795-.805-2.296-1.656-1.192-2.91 1.192-1.388 2.03.269 2.782 1.03 2.296 2.194 4.548 4.477 6.8 6.716 1.987 1.97 3.974 3.985 5.961 5.955.928.895 1.987 1.075 2.959.18 1.06-.986.971-2.105 0-3.135l-.927-.94-12.762-12.671c-.663-.672-1.369-1.388-.53-2.284.883-.94 1.59-.09 2.252.493.265.224.53.537.795.76 3.753 3.672 7.507 7.389 11.26 11.06.972.985 2.076 1.701 3.224.492 1.148-1.164.53-2.283-.486-3.268-2.561-2.507-5.034-5.015-7.551-7.522-.662-.672-1.325-1.433-.574-2.283.795-.896 1.59-.18 2.252.447 2.164 2.15 4.372 4.209 6.447 6.448.927.985 1.413.85 2.208-.09 2.385-2.82 4.195-5.955 4.99-9.581.486-2.24 1.501-3.985 3.135-5.463.927-.85 1.722-1.88 2.694-2.642.971-.805.75-1.298 0-2.104-3.445-3.358-6.845-6.806-10.2-10.208-.707-.717-1.149-1.075-2.164-.224-2.915 2.462-6.227 2.82-9.715 1.477-3.4-1.298-6.182-.403-8.523 2.194-3.047 3.358-6.094 6.672-9.14 10.03-.31.313-.619.627-.884.985-1.06 1.567-.75 2.955.53 4.164 1.413 1.343 2.34.358 3.312-.672l7.021-7.119c.574-.582 1.237-1.433 2.031-.716.707.626.575 1.701-.132 2.283-1.28 1.12-.53 1.88.22 2.776 2.297 2.507 5.123 3.671 8.48 3.403.926-.09 1.942-.18 2.075 1.03.132 1.343-.972 1.432-1.988 1.522-3.223.224-6.05-.806-8.699-2.552-1.236-.806-1.722-3.09-3.312-2.597-1.324.403-2.252 2.06-3.356 3.179-.485.492-.927.985-1.368 1.433-.707.716-1.546 1.03-2.562 1.119-2.296.18-3.753-1.075-4.769-2.955-1.06-1.925-.706-4.477.84-6.224 2.516-2.955 5.122-5.776 7.683-8.596zm-12.983-9.09c-.088-.178-.132-.402-.309-.537a284.308 284.308 0 0 0-5.21-5.149c-.751-.76-1.193-.044-1.634.403-4.902 4.925-9.76 9.85-14.705 14.776-.883.895-.972 1.477-.044 2.373 1.457 1.388 2.87 2.776 4.195 4.253.883 1.03 1.501 1.03 2.473.045 4.725-4.97 9.538-9.895 14.307-14.865.397-.358.839-.671.927-1.298zm43.054-6.044c-.264.18-.53.314-.75.537l-5.167 5.508c-.706.716-.265 1.164.221 1.656 4.372 4.388 8.788 8.776 13.115 13.209.883.895 1.413.671 2.164-.09 1.457-1.477 2.914-2.955 4.46-4.298 1.104-.985.839-1.612-.088-2.508-4.372-4.343-8.655-8.686-12.983-13.074-.265-.358-.618-.626-.972-.94zm-33.56 54.624c-1.59.135-2.473.985-2.56 2.553-.09 1.477 1.236 2.865 2.649 2.686 1.457-.18 2.472-1.03 2.384-2.687-.044-1.611-.971-2.373-2.473-2.552zM23.63 51.316c1.81 0 2.605-.985 2.826-2.462.177-1.388-1.148-2.776-2.605-2.687-1.546.09-2.473.94-2.473 2.553 0 1.611.883 2.462 2.252 2.596zm5.697.314c-1.546.045-2.517.94-2.606 2.418-.088 1.612.84 2.641 2.517 2.686 1.678.045 2.606-.985 2.606-2.597 0-1.522-.972-2.418-2.517-2.507z" fill="#005473"/></svg>