<svg width="68" height="68" viewBox="0 0 68 68" fill="none" xmlns="http://www.w3.org/2000/svg"><path fill-rule="evenodd" clip-rule="evenodd" d="M5 10.617c0-.953.772-1.725 1.724-1.725h53.66c.952 0 1.724.772 1.724 1.725v53.659c0 .952-.772 1.724-1.724 1.724H6.724A1.724 1.724 0 0 1 5 64.276v-53.66zm3.447 1.724v50.21h50.214v-50.21H8.447z" fill="#005473"/><path fill-rule="evenodd" clip-rule="evenodd" d="M5 10.595c0-.94.772-1.703 1.724-1.703h53.66c.952 0 1.724.763 1.724 1.703v14.318c0 .94-.772 1.702-1.724 1.702H6.724A1.713 1.713 0 0 1 5 24.913V10.595zm3.447 1.703V23.21h50.214V12.298H8.447z" fill="#005473"/><path fill-rule="evenodd" clip-rule="evenodd" d="M17.308 2c.815 0 1.477.749 1.477 1.673v12.408c0 .924-.662 1.673-1.477 1.673-.816 0-1.477-.75-1.477-1.673V3.673c0-.924.661-1.673 1.477-1.673zM49.8 2c.816 0 1.477.749 1.477 1.673v12.408c0 .924-.661 1.673-1.477 1.673-.816 0-1.477-.75-1.477-1.673V3.673c0-.924.661-1.673 1.477-1.673zM33.553 34.118a734.285 734.285 0 0 1-2.174 4.558l-.002.004-.001.003c-.13.269-.314.506-.538.696-.224.19-.484.33-.763.408l-.09.026-.094.015c-.935.15-1.874.29-2.805.428l-1.025.154-.117.017-.904.137 3.43 3.477c.245.222.435.503.554.82.135.362.17.755.104 1.137-.278 1.66-.554 3.32-.828 4.984 1.426-.785 2.851-1.57 4.275-2.356a1.966 1.966 0 0 1 2.005 0l4.266 2.35c-.269-1.632-.54-3.264-.813-4.895a2.24 2.24 0 0 1 .047-1.075c.107-.364.304-.69.572-.948a324.42 324.42 0 0 0 2.62-2.65l.003-.003.816-.838-.504-.076c-1.448-.216-2.9-.433-4.35-.659l-.07-.01-.066-.017a2.042 2.042 0 0 1-.751-.36 2.143 2.143 0 0 1-.558-.638l-.01-.017-.008-.016c-.15-.275-.287-.573-.392-.8l-.066-.144a911.02 911.02 0 0 1-1.763-3.712zm-.181-4.542c.54-.041 1.08.1 1.538.404.43.286.767.701.967 1.19a899.35 899.35 0 0 0 2.423 5.114l.003.007.003.006.092.198a822.165 822.165 0 0 0 4.706.709h.007l1.053.167c.484.06.94.268 1.31.598.377.335.649.78.78 1.278.132.473.133.976.003 1.45a2.625 2.625 0 0 1-.717 1.206l-1.938 1.993-.004.003-.38.386c-.595.605-1.195 1.215-1.8 1.822.291 1.736.579 3.473.864 5.21l.001.008.001.008c.022.143.038.228.056.326l.053.304c.103.484.073.989-.088 1.456-.17.495-.477.926-.883 1.236a2.438 2.438 0 0 1-2.758.154 9938.95 9938.95 0 0 1-5.086-2.801c-1.692.933-3.386 1.865-5.081 2.798a2.414 2.414 0 0 1-2.147.2 2.507 2.507 0 0 1-.957-.662 2.654 2.654 0 0 1-.575-1.037l-.008-.026-.007-.027a4.035 4.035 0 0 1-.097-.513l-.032-.256.041-.254.262-1.6c.249-1.509.499-3.016.75-4.522l-4.097-4.153a2.704 2.704 0 0 1-.653-.93 2.812 2.812 0 0 1-.22-1.214v-.03l.003-.03a2.652 2.652 0 0 1 .652-1.561c.38-.429.886-.711 1.437-.802h.005c.872-.143 1.747-.275 2.609-.404l.122-.019 1.044-.156c.694-.104 1.382-.207 2.07-.313a728.58 728.58 0 0 0 2.53-5.327c.178-.43.461-.803.822-1.082a2.47 2.47 0 0 1 1.32-.512z" fill="#005473"/></svg>