<svg width="68" height="68" viewBox="0 0 68 68" fill="none" xmlns="http://www.w3.org/2000/svg"><path d="M66 64v2H2v-2c.675-.225 1.35-.625 2.05-.65 1.9-.1 3.8-.025 5.75-.025.025-.525.075-.9.075-1.275V38.075v-25.1c0-1.75.3-2.025 2.05-2.025h4.35c0-2.4-.05-4.675.025-6.95.025-.675.45-1.325.7-2h34c.25.675.675 1.325.7 2 .1 2.275.025 4.55.025 6.95H55.7c2.25 0 2.425.15 2.425 2.4v49.975c2.075 0 3.95-.05 5.825.025.7.025 1.375.425 2.05.65zm-47.7-.75c.225-1.375.275-2.4-1.1-3.175-1.225-.7-1.65-2.075-1.425-3.5.25-1.6.575-3.2 1.025-4.75.25-.85.725-1.7 1.275-2.4.95-1.225 2.3-1.2 3.325-.025.325.375.675.8.8 1.25.55 2.125 1.15 4.25 1.5 6.4.2 1.25-.375 2.525-1.5 3.1-1.475.75-1.15 1.85-1.1 3.075h5.425v-13.45c0-1.5.35-1.875 1.825-1.875 3.75-.025 7.5-.025 11.25 0 1.575 0 1.9.35 1.9 1.925V63.25h5.4c.125-1.275.375-2.375-1.1-3.1-1.075-.55-1.675-1.775-1.475-2.975.375-2.2.875-4.4 1.525-6.525.325-1.075 1.1-2.05 2.425-2.075 1.3 0 2.1.95 2.425 2.025a52.597 52.597 0 0 1 1.525 6.525c.225 1.275-.425 2.475-1.55 3.075-1.475.775-1.125 1.875-.975 3.05h5.525V13.7H12.6v49.575c1.95-.025 3.8-.025 5.7-.025zM19 10.9h29.975V4.8H19v6.1zm10.275 52.325H38.7V50.6h-9.425v12.625zM20.05 51.9h-.625c-.325 1.65-.7 3.3-.95 4.975-.15.875.35 1.475 1.25 1.525.9.025 1.45-.525 1.325-1.425-.3-1.725-.675-3.4-1-5.075zm28.525-.025c-.2 0-.425.025-.625.025-.325 1.65-.7 3.3-.975 4.95-.15.875.35 1.475 1.25 1.5.875.025 1.45-.55 1.325-1.425-.25-1.675-.65-3.35-.975-5.05z" fill="#005473"/><path d="M52.812 24.038c0 1.479.026 2.958 0 4.436-.026 1.331-.422 1.75-1.766 1.75-2.584.025-5.193 0-7.777 0-1.186 0-1.74-.542-1.74-1.676.027-2.957 0-5.915 0-8.872 0-1.282.448-1.676 1.82-1.676h7.512c1.529 0 1.925.394 1.925 1.848.052 1.405.026 2.785.026 4.19zm-8.304-3.327v6.802h5.378v-6.802h-5.378zM52.817 38.257v4.424c0 1.107-.528 1.672-1.74 1.672h-7.78c-1.187 0-1.768-.516-1.768-1.647.027-2.95 0-5.9 0-8.85 0-1.302.449-1.695 1.794-1.72 2.558-.025 5.09-.025 7.648 0 1.371 0 1.793.418 1.82 1.696.052 1.475.026 2.95.026 4.425zm-2.875-3.392H44.51v6.76h5.432v-6.76zM15.201 24.118c0-1.524.025-3.022 0-4.546-.024-1.08.461-1.572 1.528-1.572 2.424.025 4.849.025 7.273 0 1.091 0 1.527.54 1.527 1.597 0 2.997-.024 5.97 0 8.968 0 1.13-.485 1.67-1.6 1.67h-7.152c-1.09 0-1.624-.54-1.6-1.67.049-1.5.024-2.973.024-4.447zm2.643-3.39v6.78h5.043v-6.78h-5.043zM15.2 38.165v-4.548c0-1.032.487-1.5 1.483-1.5h7.413c.947 0 1.433.468 1.433 1.426v9.341c0 .959-.51 1.45-1.433 1.45-2.504.025-5.007.025-7.534 0-.924 0-1.386-.54-1.386-1.499.025-1.549.025-3.097.025-4.67zm2.601 3.466h5.104v-6.76H17.8v6.76zM39.647 38.267v4.55c0 1.033-.558 1.5-1.62 1.525-2.658.025-5.315 0-7.973 0-1.116 0-1.727-.467-1.7-1.574.026-3.075 0-6.15 0-9.2 0-.958.505-1.45 1.541-1.45h8.078c1.17 0 1.674.565 1.648 1.623.026 1.5.026 3.025.026 4.526zm-2.87 3.345v-6.789h-5.553v6.789h5.553zM28.38 24.1c0-1.525.026-3.026 0-4.55-.027-1.083.558-1.55 1.7-1.55 2.604.025 5.208.025 7.812 0 1.223 0 1.78.517 1.754 1.648a502.242 502.242 0 0 0 0 8.953c0 1.156-.638 1.623-1.807 1.623-2.55 0-5.128.025-7.68 0-1.407-.024-1.78-.393-1.806-1.721 0-1.452.026-2.927.026-4.403zm8.396 3.468V20.73h-5.5v6.838h5.5z" fill="#005473"/></svg>