<svg xmlns="http://www.w3.org/2000/svg">
<defs>
<clipPath id="clip0"><path d="M0 0h24v24H0z"/></clipPath>
<clipPath id="clip0"><path d="M0 0h24v24H0z"/></clipPath>
</defs>
<symbol id="icon-angle-right" viewBox="0 0 25 25"><path fill-rule="evenodd" clip-rule="evenodd" d="M18.268 14.762L7.42 24.5 5 22.41l10.848-9.738a.457.457 0 0 0-.008-.704L5.024 2.631 7.397.5l10.817 9.337c1.56 1.346 1.584 3.552.055 4.925z"/></symbol>
<symbol id="icon-baby-cot" viewBox="0 0 28 28"><path fill-rule="evenodd" clip-rule="evenodd" d="M2.681 5.323c.488 0 .883.395.883.883v17.733a.883.883 0 0 1-1.766 0V6.206c0-.488.395-.883.883-.883zM25.32 5.323c.487 0 .882.395.882.883v17.733a.883.883 0 0 1-1.766 0V6.206c0-.488.396-.883.883-.883z"/><path fill-rule="evenodd" clip-rule="evenodd" d="M25.375 10.52H2.888V8.752h22.487v1.766zM25.375 19.892H2.888v-1.765h22.487v1.765z"/><path d="M2.681 7.35a2.178 2.178 0 0 0 2.181-2.175A2.178 2.178 0 0 0 2.682 3 2.178 2.178 0 0 0 .5 5.175c0 1.2.976 2.174 2.181 2.174zM25.319 7.35A2.178 2.178 0 0 0 27.5 5.174 2.178 2.178 0 0 0 25.319 3a2.178 2.178 0 0 0-2.181 2.175c0 1.2.976 2.174 2.18 2.174z"/><path fill-rule="evenodd" clip-rule="evenodd" d="M7.608 19.01V9.635h1.766v9.373H7.608zM13.249 19.01V9.635h1.766v9.373h-1.766zM18.89 19.01V9.635h1.765v9.373H18.89z"/></symbol>
<symbol id="icon-beach" viewBox="0 0 28 28"><path fill-rule="evenodd" clip-rule="evenodd" d="M14.177 20.523c-4.3-.113-8.585.563-12.642 1.996l-.517-1.464a36.735 36.735 0 0 1 13.19-2.084c4.157 0 7.19.54 9.2 1.088 1.006.274 1.755.55 2.258.762a9.93 9.93 0 0 1 .77.362l.013.008.004.002.002.001c.001.001.002.001-.386.674-.387.672-.387.673-.386.673l-.002-.001a8.495 8.495 0 0 0-.616-.288A16.725 16.725 0 0 0 23 21.556c-1.877-.512-4.776-1.033-8.802-1.033h-.02zM4.054 6.957a2.005 2.005 0 0 0-2.002 2.009c0 1.11.898 2.008 2.002 2.008a2.005 2.005 0 0 0 2.002-2.008c0-1.111-.898-2.009-2.002-2.009zM.5 8.966C.5 7 2.09 5.405 4.054 5.405a3.557 3.557 0 0 1 3.554 3.56c0 1.965-1.59 3.561-3.554 3.561A3.557 3.557 0 0 1 .5 8.966z"/><path fill-rule="evenodd" clip-rule="evenodd" d="M19.172 11.72c.41.125.642.558.517.968l-2.23 7.318a.776.776 0 1 1-1.484-.452l2.229-7.318a.776.776 0 0 1 .968-.516z"/><path fill-rule="evenodd" clip-rule="evenodd" d="M12.687 9.246L25.94 13.29a4.802 4.802 0 0 0-.125-.794c-.163-.69-.478-1.467-.937-2.23-.924-1.533-2.375-2.916-4.213-3.454-1.846-.54-3.83-.184-5.448.572-.805.376-1.496.84-2.012 1.312-.21.192-.382.377-.52.55zm1.874-3.269c1.858-.867 4.236-1.329 6.54-.654 2.314.676 4.045 2.377 5.108 4.142.534.887.914 1.813 1.118 2.673.2.844.247 1.694.033 2.395a.776.776 0 0 1-.968.517l-15.07-4.598a.777.777 0 0 1-.516-.969c.21-.688.722-1.355 1.352-1.932.644-.59 1.47-1.138 2.403-1.574z"/><path fill-rule="evenodd" clip-rule="evenodd" d="M21.604 5.923a.776.776 0 0 1-.656.88c-1.353.196-2.401 1.194-3.15 2.282a9.945 9.945 0 0 0-1.061 2.025l-.01.029-.003.005a.777.777 0 0 1-1.468-.505l.734.252-.734-.252.001-.002.002-.005.005-.013.016-.045c.014-.037.033-.09.06-.156a11.508 11.508 0 0 1 1.18-2.212c.839-1.22 2.213-2.65 4.204-2.94a.776.776 0 0 1 .88.657z"/><path fill-rule="evenodd" clip-rule="evenodd" d="M19.99 5.529a.776.776 0 0 1 1.094-.083c1.51 1.299 1.84 3.25 1.847 4.72a11.49 11.49 0 0 1-.323 2.706l-.003.014-.002.004v.002l-.749-.204.749.205a.776.776 0 0 1-1.498-.408l.002-.006.007-.03c.007-.028.018-.071.03-.129a9.94 9.94 0 0 0 .234-2.148c-.005-1.318-.312-2.694-1.306-3.549a.776.776 0 0 1-.082-1.094z"/></symbol>
<symbol id="icon-bed" viewBox="0 0 28 28"><path fill-rule="evenodd" clip-rule="evenodd" d="M.5 13.107h27v7.796H.5v-7.796zm1.824 1.824v4.148h23.352V14.93H2.324z"/><path fill-rule="evenodd" clip-rule="evenodd" d="M2.377 5h23.269v10.014H2.376V5zM4.2 6.824v6.367h19.622V6.824H4.2zM2.377 23.101v-3.11H4.2v3.11H2.377zM23.8 23.101v-3.11h1.824v3.11H23.8z"/><path fill-rule="evenodd" clip-rule="evenodd" d="M5.124 9.727h8.392v5.266H5.124V9.727zm1.824 1.824v1.618h4.744v-1.618H6.948zM14.551 9.727h8.392v5.266H14.55V9.727zm1.824 1.824v1.618h4.744v-1.618h-4.744z"/></symbol>
<symbol id="icon-briefcase" viewBox="0 0 28 28"><path fill-rule="evenodd" clip-rule="evenodd" d="M3.13 7.977a.705.705 0 0 0-.704.706v14.492c0 .392.316.707.703.707h21.742a.705.705 0 0 0 .703-.707V8.683a.705.705 0 0 0-.703-.706H3.129zM.5 8.683A2.63 2.63 0 0 1 3.13 6.05h21.74a2.63 2.63 0 0 1 2.63 2.632v14.492a2.63 2.63 0 0 1-2.63 2.633H3.13A2.63 2.63 0 0 1 .5 23.175V8.683z"/><path fill-rule="evenodd" clip-rule="evenodd" d="M3.812 6.05h4.811v19.758h-4.81V6.05zm1.926 1.927v15.905h.96V7.977h-.96zM19.478 6.05h4.811v19.758h-4.811V6.05zm1.926 1.927v15.905h.96V7.977h-.96z"/><path fill-rule="evenodd" clip-rule="evenodd" d="M5.255 2h17.592v4.098H20.92V3.926H7.18v2.172H5.255V2z"/></symbol>
<symbol id="icon-calendar" viewBox="0 0 25 25"><path d="M4.19 5.4v-.076c0-.334-.004-.666.002-1 .013-.74.457-1.282 1.286-1.641.256-.11.539-.17.833-.175.416-.008.833-.012 1.25-.002.596.015 1.09.212 1.506.534.434.337.652.747.66 1.221.008.355.004.709.004 1.063v.072h5.536V5.33c0-.335-.006-.67.001-1.006.018-.779.497-1.335 1.393-1.68a2.14 2.14 0 0 1 .728-.137c.416-.007.833-.012 1.25 0 .6.014 1.099.215 1.516.542.454.355.655.787.653 1.28v1.069h.092c.58 0 1.158.002 1.738 0 .89-.004 1.615.496 1.801 1.08.04.124.058.255.058.383.003 4.788.005 9.575 0 14.363 0 .626-.393 1.077-1.116 1.354-.209.08-.437.103-.668.11h-.103c-6.739 0-13.478-.002-20.217.003-.905 0-1.637-.491-1.83-1.075a1.312 1.312 0 0 1-.057-.407C.5 18.066.5 14.92.5 11.775V6.869c0-.542.31-.957.879-1.26.295-.158.634-.21.989-.21H4.191zm18.46 4.33H2.352v11.53H22.65V9.73zM18.96 5.96V4.354c0-.249-.17-.38-.494-.38h-.48c-.166 0-.332-.004-.496.007-.19.01-.327.113-.364.258a.512.512 0 0 0-.013.124v3.174l.001.057c.014.19.17.318.416.328.163.007.325.004.488.004.185-.002.37.003.555-.007.167-.01.294-.078.353-.201a.414.414 0 0 0 .034-.174c.002-.526 0-1.056 0-1.585zM7.883 5.954v-1.61c0-.236-.171-.37-.476-.37-.299-.001-.596-.003-.895 0-.303.002-.476.136-.476.37v3.21c0 .237.173.37.48.372h.644c.114 0 .228.002.34-.007.2-.015.339-.119.373-.272a.488.488 0 0 0 .01-.113c.002-.524 0-1.052 0-1.58z"/></symbol>
<symbol id="icon-cigarette" viewBox="0 0 28 28"><path fill-rule="evenodd" clip-rule="evenodd" d="M.5 16.66h25.723v5.455H.5V16.66zm1.648 1.65v2.156h22.427V18.31H2.148z"/><path fill-rule="evenodd" clip-rule="evenodd" d="M23.51 17.485v3.806h-1.65v-3.806h1.65zM8.663 17.09v4.596H7.014V17.09h1.649zM22.703 8.44a3.89 3.89 0 0 0-.678-1.45L23.344 6a5.511 5.511 0 0 1 1.013 4.343l-.008.04-.01.037c-.149.508-.32.94-.468 1.315l-.002.006c-.152.382-.273.687-.358.996-.155.567-.202 1.186.119 2.193l-1.571.5c-.414-1.299-.38-2.243-.137-3.13.11-.398.26-.776.4-1.129.005-.014.01-.029.017-.043.144-.364.284-.721.405-1.13a3.861 3.861 0 0 0-.04-1.557zM25.772 9.958a3.04 3.04 0 0 0-.523-1.123l1.322-.985a4.689 4.689 0 0 1 .852 3.642l-.006.034-.01.033c-.12.439-.26.807-.381 1.12l-.029.074c-.112.288-.198.51-.261.736-.12.426-.162.887.088 1.68l-1.573.495c-.341-1.086-.311-1.873-.103-2.619.086-.31.203-.607.309-.879l.032-.084c.115-.295.225-.586.319-.922a3.02 3.02 0 0 0-.036-1.202z"/></symbol>
<symbol id="icon-cup" viewBox="0 0 28 28"><path fill-rule="evenodd" clip-rule="evenodd" d="M24.291 9.474c-.878-.587-2.121-.873-3.46-.873V6.786c1.552 0 3.19.324 4.47 1.18 1.326.886 2.199 2.305 2.199 4.28 0 1.973-.873 3.392-2.2 4.279-1.28.855-2.917 1.18-4.47 1.18v-1.816c1.34 0 2.583-.286 3.461-.873.832-.556 1.394-1.413 1.394-2.77 0-1.359-.562-2.216-1.394-2.772z"/><path fill-rule="evenodd" clip-rule="evenodd" d="M.5 5h21.777v.908c0 2.207 0 4.357-.162 6.321-.161 1.963-.487 3.804-1.169 5.387-.69 1.602-1.747 2.941-3.346 3.866-1.585.917-3.627 1.384-6.222 1.384-2.596 0-4.637-.467-6.22-1.384-1.596-.925-2.65-2.265-3.338-3.867C1.14 16.032.818 14.19.659 12.228.5 10.271.5 8.13.5 5.931V5zm1.816 1.815c.002 1.883.02 3.647.152 5.266.152 1.879.453 3.496 1.02 4.818.559 1.302 1.374 2.313 2.58 3.012 1.222.708 2.92 1.14 5.31 1.14 2.39 0 4.089-.432 5.313-1.14 1.209-.7 2.027-1.71 2.588-3.013.57-1.322.873-2.94 1.027-4.817.133-1.62.153-3.384.155-5.266H2.317z"/></symbol>
<symbol id="icon-desk" viewBox="0 0 28 28"><path fill-rule="evenodd" clip-rule="evenodd" d="M.5 5h27v5.24H.5V5zm1.8 1.8v1.64h23.4V6.8H2.3z"/><path fill-rule="evenodd" clip-rule="evenodd" d="M4.37 9.34v14.248h-1.8V9.34h1.8zM25.43 9.34v14.248h-1.8V9.34h1.8zM7.869 9.34v9.499h-1.8V9.34h1.8zM21.93 9.34v9.499h-1.8V9.34h1.8z"/></symbol>
<symbol id="icon-facebook" viewBox="0 0 24 24"><g clip-path="url(#clip0)"><path d="M0 19.752V4.236c.004-.025.012-.049.014-.073.018-.147.027-.293.053-.437a4.4 4.4 0 0 1 1.389-2.532C2.299.423 3.296.01 4.437.008 9.48-.004 14.52 0 19.56.002c.542 0 1.068.106 1.574.305a4.499 4.499 0 0 1 2.865 4.217c.002 4.983 0 9.963 0 14.946A4.506 4.506 0 0 1 19.485 24H4.498c-.313 0-.623-.03-.928-.098a4.434 4.434 0 0 1-2.384-1.358 4.39 4.39 0 0 1-1.13-2.317C.036 20.07.02 19.912 0 19.752zm11.443-9.626v2.804h1.454v8.3h3.753v-8.306h2.242c.101-.934.203-1.862.306-2.8h-2.55v-.075c0-.481-.002-.965.002-1.446.002-.185.01-.37.03-.554a.628.628 0 0 1 .457-.56c.191-.063.388-.08.585-.082.532-.004 1.066-.002 1.598-.002h.088V4.62c-.017-.003-.027-.005-.037-.005-1.058.005-2.116.005-3.174.017-.44.006-.873.085-1.291.227-.687.232-1.227.642-1.568 1.291-.309.585-.42 1.22-.437 1.873-.016.668-.006 1.334-.008 2.002v.101h-1.45z"/></g></symbol>
<symbol id="icon-gym" viewBox="0 0 28 28"><path fill-rule="evenodd" clip-rule="evenodd" d="M20.18 14.782H7.8v-1.56H20.18v1.56z"/><path fill-rule="evenodd" clip-rule="evenodd" d="M19.342 8h5.163v12.024h-5.163V8zm1.561 1.56v8.903h2.04V9.561h-2.04zM3.495 8h5.163v12.024H3.495V8zm1.561 1.56v8.903h2.041V9.561h-2.04z"/><path fill-rule="evenodd" clip-rule="evenodd" d="M.5 10.854h4.556v6.317H.5v-6.317zm1.56 1.56v3.196h1.435v-3.195H2.061zM22.944 10.854H27.5v6.317h-4.556v-6.317zm1.56 1.56v3.196h1.435v-3.195h-1.434z"/></symbol>
<symbol id="icon-instagram" viewBox="0 0 24 24"><g clip-path="url(#clip0)"><path d="M23.994 12.027c0 1.588.02 3.182-.007 4.77-.055 3.046-1.458 5.247-4.196 6.583-.919.45-1.913.62-2.935.62H7.151C3.235 24 .068 20.92.028 17.002a491.123 491.123 0 0 1 0-10.017C.068 3.107 3.215.02 7.104.007c3.269-.007 6.538-.014 9.807 0 3.922.013 7.035 3.12 7.082 7.046.014 1.656 0 3.318 0 4.974zM2.2 11.966v4.872c0 .756.123 1.492.463 2.174.92 1.812 2.404 2.773 4.434 2.794 3.255.027 6.51.013 9.766 0 .36 0 .729-.034 1.076-.11 2.295-.51 3.841-2.405 3.855-4.756.02-3.291.006-6.582 0-9.874 0-.347-.041-.702-.123-1.042-.51-2.249-2.37-3.796-4.679-3.816-3.337-.028-6.674-.014-10.004-.007-.313 0-.634.04-.947.109-2.288.504-3.834 2.405-3.855 4.756 0 1.629.014 3.264.014 4.9z"/><path d="M12.014 18.542c-3.59.006-6.545-2.944-6.545-6.542-.007-3.578 2.935-6.528 6.51-6.542 3.59-.02 6.559 2.937 6.566 6.528.007 3.591-2.936 6.549-6.531 6.556zm-.028-2.18a4.351 4.351 0 0 0 4.373-4.328 4.335 4.335 0 0 0-4.339-4.388A4.344 4.344 0 0 0 7.648 12a4.36 4.36 0 0 0 4.338 4.361zM19.43 5.588a.995.995 0 0 1-1.015.967.991.991 0 0 1-.953-1.029.982.982 0 0 1 .994-.947.99.99 0 0 1 .974 1.009z"/></g></symbol>
<symbol id="icon-laptop" viewBox="0 0 28 28"><path fill-rule="evenodd" clip-rule="evenodd" d="M3.94 4h20.117v13.149H3.94V4zm1.773 1.774v9.6h16.57v-9.6H5.713z"/><path fill-rule="evenodd" clip-rule="evenodd" d="M4.219 15.375h19.536L27.5 24.1H.5l3.719-8.725zm1.172 1.774l-2.206 5.177h21.623l-2.222-5.177H5.39z"/></symbol>
<symbol id="icon-laundry" viewBox="0 0 28 28"><path fill-rule="evenodd" clip-rule="evenodd" d="M12.573 5.89a.881.881 0 0 1 .987-.002l11.829 7.94a.881.881 0 0 1-.491 1.613h-3.58v-1.763h.685l-8.931-5.995-8.825 5.995h.552v1.763H1.38a.881.881 0 0 1-.495-1.61l11.688-7.94z"/><path fill-rule="evenodd" clip-rule="evenodd" d="M11.017 2.661v.012V2.661zm2.247.86a7.745 7.745 0 0 0-1.023 2.211.881.881 0 0 0 1.696.479 5.985 5.985 0 0 1 .793-1.713l.007-.01c.452-.693.7-1.744.407-2.688a2.413 2.413 0 0 0-.958-1.304C13.692.162 13.074 0 12.36 0c-1.439 0-2.305.593-2.746 1.353a2.7 2.7 0 0 0-.36 1.381l.001.014V2.757l.88-.048-.88.049a.881.881 0 0 0 1.762-.096.938.938 0 0 1 .121-.424c.09-.154.335-.475 1.222-.475.45 0 .7.1.836.193.13.088.214.207.263.365.112.362.016.87-.197 1.2zM4.564 12.162c0-.486.395-.88.881-.88h15.388c.487 0 .881.394.881.88V27.12a.881.881 0 0 1-.88.881H5.444a.881.881 0 0 1-.88-.881V12.162zm1.763.882v13.193h13.625V13.044H6.327z"/></symbol>
<symbol id="icon-meeting" viewBox="0 0 28 28"><path fill-rule="evenodd" clip-rule="evenodd" d="M8.992 14.277h9.985l3.072 6.095H5.92l3.072-6.095zm.933 1.515L8.38 18.857H19.59l-1.545-3.065H9.925zM4.207 10.432c-.512 0-.897.4-.897.858 0 .457.385.858.897.858s.897-.401.897-.858c0-.457-.385-.858-.897-.858zm-2.411.858c0-1.328 1.096-2.373 2.411-2.373s2.411 1.045 2.411 2.373c0 1.327-1.096 2.372-2.41 2.372-1.316 0-2.412-1.045-2.412-2.372zM23.764 11.018c-.453 0-.788.353-.788.751s.335.752.788.752c.451 0 .787-.354.787-.752s-.335-.751-.787-.751zm-2.303.751c0-1.268 1.048-2.266 2.303-2.266 1.254 0 2.302.998 2.302 2.266 0 1.269-1.048 2.266-2.302 2.266-1.255 0-2.303-.997-2.303-2.266z"/><path fill-rule="evenodd" clip-rule="evenodd" d="M4.395 12.943l.068.005a4.347 4.347 0 0 1 1.638.455c.51.258.962.614 1.33 1.048.368.434.644.937.81 1.48.165.542.218 1.112.153 1.675l-.077.671H.607l-.079-.669a4.124 4.124 0 0 1 .14-1.647 4.172 4.172 0 0 1 .776-1.465 4.265 4.265 0 0 1 1.287-1.056 4.344 4.344 0 0 1 1.597-.49l.067-.007zm.023 1.522c-.341.044-.671.15-.972.31a2.75 2.75 0 0 0-.83.681 2.658 2.658 0 0 0-.576 1.306h4.84a2.66 2.66 0 0 0-.603-1.332 2.754 2.754 0 0 0-.86-.675 2.833 2.833 0 0 0-.999-.29zM23.762 13.208l.08.008a4.106 4.106 0 0 1 2.734 1.447 3.953 3.953 0 0 1 .904 2.933l-.069.681h-7.276l-.07-.68a3.953 3.953 0 0 1 .897-2.927 4.106 4.106 0 0 1 2.72-1.453l.08-.009zm.004 1.524a2.589 2.589 0 0 0-1.639.905c-.273.33-.452.718-.527 1.125h4.345a2.456 2.456 0 0 0-.532-1.129 2.59 2.59 0 0 0-1.647-.9zM13.985 8.515c-.452 0-.788.353-.788.751s.336.752.788.752.787-.354.787-.752-.335-.751-.787-.751zm-2.303.751C11.682 7.998 12.73 7 13.985 7c1.254 0 2.302.998 2.302 2.266s-1.048 2.266-2.302 2.266c-1.255 0-2.303-.998-2.303-2.266z"/><path fill-rule="evenodd" clip-rule="evenodd" d="M13.985 10.723l.08.009a4.105 4.105 0 0 1 2.722 1.453c.68.82 1.003 1.871.895 2.926l-.069.681h-7.28l-.065-.685a3.971 3.971 0 0 1 .91-2.925 4.124 4.124 0 0 1 2.725-1.45l.082-.009zm0 1.525a2.608 2.608 0 0 0-1.644.905c-.275.33-.456.717-.534 1.124h4.341a2.456 2.456 0 0 0-.527-1.125 2.588 2.588 0 0 0-1.637-.904z"/></symbol>
<symbol id="icon-minus" viewBox="0 0 25 25"><path d="M24 15.612H2V11h22v4.612z"/></symbol>
<symbol id="icon-parking" viewBox="0 0 27 27"><path fill-rule="evenodd" clip-rule="evenodd" d="M13.5 2.678C7.523 2.678 2.678 7.523 2.678 13.5c0 5.977 4.845 10.822 10.822 10.822 5.977 0 10.822-4.845 10.822-10.822 0-5.977-4.845-10.822-10.822-10.822zM.5 13.5c0-7.18 5.82-13 13-13s13 5.82 13 13-5.82 13-13 13-13-5.82-13-13z"/><path d="M13.7 9.669c1.123 0 2.003.265 2.64.797.635.523.953 1.259.953 2.209 0 .95-.318 1.69-.954 2.221-.636.523-1.516.784-2.64.784h-2.836v3.137h-.261V9.669h3.097zm.025 5.763c1.063 0 1.878-.24 2.444-.719.575-.479.863-1.158.863-2.038 0-.88-.288-1.56-.863-2.04-.566-.478-1.38-.718-2.444-.718h-2.862v5.515h2.862z"/><path fill-rule="evenodd" clip-rule="evenodd" d="M9.513 8.58h4.186c1.287 0 2.444.304 3.335 1.047.926.763 1.348 1.83 1.348 3.048 0 1.22-.423 2.287-1.345 3.057l-.006.006c-.892.733-2.047 1.032-3.332 1.032h-1.747v3.136h-2.44V8.58zm2.44 5.763h1.772c.915 0 1.441-.207 1.74-.461l.007-.005c.282-.235.47-.583.47-1.202 0-.62-.188-.968-.47-1.203l-.006-.005c-.3-.253-.826-.46-1.74-.46h-1.774v3.336z"/></symbol>
<symbol id="icon-pencil" viewBox="0 0 25 25"><path d="M14.679 5.725c1.468 1.475 2.95 2.965 4.418 4.445-3.758 3.777-7.527 7.566-11.278 11.34a5113.516 5113.516 0 0 0-4.429-4.445c3.751-3.77 7.52-7.555 11.289-11.34zM15.849 4.488c.548-.551 1.096-1.106 1.655-1.657.18-.177.361-.362.57-.5.714-.475 1.677-.446 2.308.134a38.87 38.87 0 0 1 2.186 2.183c.591.638.57 1.464-.029 2.106-.71.754-1.457 1.476-2.19 2.208-.01.01-.028.018-.035.022-1.482-1.498-2.965-2.988-4.465-4.496zM2.119 18.348c1.475 1.48 2.946 2.962 4.425 4.449l-1.306.323c-1.165.282-2.333.565-3.498.852-.534.13-.833-.16-.714-.7.357-1.624.718-3.252 1.078-4.877l.015-.047z"/></symbol>
<symbol id="icon-phone-check" viewBox="0 0 28 28"><path fill-rule="evenodd" clip-rule="evenodd" d="M6.746 2.075c-.39 0-.671.304-.671.639v22.573c0 .334.281.638.67.638h14.369c.39 0 .67-.304.67-.639V2.715a.655.655 0 0 0-.67-.64H6.746zM4 2.714C4 1.196 5.248 0 6.746 0h14.368c1.498 0 2.746 1.196 2.746 2.714v22.573c0 1.517-1.248 2.713-2.746 2.713H6.746C5.248 28 4 26.803 4 25.287V2.713z"/><path fill-rule="evenodd" clip-rule="evenodd" d="M23.183 5.557H5.398V3.483h17.785v2.074zM23.183 24.2H5.398v-2.075h17.785V24.2zM19.164 10.736l-7.35 7.213-3.119-3.06 1.453-1.48 1.665 1.633 5.898-5.787 1.453 1.48z"/></symbol>
<symbol id="icon-plus" viewBox="0 0 25 25"><path d="M23.106 15.191H14.98V24H10.17v-8.809H2v-4.425h8.17V2h4.809v8.766h8.127v4.425z"/></symbol>
<symbol id="icon-print" viewBox="0 0 28 28"><path fill-rule="evenodd" clip-rule="evenodd" d="M25.514 10.328a.403.403 0 0 0-.283-.102H2.749a.39.39 0 0 0-.27.098.342.342 0 0 0-.11.223v8.068a.343.343 0 0 0 .115.23.373.373 0 0 0 .283.092l.037-.003h4.17v1.87H2.871a2.26 2.26 0 0 1-1.623-.555A2.214 2.214 0 0 1 .5 18.66V10.498a2.191 2.191 0 0 1 .712-1.55 2.241 2.241 0 0 1 1.58-.592h22.396a2.273 2.273 0 0 1 1.581.586c.438.396.702.95.73 1.541l.001.022v8.15l-.001.022a2.222 2.222 0 0 1-.73 1.541c-.432.392-1 .6-1.58.586h-4.121v-1.87H25.23a.403.403 0 0 0 .283-.101.353.353 0 0 0 .116-.229v-8.047a.353.353 0 0 0-.116-.23z"/><path fill-rule="evenodd" clip-rule="evenodd" d="M6.472 1h14.973v9.206H6.472V1zm1.87 1.87v5.466h11.233V2.87H8.342zM22.535 16.305H5.36v-1.87h17.174v1.87z"/><path fill-rule="evenodd" clip-rule="evenodd" d="M6.472 14.435h14.973v13.542H6.472V14.435zm1.87 1.87v9.803h11.233v-9.803H8.342zM21.523 13.124h-2.046v-1.87h2.046v1.87z"/></symbol>
<symbol id="icon-room-doors" viewBox="0 0 28 28"><path fill-rule="evenodd" clip-rule="evenodd" d="M9.786 6.282l9.286 3.466v11.631L9.78 25.15.5 21.222V9.748l9.286-3.466zM1.885 10.71v9.596l7.907 3.346 7.895-3.204v-9.738l-7.901-2.95-7.901 2.95z"/><path fill-rule="evenodd" clip-rule="evenodd" d="M9.094 7.021h1.384v10.08l8.152 3.167-.5 1.29-9.036-3.51V7.022z"/><path fill-rule="evenodd" clip-rule="evenodd" d="M.951 20.115l8.594-3.189.482 1.298-8.594 3.189-.482-1.298zM11.602 11.317l4.059 1.528v7.733L11.6 19.02v-7.704zm1.384 2v4.752l1.29.495v-4.76l-1.29-.486zM8.08 11.614v4.51l-4.666 1.67v-4.51l4.667-1.67zm-3.282 2.645v1.569l1.898-.68V13.58l-1.898.679z"/><path fill-rule="evenodd" clip-rule="evenodd" d="M18.38 3l9.12 3.43v11.498l-9.115 3.731-9.143-3.593V6.43L18.38 3zm-7.754 4.39v9.732l7.749 3.045L26.115 17v-9.61l-7.735-2.91-7.754 2.91z"/><path fill-rule="evenodd" clip-rule="evenodd" d="M17.687 3.74h1.385v9.968l7.986 3.11-.502 1.29-8.869-3.453V3.74z"/><path fill-rule="evenodd" clip-rule="evenodd" d="M20.14 7.974l4.022 1.536v7.635L20.14 15.61V7.974zm1.384 2.01v4.672l1.253.478v-4.67l-1.253-.48z"/></symbol>
<symbol id="icon-time" viewBox="0 0 28 28"><path fill-rule="evenodd" clip-rule="evenodd" d="M5.49 9.126a10.985 10.985 0 0 0-.62 9.666 10.94 10.94 0 0 0 2.887 4.037 10.863 10.863 0 0 0 4.364 2.335 10.823 10.823 0 0 0 9.438-1.907 10.93 10.93 0 0 0 3.129-3.85 10.991 10.991 0 0 0 1.11-4.846v-.001a11.153 11.153 0 0 0-1.156-4.934l1.524-.755a12.854 12.854 0 0 1 1.334 5.686l-.85.002.85-.003v.002a12.693 12.693 0 0 1-1.283 5.594 12.63 12.63 0 0 1-3.616 4.45 12.525 12.525 0 0 1-10.92 2.206 12.563 12.563 0 0 1-5.047-2.701A12.64 12.64 0 0 1 3.3 19.442 12.696 12.696 0 0 1 4.015 8.28l1.476.846zM9.252 5.953L7.404 3.247l1.405-.96 1.848 2.706-1.405.96zM12.578 4.554l-.663-3.21L13.58 1l.663 3.21-1.666.344zM16.008 4.236l.562-3.21 1.676.293-.562 3.21-1.676-.293zM19.348 5.14l1.668-2.807 1.462.869-1.667 2.806-1.463-.869zM22.039 6.982l2.35-2.281 1.185 1.22-2.35 2.282-1.185-1.22z"/><path fill-rule="evenodd" clip-rule="evenodd" d="M5.849 6.488l2.023 5.049-1.579.633-1.392-3.473L1.13 10.2.5 8.62l5.349-2.132z"/><path d="M15.243 18.118v1.347h-5.4v-1.072L12.6 15.79c.293-.278.49-.517.592-.714a1.34 1.34 0 0 0 .153-.602c0-.286-.098-.504-.295-.654-.191-.156-.473-.234-.848-.234-.313 0-.595.06-.847.183a1.58 1.58 0 0 0-.633.531l-1.204-.776a2.79 2.79 0 0 1 1.153-.97c.49-.238 1.052-.357 1.684-.357.531 0 .994.089 1.389.266.401.17.71.415.928.735.225.313.337.684.337 1.112 0 .388-.081.752-.245 1.093-.163.34-.48.728-.949 1.163l-1.643 1.552h3.072zM22.369 17.965h-1.164v1.5h-1.613v-1.5h-3.848v-1.113l3.369-4.532h1.735l-3.124 4.297h1.92V15.28h1.561v1.337h1.164v1.348z"/></symbol>
<symbol id="icon-tv" viewBox="0 0 28 28"><path fill-rule="evenodd" clip-rule="evenodd" d="M.5 3h27v17.756H.5V3zm1.93 1.93v13.895h23.14V4.931H2.43z"/><path fill-rule="evenodd" clip-rule="evenodd" d="M14.966 20.187v4.694h-1.931v-4.694h1.93z"/><path fill-rule="evenodd" clip-rule="evenodd" d="M20.212 25.848H7.787v-1.931h12.425v1.93z"/></symbol>
<symbol id="icon-twitter" viewBox="0 0 24 24"><path d="M23.348 2.39a5.388 5.388 0 0 1-2.055 2.833c.929-.092 1.806-.368 2.66-.748.015.02.031.041.047.067-.395.488-.77.998-1.193 1.458-.348.376-.755.694-1.126 1.049a.405.405 0 0 0-.119.276c.067 3.87-1.09 7.292-3.414 10.267-1.588 2.035-3.584 3.468-5.942 4.316-1.688.606-3.426.849-5.208.778a13.097 13.097 0 0 1-5.267-1.308c-.573-.276-1.115-.627-1.668-.945-.016-.008-.023-.025-.063-.07 2.09.208 4.042-.18 5.86-1.221.466-.267.897-.593 1.335-.915-2.236-.226-3.746-1.42-4.583-3.67.762.135 1.474.118 2.197-.091-2.924-.74-4.015-3.531-3.884-5.173.671.363 1.37.593 2.189.622-1.083-.823-1.775-1.863-2.055-3.188-.277-1.316-.09-2.562.541-3.76 2.675 3.33 6.05 5.147 10.17 5.457-.03-.339-.07-.652-.086-.97a5.147 5.147 0 0 1 .857-3.192c.925-1.388 2.201-2.157 3.805-2.253 1.403-.083 2.628.401 3.651 1.421.154.155.285.205.498.15.901-.234 1.762-.56 2.569-1.04.079-.042.154-.08.284-.15z"/></symbol>
<symbol id="icon-user" viewBox="0 0 24 24"><path fill-rule="evenodd" clip-rule="evenodd" d="M12 1.173C6.02 1.173 1.173 6.02 1.173 12c0 5.98 4.847 10.827 10.827 10.827 5.98 0 10.827-4.847 10.827-10.827C22.827 6.02 17.98 1.173 12 1.173zM.5 12C.5 5.649 5.649.5 12 .5S23.5 5.649 23.5 12 18.351 23.5 12 23.5.5 18.351.5 12z"/><path d="M17.019 12.93l-2.195-.806-.29-.093c.71-.93 1.194-2.263 1.194-3.875 0-2.975-1.194-4.37-3.744-4.37-2.55 0-3.744 1.395-3.744 4.37 0 1.55.452 2.883 1.162 3.813a5.158 5.158 0 0 0-.743.248l-1.71.682c-1.775.713-3.163 2.2-3.163 3.41v1.952c0 .186.161.31.322.31a.317.317 0 0 0 .323-.31V16.31c0-.93 1.259-2.232 2.744-2.821l1.71-.682a4.38 4.38 0 0 1 .969-.28c.645.62 1.388.962 2.13.962.71 0 1.452-.341 2.066-.93.193.062.355.093.548.155l2.195.806c1.485.558 2.776 1.798 2.776 2.728V18.2c0 .185.161.31.323.31.16 0 .322-.156.322-.31v-1.953c0-1.178-1.42-2.635-3.195-3.317zm-5.035-.093c-1.259 0-3.066-1.674-3.066-4.68 0-3.286 1.549-3.72 3.066-3.72s3.066.434 3.066 3.72c0 3.006-1.807 4.68-3.066 4.68z"/></symbol>
<symbol id="icon-wifi" viewBox="0 0 28 28"><path fill-rule="evenodd" clip-rule="evenodd" d="M14 17.986a5.09 5.09 0 0 0-3.01.986l-1.082.793L8.322 17.6l1.082-.793a7.774 7.774 0 0 1 9.192 0l1.082.793-1.586 2.164-1.082-.793a5.09 5.09 0 0 0-3.01-.986z"/><path fill-rule="evenodd" clip-rule="evenodd" d="M14 12.833c-2.594 0-5.121.82-7.223 2.343l-1.087.787-1.574-2.173 1.087-.787a14.995 14.995 0 0 1 17.595 0l1.086.787-1.574 2.173-1.087-.787A12.312 12.312 0 0 0 14 12.833z"/><path fill-rule="evenodd" clip-rule="evenodd" d="M14 7.683a18.389 18.389 0 0 0-10.835 3.533l-1.084.79L.5 9.838l1.084-.79a21.072 21.072 0 0 1 24.832 0l1.084.79-1.58 2.168-1.085-.79A18.39 18.39 0 0 0 14 7.683z"/><path d="M14.01 23.945c.884 0 1.6-.718 1.6-1.603s-.716-1.603-1.6-1.603c-.884 0-1.6.718-1.6 1.603s.716 1.603 1.6 1.603z"/></symbol>
</svg>