<svg xmlns="http://www.w3.org/2000/svg">
<defs>
<clipPath id="clip0"><path d="M0 0h24v24H0z"/></clipPath>
<clipPath id="clip0"><path d="M0 0h24v24H0z"/></clipPath>
</defs>
<symbol id="icon-facebook" viewBox="0 0 24 24"><g clip-path="url(#clip0)"><path d="M0 19.752V4.236c.004-.025.012-.049.014-.073.018-.147.027-.293.053-.437a4.4 4.4 0 0 1 1.389-2.532C2.299.423 3.296.01 4.437.008 9.48-.004 14.52 0 19.56.002c.542 0 1.068.106 1.574.305a4.499 4.499 0 0 1 2.865 4.217c.002 4.983 0 9.963 0 14.946A4.506 4.506 0 0 1 19.485 24H4.498c-.313 0-.623-.03-.928-.098a4.434 4.434 0 0 1-2.384-1.358 4.39 4.39 0 0 1-1.13-2.317C.036 20.07.02 19.912 0 19.752zm11.443-9.626v2.804h1.454v8.3h3.753v-8.306h2.242c.101-.934.203-1.862.306-2.8h-2.55v-.075c0-.481-.002-.965.002-1.446.002-.185.01-.37.03-.554a.628.628 0 0 1 .457-.56c.191-.063.388-.08.585-.082.532-.004 1.066-.002 1.598-.002h.088V4.62c-.017-.003-.027-.005-.037-.005-1.058.005-2.116.005-3.174.017-.44.006-.873.085-1.291.227-.687.232-1.227.642-1.568 1.291-.309.585-.42 1.22-.437 1.873-.016.668-.006 1.334-.008 2.002v.101h-1.45z"/></g></symbol>
<symbol id="icon-instagram" viewBox="0 0 24 24"><g clip-path="url(#clip0)"><path d="M23.994 12.027c0 1.588.02 3.182-.007 4.77-.055 3.046-1.458 5.247-4.196 6.583-.919.45-1.913.62-2.935.62H7.151C3.235 24 .068 20.92.028 17.002a491.123 491.123 0 0 1 0-10.017C.068 3.107 3.215.02 7.104.007c3.269-.007 6.538-.014 9.807 0 3.922.013 7.035 3.12 7.082 7.046.014 1.656 0 3.318 0 4.974zM2.2 11.966v4.872c0 .756.123 1.492.463 2.174.92 1.812 2.404 2.773 4.434 2.794 3.255.027 6.51.013 9.766 0 .36 0 .729-.034 1.076-.11 2.295-.51 3.841-2.405 3.855-4.756.02-3.291.006-6.582 0-9.874 0-.347-.041-.702-.123-1.042-.51-2.249-2.37-3.796-4.679-3.816-3.337-.028-6.674-.014-10.004-.007-.313 0-.634.04-.947.109-2.288.504-3.834 2.405-3.855 4.756 0 1.629.014 3.264.014 4.9z"/><path d="M12.014 18.542c-3.59.006-6.545-2.944-6.545-6.542-.007-3.578 2.935-6.528 6.51-6.542 3.59-.02 6.559 2.937 6.566 6.528.007 3.591-2.936 6.549-6.531 6.556zm-.028-2.18a4.351 4.351 0 0 0 4.373-4.328 4.335 4.335 0 0 0-4.339-4.388A4.344 4.344 0 0 0 7.648 12a4.36 4.36 0 0 0 4.338 4.361zM19.43 5.588a.995.995 0 0 1-1.015.967.991.991 0 0 1-.953-1.029.982.982 0 0 1 .994-.947.99.99 0 0 1 .974 1.009z"/></g></symbol>
<symbol id="icon-twitter" viewBox="0 0 24 24"><path d="M23.348 2.39a5.388 5.388 0 0 1-2.055 2.833c.929-.092 1.806-.368 2.66-.748.015.02.031.041.047.067-.395.488-.77.998-1.193 1.458-.348.376-.755.694-1.126 1.049a.405.405 0 0 0-.119.276c.067 3.87-1.09 7.292-3.414 10.267-1.588 2.035-3.584 3.468-5.942 4.316-1.688.606-3.426.849-5.208.778a13.097 13.097 0 0 1-5.267-1.308c-.573-.276-1.115-.627-1.668-.945-.016-.008-.023-.025-.063-.07 2.09.208 4.042-.18 5.86-1.221.466-.267.897-.593 1.335-.915-2.236-.226-3.746-1.42-4.583-3.67.762.135 1.474.118 2.197-.091-2.924-.74-4.015-3.531-3.884-5.173.671.363 1.37.593 2.189.622-1.083-.823-1.775-1.863-2.055-3.188-.277-1.316-.09-2.562.541-3.76 2.675 3.33 6.05 5.147 10.17 5.457-.03-.339-.07-.652-.086-.97a5.147 5.147 0 0 1 .857-3.192c.925-1.388 2.201-2.157 3.805-2.253 1.403-.083 2.628.401 3.651 1.421.154.155.285.205.498.15.901-.234 1.762-.56 2.569-1.04.079-.042.154-.08.284-.15z"/></symbol>
<symbol id="icon-user" viewBox="0 0 24 24"><path fill-rule="evenodd" clip-rule="evenodd" d="M12 1.173C6.02 1.173 1.173 6.02 1.173 12c0 5.98 4.847 10.827 10.827 10.827 5.98 0 10.827-4.847 10.827-10.827C22.827 6.02 17.98 1.173 12 1.173zM.5 12C.5 5.649 5.649.5 12 .5S23.5 5.649 23.5 12 18.351 23.5 12 23.5.5 18.351.5 12z"/><path d="M17.019 12.93l-2.195-.806-.29-.093c.71-.93 1.194-2.263 1.194-3.875 0-2.975-1.194-4.37-3.744-4.37-2.55 0-3.744 1.395-3.744 4.37 0 1.55.452 2.883 1.162 3.813a5.158 5.158 0 0 0-.743.248l-1.71.682c-1.775.713-3.163 2.2-3.163 3.41v1.952c0 .186.161.31.322.31a.317.317 0 0 0 .323-.31V16.31c0-.93 1.259-2.232 2.744-2.821l1.71-.682a4.38 4.38 0 0 1 .969-.28c.645.62 1.388.962 2.13.962.71 0 1.452-.341 2.066-.93.193.062.355.093.548.155l2.195.806c1.485.558 2.776 1.798 2.776 2.728V18.2c0 .185.161.31.323.31.16 0 .322-.156.322-.31v-1.953c0-1.178-1.42-2.635-3.195-3.317zm-5.035-.093c-1.259 0-3.066-1.674-3.066-4.68 0-3.286 1.549-3.72 3.066-3.72s3.066.434 3.066 3.72c0 3.006-1.807 4.68-3.066 4.68z"/></symbol>
</svg>