<svg xmlns="http://www.w3.org/2000/svg" width="64" height="64" viewBox="0 0 64 64">
  <g fill="#005473" fill-rule="evenodd">
    <path d="M19.1881739,32.7671652 C18.4528696,32.7671652 17.8892522,33.3586087 17.8892522,34.066087 L17.8892522,37.608487 L47.3505391,37.608487 L47.3505391,34.066087 C47.3505391,33.3307826 46.7589565,32.7671652 46.0516174,32.7671652 L19.1881739,32.7671652 Z M16.1179826,34.066087 C16.1179826,32.4118261 17.4436174,30.9958957 19.1881739,30.9958957 L46.0516174,30.9958957 C47.7058783,30.9958957 49.1216696,32.3215304 49.1216696,34.066087 L49.1216696,38.4940522 C49.1216696,38.9832348 48.725287,39.3797565 48.2361043,39.3797565 L17.003687,39.3797565 C16.5145043,39.3797565 16.1179826,38.9832348 16.1179826,38.4940522 L16.1179826,34.066087 Z"/>
    <path d="M17.003687 20.4868174C17.4927304 20.4868174 17.8892522 20.8832 17.8892522 21.3723826L17.8892522 43.335513C17.8892522 43.8245565 17.4927304 44.2210783 17.003687 44.2210783 16.5145043 44.2210783 16.1179826 43.8245565 16.1179826 43.335513L16.1179826 21.3723826C16.1179826 20.8832 16.5145043 20.4868174 17.003687 20.4868174zM21.0774261 28.7521391C20.3422609 28.7521391 19.7785043 29.3437217 19.7785043 30.0510609L19.7785043 30.8776348 27.3947826 30.8776348 27.3947826 30.0510609C27.3947826 29.3158957 26.8033391 28.7521391 26.0958609 28.7521391L21.0774261 28.7521391zM18.0073739 30.0510609C18.0073739 28.3968 19.3330087 26.9810087 21.0774261 26.9810087L26.0958609 26.9810087C27.7501217 26.9810087 29.1660522 28.3066435 29.1660522 30.0510609L29.1660522 31.7632C29.1660522 32.2523826 28.7695304 32.6489043 28.2803478 32.6489043L18.8929391 32.6489043C18.4038957 32.6489043 18.0073739 32.2523826 18.0073739 31.7632L18.0073739 30.0510609zM48.2361043 37.6083478C48.725287 37.6083478 49.1216696 38.0048696 49.1216696 38.493913L49.1216696 43.3352348C49.1216696 43.8244174 48.725287 44.2209391 48.2361043 44.2209391 47.7470609 44.2209391 47.3505391 43.8244174 47.3505391 43.3352348L47.3505391 38.493913C47.3505391 38.0048696 47.7470609 37.6083478 48.2361043 37.6083478zM44.5165913 24.8560696C44.5165913 24.8560696 44.2803478 23.7932522 44.1032348 23.5571478 43.9261217 23.3209043 42.8044522 23.1437913 42.8044522 23.1437913 42.8044522 23.1437913 43.9261217 22.8486957 44.1032348 22.6715826 44.2803478 22.4943304 44.5755826 21.3726609 44.5755826 21.3726609 44.5755826 21.3726609 44.8118261 22.4943304 44.9889391 22.6715826 45.1660522 22.8486957 46.3468522 23.1437913 46.3468522 23.1437913 46.3468522 23.1437913 45.2250435 23.3209043 45.0479304 23.4980174 44.8708174 23.6752696 44.5165913 24.8560696 44.5165913 24.8560696zM10.450087 37.6681739C10.450087 37.6681739 10.2139826 36.6054957 10.0368696 36.3692522 9.85975652 36.1331478 8.73794783 35.9560348 8.73794783 35.9560348 8.73794783 35.9560348 9.85975652 35.6608 10.0368696 35.483687 10.2139826 35.3065739 10.5092174 34.1847652 10.5092174 34.1847652 10.5092174 34.1847652 10.7453217 35.3065739 10.9224348 35.483687 11.0995478 35.6608 12.2803478 35.9560348 12.2803478 35.9560348 12.2803478 35.9560348 11.1585391 36.1331478 10.9814261 36.3102609 10.6863304 36.4873739 10.450087 37.6681739 10.450087 37.6681739zM40.2656 46.1698783C40.2656 46.1698783 40.0294957 45.1072 39.8522435 44.8709565 39.6751304 44.6348522 38.5534609 44.4577391 38.5534609 44.4577391 38.5534609 44.4577391 39.6751304 44.1625043 39.8522435 43.9853913 40.0294957 43.8082783 40.3245913 42.6864696 40.3245913 42.6864696 40.3245913 42.6864696 40.5608348 43.8082783 40.7379478 43.9853913 40.9150609 44.1625043 42.0958609 44.4577391 42.0958609 44.4577391 42.0958609 44.4577391 40.9740522 44.6348522 40.7969391 44.8119652 40.6198261 44.9890783 40.2656 46.1698783 40.2656 46.1698783zM24.9740522 21.3726609C24.9740522 21.3726609 24.7379478 20.3099826 24.5608348 20.0737391 24.3837217 19.8376348 23.261913 19.6605217 23.261913 19.6605217 23.261913 19.6605217 24.3837217 19.365287 24.5608348 19.1881739 24.7379478 19.0110609 25.0331826 17.8892522 25.0331826 17.8892522 25.0331826 17.8892522 25.269287 19.0110609 25.4464 19.1881739 25.623513 19.365287 26.804313 19.6605217 26.804313 19.6605217 26.804313 19.6605217 25.6826435 19.8376348 25.5055304 20.0147478 25.2102957 20.1918609 24.9740522 21.3726609 24.9740522 21.3726609z"/>
    <path d="M32,2.95206957 C15.957287,2.95206957 2.95206957,15.957287 2.95206957,32 C2.95206957,48.042713 15.957287,61.0479304 32,61.0479304 C48.042713,61.0479304 61.0479304,48.042713 61.0479304,32 C61.0479304,15.957287 48.042713,2.95206957 32,2.95206957 Z M0,32 C0,14.3269565 14.3269565,0 32,0 C49.6730435,0 64,14.3269565 64,32 C64,49.6730435 49.6730435,64 32,64 C14.3269565,64 0,49.6730435 0,32 Z"/>
  </g>
</svg>
