<svg width="160" height="160" viewBox="0 0 160 160" fill="none" xmlns="http://www.w3.org/2000/svg">
<rect width="160" height="160" fill="white"/>
<path d="M98.5676 120.642C95.8143 118.657 94.0246 120.574 91.9596 122.627C90.4453 124.133 87.8985 124.202 86.1089 123.175C84.0439 121.943 82.9426 122.559 81.7036 124.133C81.4283 124.476 81.0153 124.886 80.6023 124.955C76.1281 125.502 72.1358 127.761 67.8682 128.788C63.7383 129.815 60.5031 127.008 59.5395 122.559C59.2641 121.19 58.8512 120.779 57.4745 120.505C54.0329 119.821 51.6237 117.835 51.0731 114.276C50.8666 112.77 50.1094 112.564 48.9393 112.222C42.9508 110.511 40.817 105.787 43.708 100.38C44.3963 99.0105 44.0521 98.3944 43.3638 97.4361C39.6469 92.5758 37.0312 87.1679 35.2416 81.3493C34.2091 78.132 32.0753 75.873 29.8038 73.5455C29.5285 73.2033 29.0466 72.7925 28.7025 72.7925C23.54 73.614 21.5439 69.3698 18.7217 66.6317C11.0813 59.3755 11.1502 59.307 18.5841 51.9824C25.192 45.4793 31.7311 38.9761 38.339 32.473C41.7118 29.1872 44.121 29.1872 47.4249 32.4045C49.6964 34.6635 52.0367 36.8541 54.3082 39.113C55.0654 39.7976 55.8914 40.4821 56.029 41.5774C56.7173 46.7799 61.1226 48.7651 64.4954 51.6402C66.1474 53.0777 68.0059 53.6938 70.2085 52.5985C71.1034 52.1878 72.2735 52.0509 73.2372 52.1878C75.6463 52.5301 77.5048 51.7086 79.5009 50.3395C83.7686 47.396 88.5868 47.3276 93.3363 49.0389C96.8468 50.2711 100.082 50.2026 103.248 48.4913C104.9 47.6014 106.759 46.5061 105.864 44.0417C105.795 43.7679 105.933 43.3572 106.001 43.0149C106.552 40.3452 116.395 30.7616 119.149 30.214C120.801 29.8717 122.039 30.5563 123.141 31.6515C130.437 38.9077 137.802 46.0954 145.098 53.3515C147.645 55.9528 147.645 58.2118 145.03 60.813C142.207 63.6197 139.248 66.3578 136.288 69.096C135.668 69.7121 134.774 70.2597 133.948 70.4651C126.927 72.108 123.21 76.8998 121.213 83.4029C119.355 89.3585 116.602 94.8348 112.334 99.4212C111.233 100.653 110.338 101.612 110.889 103.529C111.37 105.24 110.889 107.225 109.512 108.252C106.896 110.169 105.933 112.428 105.451 115.576C105.038 118.862 102.147 120.163 98.5676 120.642ZM72.6865 56.9112C72.6177 56.6373 72.6177 56.2951 72.5488 56.0212C65.1149 58.1433 60.3655 54.0361 55.8914 49.3812C55.8225 49.3127 55.7537 49.2443 55.6849 49.1074C54.5147 47.3276 53.551 47.8752 52.3121 49.1758C46.0483 55.679 39.6469 62.1137 33.2454 68.4799C31.9376 69.7806 31.9376 70.602 33.2454 71.6973C36.4117 74.367 38.0637 77.9266 39.3715 81.76C40.8858 86.4149 43.1573 90.796 46.0483 94.7664C47.0808 96.1354 48.1821 96.82 50.0406 96.7515C53.964 96.6831 56.9927 98.9421 57.8187 102.639C58.1628 104.213 58.5758 104.761 60.2278 105.171C63.6006 105.924 65.9409 108.046 66.3539 111.675C66.4916 112.77 66.8357 113.317 68.0059 113.454C71.9982 114.002 74.2697 116.398 75.0956 120.3C75.5775 122.696 77.2295 122.49 78.7438 121.532C80.6711 120.231 80.6023 118.657 78.8814 117.014C74.132 112.359 69.4514 107.704 64.7019 103.049C63.6694 102.023 62.7058 100.859 63.9448 99.5582C65.3214 98.1206 66.4227 99.3528 67.3864 100.38C71.7917 104.692 76.197 109.073 80.6023 113.386C82.5296 115.303 84.4569 117.288 86.5219 119.136C87.692 120.231 88.9998 120.3 90.2388 119.205C91.409 118.109 91.4778 116.809 90.583 115.508C90.0323 114.687 89.2752 113.934 88.518 113.249C83.6997 108.526 78.8126 103.871 74.0632 99.079C72.8242 97.8468 70.4839 96.5462 72.2047 94.6295C74.0632 92.5074 75.371 95.0402 76.5411 96.2039C80.1204 99.5582 83.6309 103.049 87.1414 106.472C90.2388 109.484 93.3363 112.564 96.4338 115.576C97.8792 116.946 99.5312 117.219 101.046 115.85C102.698 114.344 102.56 112.633 101.046 111.058C100.564 110.579 100.082 110.1 99.6001 109.621C92.9921 103.186 86.3154 96.6831 79.7074 90.2484C78.6749 89.2216 77.5736 88.1263 78.8814 86.7572C80.2581 85.3197 81.3594 86.6203 82.3919 87.5102C82.8049 87.8525 83.2179 88.3317 83.6309 88.6739C89.4817 94.2872 95.3324 99.9689 101.183 105.582C102.698 107.088 104.418 108.183 106.208 106.335C107.998 104.555 107.034 102.844 105.451 101.338C101.459 97.5045 97.6039 93.6711 93.6805 89.8377C92.648 88.8108 91.6155 87.6471 92.7856 86.3465C94.0246 84.9774 95.2636 86.0727 96.2961 87.031C99.6689 90.3168 103.111 93.4657 106.346 96.8884C107.791 98.3944 108.548 98.1891 109.787 96.7515C113.504 92.4389 116.326 87.6471 117.565 82.1023C118.323 78.6796 119.906 76.0099 122.452 73.7509C123.898 72.4503 125.137 70.8758 126.651 69.7121C128.166 68.4799 127.821 67.7269 126.651 66.4947C121.282 61.3607 115.982 56.0897 110.751 50.8872C109.65 49.7919 108.961 49.2443 107.378 50.5449C102.835 54.3099 97.6727 54.8575 92.235 52.8039C86.9349 50.8187 82.5984 52.1878 78.9503 56.1582C74.2008 61.2922 69.4514 66.3578 64.7019 71.4919C64.2201 71.9711 63.7383 72.4503 63.3253 72.9979C61.6733 75.3938 62.1551 77.5159 64.1513 79.3641C66.3539 81.4178 67.7994 79.9118 69.3137 78.3373C72.9618 74.7093 76.61 71.0812 80.2581 67.4531C81.1529 66.5632 82.1854 65.2626 83.4244 66.3578C84.5257 67.3162 84.3192 68.9591 83.2179 69.849C81.2218 71.5604 82.3919 72.7241 83.5621 74.0932C87.1414 77.9266 91.5466 79.7064 96.7779 79.2957C98.2234 79.1588 99.8066 79.0219 100.013 80.8701C100.22 82.9238 98.4987 83.0607 96.9156 83.1976C91.8908 83.5399 87.4855 81.9654 83.3556 79.2957C81.4282 78.0635 80.6711 74.5723 78.1931 75.3253C76.1281 75.9414 74.6827 78.4742 72.9618 80.1856C72.2047 80.9386 71.5164 81.6916 70.828 82.3761C69.7267 83.4714 68.4189 83.9506 66.8357 84.0875C63.2564 84.3613 60.985 82.4446 59.4018 79.5695C57.7498 76.626 58.3005 72.7241 60.7096 70.0544C64.6331 65.5364 68.6942 61.2238 72.6865 56.9112ZM52.4497 43.0149C52.3121 42.7411 52.2432 42.3988 51.9679 42.1935C49.2834 39.5238 46.5989 36.9225 43.8456 34.3212C42.6755 33.1575 41.9872 34.2528 41.2988 34.9373C33.6584 42.4673 26.0868 49.9973 18.3776 57.5272C17.0009 58.8963 16.8633 59.7862 18.3087 61.1553C20.5802 63.2774 22.7829 65.3995 24.8478 67.6585C26.2245 69.2329 27.1882 69.2329 28.7025 67.7269C36.0676 60.1285 43.5703 52.5985 51.0042 45.0001C51.6237 44.4525 52.3121 43.9733 52.4497 43.0149ZM119.562 33.7736C119.149 34.0474 118.736 34.2528 118.391 34.5951C115.707 37.4017 113.022 40.2083 110.338 43.0149C109.237 44.1102 109.925 44.7947 110.682 45.5477C117.497 52.2563 124.38 58.9648 131.125 65.7418C132.502 67.1108 133.328 66.7686 134.498 65.6048C136.77 63.3459 139.041 61.0869 141.45 59.0332C143.171 57.5272 142.758 56.5689 141.313 55.1998C134.498 48.5597 127.821 41.9197 121.076 35.2111C120.663 34.6635 120.112 34.2528 119.562 33.7736ZM67.2487 117.288C64.7708 117.493 63.3941 118.794 63.2564 121.19C63.1188 123.449 65.1838 125.571 67.3864 125.297C69.6579 125.023 71.241 123.723 71.1034 121.19C71.0345 118.725 69.589 117.562 67.2487 117.288ZM49.8341 108.457C52.6562 108.457 53.8952 106.951 54.2394 104.692C54.5147 102.57 52.4497 100.448 50.1782 100.585C47.7691 100.722 46.3236 102.023 46.3236 104.487C46.3236 106.951 47.7003 108.252 49.8341 108.457ZM58.7135 108.936C56.3043 109.005 54.79 110.374 54.6524 112.633C54.5147 115.097 55.9602 116.672 58.5758 116.74C61.1915 116.809 62.6369 115.234 62.6369 112.77C62.6369 110.442 61.1226 109.073 58.7135 108.936Z" fill="#005473"/>
</svg>
