<svg xmlns="http://www.w3.org/2000/svg" width="64" height="64" viewBox="0 0 64 64">
  <g fill="#005473" fill-rule="evenodd">
    <path fill-rule="nonzero" d="M32,0 C14.3581217,0 0,14.3581217 0,32 C0,49.6418783 14.3581217,64 32,64 C49.6418783,64 64,49.6418783 64,32 C64,14.3581217 49.6418783,0 32,0 Z M32,61.5546435 C15.720487,61.5546435 2.44535652,48.3144348 2.44535652,32 C2.44535652,15.720487 15.720487,2.44535652 32,2.44535652 C48.3144348,2.44535652 61.5546435,15.720487 61.5546435,32 C61.5546435,48.3144348 48.3144348,61.5546435 32,61.5546435 Z"/>
    <path fill-rule="nonzero" d="M51.4934261,37.2403478 C50.6550261,35.2840348 49.2926609,33.7469217 46.9868522,32.8734609 C44.6462609,31.9652174 42.375513,30.9869913 40.0698435,30.0438261 C39.6157217,29.8341565 39.1266783,29.6595478 38.6725565,29.4498783 C40.5590261,27.249113 41.7817043,24.1049043 41.7817043,20.6464 C41.7817043,13.9739826 37.4148174,8.55916522 32.0349217,8.55916522 C26.6550261,8.55916522 22.2533565,13.9739826 22.2533565,20.6114783 C22.2533565,24.0001391 23.3711304,27.0394435 25.1877565,29.2403478 C24.8733217,29.3800348 24.5939478,29.4849391 24.279513,29.6246261 C21.9389217,30.5328696 19.5632696,31.3363478 17.2925217,32.2796522 C16.4890435,32.6290087 15.6855652,33.1529739 15.0917565,33.7469217 C12.8210087,36.087513 11.7380174,38.8473043 11.5983304,41.8866087 C11.5632696,42.3756522 11.8078609,42.6551652 12.2969043,42.7948522 C12.9606957,42.7948522 13.2402087,42.270887 13.3798957,41.7469217 C13.3798957,41.712 13.3798957,41.712 13.3798957,41.6770783 C13.3798957,41.5372522 13.4148174,41.3626435 13.4497391,41.2228174 C13.4497391,41.0482087 13.4846609,40.9083826 13.5197217,40.7337739 C13.7990957,38.8123826 14.4978087,37.0306783 15.7904696,35.4237217 C16.4541217,34.5853217 17.3275826,33.9215304 18.4454957,33.5372522 C20.7161043,32.6988522 22.9519304,31.8604522 25.2226783,30.9869913 C25.6418783,30.8473043 26.0261565,30.6726957 26.4104348,30.4979478 C27.9826087,31.8953739 29.9389217,32.6988522 32.0349217,32.6988522 C34.0610783,32.6988522 35.9126261,31.9302957 37.4848,30.6377739 C39.860313,31.6158609 42.2009043,32.594087 44.5414957,33.5721739 C45.3100522,33.8866087 46.043687,34.2359652 46.8122435,34.5504 C48.139687,35.0743652 48.9782261,36.0176696 49.5720348,37.1355826 C49.9912348,37.9390609 50.2707478,38.7774609 50.4104348,39.6507826 C50.4104348,39.6507826 50.4104348,39.6857043 50.4104348,39.7206261 C50.4454957,39.9652174 50.4804174,40.2098087 50.5153391,40.4542609 C50.5851826,40.9434435 50.7248696,41.5721739 50.8996174,41.9215304 C50.8996174,41.9215304 50.8996174,41.9215304 50.8996174,41.9564522 C50.9694609,42.0613565 51.0043826,42.1312 51.0742261,42.2010435 C51.1091478,42.2359652 51.1091478,42.2359652 51.1091478,42.2359652 C51.6332522,42.7250087 52.0873739,42.2359652 52.2969043,41.9215304 C52.3318261,41.7818435 52.366887,41.6770783 52.4018087,41.5372522 C52.4018087,41.2577391 52.366887,40.9783652 52.366887,40.7337739 C52.2619826,39.5460174 51.9475478,38.3582609 51.4934261,37.2403478 Z M23.6506435,20.6114783 C23.6506435,14.7076174 27.3886609,9.92153043 32,9.92153043 C36.6113391,9.92153043 40.3493565,14.7076174 40.3493565,20.6114783 C40.3493565,26.5154783 36.6113391,31.3014261 32,31.3014261 C27.3886609,31.3014261 23.6506435,26.5154783 23.6506435,20.6114783 Z"/>
    <path d="M41.117913,45.5897043 C39.5808,45.3800348 38.0087652,45.1354435 36.4716522,44.925913 C36.1921391,44.8909913 36.0175304,44.7862261 35.9126261,44.5416348 C35.2489739,43.1442087 34.5502609,41.7818435 33.8515478,40.3844174 C33.7118609,40.1049043 33.537113,39.8604522 33.1877565,39.8604522 C32.8034783,39.8604522 32.6288696,40.1049043 32.4890435,40.3844174 C31.8253913,41.7818435 31.1266783,43.1442087 30.4279652,44.5416348 C30.3581217,44.6813217 30.1833739,44.8560696 30.0087652,44.8909913 C29.4148174,44.9957565 28.8210087,45.0656 28.2270609,45.1705043 C27.1791304,45.3101913 26.1659826,45.4848 25.117913,45.6246261 C24.7336348,45.6944696 24.4541217,46.0089043 24.5590261,46.3233391 C24.6288696,46.5328696 24.7685565,46.7425391 24.9433043,46.8822261 C26.0612174,47.9652174 27.1791304,49.0482087 28.2619826,50.1312 C28.366887,50.2359652 28.4716522,50.4105739 28.4367304,50.5504 C28.3319652,51.2140522 28.2270609,51.8429217 28.1222957,52.4717913 C27.947687,53.4848 27.7729391,54.4630261 27.6332522,55.4061913 C27.6332522,56.0699826 28.0873739,56.3494957 28.6462609,56.0699826 C30.0786087,55.3363478 31.4760348,54.602713 32.8733217,53.8341565 C33.0829913,53.7293913 33.2226783,53.7293913 33.4323478,53.8341565 C34.8297739,54.5677913 36.2270609,55.3014261 37.5895652,56.0350609 C37.8690783,56.1747478 38.1484522,56.2447304 38.4279652,56.0699826 C38.7074783,55.8604522 38.7074783,55.5809391 38.6725565,55.3014261 C38.3930435,53.764313 38.1484522,52.1922783 37.8690783,50.6551652 C37.8340174,50.4105739 37.8690783,50.2359652 38.043687,50.0612174 C39.1965217,48.9783652 40.3144348,47.8953739 41.4323478,46.7774609 C41.6069565,46.602713 41.7118609,46.2882783 41.7118609,46.0787478 C41.7467826,45.764313 41.4323478,45.6246261 41.117913,45.5897043 Z"/>
    <path d="M41.8515478 39.0568348C41.2925217 38.9868522 40.7685565 38.882087 40.2096696 38.8122435 40.1047652 38.8122435 40.0698435 38.7773217 40 38.6725565 39.7554087 38.1833739 39.5109565 37.6943304 39.2663652 37.205287 39.2314435 37.1003826 39.1616 37.0305391 39.0217739 37.0305391 38.882087 37.0305391 38.8122435 37.1003826 38.7773217 37.205287 38.5327304 37.6943304 38.2881391 38.1833739 38.043687 38.6725565 38.0087652 38.7424 37.9389217 38.7773217 37.9038609 38.8122435 37.6943304 38.8471652 37.4846609 38.882087 37.2751304 38.9170087 36.9257739 38.9868522 36.5414957 39.0217739 36.1921391 39.0917565 36.0524522 39.1266783 35.9475478 39.2314435 35.9824696 39.3362087 36.0175304 39.4060522 36.0524522 39.4760348 36.1222957 39.5458783 36.5065739 39.9301565 36.9257739 40.3144348 37.3100522 40.698713 37.3449739 40.7336348 37.3798957 40.8034783 37.3798957 40.8384 37.3449739 41.0829913 37.3100522 41.2925217 37.2751304 41.537113 37.205287 41.8864696 37.1703652 42.2358261 37.1003826 42.5851826 37.1003826 42.8296348 37.2751304 42.9345391 37.4497391 42.8296348 37.9389217 42.5851826 38.462887 42.3056696 38.9519304 42.0261565 39.0217739 41.9912348 39.0917565 41.9912348 39.1616 42.0261565 39.6506435 42.2707478 40.139687 42.5502609 40.6288696 42.794713 40.7336348 42.8646957 40.8384 42.8646957 40.9431652 42.794713 41.0480696 42.7248696 41.0480696 42.6201043 41.0131478 42.5153391 40.9082435 41.956313 40.8384 41.4323478 40.7336348 40.8733217 40.7336348 40.7685565 40.7336348 40.7336348 40.8034783 40.6637913 41.2226783 40.279513 41.6069565 39.8952348 41.9912348 39.5109565 42.0610783 39.441113 42.096 39.3362087 42.096 39.2663652 42.0610783 39.1266783 41.956313 39.0568348 41.8515478 39.0568348zM24.3842783 52.6811826C24.1047652 52.6462609 23.8253913 52.6113391 23.5458783 52.5764174 23.5109565 52.5764174 23.4760348 52.5414957 23.441113 52.5065739 23.3362087 52.2619826 23.1965217 52.0175304 23.0568348 51.7729391 23.021913 51.7380174 22.9868522 51.6681739 22.9519304 51.6681739 22.882087 51.6681739 22.8471652 51.7030957 22.8122435 51.7729391 22.7074783 52.0175304 22.5676522 52.2619826 22.4279652 52.5065739 22.4279652 52.5414957 22.3930435 52.5764174 22.3581217 52.5764174 22.2533565 52.6113391 22.1484522 52.6113391 22.043687 52.6113391 21.8689391 52.6462609 21.6594087 52.6811826 21.4846609 52.6811826 21.4148174 52.6811826 21.3798957 52.7511652 21.3798957 52.8210087 21.3798957 52.8559304 21.4148174 52.8908522 21.4497391 52.9257739 21.6594087 53.1354435 21.8340174 53.3100522 22.043687 53.5197217 22.0786087 53.5546435 22.0786087 53.5895652 22.0786087 53.5895652 22.0786087 53.6943304 22.043687 53.8340174 22.0087652 53.9389217 21.9738435 54.1135304 21.9389217 54.2882783 21.904 54.462887 21.904 54.5676522 21.9738435 54.6376348 22.0786087 54.5676522 22.3232 54.4279652 22.6025739 54.2882783 22.8471652 54.1833739 22.882087 54.1484522 22.9170087 54.1484522 22.9519304 54.1833739 23.1965217 54.3232 23.441113 54.462887 23.720487 54.5676522 23.7554087 54.6025739 23.8253913 54.6025739 23.860313 54.5676522 23.8952348 54.5327304 23.8952348 54.462887 23.8952348 54.4279652 23.860313 54.1484522 23.7904696 53.8690783 23.7554087 53.5895652 23.7554087 53.5546435 23.7554087 53.5197217 23.7904696 53.4848 24 53.2751304 24.2096696 53.1005217 24.3842783 52.8908522 24.4192 52.8559304 24.4192 52.8210087 24.4192 52.7511652 24.5239652 52.7162435 24.4541217 52.7162435 24.3842783 52.6811826z"/>
  </g>
</svg>
