<svg width="160" height="160" viewBox="0 0 160 160" fill="none" xmlns="http://www.w3.org/2000/svg">
<rect width="160" height="160" fill="white"/>
<path d="M33.948 106.704C33.5948 103.314 33.1004 100.49 33.1004 97.6652C33.1004 95.5468 32.4647 94.6288 30.4164 93.9227C23.777 91.5218 23 90.3214 23 83.4013C23 73.9391 24.4126 72.1031 33.6654 69.9141C45.9554 67.0895 58.3866 67.2308 70.8178 68.643C71.2416 68.7136 71.7361 68.7136 72.7249 68.7843C72.7249 66.3128 72.7249 63.9825 72.7249 61.7229C72.7249 54.5203 72.7249 47.3883 72.7249 40.1857C72.7249 35.384 73.6431 33.4068 78.2342 31.9946C83.2491 30.4411 88.4758 29.17 93.632 28.6757C105.357 27.5459 117.152 27.5459 128.595 30.9354C136.011 33.1244 137 34.5366 137 42.0923C137 62.6409 137 83.2601 137 103.809C137 110.093 135.799 111.788 129.796 113.765C120.613 116.802 111.078 116.943 101.543 117.155C98.7175 117.225 95.9628 118.567 93.2082 119.414C92.7844 119.555 92.3606 120.332 92.3606 120.756C92.5019 125.769 88.829 127.323 85.0855 128.594C75.3383 131.842 65.2379 132.478 55.1375 131.701C48.4981 131.207 41.8587 130.147 35.3606 128.523C29.0037 126.97 27.9442 124.922 27.9442 118.426C27.9442 117.861 28.0149 117.225 27.9442 116.66C27.2379 111.435 29.0743 107.692 33.948 106.704ZM131.985 44.0695C113.691 48.9418 95.7509 48.9418 77.8104 43.9989C76.3978 52.4019 77.1041 54.026 84.0967 55.5089C97.2342 58.3334 110.513 58.7571 123.651 55.7913C133.822 53.6023 132.268 54.3791 131.985 44.0695ZM77.4573 58.8277C77.4573 60.1694 77.4573 61.3698 77.4573 62.5703C77.4573 68.5724 77.3866 68.9255 83.2491 70.0553C89.8885 71.3263 96.6692 72.3149 103.45 72.5268C111.996 72.8798 120.613 72.2443 128.807 69.2785C130.149 68.7843 131.844 67.5132 132.056 66.3128C132.55 63.9119 132.197 61.3698 132.197 58.8277C113.762 63.8413 95.8216 63.8413 77.4573 58.8277ZM132.197 73.5154C117.435 78.3877 102.532 77.8934 87.3457 76.2693C87.3457 79.3057 87.2045 81.9184 87.4164 84.4605C87.487 85.2372 88.6171 86.5083 89.3234 86.5789C101.543 87.7087 113.762 88.203 125.77 85.1666C132.126 83.6131 132.056 83.4719 132.126 76.9048C132.197 75.9162 132.197 74.857 132.197 73.5154ZM28.2974 77.6816C36.5613 84.2486 76.2565 84.0368 82.3309 77.3285C75.4796 70.9733 34.8662 70.9027 28.2974 77.6816ZM131.844 38.7029C131.844 38.2086 131.915 37.7143 131.915 37.22C130.29 36.5844 128.736 35.7371 127.112 35.4546C120.825 34.466 114.61 33.2656 108.253 32.9831C99.0706 32.5595 89.8885 32.9125 81.0595 36.0195C79.8587 36.4432 78.8699 37.22 77.7398 37.8555C77.881 38.2792 77.9517 38.6322 78.0929 39.0559C96.1041 44.1401 114.045 44.5638 131.844 38.7029ZM97.7286 92.1574C97.0929 94.4876 96.8104 96.3236 99.3532 97.6652C100.483 98.2301 101.119 99.7836 102.108 100.772C102.743 101.408 103.662 102.326 104.368 102.255C110.796 101.831 117.364 101.761 123.58 100.419C134.316 98.0889 132.056 98.442 132.197 89.121C132.197 88.9091 132.056 88.7679 131.844 88.4148C120.825 92.2986 109.312 92.4398 97.7286 92.1574ZM38.1152 98.5126C37.5502 102.679 37.6208 103.244 41.4349 104.162C47.1561 105.433 52.8773 106.563 58.7398 107.057C68.8402 107.904 78.8699 107.198 88.6877 104.303C91.4424 103.456 93.7026 102.114 92.2193 98.5832C74.2082 103.526 56.2677 103.456 38.1152 98.5126ZM28.1561 83.6131C27.0967 86.6495 28.2268 88.6267 31.3346 89.2622C36.632 90.3214 41.8587 91.5218 47.2268 92.0161C57.6803 93.0753 68.1338 92.3692 78.3048 89.5447C81.1301 88.7679 83.8848 87.6381 82.2602 83.7543C64.2491 88.6267 46.2379 88.6973 28.1561 83.6131ZM33.2416 117.861C31.9703 121.674 33.7361 123.369 37.1264 124.287C47.368 127.04 57.7509 127.747 68.2045 126.687C73.7844 126.123 79.2231 124.781 84.7323 123.58C85.8625 123.369 86.7807 122.309 87.7695 121.603C69.052 122.733 50.9703 122.733 33.2416 117.861ZM43.2714 110.023C42.9888 110.376 42.6357 110.658 42.3532 111.011C43.4833 111.929 44.4721 113.412 45.7435 113.765C50.9703 114.966 56.2677 116.237 61.5651 116.731C72.513 117.719 83.3903 117.366 93.9851 113.906C97.658 112.706 97.8699 112.141 96.881 108.469C79.2231 113.553 61.2825 112.847 43.2714 110.023ZM132.197 104.162C122.238 105.433 112.42 106.704 102.532 107.975C102.532 109.175 102.532 110.588 102.532 112.212C111.572 112.282 120.19 111.788 128.595 109.175C131.491 108.187 133.045 106.633 132.197 104.162ZM92.9257 92.4398C88.5465 91.0275 85.5093 91.1688 82.2602 93.0753C79.7175 94.5582 76.539 95.0525 73.5725 95.688C70.6766 96.3236 67.71 96.6766 64.7435 97.1709C73.9963 96.9591 83.3903 97.1003 92.9257 92.4398Z" fill="#005473"/>
</svg>
