<svg width="160" height="160" viewBox="0 0 160 160" fill="none" xmlns="http://www.w3.org/2000/svg">
<rect width="160" height="160" fill="white"/>
<g clip-path="url(#clip0)">
<path d="M27 69.4286C27 68.8929 27 68.3571 27 67.8214C27.2571 66.9964 27.4179 66.1071 27.8036 65.3464C29.0143 62.9464 31.0393 61.725 33.6857 61.3393C38.2714 60.6857 42.8464 59.9464 47.4321 59.25C51.5036 58.6286 55.575 57.9964 59.6464 57.3964C60.4286 57.2786 60.9214 56.9036 61.2536 56.175C62.7536 52.9179 64.275 49.6821 65.7964 46.4357C68.1429 41.4107 70.5 36.3964 72.8357 31.3714C73.6821 29.5607 74.9786 28.2214 76.8536 27.5036C77.4321 27.2786 78.0429 27.1607 78.6429 27C79.2107 27 79.7893 27 80.3571 27C80.4429 27.0321 80.5179 27.075 80.6036 27.0857C83.1107 27.5036 84.9107 28.875 86.0357 31.1357C86.3357 31.7464 86.6143 32.3571 86.9036 32.9786C90.5357 40.7357 94.1786 48.4929 97.8 56.2607C98.1 56.9036 98.5179 57.2571 99.2464 57.3536C101.346 57.6429 103.446 57.9857 105.536 58.3071C112.232 59.3357 118.929 60.3536 125.625 61.4036C128.743 61.8964 130.789 63.6643 131.721 66.6857C131.839 67.0607 131.904 67.4464 132 67.8214C132 68.3571 132 68.8929 132 69.4286C131.668 71.3357 130.746 72.8893 129.386 74.2714C123.054 80.7321 116.764 87.2357 110.443 93.7179C109.971 94.2 109.757 94.7036 109.875 95.4C110.368 98.3036 110.829 101.207 111.3 104.111C112.329 110.443 113.336 116.786 114.396 123.107C115.061 127.114 112.971 130.671 109.232 131.732C108.889 131.829 108.557 131.914 108.214 132C107.604 132 107.004 132 106.393 132C105.429 131.646 104.411 131.4 103.521 130.907C95.8393 126.686 88.1679 122.421 80.5071 118.157C79.8107 117.771 79.2107 117.761 78.5036 118.146C71.9036 121.821 65.3036 125.496 58.6714 129.129C56.6036 130.286 54.6536 131.764 52.1786 132C51.8893 132 51.6107 132 51.3214 132C51.1286 131.968 50.9464 131.914 50.7536 131.893C46.8536 131.454 43.9179 127.682 44.5071 123.814C45.0429 120.268 45.6429 116.732 46.2214 113.196C47.175 107.314 48.1179 101.443 49.1036 95.5607C49.2429 94.7357 49.0071 94.1679 48.45 93.6C42.0321 87.0429 35.6464 80.4536 29.25 73.8857C28.3071 72.9214 27.6107 71.8179 27.2571 70.5214C27.1607 70.1571 27.0857 69.7929 27 69.4286ZM107.132 126.161C108.225 126.15 108.846 125.357 108.686 124.393C108.107 120.804 107.518 117.214 106.939 113.614C106.018 107.968 105.129 102.311 104.175 96.6643C103.714 93.9321 104.368 91.5964 106.329 89.6036C112.757 83.025 119.154 76.425 125.571 69.8357C126.043 69.3429 126.311 68.8179 126.075 68.1536C125.85 67.5 125.336 67.2536 124.682 67.1571C120.943 66.6 117.204 66.0214 113.464 65.4429C108.568 64.6929 103.671 63.9 98.7643 63.2036C95.6786 62.7643 93.6107 61.1679 92.3143 58.3286C89.8714 52.9393 87.3107 47.6036 84.8036 42.2357C83.4964 39.4393 82.1893 36.6429 80.8821 33.8571C80.4964 33.0429 80.0143 32.7643 79.2429 32.8714C78.6321 32.9571 78.3429 33.375 78.1071 33.8893C76.1464 38.0893 74.175 42.2893 72.2143 46.4893C70.2857 50.6036 68.3679 54.7286 66.4286 58.8429C65.2821 61.2857 63.3536 62.7107 60.675 63.1179C57.5893 63.5893 54.5036 64.0607 51.4179 64.5321C45.7286 65.4107 40.0286 66.2893 34.3393 67.1571C33.6857 67.2536 33.1714 67.4786 32.9357 68.1321C32.6893 68.8071 32.9357 69.3321 33.4179 69.825C35.625 72.0857 37.8321 74.3571 40.0286 76.6179C44.2714 80.9786 48.5143 85.35 52.7679 89.7107C54.5571 91.5536 55.275 93.7286 54.8679 96.2679C54.6536 97.6286 54.4286 98.9786 54.2143 100.339C53.3464 105.707 52.4679 111.075 51.5893 116.443C51.15 119.121 50.7107 121.789 50.2714 124.468C50.175 125.046 50.3679 125.529 50.8393 125.882C51.2893 126.214 51.7929 126.257 52.3071 126.021C52.4893 125.936 52.6607 125.839 52.8321 125.754C60.4393 121.532 68.0571 117.321 75.6643 113.089C78.2357 111.654 80.7643 111.654 83.3464 113.089C90.9964 117.354 98.6571 121.586 106.318 125.829C106.618 125.979 106.961 126.096 107.132 126.161Z" fill="#005473"/>
</g>
<defs>
<clipPath id="clip0">
<rect width="105" height="105" fill="white" transform="translate(27 27)"/>
</clipPath>
</defs>
</svg>
