<svg width="96" height="96" viewBox="0 0 96 96" fill="none" xmlns="http://www.w3.org/2000/svg">
<path d="M8.69914 74.5102C9.33889 70.7066 9.84536 66.8225 10.725 62.9921C11.2848 60.5278 10.9383 58.8134 8.91239 57.0991C6.08683 54.7151 3.50118 51.9829 0.888866 49.3043C0.382397 48.7954 -0.0707588 47.8846 0.0092099 47.2685C0.0891786 46.84 1.10212 46.331 1.76852 46.2507C6.22011 45.5274 10.6984 44.8846 15.1766 44.2685C16.003 44.1613 16.4028 43.8131 16.7493 43.1167C18.6952 39.0987 20.6678 35.1344 22.6404 31.1432C22.747 30.9557 22.827 30.7414 22.9336 30.5539C23.7866 29.0806 24.9328 29.0806 25.7058 30.6075C27.1186 33.3397 28.4248 36.0987 29.7842 38.8576C30.3707 40.063 31.117 41.2148 31.5169 42.4738C31.9967 43.9738 33.0096 44.3221 34.3691 44.4828C38.6341 45.0453 42.8991 45.6614 47.1374 46.331C47.6972 46.4114 48.4969 46.8668 48.6302 47.3221C48.7635 47.8043 48.3903 48.6346 47.9904 49.0364C44.8183 52.224 41.6196 55.358 38.3409 58.4652C37.5945 59.1884 37.3279 59.8581 37.5145 60.9028C38.2876 65.1886 39.0073 69.5012 39.7537 73.787C39.807 74.0548 39.8603 74.3227 39.8869 74.5906C39.9936 76.2245 39.1139 76.8406 37.6478 76.0906C35.1954 74.8316 32.7697 73.5459 30.344 72.2602C28.6114 71.3494 26.8787 70.4655 25.1727 69.5012C24.5063 69.1262 23.9998 69.1797 23.3334 69.528C19.2817 71.7244 15.2033 73.8673 11.0982 76.0102C9.5788 76.8138 8.61917 76.1977 8.69914 74.5102ZM7.12643 49.3043C9.07233 51.4472 10.9916 53.858 13.204 55.9741C14.7501 57.4473 15.7364 58.7867 14.8834 60.9831C14.5902 61.7599 14.5635 62.6439 14.4036 63.4743C14.0037 65.7779 13.6305 68.0547 13.204 70.5726C16.3761 68.9119 19.3616 67.4386 22.2405 65.7779C23.7599 64.8939 24.9328 64.8939 26.4522 65.8047C29.3044 67.4922 32.2899 68.9387 35.3554 70.5458C35.3021 70.0637 35.3021 69.7422 35.2488 69.4476C34.6623 65.9922 34.0226 62.5099 33.4894 59.0277C33.4095 58.5456 33.676 57.8223 34.0226 57.4741C36.395 55.0634 38.8474 52.7329 41.2731 50.3758C41.5396 50.1079 41.7795 49.8132 42.1261 49.3847C38.794 48.8757 35.6486 48.2864 32.5032 47.965C30.6639 47.7775 29.5177 47.1614 28.7446 45.3399C27.4651 42.3399 25.8658 39.4469 24.293 36.3129C22.5604 39.8487 20.881 43.197 19.2817 46.5721C18.9351 47.2953 18.5353 47.6436 17.7356 47.7507C14.0304 48.2329 10.3785 48.8221 7.12643 49.3043Z" fill="#005473"/>
<path d="M50.083 44.65C51.1481 42.4501 52.1465 40.1777 53.3623 38.0042C54.1408 36.6048 54.2347 35.5005 53.3071 34.0977C52.0122 32.1455 50.9251 30.0241 49.8122 27.9306C49.5946 27.531 49.4808 26.8966 49.639 26.536C49.7638 26.2896 50.4704 26.16 50.89 26.2296C53.7261 26.5809 56.5643 26.9857 59.3976 27.4069C59.9193 27.4886 60.2244 27.3479 60.5589 26.9858C62.4566 24.8878 64.3609 22.8271 66.2701 20.7501C66.3683 20.655 66.455 20.5388 66.5532 20.4437C67.3338 19.6993 68.031 19.903 68.2298 20.969C68.6036 22.882 68.9077 24.7922 69.2442 26.712C69.3867 27.5494 69.636 28.3826 69.6554 29.2194C69.6807 30.2171 70.2349 30.6089 71.0332 30.9483C73.5274 32.0484 76.012 33.1811 78.471 34.3417C78.7972 34.4901 79.2026 34.9092 79.2028 35.2098C79.1981 35.5268 78.8236 35.9655 78.509 36.1388C76.0131 37.5139 73.5105 38.8516 70.964 40.1588C70.3815 40.4661 70.1003 40.826 70.0281 41.4946C69.7366 44.2388 69.4079 46.9898 69.1002 49.7293C69.085 49.9017 69.0699 50.0741 69.0385 50.2417C68.8129 51.2545 68.1684 51.4729 67.4099 50.7562C66.142 49.5546 64.8951 48.3414 63.6482 47.1283C62.7562 46.2664 61.8594 45.4208 60.9932 44.5311C60.6545 44.1845 60.3369 44.1271 59.8697 44.2205C57.0149 44.8363 54.1534 45.4149 51.2756 45.9887C50.2087 46.2075 49.7345 45.6622 50.083 44.65ZM53.6062 29.0392C54.4089 30.6884 55.1478 32.4959 56.1174 34.1762C56.796 35.347 57.1578 36.337 56.2486 37.5214C55.9322 37.9417 55.7589 38.4746 55.5141 38.9513C54.8615 40.2814 54.2298 41.5999 53.5229 43.0556C55.7475 42.6092 57.8252 42.2438 59.8714 41.7453C60.9527 41.4776 61.6661 41.6861 62.4284 42.5101C63.8633 44.0434 65.4221 45.4538 67.001 46.9762C67.0543 46.6734 67.1114 46.4779 67.1314 46.2892C67.3888 44.0833 67.6185 41.8515 67.9131 39.6388C67.9502 39.3313 68.2409 38.9388 68.5135 38.7886C70.385 37.7439 72.2908 36.7623 74.1851 35.7596C74.3949 35.6441 74.5932 35.5075 74.8801 35.3084C72.9439 34.4067 71.1354 33.4892 69.2794 32.7347C68.194 32.2937 67.6063 31.7153 67.4598 30.47C67.2148 28.4178 66.7561 26.374 66.3565 24.1883C64.6742 26.0309 63.0577 27.769 61.4851 29.5377C61.1458 29.916 60.8407 30.0567 60.3352 29.9797C57.9959 29.6145 55.6699 29.3239 53.6062 29.0392Z" fill="#005473"/>
<path d="M77.0507 56.659C77.6573 55.1447 78.2161 53.5851 78.9243 52.0812C79.3774 51.1131 79.3884 50.3734 78.7054 49.4827C77.7522 48.2432 76.9295 46.8814 76.0909 45.5393C75.9274 45.2834 75.822 44.8662 75.9105 44.6188C75.9821 44.4489 76.4465 44.3297 76.7292 44.3565C78.634 44.4581 80.5426 44.5954 82.4488 44.7437C82.7999 44.7738 82.9965 44.6658 83.2024 44.4092C84.3681 42.9238 85.54 41.4629 86.7144 39.9909C86.7753 39.923 86.8276 39.8417 86.8886 39.7738C87.3737 39.2417 87.8474 39.3448 88.0294 40.0453C88.3675 41.3016 88.659 42.5594 88.9726 43.8219C89.1065 44.3728 89.3113 44.916 89.3633 45.4723C89.4266 46.1354 89.8139 46.3704 90.3613 46.5592C92.0733 47.1754 93.7805 47.8138 95.4718 48.4719C95.6959 48.5555 95.9855 48.8156 95.9996 49.0158C96.0113 49.2271 95.7823 49.5367 95.5809 49.6667C93.9832 50.6987 92.3792 51.706 90.7446 52.6952C90.3711 52.9269 90.2007 53.1797 90.1838 53.6282C90.1176 55.469 90.027 57.316 89.9498 59.1544C89.9478 59.2699 89.9457 59.3854 89.9326 59.4985C89.8297 60.1834 89.4107 60.3588 88.8723 59.9169C87.972 59.176 87.0852 58.4264 86.1984 57.6767C85.5643 57.1444 84.9278 56.6232 84.3095 56.0712C84.0678 55.8563 83.8537 55.8328 83.547 55.9168C81.6748 56.46 79.7965 56.9786 77.9072 57.4948C77.2069 57.6902 76.8658 57.3493 77.0507 56.659ZM78.6687 46.1005C79.2801 47.1612 79.8564 48.3302 80.5803 49.4039C81.0867 50.1518 81.3738 50.7941 80.8236 51.6251C80.6326 51.9197 80.542 52.2826 80.4012 52.6114C80.0287 53.5275 79.6696 54.4349 79.2668 55.4371C80.7271 55.0362 82.0935 54.6959 83.4327 54.2686C84.1402 54.04 84.6249 54.1456 85.1709 54.6587C86.1978 55.6127 87.3015 56.4791 88.4238 57.4192C88.4451 57.2151 88.474 57.0823 88.4785 56.9557C88.5471 55.4749 88.596 53.9782 88.689 52.4911C88.6993 52.2847 88.8746 52.0097 89.0491 51.897C90.2465 51.1142 91.4697 50.3717 92.6843 49.6158C92.8186 49.5291 92.9442 49.4289 93.126 49.283C91.7947 48.7728 90.5478 48.2463 89.2768 47.8304C88.5336 47.5874 88.1153 47.2297 87.9597 46.4073C87.7009 45.0524 87.3002 43.7129 86.9322 42.2762C85.898 43.5815 84.9027 44.8142 83.938 46.0651C83.7297 46.3328 83.5332 46.4408 83.193 46.4131C81.6184 46.279 80.0561 46.1939 78.6687 46.1005Z" fill="#005473"/>
</svg>
