<svg width="96" height="96" viewBox="0 0 96 96" fill="none" xmlns="http://www.w3.org/2000/svg">
<path fill-rule="evenodd" clip-rule="evenodd" d="M53.9287 25.5228C56.3355 24.8371 59.1185 23.9245 61.7345 22.7803C65.0067 21.3489 68.317 19.4302 70.1486 16.9064C71.0987 15.5972 71.6996 14.0568 71.6074 12.3261C71.5157 10.6074 70.7528 8.93014 69.4067 7.31146C68.059 5.69083 66.546 4.63267 64.8729 4.2077C63.1907 3.78045 61.5547 4.04604 60.0669 4.69683C57.1921 5.95437 54.6175 8.75843 52.5336 11.6299C50.4066 14.5608 48.6033 17.8299 47.3397 20.3416C47.3168 20.3871 47.2941 20.4324 47.2716 20.4774C47.249 20.4324 47.2263 20.3871 47.2034 20.3416C45.9398 17.8299 44.1365 14.5608 42.0095 11.6299C39.9256 8.75843 37.351 5.95437 34.4762 4.69683C32.9884 4.04604 31.3524 3.78045 29.6703 4.2077C27.9971 4.63267 26.4841 5.69083 25.1364 7.31146C23.7903 8.93014 23.0274 10.6074 22.9358 12.3261C22.8435 14.0568 23.4444 15.5972 24.3945 16.9064C26.2261 19.4302 29.5364 21.3489 32.8087 22.7803C35.4246 23.9245 38.2077 24.8371 40.6144 25.5228H38.2247H9V43.3658H13.703V91.9976H38.2247V92H56.9415V91.9976H81.4665V43.3658H86.1689V25.5228H56.9415H53.9287ZM44.4796 22.8645C44.3365 22.5707 44.184 22.2623 44.0227 21.9417C42.8017 19.5146 41.0966 16.4339 39.1279 13.7211C37.1161 10.949 35.0079 8.81561 33.0493 7.95886C32.1203 7.55251 31.302 7.46676 30.5468 7.65859C29.7826 7.8527 28.8752 8.38405 27.874 9.58799C26.8712 10.7939 26.5313 11.764 26.4912 12.5156C26.4518 13.2551 26.6903 14.008 27.2761 14.8151C28.5163 16.524 31.0633 18.1306 34.2356 19.5182C37.3368 20.8748 40.7523 21.9037 43.4182 22.5962C43.7884 22.6924 44.1431 22.7818 44.4796 22.8645ZM53.381 29.0833H41.7851V88.4371H53.381V29.0833ZM56.9415 88.4371H77.9061V43.3658H56.9415V88.4371ZM56.9415 39.8053V29.0833H82.6084V39.8053H56.9415ZM38.2247 88.4371V43.3658H17.2634V88.4371H38.2247ZM38.2247 39.8053V29.0833H12.5605V39.8053H38.2247ZM51.1249 22.5962C50.7548 22.6924 50.4 22.7818 50.0636 22.8645C50.2067 22.5707 50.3591 22.2623 50.5204 21.9417C51.7414 19.5146 53.4465 16.4339 55.4152 13.7211C57.427 10.949 59.5353 8.81561 61.4939 7.95886C62.4228 7.55251 63.2411 7.46676 63.9963 7.65859C64.7606 7.8527 65.668 8.38405 66.6691 9.58799C67.6719 10.7939 68.0119 11.764 68.0519 12.5156C68.0914 13.2551 67.8528 14.008 67.267 14.8151C66.0268 16.524 63.4798 18.1306 60.3075 19.5182C57.2063 20.8748 53.7908 21.9037 51.1249 22.5962Z" fill="#005473"/>
</svg>
