<svg xmlns="http://www.w3.org/2000/svg" width="64" height="64" viewBox="0 0 64 64">
  <g fill="#005473" fill-rule="evenodd">
    <path d="M17.357913,22.8485565 C17.357913,22.359513 17.7544348,21.9629913 18.2434783,21.9629913 L28.280487,21.9629913 C28.7695304,21.9629913 29.1660522,22.359513 29.1660522,22.8485565 L29.1660522,30.8190609 C29.1660522,34.0830609 26.5260522,36.7230609 23.261913,36.7230609 C19.997913,36.7230609 17.357913,34.0830609 17.357913,30.8190609 L17.357913,22.8485565 Z M19.1291826,23.7342609 L19.1291826,30.8190609 C19.1291826,33.1048348 20.9761391,34.9519304 23.261913,34.9519304 C25.5478261,34.9519304 27.3947826,33.1048348 27.3947826,30.8190609 L27.3947826,23.7342609 L19.1291826,23.7342609 Z"/>
    <path d="M23.261913,34.9520696 C23.7510957,34.9520696 24.1476174,35.3485913 24.1476174,35.8377739 L24.1476174,45.2841739 C24.1476174,45.7733565 23.7510957,46.1698783 23.261913,46.1698783 C22.7728696,46.1698783 22.3763478,45.7733565 22.3763478,45.2841739 L22.3763478,35.8377739 C22.3763478,35.3485913 22.7728696,34.9520696 23.261913,34.9520696 Z"/>
    <path d="M19.6605217 45.2840348C19.6605217 44.7949913 20.0570435 44.3984696 20.546087 44.3984696L25.9187478 44.3984696C26.4079304 44.3984696 26.8044522 44.7949913 26.8044522 45.2840348 26.8044522 45.7732174 26.4079304 46.1696 25.9187478 46.1696L20.546087 46.1696C20.0570435 46.1696 19.6605217 45.7732174 19.6605217 45.2840348zM23.6505043 27.5545043C23.0238609 27.7730783 22.2459826 28.0443826 21.3136696 28.0443826 20.4581565 28.0443826 19.7072696 27.9131826 19.1714783 27.7832348 18.9022609 27.7179826 18.6838261 27.652313 18.5296696 27.6015304 18.4524522 27.5762087 18.3910957 27.5545043 18.3471304 27.5383652 18.3251478 27.5302957 18.3074783 27.5237565 18.2944 27.5187478L18.2781217 27.5123478 18.2726957 27.5102609 18.2706087 27.5094261 18.2696348 27.5090087C18.2694957 27.5090087 18.2689391 27.5087304 18.5978435 26.6864696L18.2689391 27.5087304C17.8148174 27.3270261 17.5938783 26.811687 17.7755826 26.3575652 17.9568696 25.9041391 18.4708174 25.6833391 18.9243826 25.8632348L18.9284174 25.8649043C18.9334261 25.866713 18.9426087 25.8701913 18.9559652 25.8750609 18.9825391 25.8848 19.0253913 25.9001043 19.0828522 25.918887 19.1980522 25.9568696 19.3708522 26.0091826 19.5887304 26.061913 20.0269913 26.1682087 20.6340174 26.273113 21.3136696 26.273113 21.9131826 26.273113 22.432 26.1036522 23.0736696 25.8797913 23.0984348 25.8711652 23.1234783 25.8624 23.1488 25.8534957 23.7459478 25.6446609 24.4809739 25.3875478 25.3284174 25.3875478 26.1316174 25.3875478 26.8429913 25.5208348 27.3504 25.6517565 27.6057043 25.7177043 27.8135652 25.7840696 27.9606261 25.8352696 28.0343652 25.8608696 28.0930783 25.882713 28.1352348 25.8991304 28.1563826 25.9072 28.1733565 25.9140174 28.1860174 25.9190261L28.2017391 25.9254261 28.2071652 25.9277913 28.209113 25.9286261 28.210087 25.9289043C28.2102261 25.9290435 28.2107826 25.9293217 27.8671304 26.7454609L28.2107826 25.9293217C28.6615652 26.1190957 28.8731826 26.6383304 28.6834087 27.089113 28.493913 27.5392 27.9762087 27.7508174 27.5259826 27.562713 27.5254261 27.5624348 27.5247304 27.5622957 27.5241739 27.5620174L27.5259826 27.562713 27.5225043 27.5613217C27.5180522 27.559513 27.5094261 27.5561739 27.4971826 27.5513043 27.4724174 27.5418435 27.432487 27.5268174 27.3787826 27.5081739 27.2712348 27.4707478 27.1101217 27.4189913 26.9078261 27.3668174 26.5001739 27.2616348 25.9421217 27.1588174 25.3284174 27.1588174 24.794713 27.1588174 24.3161043 27.3222957 23.6570435 27.5521391L23.6505043 27.5545043zM33.9567304 22.5096348C34.0937739 22.1787826 34.4166957 21.9629913 34.7748174 21.9629913L44.8118261 21.9629913C45.1618783 21.9629913 45.4792348 22.1693217 45.621287 22.4893217 45.7629217 22.808487 45.7037913 23.1809391 45.4704696 23.4404174 45.469913 23.4412522 45.4692174 23.4419478 45.4685217 23.4427826L44.8118261 22.8485565C45.4685217 23.4427826 45.4683826 23.4429217 45.4685217 23.4427826L45.4696348 23.4415304 45.4668522 23.4447304C45.4624 23.4498783 45.4541913 23.4593391 45.4429217 23.4728348 45.4202435 23.4999652 45.3850435 23.5430957 45.3416348 23.6002783 45.2541217 23.7154783 45.136 23.8831304 45.0184348 24.087513 44.7742609 24.5115826 44.5755826 25.0176 44.5755826 25.5053913 44.5755826 26.2024348 44.6404174 26.6681043 44.725287 27.012313 44.8094609 27.3545739 44.9202087 27.607513 45.0561391 27.9042783 45.064487 27.9225043 45.0729739 27.9410087 45.0816 27.9597913 45.2129391 28.2458435 45.3721043 28.5924174 45.4916174 29.0359652 45.6204522 29.5142957 45.6973913 30.0768 45.6973913 30.8190609 45.6973913 34.0172522 43.0640696 36.7230609 39.7933913 36.7230609 36.5570783 36.7230609 33.8892522 34.3465739 33.8892522 30.8190609 33.8892522 30.0112696 33.9645217 29.4102261 34.0926609 28.9133913 34.2216348 28.4132174 34.3963826 28.0537043 34.539687 27.7595826 34.6809043 27.4696348 34.7852522 27.2548174 34.8659478 26.9536 34.9466435 26.6521043 35.0110609 26.2299826 35.0110609 25.5645217 35.0110609 24.9744696 34.8022261 24.4507826 34.5712696 24.0556522 34.4574609 23.8611478 34.3440696 23.707687 34.2614261 23.6055652 34.2203826 23.5547826 34.187687 23.5176348 34.1673739 23.4952348 34.1572174 23.4839652 34.1502609 23.4765913 34.1469217 23.473113 34.146087 23.4722783 34.1455304 23.4717217 34.1452522 23.4713043L34.1459478 23.4721391 34.1469217 23.473113 34.1478957 23.4739478 33.9567304 22.5096348zM43.2121043 23.7342609C43.2998957 23.5379478 43.3935304 23.3598609 43.4834087 23.2037565 43.6461913 22.9210435 43.8085565 22.6902261 43.9314087 22.5285565 43.9931826 22.4474435 44.0456348 22.3826087 44.084313 22.3364174 44.1036522 22.3133217 44.1196522 22.2946783 44.1316174 22.2810435L44.1465043 22.2640696 44.1516522 22.2582261 44.1536 22.2561391 44.1542957 22.2551652C44.1545739 22.2550261 44.1551304 22.2544696 44.8118261 22.8485565L44.8118261 23.7342609 43.2121043 23.7342609zM36.3906783 23.7342609L43.2121043 23.7342609C42.9901913 24.229287 42.8044522 24.8399304 42.8044522 25.5053913 42.8044522 26.3140174 42.8798609 26.9257739 43.0053565 27.4358261 43.1314087 27.947687 43.3011478 28.3258435 43.4457043 28.6415304 43.4505739 28.6523826 43.4554435 28.6629565 43.460313 28.6735304 43.5976348 28.9734957 43.701287 29.1997217 43.7814261 29.4969043 43.8628174 29.7992348 43.9261217 30.2034087 43.9261217 30.8190609 43.9261217 33.0526609 42.0723478 34.9519304 39.7933913 34.9519304 37.4796522 34.9519304 35.6605217 33.3136696 35.6605217 30.8190609 35.6605217 30.1213217 35.7254957 29.6744348 35.8077217 29.355687 35.889113 29.0404174 35.994713 28.8169739 36.1318957 28.5353739 36.1366261 28.5257739 36.1413565 28.5160348 36.146087 28.5062957 36.2828522 28.2258087 36.4514783 27.8799304 36.5768348 27.4114783 36.7065043 26.9270261 36.7823304 26.3454609 36.7823304 25.5645217 36.7823304 24.8588522 36.6085565 24.2372174 36.3906783 23.7342609zM34.7748174 22.8485565L34.7748174 23.7342609 36.3906783 23.7342609C36.2984348 23.5212522 36.1984 23.3295304 36.100313 23.1617391 35.9336348 22.8766609 35.7665391 22.6498783 35.6388174 22.4919652 35.5746783 22.4126609 35.5198609 22.3497739 35.4788174 22.3045565 35.4582261 22.2820174 35.441113 22.2637913 35.4280348 22.2500174L35.4113391 22.2327652 35.4053565 22.2266435 35.4029913 22.2242783 35.4020174 22.2233043 35.4016 22.2227478C35.4013217 22.2226087 35.4010435 22.2223304 34.7748174 22.8485565z"/>
    <path d="M39.7933913,34.9520696 C40.2824348,34.9520696 40.6789565,35.3485913 40.6789565,35.8377739 L40.6789565,45.2841739 C40.6789565,45.7733565 40.2824348,46.1698783 39.7933913,46.1698783 C39.3042087,46.1698783 38.907687,45.7733565 38.907687,45.2841739 L38.907687,35.8377739 C38.907687,35.3485913 39.3042087,34.9520696 39.7933913,34.9520696 Z"/>
    <path d="M36.1918609 45.2840348C36.1918609 44.7949913 36.5883826 44.3984696 37.0774261 44.3984696L42.4502261 44.3984696C42.9392696 44.3984696 43.3357913 44.7949913 43.3357913 45.2840348 43.3357913 45.7732174 42.9392696 46.1696 42.4502261 46.1696L37.0774261 46.1696C36.5883826 46.1696 36.1918609 45.7732174 36.1918609 45.2840348zM40.2938435 27.5346087C39.7851826 27.7526261 39.1044174 28.0443826 38.2582261 28.0443826 37.5037217 28.0443826 36.8563478 27.9076174 36.3977739 27.771687 36.1673739 27.703513 35.9812174 27.6343652 35.8489043 27.5806609 35.7826783 27.5536696 35.7296696 27.5304348 35.6908522 27.5127652 35.671513 27.504 35.6557913 27.496487 35.643687 27.4907826L35.6283826 27.4834087 35.6228174 27.4806261 35.6205913 27.479513 35.6196174 27.4789565C35.6193391 27.4789565 35.6186435 27.4785391 36.0147478 26.6864696L35.6186435 27.4785391C35.1812174 27.2598261 35.0039652 26.7279304 35.2226783 26.2903652 35.4406957 25.8541913 35.9702261 25.6766609 36.4069565 25.8924522M36.4069565 25.8924522C36.4070957 25.8924522 36.4073739 25.8925913 36.4076522 25.8927304 36.4100174 25.8939826 36.4158609 25.8966261 36.4249043 25.9008 36.4428522 25.9090087 36.4737391 25.9226435 36.516313 25.9398957 36.6017391 25.9746783 36.7329391 26.0236522 36.9010087 26.0734609 37.239513 26.1737739 37.7139478 26.273113 38.2582261 26.273113 38.705113 26.273113 39.0835478 26.1263304 39.6068174 25.901913 39.6310261 25.8916174 39.6556522 25.8810435 39.6808348 25.8701913 40.1591652 25.6642783 40.8018087 25.3875478 41.5645217 25.3875478 42.2949565 25.3875478 42.917287 25.5262609 43.3573565 25.6642783 43.5784348 25.7337043 43.7568 25.8039652 43.8838261 25.8587826 43.9474087 25.8863304 43.9984696 25.9101217 44.0358957 25.9283478 44.0546783 25.9373913 44.0699826 25.9450435 44.0818087 25.9511652L44.0969739 25.9589565 44.1025391 25.9618783 44.1047652 25.9629913 44.1058783 25.9635478C44.1060174 25.963687 44.106713 25.9641043 43.6900174 26.7454609L44.106713 25.9641043C44.5382957 26.1942261 44.7016348 26.730713 44.471513 27.1622957 44.242087 27.5923478 43.7086609 27.7559652 43.2777739 27.5293217 43.2763826 27.5286261 43.2751304 27.5279304 43.2737391 27.5270957L43.2748522 27.5277913 43.2777739 27.5293217C43.2761043 27.528487 43.2710957 27.5259826 43.2631652 27.522087 43.2473043 27.5144348 43.2196174 27.5013565 43.1808 27.4845217 43.1030261 27.4509913 42.9825391 27.4031304 42.8271304 27.3542957 42.5143652 27.2562087 42.0738783 27.1588174 41.5645217 27.1588174 41.1865043 27.1588174 40.8524522 27.2951652 40.3045565 27.5300174L40.2938435 27.5346087"/>
    <path d="M37.287513 17.9012174C37.7700174 17.8216348 38.2258087 18.1481739 38.3055304 18.6308174L40.3129043 30.7931826C40.392487 31.275687 40.0659478 31.7314783 39.5833043 31.8112 39.1008 31.8907826 38.6450087 31.5641043 38.565287 31.0816L36.557913 18.9192348C36.4783304 18.4365913 36.8048696 17.9809391 37.287513 17.9012174zM45.4021565 20.4281043C44.356313 20.4281043 43.5129043 21.271513 43.5129043 22.3174957 43.5129043 22.8065391 43.1163826 23.2030609 42.6273391 23.2030609 42.1381565 23.2030609 41.7416348 22.8065391 41.7416348 22.3174957 41.7416348 20.293287 43.3779478 18.6569739 45.4021565 18.6569739 47.4263652 18.6569739 49.0626783 20.293287 49.0626783 22.3174957 49.0626783 24.3415652 47.4263652 25.9780174 45.4021565 25.9780174 44.7844174 25.9780174 44.1593043 25.8238609 43.6048696 25.5070609 43.1802435 25.2644174 43.0326261 24.7233391 43.2752696 24.298713 43.5180522 23.874087 44.0589913 23.7264696 44.4836174 23.9692522 44.7557565 24.1246609 45.0753391 24.2067478 45.4021565 24.2067478 46.4481391 24.2067478 47.2915478 23.3633391 47.2915478 22.3174957 47.2915478 21.271513 46.4481391 20.4281043 45.4021565 20.4281043z"/>
    <path d="M32,2.95206957 C15.957287,2.95206957 2.95206957,15.957287 2.95206957,32 C2.95206957,48.042713 15.957287,61.0479304 32,61.0479304 C48.042713,61.0479304 61.0479304,48.042713 61.0479304,32 C61.0479304,15.957287 48.042713,2.95206957 32,2.95206957 Z M0,32 C0,14.3268174 14.3269565,0 32,0 C49.6731826,0 64,14.3269565 64,32 C64,49.6730435 49.6731826,64 32,64 C14.3269565,64 0,49.6730435 0,32 Z"/>
  </g>
</svg>
