<svg xmlns="http://www.w3.org/2000/svg" width="64" height="64" viewBox="0 0 64 64">
  <g fill="#005473" fill-rule="evenodd">
    <path d="M29.0479304,13.0479304 C29.0479304,12.558887 29.4444522,12.1623652 29.9334957,12.1623652 L47.3505391,12.1623652 C47.8395826,12.1623652 48.2361043,12.558887 48.2361043,13.0479304 L48.2361043,42.5682087 C48.2361043,43.0573913 47.8395826,43.453913 47.3505391,43.453913 L39.0848,43.453913 C38.5957565,43.453913 38.1992348,43.0573913 38.1992348,42.5682087 C38.1992348,42.0791652 38.5957565,41.6826435 39.0848,41.6826435 L46.4649739,41.6826435 L46.4649739,13.9336348 L30.8192,13.9336348 L30.8192,21.1955478 C30.8192,21.6847304 30.4226783,22.0812522 29.9334957,22.0812522 C29.4444522,22.0812522 29.0479304,21.6847304 29.0479304,21.1955478 L29.0479304,13.0479304 Z"/>
    <path d="M21.9631304,30.2878609 C20.7990261,30.2878609 19.8376348,31.2492522 19.8376348,32.4133565 L19.8376348,44.5165913 C19.8376348,45.6806957 20.7990261,46.642087 21.9631304,46.642087 L32,46.642087 C33.1639652,46.642087 34.1254957,45.6806957 34.1254957,44.5165913 L34.1254957,32.4133565 C34.1254957,31.2492522 33.1639652,30.2878609 32,30.2878609 L21.9631304,30.2878609 Z M18.0663652,32.4133565 C18.0663652,30.2710261 19.8208,28.5165913 21.9631304,28.5165913 L32,28.5165913 C34.1421913,28.5165913 35.8966261,30.2710261 35.8966261,32.4133565 L35.8966261,44.5165913 C35.8966261,46.6589217 34.1421913,48.4133565 32,48.4133565 L21.9631304,48.4133565 C19.8208,48.4133565 18.0663652,46.6589217 18.0663652,44.5165913 L18.0663652,32.4133565 Z"/>
    <path d="M22.6124522 25.9780174C22.6124522 25.4888348 23.0089739 25.0924522 23.4981565 25.0924522L30.5239652 25.0924522C31.0130087 25.0924522 31.4095304 25.4888348 31.4095304 25.9780174L31.4095304 29.4614261C31.4095304 29.9504696 31.0130087 30.3469913 30.5239652 30.3469913L23.4981565 30.3469913C23.0089739 30.3469913 22.6124522 29.9504696 22.6124522 29.4614261L22.6124522 25.9780174zM24.3837217 26.8635826L24.3837217 28.5757217 29.6384 28.5757217 29.6384 26.8635826 24.3837217 26.8635826zM23.0258087 48.4132174C22.5693217 48.4132174 22.1992348 48.7833043 22.1992348 49.2397913 22.1992348 49.6962783 22.5693217 50.0663652 23.0258087 50.0663652 23.4822957 50.0663652 23.8523826 49.6962783 23.8523826 49.2397913 23.8523826 48.7833043 23.4822957 48.4132174 23.0258087 48.4132174zM20.4279652 49.2397913C20.4279652 47.8050783 21.5910957 46.6419478 23.0258087 46.6419478 24.4605217 46.6419478 25.6236522 47.8050783 25.6236522 49.2397913 25.6236522 50.6745043 24.4605217 51.8374957 23.0258087 51.8374957 21.5910957 51.8374957 20.4279652 50.6745043 20.4279652 49.2397913zM31.2324174 48.4132174C30.7759304 48.4132174 30.4058435 48.7833043 30.4058435 49.2397913 30.4058435 49.6962783 30.7759304 50.0663652 31.2324174 50.0663652 31.6889043 50.0663652 32.0589913 49.6962783 32.0589913 49.2397913 32.0589913 48.7833043 31.6889043 48.4132174 31.2324174 48.4132174zM28.6345739 49.2397913C28.6345739 47.8050783 29.7977043 46.6419478 31.2324174 46.6419478 32.6671304 46.6419478 33.8302609 47.8050783 33.8302609 49.2397913 33.8302609 50.6745043 32.6671304 51.8374957 31.2324174 51.8374957 29.7977043 51.8374957 28.6345739 50.6745043 28.6345739 49.2397913zM12.2213565 36.3689739C12.2213565 35.8797913 12.6178783 35.4834087 13.1070609 35.4834087L22.9668174 35.4834087C23.4558609 35.4834087 23.8523826 35.8797913 23.8523826 36.3689739 23.8523826 36.8580174 23.4558609 37.2545391 22.9668174 37.2545391L13.1070609 37.2545391C12.6178783 37.2545391 12.2213565 36.8580174 12.2213565 36.3689739zM13.5792696 39.4984348C13.5792696 39.0092522 13.9757913 38.6127304 14.4649739 38.6127304L22.9668174 38.6127304C23.4558609 38.6127304 23.8523826 39.0092522 23.8523826 39.4984348 23.8523826 39.9874783 23.4558609 40.384 22.9668174 40.384L14.4649739 40.384C13.9757913 40.384 13.5792696 39.9874783 13.5792696 39.4984348zM15.1734261 42.5683478C15.1734261 42.0793043 15.5699478 41.6827826 16.0589913 41.6827826L22.9668174 41.6827826C23.4558609 41.6827826 23.8523826 42.0793043 23.8523826 42.5683478 23.8523826 43.0575304 23.4558609 43.453913 22.9668174 43.453913L16.0589913 43.453913C15.5699478 43.453913 15.1734261 43.0575304 15.1734261 42.5683478z"/>
    <path d="M32,2.95206957 C15.957287,2.95206957 2.95206957,15.957287 2.95206957,32 C2.95206957,48.042713 15.957287,61.0479304 32,61.0479304 C48.042713,61.0479304 61.0479304,48.042713 61.0479304,32 C61.0479304,15.957287 48.042713,2.95206957 32,2.95206957 Z M0,32 C0,14.3269565 14.3269565,0 32,0 C49.6731826,0 64,14.3269565 64,32 C64,49.6731826 49.6731826,64 32,64 C14.3269565,64 0,49.6731826 0,32 Z"/>
  </g>
</svg>
