<svg width="160" height="160" viewBox="0 0 160 160" fill="none" xmlns="http://www.w3.org/2000/svg">
<rect width="160" height="160" fill="white"/>
<path d="M90.0019 106.427C98.0873 106.427 106.119 106.427 114.232 106.427C114.232 109.662 114.232 112.766 114.232 116C113.244 116 112.31 116 111.403 116C104.385 116 97.3668 116 90.3221 116C87.0132 116 85.0119 114.044 85.0119 110.783C84.9852 93.5684 85.0119 76.3534 85.0119 59.1645C85.0119 56.0606 86.9865 54.0261 90.1353 54.0261C101.396 54 112.63 54 123.891 54C126.96 54 128.961 56.0345 128.988 59.0341C129.015 60.4687 128.988 61.9032 128.988 63.4682C127.36 63.4682 125.786 63.4682 124.158 63.4682C124.105 62.764 124.078 62.0858 124.025 61.3033C112.684 61.3033 101.423 61.3033 90.0286 61.3033C90.0019 76.2751 90.0019 91.2469 90.0019 106.427ZM106.867 113.574C108.174 113.6 109.375 112.505 109.375 111.227C109.402 109.975 108.361 108.931 107.027 108.879C105.666 108.827 104.545 109.87 104.545 111.201C104.518 112.453 105.586 113.548 106.867 113.574Z" fill="#005473"/>
<path d="M18.0787 106C18.0525 101.664 18 97.302 18 92.9661C18 80.4284 18 67.8908 18.0262 55.3793C18.0262 53.8643 18.0525 52.2971 18.3936 50.8344C19.3122 46.7858 22.8812 44.1215 27.5262 44.0432C33.7721 43.9648 40.018 44.0171 46.2901 44.0171C65.4475 44.0171 84.5787 44.0171 103.736 44.0171C106.964 44.0171 109.851 44.879 112.055 47.4127C112.344 47.7522 112.58 48.1702 113 48.7709C112.213 48.7709 111.714 48.7709 111.215 48.7709C84.0276 48.7709 56.8398 48.7709 29.6257 48.7709C28.7597 48.7709 27.8674 48.797 27.0276 49.006C24.0622 49.7112 22.855 51.2784 22.8812 54.3084C23.0124 71.0252 23.1436 87.7159 23.2486 104.433C23.2486 104.955 23.1699 105.451 23.1436 105.974C21.4378 105.974 19.7583 106 18.0787 106Z" fill="#005473"/>
<path d="M148 92.0426C148 98.2564 148 104.444 148 110.658C148 114.04 146.099 115.98 142.72 115.98C136.568 116.007 130.391 116.007 124.239 115.98C121.071 115.98 119.012 113.988 119.012 110.841C118.985 98.3089 119.012 85.7763 119.012 73.2175C119.012 69.9402 120.965 68.0262 124.292 68.0262C130.443 68 136.621 68 142.773 68C145.941 68 148 70.0188 148 73.1389C148 79.4576 148 85.7501 148 92.0426ZM123.922 72.5358C123.922 83.705 123.922 94.7694 123.922 105.912C130.364 105.912 136.7 105.912 143.116 105.912C143.116 94.7431 143.116 83.6788 143.116 72.5358C136.727 72.5358 130.417 72.5358 123.922 72.5358ZM133.453 113.568C134.72 113.594 135.803 112.546 135.856 111.287C135.908 109.924 134.905 108.849 133.532 108.823C132.212 108.796 131.156 109.793 131.103 111.077C131.051 112.388 132.133 113.516 133.453 113.568Z" fill="#005473"/>
<path d="M17.8826 106.027C19.5586 106.027 21.2346 106 22.9106 106C30.5313 106.027 38.1781 106.054 45.7988 106.054C56.6667 106.054 67.5346 106.054 78.3764 106.054C78.9001 106.054 79.3977 106.054 80 106.054C80 109.388 80 112.585 80 115.946C79.581 115.973 79.1096 116 78.6644 116C57.5833 116 36.5283 116 15.4471 116C13.3259 116 13.0378 115.702 13.0116 113.507C13.0116 111.664 12.9855 109.794 13.0116 107.951C13.0378 106.569 13.483 106.108 14.8448 106.081C15.8923 106.027 16.8874 106.027 17.8826 106.027ZM65.6491 113.507C67.9012 113.507 70.1796 113.534 72.4317 113.507C74.1601 113.507 75.26 112.531 75.26 111.041C75.2862 109.55 74.2125 108.575 72.4579 108.575C67.9798 108.575 63.4755 108.575 58.9974 108.602C57.1904 108.602 56.1691 109.523 56.1691 111.041C56.1691 112.558 57.1904 113.507 58.9712 113.534C61.2234 113.534 63.4231 113.507 65.6491 113.507Z" fill="#005473"/>
</svg>
