<svg width="64" height="64" viewBox="0 0 64 64" fill="none" xmlns="http://www.w3.org/2000/svg">
<path fill-rule="evenodd" clip-rule="evenodd" d="M16.635 17.163C16.3944 17.2763 16.2919 17.3911 16.2751 17.4184L16.2715 17.4243L11.6985 24.7172C11.7195 24.7172 11.7406 24.7172 11.7619 24.7172L42.7226 24.728L38.1524 17.4259C38.1522 17.4257 38.1525 17.4261 38.1524 17.4259C38.13 17.391 38.022 17.2747 37.7846 17.1626C37.5591 17.0562 37.3131 17 37.1178 17H17.305C17.1092 17 16.8613 17.0564 16.635 17.163ZM9.87715 26.6981L8.1239 26.6531L14.5755 16.3642C14.8687 15.8914 15.3428 15.5609 15.7828 15.3536C16.2381 15.1392 16.7757 15 17.305 15H37.1178C37.6475 15 38.1838 15.1394 38.6384 15.354C39.08 15.5625 39.5503 15.8926 39.8447 16.3601L39.8462 16.3625L46.3037 26.6798L44.5425 26.717L44.535 26.7171L44.5153 26.7175L44.4385 26.7188C44.3705 26.7198 44.2689 26.7212 44.1321 26.7226C43.8584 26.7253 43.4441 26.7281 42.8778 26.7281L11.7619 26.7172C11.7618 26.7172 11.762 26.7172 11.7619 26.7172C11.1911 26.7172 10.7213 26.7125 10.3938 26.7077C10.23 26.7054 10.1017 26.703 10.0139 26.7012L9.91321 26.699L9.87715 26.6981Z" fill="white"/>
<path fill-rule="evenodd" clip-rule="evenodd" d="M6.61118 24.7172H44.2895V25.7165L44.2924 24.7172C48.1915 24.7286 51.9265 26.292 54.6818 29.0637C57.4368 31.8353 58.9886 35.5898 59 39.5069L58 39.5098L59 39.5126C58.998 40.2048 58.7239 40.8693 58.2355 41.3606C57.747 41.8521 57.0836 42.1302 56.3902 42.1322L56.3873 42.1322H45.0204L44.9346 41.2265C44.8323 40.1474 44.3339 39.1467 43.5386 38.4192C42.7433 37.6919 41.7083 37.2897 40.6357 37.2897C39.5631 37.2897 38.528 37.6919 37.7328 38.4192C36.9374 39.1467 36.4391 40.1474 36.3368 41.2265L36.251 42.1322H21.0479L20.9621 41.2265C20.8598 40.1474 20.3615 39.1467 19.5661 38.4192C18.7709 37.6919 17.7358 37.2897 16.6632 37.2897C15.5906 37.2897 14.5556 37.6919 13.7604 38.4192C12.965 39.1467 12.4666 40.1474 12.3643 41.2265L12.2785 42.1322H6.61118L6.60733 42.1322C5.91428 42.1295 5.25162 41.8511 4.76361 41.3597C4.2758 40.8685 4.00198 40.2044 4 39.5126L4 39.5098V27.3351C4.00198 26.6433 4.27598 25.9792 4.76404 25.4883C5.2523 24.9971 5.91521 24.7192 6.60829 24.7172L6.61118 24.7172ZM57 39.5092C56.9892 36.118 55.6453 32.8699 53.2633 30.4737C50.8811 28.0772 47.6543 26.7275 44.288 26.7172H6.61297C6.45257 26.7179 6.29773 26.7823 6.18247 26.8982C6.06701 27.0144 6.00076 27.173 6 27.3398V39.508C6.00076 39.6751 6.06709 39.834 6.18272 39.9504C6.29808 40.0666 6.45306 40.1312 6.61368 40.1322H10.5255C10.8223 38.9116 11.475 37.7991 12.4105 36.9434C13.5733 35.8799 15.0895 35.2897 16.6632 35.2897C18.2369 35.2897 19.7531 35.8799 20.9159 36.9434C21.8515 37.7991 22.5041 38.9116 22.801 40.1322H34.4979C34.7948 38.9116 35.4475 37.7991 36.383 36.9434C37.5458 35.8799 39.062 35.2897 40.6357 35.2897C42.2094 35.2897 43.7256 35.8799 44.8884 36.9434C45.8239 37.7991 46.4766 38.9116 46.7734 40.1322H56.3854C56.5462 40.1314 56.7015 40.0669 56.8171 39.9506C56.9326 39.8345 56.9989 39.676 57 39.5092Z" fill="white"/>
<path fill-rule="evenodd" clip-rule="evenodd" d="M22.9524 41.0314C22.9732 41.236 22.9837 41.4416 22.9838 41.6473V41.6482C22.9838 43.3309 22.3194 44.9458 21.1349 46.1375C19.9501 47.3294 18.342 48 16.6639 48C14.9858 48 13.3776 47.3294 12.1928 46.1375C11.0083 44.9458 10.3439 43.3309 10.3439 41.6482C10.3439 41.4381 10.3551 41.2359 10.3728 41.0415L12.3645 41.2231C12.3513 41.3685 12.3439 41.5091 12.3439 41.6482C12.3439 42.8043 12.8005 43.9118 13.6113 44.7275C14.4219 45.543 15.5201 46 16.6639 46C17.8077 46 18.9058 45.543 19.7164 44.7275C20.5271 43.9121 20.9836 42.8049 20.9838 41.6491M22.9524 41.0314L20.9626 41.2333L22.9524 41.0314ZM20.9626 41.2333C20.9766 41.3714 20.9837 41.5101 20.9838 41.649L20.9626 41.2333Z" fill="white"/>
<path fill-rule="evenodd" clip-rule="evenodd" d="M46.925 41.0344C46.9451 41.239 46.955 41.4446 46.9546 41.6502L46.9546 41.6577L46.9544 41.6651C46.9262 43.3288 46.2495 44.916 45.0681 46.0843C43.8866 47.2528 42.2948 47.9087 40.6354 47.9087C38.976 47.9087 37.3842 47.2528 36.2026 46.0843C35.0213 44.916 34.3445 43.3288 34.3163 41.6651L34.3162 41.6566V41.6482C34.3162 41.4381 34.3274 41.2359 34.3451 41.0415L36.3368 41.2231C36.3238 41.3655 36.3165 41.5034 36.3162 41.6397C36.3377 42.7797 36.8024 43.8646 37.609 44.6623C38.4174 45.4618 39.5043 45.9087 40.6354 45.9087C41.7664 45.9087 42.8534 45.4618 43.6618 44.6623C44.4686 43.8644 44.9333 42.779 44.9546 41.6386C44.9546 41.5022 44.948 41.3659 44.9346 41.2303L46.925 41.0344Z" fill="white"/>
<path fill-rule="evenodd" clip-rule="evenodd" d="M26.2092 15H37.1242C37.6534 15 38.191 15.1392 38.6463 15.3536C39.0865 15.561 39.5609 15.8917 39.854 16.3648C39.8546 16.3658 39.8552 16.3667 39.8558 16.3677L46.3033 26.6752L44.5427 26.7123L44.5154 26.7128L44.4386 26.7141C44.3706 26.7151 44.2688 26.7165 44.1318 26.7179C43.8578 26.7207 43.4427 26.7234 42.8748 26.7234H26.2092V15ZM42.7234 24.7234L38.154 17.4184C38.1372 17.3912 38.0347 17.2763 37.7941 17.163C37.5678 17.0564 37.3199 17 37.1242 17H28.2092V24.7234H42.7234Z" fill="white"/>
</svg>
