<svg xmlns="http://www.w3.org/2000/svg" width="64" height="64" viewBox="0 0 64 64">
  <g fill="#005473" fill-rule="evenodd">
    <path fill-rule="nonzero" d="M32,0 C14.3581217,0 0,14.3581217 0,32 C0,49.6418783 14.3581217,64 32,64 C49.6418783,64 64,49.6418783 64,32 C64,14.3581217 49.6418783,0 32,0 Z M32,61.5545043 C15.6855652,61.5545043 2.44535652,48.279513 2.44535652,32 C2.44535652,15.720487 15.720487,2.44535652 32,2.44535652 C48.3144348,2.44535652 61.5546435,15.720487 61.5546435,32 C61.5546435,48.279513 48.279513,61.5545043 32,61.5545043 Z"/>
    <path fill-rule="nonzero" d="M17.6069565,18.7247304 C18.4804174,19.5631304 19.3188174,20.4015304 20.1921391,21.2400696 C21.1003826,22.1133913 21.9738435,22.986713 22.8471652,23.825113 C22.8471652,23.825113 22.8471652,23.8600348 22.882087,23.8600348 C22.7773217,24.5238261 22.6725565,25.1876174 22.5327304,25.8514087 C22.462887,26.1658435 22.4279652,26.4801391 22.3581217,26.7945739 C22.1484522,27.9474087 21.9738435,29.1351652 21.7641739,30.2530783 L21.5546435,31.4757565 L21.5546435,31.6155826 C21.5197217,32.4190609 21.8690783,33.0828522 22.4279652,33.4671304 C23.021913,33.816487 23.7554087,33.816487 24.4541217,33.4671304 C26.8646957,32.2093913 29.0654609,31.0565565 31.1616,29.9386435 C31.1616,29.9386435 31.1965217,29.9386435 31.1965217,29.9037217 C31.1965217,29.9037217 31.2314435,29.9037217 31.2314435,29.9386435 C32.6288696,30.6722783 34.0261565,31.405913 35.4235826,32.1395478 C36.2270609,32.5587478 37.0305391,32.9779478 37.8340174,33.3971478 C38.043687,33.5020522 38.462887,33.7465043 38.9868522,33.7465043 C39.3362087,33.7465043 39.6855652,33.6417391 40.0698435,33.3971478 C41.0480696,32.7334957 40.8733217,31.6505043 40.8034783,31.3011478 L40.6288696,30.3578435 C40.279513,28.2618435 39.8952348,26.0958609 39.5109565,23.9649391 C39.5109565,23.9300174 39.5109565,23.9300174 39.5109565,23.8949565 C39.5109565,23.8949565 39.5458783,23.8600348 39.5808,23.825113 L39.6506435,23.7552696 C41.3974261,22.0784696 43.213913,20.3666087 44.9257739,18.6199652 C45.3449739,18.2007652 45.624487,17.4671304 45.5895652,16.8382609 C45.5546435,16.4190609 45.3449739,15.4757565 43.8427826,15.2313043 C42.8297739,15.0914783 41.8515478,14.9517913 40.8384,14.8121043 C39.4061913,14.6024348 37.904,14.3929043 36.4367304,14.1832348 C36.2969043,14.1832348 36.2619826,14.148313 36.2619826,14.148313 C36.2619826,14.148313 36.2270609,14.1133913 36.1921391,14.0435478 C35.6332522,12.890713 35.0393043,11.7028174 34.4804174,10.5499826 C33.956313,9.53697391 33.4672696,8.48890435 32.9433043,7.47575652 C32.7685565,7.09147826 32.3144348,6.18323478 31.1266783,6.14831304 C29.904,6.1133913 29.4148174,7.1264 29.2402087,7.47575652 C28.0524522,9.88633043 27.0043826,12.0521739 25.9912348,14.0435478 C25.956313,14.0784696 25.9213913,14.148313 25.8864696,14.1832348 C25.2926609,14.288 24.7336348,14.3578435 24.1047652,14.4627478 C23.7904696,14.4976696 23.4760348,14.5325913 23.1616,14.6024348 L22.6025739,14.6722783 C21.1703652,14.8819478 19.6681739,15.0914783 18.2358261,15.3360696 C17.6418783,15.4408348 17.117913,15.7552696 16.8034783,16.244313 C16.5590261,16.6636522 16.4890435,17.1177739 16.6288696,17.5718957 C16.9433043,17.9910957 17.3275826,18.4452174 17.6069565,18.7247304 Z M18.6550261,16.9430261 C20.0873739,16.6985739 21.5895652,16.4889043 23.021913,16.2792348 L23.5808,16.2093913 C23.8952348,16.1744696 24.1747478,16.1395478 24.4890435,16.0697043 C25.117913,15.9998609 25.7817043,15.8949565 26.4454957,15.7552696 C27.0043826,15.6505043 27.4585043,15.1614609 27.7030957,14.7072 C28.7161043,12.7159652 29.7990957,10.5499826 30.9519304,8.13954783 C31.1266783,7.7901913 31.1616,7.7901913 31.2314435,7.7901913 C31.2663652,7.7901913 31.301287,7.7901913 31.301287,7.7901913 C31.301287,7.7901913 31.3711304,7.86003478 31.5109565,8.13954783 C32,9.18761739 32.5239652,10.2006261 33.0480696,11.2486957 C33.6069565,12.4015304 34.2009043,13.5543652 34.7597913,14.7421217 C35.0742261,15.405913 35.5632696,15.7552696 36.3318261,15.8600348 C37.7990957,16.0697043 39.2663652,16.2792348 40.698713,16.4889043 C41.7118609,16.6285913 42.6899478,16.7684174 43.7030957,16.9081043 C43.8078609,16.9081043 43.8777043,16.9430261 43.9475478,16.9430261 C43.9126261,17.0828522 43.8427826,17.2574609 43.7729391,17.3273043 C42.0610783,19.074087 40.2445913,20.7858087 38.4978087,22.4627478 L38.4279652,22.5325913 C37.9389217,23.0216348 37.7292522,23.5457391 37.8690783,24.244313 C38.2533565,26.3753739 38.6374957,28.5413565 38.9868522,30.6373565 L39.1616,31.5806609 C39.1965217,31.8600348 39.1965217,31.9300174 39.1616,31.9649391 C39.0917565,31.9998609 39.0568348,32.0347826 38.7074783,31.8600348 C37.904,31.4408348 37.1005217,31.0216348 36.2969043,30.6024348 C34.8996174,29.8688 33.5021913,29.1351652 32.139687,28.4015304 C31.5458783,28.0872348 30.9868522,28.0872348 30.4279652,28.4015304 C28.3318261,29.5194435 26.1310609,30.6722783 23.720487,31.9300174 C23.5458783,32.0347826 23.441113,31.9998609 23.441113,31.9998609 C23.441113,31.9998609 23.3711304,31.8950957 23.3711304,31.7203478 L23.5808,30.567513 C23.7554087,29.4496 23.9650783,28.2967652 24.1747478,27.1090087 C24.2445913,26.7945739 24.279513,26.4801391 24.3493565,26.2007652 C24.4890435,25.5020522 24.5939478,24.7684174 24.698713,24.0347826 C24.7685565,23.4757565 24.4890435,22.9168696 24.1747478,22.6024348 C23.301287,21.729113 22.3930435,20.8556522 21.4846609,19.9823304 C20.6113391,19.1439304 19.7729391,18.3055304 18.8996174,17.4671304 C18.7248696,17.3273043 18.6201043,17.1526957 18.5502609,17.0128696 C18.5153391,16.9779478 18.5851826,16.9430261 18.6550261,16.9430261 Z"/>
    <path d="M41.2925217 47.7206261C39.7903304 48.0001391 38.3232 48.279513 36.8210087 48.5241043 35.7380174 48.7336348 34.6550261 49.0131478 33.537113 49.0480696 31.1965217 49.117913 28.8559304 49.0480696 26.5153391 49.0829913 23.6506435 49.1180522 20.9257739 48.698713 18.3405913 47.2665043 16.279513 46.1136696 14.1135304 45.1354435 12.0175304 44.0873739 11.1091478 43.6332522 10.5851826 42.7250087 10.7248696 41.8166261 10.9345391 40.1398261 12.5414957 39.2665043 14.0786087 40.0350609 15.4409739 40.698713 16.7685565 41.3974261 18.1310609 42.0612174 19.3537391 42.690087 20.6462609 42.9694609 22.0087652 42.9694609 25.1528348 42.9694609 28.2969043 42.9694609 31.441113 42.9694609 31.5458783 42.9694609 31.6855652 42.9694609 31.7903304 42.9694609 32.139687 42.8996174 32.3842783 42.690087 32.4192 42.3058087 32.4541217 41.9215304 32.279513 41.6420174 31.8952348 41.5023304 31.720487 41.4323478 31.5109565 41.4323478 31.301287 41.4323478 29.3449739 41.4323478 27.3886609 41.4323478 25.4323478 41.4323478 24.1047652 41.3974261 23.0917565 40.1747478 23.301287 38.8822261 23.4760348 37.6594087 24.3842783 36.8908522 25.6768 36.8908522 27.4585043 36.8908522 29.2402087 36.925913 30.9868522 36.8908522 32.8034783 36.8559304 34.4453565 37.2751304 36.0173913 38.1485913 36.8210087 38.602713 37.6594087 38.9869913 38.4978087 39.3363478 39.4760348 39.7206261 40.4541217 39.9301565 41.537113 39.9301565 41.537113 39.441113 41.537113 38.9520696 41.537113 38.4979478 40.8384 38.3581217 40.1047652 38.2882783 39.4760348 38.043687 38.3930435 37.624487 37.3449739 37.1354435 36.2969043 36.6114783 35.0742261 35.9826087 33.8166261 35.4586435 32.4541217 35.4586435 30.043687 35.4237217 27.6332522 35.4237217 25.2226783 35.4586435 23.441113 35.4935652 21.8340174 37.1354435 21.7292522 38.9171478 21.6594087 39.860313 21.904 40.698713 22.4279652 41.5023304 21.1003826 41.6070957 19.9126261 41.3625043 18.794713 40.8036174 17.3974261 40.1049043 16.0349217 39.4061913 14.6025739 38.7074783 13.0654609 37.9738435 11.1789913 38.3581217 10.096 39.6158609 8.45412174 41.5372522 9.01314783 44.4018087 11.2838957 45.5546435 13.6943304 46.7773217 16.1047652 47.9301565 18.4802783 49.1878957 20.4367304 50.2009043 22.4978087 50.6551652 24.6637913 50.690087 27.3537391 50.7599304 30.043687 50.7250087 32.698713 50.690087 33.5021913 50.690087 34.2707478 50.6201043 35.0742261 50.5153391 37.1354435 50.1659826 39.1965217 49.7817043 41.2226783 49.3974261 41.3274435 49.3625043 41.5021913 49.2228174 41.5021913 49.1180522 41.537113 48.698713 41.5021913 48.279513 41.5021913 47.860313 41.4672696 47.7206261 41.3974261 47.6857043 41.2925217 47.7206261zM45.6943304 50.5499826C44.8908522 50.5499826 44.6811826 50.3404522 44.6811826 49.5718957 44.6811826 45.6592696 44.6811826 41.7115826 44.6811826 37.7989565 44.6811826 37.0653217 44.9257739 36.8207304 45.6594087 36.8207304 46.5327304 36.8207304 47.4060522 36.8207304 48.2444522 36.8207304 48.558887 36.8207304 48.8733217 36.8207304 49.1877565 36.8207304 49.1877565 36.2967652 49.1877565 35.8077217 49.1877565 35.3186783 47.8952348 35.3186783 46.6374957 35.3186783 45.3798957 35.3186783 44.0873739 35.3186783 43.1091478 36.2967652 43.1091478 37.589287 43.1091478 41.6766609 43.1091478 45.7640348 43.1091478 49.816487 43.1091478 51.0042435 44.0173913 52.0172522 45.1702261 52.0872348 46.4978087 52.1570783 47.8252522 52.0872348 49.1877565 52.0872348 49.1877565 51.5631304 49.1877565 51.1090087 49.1877565 50.5499826 48.0349217 50.5499826 46.882087 50.5499826 45.6943304 50.5499826z"/>
  </g>
</svg>
