<svg xmlns="http://www.w3.org/2000/svg" width="64" height="64" viewBox="0 0 64 64">
  <g fill="#005473" fill-rule="evenodd">
    <path fill-rule="nonzero" d="M32,0 C14.3581217,0 0,14.3581217 0,32 C0,49.6418783 14.3581217,64 32,64 C49.6418783,64 64,49.6418783 64,32 C64,14.3581217 49.6418783,0 32,0 Z M32,61.5546435 C15.720487,61.5546435 2.44535652,48.3144348 2.44535652,32 C2.44535652,15.6855652 15.720487,2.44535652 32,2.44535652 C48.3144348,2.44535652 61.5546435,15.720487 61.5546435,32 C61.5546435,48.279513 48.3144348,61.5546435 32,61.5546435 Z"/>
    <path fill-rule="nonzero" d="M27.2838957,35.7030957 L17.5720348,35.7030957 C17.0829913,35.7030957 16.698713,36.0873739 16.698713,36.5765565 L16.698713,55.0917565 C16.698713,55.5808 17.0829913,55.9650783 17.5720348,55.9650783 L27.2838957,55.9650783 C27.7729391,55.9650783 28.1572174,55.5808 28.1572174,55.0917565 L28.1572174,36.5765565 C28.1572174,36.0873739 27.7729391,35.7030957 27.2838957,35.7030957 Z M26.4104348,54.2184348 L18.4453565,54.2184348 L18.4453565,37.4498783 L26.4104348,37.4498783 L26.4104348,54.2184348 Z"/>
    <path d="M19.6681739 46.602713C20.0873739 46.602713 20.4367304 46.2533565 20.4367304 45.8341565 20.4367304 45.4149565 20.0873739 45.0656 19.6681739 45.0656 19.2489739 45.0656 18.8996174 45.4149565 18.8996174 45.8341565 18.8996174 46.2533565 19.2489739 46.602713 19.6681739 46.602713zM35.0043826 23.8253913L19.2838957 23.8253913C18.794713 23.8253913 18.4104348 24.2096696 18.4104348 24.698713L18.4104348 34.6551652 20.1572174 34.6551652 20.1572174 25.5721739 34.1310609 25.5721739 34.1310609 54.4979478 29.3798957 54.4979478 29.3798957 56.2445913 35.0043826 56.2445913C35.4934261 56.2445913 35.8777043 55.860313 35.8777043 55.3712696L35.8777043 24.698713C35.8777043 24.2096696 35.4585043 23.8253913 35.0043826 23.8253913z"/>
    <path d="M44.4716522,9.74664348 L21.3449739,9.74664348 C20.8559304,9.74664348 20.4716522,10.1309217 20.4716522,10.6199652 L20.4716522,22.4278261 L22.2182957,22.4278261 L22.2182957,11.5282087 L43.5981913,11.5282087 L43.5981913,54.2181565 L37.1354435,54.2181565 L37.1354435,55.9649391 L44.4716522,55.9649391 C44.9606957,55.9649391 45.3449739,55.5806609 45.3449739,55.0916174 L45.3449739,10.6199652 C45.3449739,10.1309217 44.9606957,9.74664348 44.4716522,9.74664348 Z"/>
  </g>
</svg>
