<svg width="96" height="96" viewBox="0 0 96 96" fill="none" xmlns="http://www.w3.org/2000/svg">
<path fill-rule="evenodd" clip-rule="evenodd" d="M48.0265 2.23799e-08C47.5368 -7.4585e-05 47.047 0.186389 46.6728 0.559396L37.62 9.5847C36.8703 10.3322 36.8684 11.5459 37.6159 12.2957C38.3633 13.0454 39.5771 13.0473 40.3268 12.2998L41.6375 10.9931V24.647C41.6375 25.7057 42.4958 26.564 43.5545 26.564H52.4964C53.5551 26.564 54.4134 25.7057 54.4134 24.647V10.9933L55.7234 12.2996C56.4731 13.0472 57.6868 13.0455 58.4344 12.2958C59.1819 11.5462 59.1802 10.3324 58.4306 9.58486L49.3987 0.578328C49.3421 0.520364 49.2822 0.466344 49.2195 0.416458C48.8994 0.161236 48.5165 0.0233207 48.1285 0.00271466C48.0947 0.000913591 48.0608 3.97594e-06 48.0267 1.99693e-08M45.4714 7.56251V22.7301H50.5795V7.56225L48.0262 4.76177L45.4714 7.56251ZM48.0265 27.8655L82.0508 40.3974V82.4059L48.0119 96L14 81.8566V40.3974L48.0265 27.8655ZM17.8339 77.8333L46.1095 67.469V32.6571L17.8339 43.071V77.8333ZM48.0143 70.8541L21.1799 80.6901L48.0411 91.86L74.8726 81.1443L57.0694 74.3234L55.5033 73.7346V73.7233L48.0143 70.8541ZM78.217 78.32L69.3208 74.9116V51.8286L55.5033 46.723V69.6177L49.9434 67.4876V32.6572L78.217 43.071V78.32ZM59.3372 52.2269V71.0801L65.4869 73.3923V54.4992L59.3372 52.2269ZM41.0075 63.042V47.8027L24.8913 53.4202V68.6623L41.0075 63.042ZM28.7251 63.265V56.144L37.1737 53.1991V60.3187L28.7251 63.265Z" fill="#005473"/>
</svg>
