<svg width="64" height="64" viewBox="0 0 64 64" fill="none" xmlns="http://www.w3.org/2000/svg">
<path fill-rule="evenodd" clip-rule="evenodd" d="M50.6891 11.0552C51.653 10.9155 52.6499 11.0158 53.318 11.682C54.0034 12.3655 54.0659 13.3759 53.897 14.3195C53.7208 15.3037 53.2508 16.4937 52.4955 17.8655C51.0227 20.5407 48.359 24.0965 44.1865 28.4873L48.3097 46.7008C48.7915 48.2226 49.0229 49.698 48.9653 50.8962C48.9364 51.4982 48.832 52.0834 48.6091 52.581C48.3841 53.0834 48.0005 53.5708 47.3896 53.7992C46.305 54.2069 45.258 53.5626 44.5564 52.9172C43.9396 52.3498 43.3402 51.5643 42.8027 50.6448L42.7482 50.6604L35.3705 36.8871C31.799 39.9936 28.3023 42.7117 25.4084 44.6839L25.6071 50.4093C25.687 51.0486 25.6621 51.6923 25.5293 52.2472C25.4082 52.7534 25.1336 53.4426 24.4994 53.7836C23.7904 54.17 23.1019 53.8922 22.6857 53.5257C22.5558 53.4113 22.4385 53.2799 22.3331 53.1368L22.204 53.197L19.6742 46.5811C19.6037 46.4726 19.4374 46.2519 19.0778 45.8942C18.7277 45.546 18.5082 45.3812 18.3967 45.309L11.7747 42.7803L11.8344 42.6526C11.6916 42.5478 11.5606 42.4311 11.4464 42.3021C11.0821 41.8904 10.7976 41.2047 11.1784 40.4938C11.5179 39.8547 12.2116 39.5793 12.7175 39.4583C13.2729 39.3255 13.9177 39.3006 14.5578 39.3811L20.1962 39.5755C22.1375 36.6501 24.8236 33.1117 27.8976 29.5147L14.2822 22.2269L14.2996 22.1714C13.3903 21.6381 12.6119 21.044 12.0477 20.4329C11.4018 19.7331 10.7512 18.6847 11.1615 17.5972L11.1621 17.5957C11.3929 16.9869 11.8807 16.6047 12.3832 16.3803C12.8812 16.1579 13.4666 16.0536 14.0693 16.0245C15.2684 15.9668 16.7442 16.1979 18.266 16.6801L36.1777 20.7272C40.6733 16.4405 44.3188 13.7923 47.0628 12.3662C48.4701 11.6349 49.6867 11.2005 50.6891 11.0552ZM14.4966 41.6788L18.8353 43.3356C18.8576 43.3407 18.8799 43.3463 18.9022 43.3526C19.0377 43.3905 19.1788 43.4513 19.3285 43.5359C19.6233 43.7025 19.9977 43.9882 20.4883 44.4763C20.9779 44.9634 21.265 45.3337 21.4331 45.6244C21.5185 45.7721 21.5804 45.9117 21.6196 46.0463C21.6267 46.0705 21.6331 46.0947 21.6388 46.119L23.305 50.4767L23.3502 50.4557L23.6487 51.2994C23.6586 51.0932 23.6503 50.864 23.6181 50.6235L23.6116 50.5748L23.371 43.6432L23.8339 43.3337C26.9723 41.2352 30.9544 38.1354 34.9942 34.5562L35.9413 33.7171L43.7498 48.2945L43.8116 48.2768L44.1861 49.0081C44.7488 50.1064 45.3652 50.9437 45.9104 51.4453C46.3963 51.8922 46.6399 51.9181 46.6882 51.9215C46.7068 51.9025 46.7416 51.8578 46.7839 51.7634C46.8701 51.5711 46.9457 51.255 46.9676 50.8001C47.0112 49.8951 46.8325 48.6489 46.3912 47.2675L46.3781 47.2263L41.9986 27.8806L42.3713 27.4922C46.6953 22.9872 49.3441 19.4426 50.7435 16.9009C51.446 15.6249 51.8059 14.6512 51.9283 13.9671C51.9891 13.6275 51.9844 13.397 51.9589 13.2543C51.9467 13.1854 51.9309 13.1441 51.9204 13.1225C51.9152 13.1117 51.9111 13.1053 51.9089 13.1022L51.9064 13.099C51.9053 13.0978 51.895 13.0876 51.868 13.0742C51.84 13.0603 51.7922 13.0417 51.7174 13.0266C51.5635 12.9954 51.3228 12.9842 50.976 13.0345C50.278 13.1357 49.2843 13.4657 47.9851 14.1409C45.3952 15.4868 41.7745 18.1074 37.1758 22.541L36.7874 22.9154L17.7407 18.6118L17.6991 18.5985C16.3183 18.1571 15.0718 17.9785 14.1655 18.0222C13.71 18.0441 13.3927 18.1199 13.1988 18.2065C13.1049 18.2484 13.0592 18.2833 13.0389 18.3027C13.0436 18.3567 13.0774 18.5997 13.5174 19.0763C14.0207 19.6216 14.8593 20.2375 15.9556 20.7992L16.7068 21.1841L16.6874 21.2458L31.0491 28.9331L30.2245 29.8794C26.6856 33.941 23.6241 37.9698 21.5614 41.1397L21.2533 41.6131L14.3917 41.3766L14.3423 41.3699C14.1087 41.3385 13.8854 41.3296 13.6835 41.3382L14.5192 41.6302L14.4966 41.6788Z" fill="white"/>
</svg>
