<svg xmlns="http://www.w3.org/2000/svg" width="64" height="64" viewBox="0 0 64 64">
  <g fill="#005473" fill-rule="evenodd">
    <path d="M28.4944696,36.7507478 C28.3176348,37.2893217 27.7389913,37.5852522 27.1980522,37.4121739 C26.6546087,37.2382609 26.3549217,36.6566957 26.5288348,36.1132522 L27.5129043,36.4281043 C26.5288348,36.1132522 26.529113,36.1126957 26.5292522,36.1121391 L26.5295304,36.1110261 L26.5303652,36.1085217 L26.532313,36.1026783 L26.5373217,36.0876522 C26.5412174,36.0762435 26.5462261,36.0620522 26.5522087,36.0450783 C26.5644522,36.0112696 26.581287,35.9666087 26.6029913,35.9129043 C26.6465391,35.8054957 26.7106783,35.6605217 26.7991652,35.4902261 C26.9754435,35.1514435 27.2535652,34.7027478 27.6676174,34.2526609 C28.5136696,33.3330087 29.9001043,32.4429913 32,32.4429913 C34.0968348,32.4429913 35.5059478,33.3299478 36.3763478,34.2366609 C36.8038957,34.6820174 37.0971826,35.1262609 37.285287,35.4621217 C37.3797565,35.6307478 37.4489043,35.7744696 37.4963478,35.8807652 C37.52,35.933913 37.5383652,35.9778783 37.5517217,36.0112696 C37.5584,36.0279652 37.5638261,36.0420174 37.568,36.053287 L37.5735652,36.0678957 L37.5756522,36.0736 L37.576487,36.0761043 L37.5769043,36.0772174 C37.5771826,36.0776348 37.5773217,36.0781913 36.6052174,36.4281043 L37.5773217,36.0781913 C37.7705739,36.6150957 37.4920348,37.2070957 36.9551304,37.4003478 C36.4205913,37.5927652 35.831513,37.3174261 35.6356174,36.7852522 C35.6352,36.7841391 35.6343652,36.781913 35.633113,36.778713 C35.6290783,36.7688348 35.6211478,36.7494957 35.6089043,36.7219478 C35.5842783,36.666713 35.5428174,36.5797565 35.4822957,36.4717913 C35.3604174,36.2540522 35.1666087,35.9603478 34.8857043,35.6677565 C34.3390609,35.0982957 33.4455652,34.5093565 32,34.5093565 C30.5574957,34.5093565 29.700313,35.0952348 29.1884522,35.6517565 C28.9235478,35.9396174 28.7442087,36.2288696 28.6326261,36.4435478 C28.577113,36.5501217 28.5398261,36.635687 28.5178435,36.6898087 C28.5069913,36.7166609 28.4998957,36.7355826 28.4965565,36.7450435 C28.4955826,36.747687 28.494887,36.7496348 28.4944696,36.7507478 C28.4944696,36.7507478 28.4944696,36.7507478 28.4944696,36.7507478 Z"/>
    <path d="M23.357913,32.3226435 C23.1805217,32.8621913 22.6003478,33.1577043 22.0592696,32.9832348 C21.5161043,32.8079304 21.2179478,32.2256696 21.393113,31.6826435 L22.3763478,31.9998609 C21.393113,31.6826435 21.3932522,31.682087 21.3935304,31.6813913 L21.3939478,31.68 L21.3950609,31.6766609 L21.3977043,31.6687304 L21.4052174,31.6467478 C21.4110609,31.6294957 21.4191304,31.6070957 21.4291478,31.5798261 C21.4493217,31.525287 21.4781217,31.4512696 21.5165217,31.3606957 C21.5933217,31.1795478 21.7090783,30.9310609 21.873113,30.6376348 C22.2007652,30.0517565 22.7240348,29.2808348 23.5173565,28.5124174 C25.124313,26.9555478 27.7722435,25.4758957 31.9410087,25.4758957 C36.1092174,25.4758957 38.7826087,26.9548522 40.416,28.5050435 C41.2229565,29.2708174 41.761113,30.0390957 42.1001739,30.6231652 C42.269913,30.9154783 42.3906783,31.1631304 42.4709565,31.3434435 C42.5111652,31.4337391 42.5413565,31.5073391 42.5626435,31.5616 C42.5732174,31.5887304 42.5817043,31.6109913 42.5879652,31.6281043 L42.5957565,31.6499478 L42.5985391,31.6578783 L42.5996522,31.6610783 L42.6002087,31.6624696 C42.6003478,31.6630261 42.6006261,31.6637217 41.6510609,31.9904 L42.6006261,31.6637217 C42.7862261,32.2032696 42.4993391,32.7912348 41.9597913,32.9768348 C41.4220522,33.1618783 40.8361739,32.8774957 40.648487,32.3414261 C40.6483478,32.3410087 40.6482087,32.3405913 40.6480696,32.3400348 C40.6466783,32.3364174 40.6434783,32.3279304 40.6383304,32.314713 C40.6281739,32.2885565 40.610087,32.244313 40.5833739,32.1843478 C40.5299478,32.0644174 40.4422957,31.8831304 40.3131826,31.6608 C40.0544,31.2151652 39.633113,30.6107826 38.9935304,30.0038957 C37.7341217,28.8086261 35.5661913,27.5422609 31.9410087,27.5422609 C28.3163826,27.5422609 26.1819826,28.8079304 24.9551304,29.9965217 C24.3312696,30.6009043 23.9247304,31.2025043 23.6768,31.6461913 C23.5529739,31.8675478 23.4694957,32.048 23.4189913,32.1672348 C23.3938087,32.2267826 23.3768348,32.2707478 23.3672348,32.2966261 C23.3625043,32.3095652 23.3595826,32.317913 23.3583304,32.3215304 C23.3581913,32.3219478 23.3580522,32.3223652 23.357913,32.3226435 Z"/>
    <path d="M17.2397913 26.9815652C16.3506087 26.4553739 16.350887 26.4549565 16.3513043 26.4544L16.352 26.4531478 16.3536696 26.4502261 16.3582609 26.4425739 16.372313 26.4196174C16.3838609 26.4009739 16.3995826 26.3756522 16.4197565 26.3443478 16.4599652 26.2816 16.5175652 26.1943652 16.593113 26.0859826 16.7442087 25.8693565 16.967513 25.568 17.2674783 25.2104348 17.8668522 24.496 18.7756522 23.5529739 20.0294957 22.6125913 22.5467826 20.7245913 26.4354783 18.8634435 31.9410087 18.8634435 37.4458435 18.8634435 41.362087 20.7240348 43.9065043 22.6088348 45.1742609 23.5479652 46.0973913 24.4894609 46.7076174 25.2027826 47.0130087 25.5597913 47.2407652 25.8604522 47.3952 26.0765217 47.4724174 26.1846261 47.5312696 26.2717217 47.572313 26.3341913 47.5929043 26.3653565 47.6090435 26.3905391 47.6207304 26.4090435L47.6350609 26.4318609 47.6397913 26.439513 47.6414609 26.4422957 47.6422957 26.4435478C47.6425739 26.4441043 47.6428522 26.4445217 46.7602087 26.9815652L47.6428522 26.4445217C47.9394783 26.9320348 47.7846261 27.5677217 47.297113 27.8642087 46.8104348 28.1602783 46.176 28.0065391 45.8788174 27.5208348 45.8786783 27.5205565 45.8785391 27.5202783 45.8784 27.52L45.8779826 27.5193043C45.8778435 27.5190261 45.8775652 27.5187478 45.8774261 27.5184696L45.8742261 27.5133217C45.8689391 27.505113 45.8596174 27.4903652 45.8459826 27.4697739 45.8188522 27.4284522 45.774887 27.3633391 45.7136696 27.2776348 45.5912348 27.1062261 45.4003478 26.8534261 45.1373913 26.5462261 44.6112 25.9311304 43.7999304 25.1014957 42.6764522 24.2693565 40.4386783 22.6116174 36.9452522 20.9298087 31.9410087 20.9298087 26.9373217 20.9298087 23.4753391 22.6112 21.2694261 24.2656 20.1616696 25.096487 19.3655652 25.9247304 18.8506435 26.5385739 18.5933913 26.8452174 18.4070957 27.0974609 18.2878609 27.268313 18.228313 27.3536 18.1856 27.4185739 18.1593043 27.4596174 18.146087 27.4800696 18.1370435 27.4946783 18.1320348 27.502887L18.1275826 27.5102609C17.8362435 27.9993043 17.2040348 28.1608348 16.7137391 27.8707478 16.2226087 27.5802435 16.0601043 26.9465043 16.3506087 26.4553739L17.2397913 26.9815652zM32 41.7121391C31.4945391 41.7121391 31.0848 42.1218783 31.0848 42.6273391 31.0848 43.1326609 31.4945391 43.5424 32 43.5424 32.5054609 43.5424 32.9150609 43.1326609 32.9150609 42.6273391 32.9150609 42.1218783 32.5054609 41.7121391 32 41.7121391zM29.0184348 42.6273391C29.0184348 40.9805913 30.3532522 39.6457739 32 39.6457739 33.6466087 39.6457739 34.9815652 40.9805913 34.9815652 42.6273391 34.9815652 44.2739478 33.6466087 45.6087652 32 45.6087652 30.3533913 45.6087652 29.0184348 44.2739478 29.0184348 42.6273391z"/>
    <path d="M32,2.95206957 C15.957287,2.95206957 2.95206957,15.957287 2.95206957,32 C2.95206957,48.042713 15.957287,61.0479304 32,61.0479304 C48.042713,61.0479304 61.0479304,48.042713 61.0479304,32 C61.0479304,15.957287 48.042713,2.95206957 32,2.95206957 Z M0,32 C0,14.3268174 14.3269565,0 32,0 C49.6730435,0 64,14.3268174 64,32 C64,49.6730435 49.6730435,64 32,64 C14.3269565,64 0,49.6730435 0,32 Z"/>
  </g>
</svg>
