<svg xmlns="http://www.w3.org/2000/svg" width="64" height="64" viewBox="0 0 64 64">
  <g fill="#005473" fill-rule="evenodd">
    <path d="M37.4907826,28.2803478 C36.3266783,28.2803478 35.365287,29.2418783 35.365287,30.4058435 L35.365287,41.269287 C35.365287,42.4333913 36.3266783,43.3947826 37.4907826,43.3947826 L46.4649739,43.3947826 C47.5968,43.3947826 48.5399652,42.4627478 48.5903304,41.252313 L48.5903304,30.4058435 C48.5903304,29.2418783 47.6289391,28.2803478 46.4649739,28.2803478 L37.4907826,28.2803478 Z M33.5941565,30.4058435 C33.5941565,28.2636522 35.3485913,26.5092174 37.4907826,26.5092174 L46.4649739,26.5092174 C48.6071652,26.5092174 50.3616,28.2636522 50.3616,30.4058435 L50.3616,41.269287 C50.3616,41.2798609 50.3614609,41.2904348 50.3610435,41.3008696 C50.2864696,43.3896348 48.6348522,45.1660522 46.4649739,45.1660522 L37.4907826,45.1660522 C35.3485913,45.1660522 33.5941565,43.4116174 33.5941565,41.269287 L33.5941565,30.4058435 Z"/>
    <path d="M37.7860174 24.1478957C37.7860174 23.658713 38.1824 23.2621913 38.6715826 23.2621913L45.2250435 23.2621913C45.7142261 23.2621913 46.1107478 23.658713 46.1107478 24.1478957L46.1107478 27.3950609C46.1107478 27.8842435 45.7142261 28.2806261 45.2250435 28.2806261L38.6715826 28.2806261C38.1824 28.2806261 37.7860174 27.8842435 37.7860174 27.3950609L37.7860174 24.1478957zM39.5571478 25.0334609L39.5571478 26.5094957 44.3394783 26.5094957 44.3394783 25.0334609 39.5571478 25.0334609zM38.2583652 45.165913C37.8669913 45.165913 37.5497739 45.4831304 37.5497739 45.8743652 37.5497739 46.2657391 37.8669913 46.5829565 38.2583652 46.5829565 38.6496 46.5829565 38.9668174 46.2657391 38.9668174 45.8743652 38.9668174 45.4831304 38.6496 45.165913 38.2583652 45.165913zM35.7786435 45.8743652C35.7786435 44.5049043 36.8887652 43.3946435 38.2583652 43.3946435 39.6278261 43.3946435 40.738087 44.5049043 40.738087 45.8743652 40.738087 47.2439652 39.6278261 48.354087 38.2583652 48.354087 36.8887652 48.354087 35.7786435 47.2439652 35.7786435 45.8743652zM45.8745043 45.165913C45.4832696 45.165913 45.1660522 45.4831304 45.1660522 45.8743652 45.1660522 46.2657391 45.4832696 46.5829565 45.8745043 46.5829565 46.2658783 46.5829565 46.5829565 46.2657391 46.5829565 45.8743652 46.5829565 45.4831304 46.2658783 45.165913 45.8745043 45.165913zM43.3947826 45.8743652C43.3947826 44.5049043 44.5050435 43.3946435 45.8745043 43.3946435 47.2439652 43.3946435 48.3542261 44.5049043 48.3542261 45.8743652 48.3542261 47.2439652 47.2439652 48.354087 45.8745043 48.354087 44.5050435 48.354087 43.3947826 47.2439652 43.3947826 45.8743652zM28.1033739 33.8893913C28.1033739 33.4002087 28.4998957 33.003687 28.9889391 33.003687L38.1992348 33.003687C38.6884174 33.003687 39.0849391 33.4002087 39.0849391 33.8893913 39.0849391 34.3784348 38.6884174 34.7749565 38.1992348 34.7749565L28.9889391 34.7749565C28.4998957 34.7749565 28.1033739 34.3784348 28.1033739 33.8893913zM29.4021565 36.7823304C29.4021565 36.293287 29.7986783 35.8967652 30.2878609 35.8967652L38.1992348 35.8967652C38.6884174 35.8967652 39.0849391 36.293287 39.0849391 36.7823304 39.0849391 37.271513 38.6884174 37.6678957 38.1992348 37.6678957L30.2878609 37.6678957C29.7986783 37.6678957 29.4021565 37.271513 29.4021565 36.7823304zM30.8781913 39.6754087C30.8781913 39.1862261 31.274713 38.7897043 31.7638957 38.7897043L38.1992348 38.7897043C38.6884174 38.7897043 39.0848 39.1862261 39.0848 39.6754087 39.0848 40.1644522 38.6884174 40.5609739 38.1992348 40.5609739L31.7638957 40.5609739C31.274713 40.5609739 30.8781913 40.1644522 30.8781913 39.6754087z"/>
    <path d="M24.3837217,17.4760348 C18.3193043,17.4760348 13.4021565,22.3931826 13.4021565,28.4576 C13.4021565,34.5220174 18.3193043,39.4391652 24.3837217,39.4391652 C25.169113,39.4391652 25.9300174,39.3829565 26.6778435,39.2226783 C27.1561739,39.1201391 27.6269913,39.4248348 27.7293913,39.9030261 C27.8319304,40.3812174 27.5272348,40.8520348 27.0490435,40.9545739 C26.1438609,41.1485217 25.2516174,41.2102957 24.3837217,41.2102957 C17.3410783,41.2102957 11.6310261,35.5002435 11.6310261,28.4576 C11.6310261,21.4149565 17.3410783,15.7047652 24.3837217,15.7047652 C26.9248,15.7047652 29.2677565,16.4672 31.2229565,17.6656696 C31.6399304,17.9212522 31.7708522,18.4665043 31.5152696,18.8834783 C31.259687,19.3004522 30.7144348,19.4313739 30.2973217,19.1757913 C28.5921391,18.1306435 26.5659826,17.4760348 24.3837217,17.4760348 Z"/>
    <path d="M24.2066087 17.8301217C24.6957913 17.8301217 25.092313 18.2266435 25.092313 18.7158261L25.092313 20.0146087C25.092313 20.5037913 24.6957913 20.900313 24.2066087 20.900313 23.7175652 20.900313 23.3210435 20.5037913 23.3210435 20.0146087L23.3210435 18.7158261C23.3210435 18.2266435 23.7175652 17.8301217 24.2066087 17.8301217zM13.8745043 29.2249043C13.8745043 28.7358609 14.2710261 28.3393391 14.7602087 28.3393391L16.0589913 28.3393391C16.5481739 28.3393391 16.9446957 28.7358609 16.9446957 29.2249043 16.9446957 29.714087 16.5481739 30.1106087 16.0589913 30.1106087L14.7602087 30.1106087C14.2710261 30.1106087 13.8745043 29.714087 13.8745043 29.2249043zM24.2066087 36.0737391C24.6957913 36.0737391 25.092313 36.4702609 25.092313 36.9593043L25.092313 38.2582261C25.092313 38.7472696 24.6957913 39.1437913 24.2066087 39.1437913 23.7175652 39.1437913 23.3210435 38.7472696 23.3210435 38.2582261L23.3210435 36.9593043C23.3210435 36.4702609 23.7175652 36.0737391 24.2066087 36.0737391zM24.2066087 21.6677565C24.6957913 21.6677565 25.092313 22.0642783 25.092313 22.5534609L25.092313 28.6978783 28.6021565 31.0910609C29.0063304 31.3665391 29.1105391 31.9174957 28.8350609 32.3216696 28.5594435 32.7258435 28.008487 32.8300522 27.6044522 32.5544348L23.707687 29.8976C23.4657391 29.7327304 23.3210435 29.4587826 23.3210435 29.165913L23.3210435 22.5534609C23.3210435 22.0642783 23.7175652 21.6677565 24.2066087 21.6677565z"/>
    <path d="M24.2066087,17.2990609 C18.0242087,17.2990609 13.0479304,22.2752 13.0479304,28.4577391 C13.0479304,34.6373565 18.0804174,39.6164174 24.2066087,39.6164174 C25.2061217,39.6164174 26.1815652,39.505113 27.085913,39.2390957 C27.5550609,39.1010783 28.0474435,39.3696 28.1854609,39.838887 C28.3234783,40.3080348 28.0549565,40.8004174 27.5856696,40.9382957 C26.4826435,41.2627478 25.3325913,41.387687 24.2066087,41.387687 C17.1077565,41.387687 11.2768,35.621287 11.2768,28.4577391 C11.2768,21.297113 17.0459826,15.5277913 24.2066087,15.5277913 C27.9422609,15.5277913 31.3689043,17.1112348 33.7202087,19.7168696 C34.0478609,20.0798609 34.0192,20.6398609 33.6560696,20.9676522 C33.2929391,21.2953043 32.7329391,21.2666435 32.405287,20.903513 C30.3876174,18.667687 27.4377739,17.2990609 24.2066087,17.2990609 Z"/>
    <path d="M35.3062957,18.6569739 C35.7953391,18.6569739 36.1918609,19.0534957 36.1918609,19.5425391 L36.1918609,22.4354783 C36.1918609,22.9246609 35.7953391,23.3211826 35.3062957,23.3211826 L32.5903304,23.3211826 C32.101287,23.3211826 31.7047652,22.9246609 31.7047652,22.4354783 C31.7047652,21.9464348 32.101287,21.549913 32.5903304,21.549913 L34.4205913,21.549913 L34.4205913,19.5425391 C34.4205913,19.0534957 34.817113,18.6569739 35.3062957,18.6569739 Z"/>
    <path d="M32,2.95206957 C15.957287,2.95206957 2.95206957,15.957287 2.95206957,32 C2.95206957,48.042713 15.957287,61.0479304 32,61.0479304 C48.042713,61.0479304 61.0479304,48.042713 61.0479304,32 C61.0479304,15.957287 48.042713,2.95206957 32,2.95206957 Z M0,32 C0,14.3268174 14.3268174,0 32,0 C49.6730435,0 64,14.3268174 64,32 C64,49.6730435 49.6730435,64 32,64 C14.3268174,64 0,49.6730435 0,32 Z"/>
  </g>
</svg>
