<svg width="160" height="160" viewBox="0 0 160 160" fill="none" xmlns="http://www.w3.org/2000/svg">
<rect width="160" height="160" fill="white"/>
<path d="M140 136.25C140 137.516 140 138.734 140 140C100.016 140 59.9844 140 20 140C20 138.734 20 137.516 20 136.25C21.2656 135.828 22.5312 135.078 23.8438 135.031C27.4062 134.844 30.9688 134.984 34.625 134.984C34.6719 134 34.7656 133.297 34.7656 132.594C34.7656 117.594 34.7656 102.641 34.7656 87.6406C34.7656 71.9375 34.7656 56.2812 34.7656 40.5781C34.7656 37.2969 35.3281 36.7812 38.6094 36.7812C41.2344 36.7812 43.8594 36.7812 46.7656 36.7812C46.7656 32.2812 46.6719 28.0156 46.8125 23.75C46.8594 22.4844 47.6562 21.2656 48.125 20C69.3594 20 90.6406 20 111.875 20C112.344 21.2656 113.141 22.4844 113.188 23.75C113.375 28.0156 113.234 32.2812 113.234 36.7812C115.906 36.7812 118.297 36.7812 120.688 36.7812C124.906 36.7812 125.234 37.0625 125.234 41.2812C125.234 71.4688 125.234 101.703 125.234 131.891C125.234 132.875 125.234 133.812 125.234 134.984C129.125 134.984 132.641 134.891 136.156 135.031C137.469 135.078 138.734 135.828 140 136.25ZM50.5625 134.844C50.9844 132.266 51.0781 130.344 48.5 128.891C46.2031 127.578 45.4062 125 45.8281 122.328C46.2969 119.328 46.9062 116.328 47.75 113.422C48.2188 111.828 49.1094 110.234 50.1406 108.922C51.9219 106.625 54.4531 106.672 56.375 108.875C56.9844 109.578 57.6406 110.375 57.875 111.219C58.9062 115.203 60.0312 119.188 60.6875 123.219C61.0625 125.562 59.9844 127.953 57.875 129.031C55.1094 130.438 55.7188 132.5 55.8125 134.797C59.2344 134.797 62.5156 134.797 65.9844 134.797C65.9844 126.266 65.9844 117.922 65.9844 109.578C65.9844 106.766 66.6406 106.062 69.4062 106.062C76.4375 106.016 83.4688 106.016 90.5 106.062C93.4531 106.062 94.0625 106.719 94.0625 109.672C94.0625 117.266 94.0625 124.812 94.0625 132.406C94.0625 133.25 94.0625 134.047 94.0625 134.844C97.6719 134.844 100.906 134.844 104.188 134.844C104.422 132.453 104.891 130.391 102.125 129.031C100.109 128 98.9844 125.703 99.3594 123.453C100.062 119.328 101 115.203 102.219 111.219C102.828 109.203 104.281 107.375 106.766 107.328C109.203 107.328 110.703 109.109 111.312 111.125C112.531 115.109 113.469 119.234 114.172 123.359C114.594 125.75 113.375 128 111.266 129.125C108.5 130.578 109.156 132.641 109.438 134.844C113 134.844 116.375 134.844 119.797 134.844C119.797 103.813 119.797 72.9219 119.797 41.9375C93.0312 41.9375 66.4531 41.9375 39.875 41.9375C39.875 73.0156 39.875 103.906 39.875 134.891C43.5312 134.844 47 134.844 50.5625 134.844ZM51.875 36.6875C70.7188 36.6875 89.3281 36.6875 108.078 36.6875C108.078 32.7969 108.078 29.0469 108.078 25.25C89.2344 25.25 70.5781 25.25 51.875 25.25C51.875 29.0938 51.875 32.75 51.875 36.6875ZM71.1406 134.797C77.1875 134.797 83 134.797 88.8125 134.797C88.8125 126.781 88.8125 119 88.8125 111.125C82.8125 111.125 77 111.125 71.1406 111.125C71.1406 119.094 71.1406 126.875 71.1406 134.797ZM53.8438 113.562C53.4688 113.562 53.0469 113.562 52.6719 113.562C52.0625 116.656 51.3594 119.75 50.8906 122.891C50.6094 124.531 51.5469 125.656 53.2344 125.75C54.9219 125.797 55.9531 124.766 55.7188 123.078C55.1562 119.844 54.4531 116.703 53.8438 113.562ZM107.328 113.516C106.953 113.516 106.531 113.562 106.156 113.562C105.547 116.656 104.844 119.75 104.328 122.844C104.047 124.484 104.984 125.609 106.672 125.656C108.312 125.703 109.391 124.625 109.156 122.984C108.688 119.844 107.938 116.703 107.328 113.516Z" fill="#005473"/>
<path d="M115.015 61.4844C115.015 64.2969 115.062 67.1094 115.015 69.9219C114.969 72.4531 114.265 73.25 111.875 73.25C107.281 73.2969 102.64 73.25 98.0467 73.25C95.9373 73.25 94.9529 72.2188 94.9529 70.0625C94.9998 64.4375 94.9529 58.8125 94.9529 53.1875C94.9529 50.75 95.7498 50 98.1873 50C102.64 50 107.094 50 111.547 50C114.265 50 114.969 50.75 114.969 53.5156C115.062 56.1875 115.015 58.8125 115.015 61.4844ZM100.25 55.1563C100.25 59.6563 100.25 63.9219 100.25 68.0938C103.625 68.0938 106.765 68.0938 109.812 68.0938C109.812 63.6875 109.812 59.4219 109.812 55.1563C106.531 55.1563 103.437 55.1563 100.25 55.1563Z" fill="#005473"/>
<path d="M115.015 88.4376C115.015 91.2501 115.015 94.0626 115.015 96.8751C115.015 98.9844 114.078 100.063 111.922 100.063C107.328 100.063 102.687 100.063 98.0935 100.063C95.9842 100.063 94.9529 99.0782 94.9529 96.9219C94.9998 91.2969 94.9529 85.6719 94.9529 80.0469C94.9529 77.5626 95.7498 76.8126 98.1404 76.7657C102.687 76.7188 107.187 76.7188 111.734 76.7657C114.172 76.7657 114.922 77.5626 114.969 80.0001C115.062 82.8126 115.015 85.6251 115.015 88.4376ZM109.906 81.9688C106.484 81.9688 103.344 81.9688 100.25 81.9688C100.25 86.3751 100.25 90.6407 100.25 94.8594C103.578 94.8594 106.765 94.8594 109.906 94.8594C109.906 90.5001 109.906 86.2813 109.906 81.9688Z" fill="#005473"/>
<path d="M44.7974 61.6719C44.7974 58.7656 44.8442 55.9063 44.7974 53C44.7505 50.9375 45.688 50 47.7505 50C52.438 50.0469 57.1255 50.0469 61.813 50C63.9224 50 64.7661 51.0312 64.7661 53.0469C64.7661 58.7656 64.7192 64.4375 64.7661 70.1562C64.7661 72.3125 63.8286 73.3438 61.6724 73.3438C57.0786 73.3438 52.4849 73.3438 47.8442 73.3438C45.7349 73.3438 44.7036 72.3125 44.7505 70.1562C44.8442 67.2969 44.7974 64.4844 44.7974 61.6719ZM49.9067 55.2031C49.9067 59.6562 49.9067 63.9219 49.9067 68.1406C53.2349 68.1406 56.3755 68.1406 59.6567 68.1406C59.6567 63.7812 59.6567 59.5625 59.6567 55.2031C56.3755 55.2031 53.2349 55.2031 49.9067 55.2031Z" fill="#005473"/>
<path d="M44.7976 88.25C44.7976 85.3438 44.7976 82.4844 44.7976 79.5781C44.7976 77.6094 45.7351 76.7188 47.657 76.7188C52.4383 76.7188 57.1726 76.7188 61.9539 76.7188C63.782 76.7188 64.7195 77.6094 64.7195 79.4375C64.7195 85.3906 64.7195 91.2969 64.7195 97.25C64.7195 99.0781 63.7351 100.016 61.9539 100.016C57.1258 100.063 52.2976 100.063 47.4226 100.016C45.6414 100.016 44.7508 98.9844 44.7508 97.1563C44.7976 94.2031 44.7976 91.25 44.7976 88.25ZM49.8133 94.8594C53.1883 94.8594 56.3758 94.8594 59.657 94.8594C59.657 90.5 59.657 86.2813 59.657 81.9688C56.3289 81.9688 53.1414 81.9688 49.8133 81.9688C49.8133 86.3281 49.8133 90.5 49.8133 94.8594Z" fill="#005473"/>
<path d="M89.9377 88.4843C89.9377 91.3906 89.9377 94.25 89.9377 97.1562C89.9377 99.125 88.9533 100.016 87.0783 100.062C82.3908 100.109 77.7033 100.062 73.0158 100.062C71.0471 100.062 69.969 99.1718 70.0158 97.0625C70.0627 91.2031 70.0158 85.3437 70.0158 79.5312C70.0158 77.7031 70.9065 76.7656 72.7346 76.7656C77.469 76.7656 82.2502 76.7656 86.9846 76.7656C89.0471 76.7656 89.9377 77.8437 89.8908 79.8593C89.9377 82.7187 89.9377 85.625 89.9377 88.4843ZM84.8752 94.8593C84.8752 90.4062 84.8752 86.1875 84.8752 81.9218C81.5471 81.9218 78.4065 81.9218 75.0783 81.9218C75.0783 86.2812 75.0783 90.5 75.0783 94.8593C78.3596 94.8593 81.5471 94.8593 84.8752 94.8593Z" fill="#005473"/>
<path d="M70.0617 61.5782C70.0617 58.6719 70.1086 55.8125 70.0617 52.9063C70.0149 50.8438 71.0461 49.9532 73.0617 49.9532C77.6555 50.0001 82.2492 50.0001 86.843 49.9532C88.9992 49.9532 89.9836 50.9376 89.9367 53.0938C89.8899 58.7657 89.8899 64.4844 89.9367 70.1563C89.9367 72.3594 88.8117 73.25 86.7492 73.25C82.2492 73.25 77.7024 73.2969 73.2024 73.25C70.718 73.2032 70.0617 72.5 70.0149 69.9688C70.0149 67.2032 70.0617 64.3907 70.0617 61.5782ZM84.8742 68.1875C84.8742 63.6876 84.8742 59.4688 84.8742 55.1563C81.5461 55.1563 78.4055 55.1563 75.1711 55.1563C75.1711 59.5626 75.1711 63.8751 75.1711 68.1875C78.4992 68.1875 81.593 68.1875 84.8742 68.1875Z" fill="#005473"/>
</svg>
