<svg xmlns="http://www.w3.org/2000/svg" width="64" height="64" viewBox="0 0 64 64">
  <g fill="#005473" fill-rule="evenodd">
    <path fill-rule="nonzero" d="M32,0 C14.3581217,0 0,14.3581217 0,32 C0,49.6418783 14.3581217,64 32,64 C49.6418783,64 64,49.6418783 64,32 C64,14.3581217 49.6418783,0 32,0 Z M32,61.5895652 C15.6855652,61.5895652 2.44535652,48.3144348 2.44535652,32.0349217 C2.44535652,15.720487 15.720487,2.48027826 32,2.48027826 C48.3144348,2.48027826 61.5546435,15.7554087 61.5546435,32.0349217 C61.5546435,48.3144348 48.279513,61.5895652 32,61.5895652 Z"/>
    <path d="M22.2182957,29.7989565 C21.2751304,29.7989565 20.5414957,30.567513 20.5414957,31.4757565 C20.5414957,32.384 21.3100522,33.1525565 22.2182957,33.1525565 C23.1266783,33.1525565 23.8952348,32.384 23.8952348,31.4757565 C23.8952348,30.567513 23.1616,29.7989565 22.2182957,29.7989565 Z"/>
    <path fill-rule="nonzero" d="M46.5676522,35.0742261 L46.5676522,31.5109565 C46.6025739,31.1266783 46.6025739,29.5197217 45.3449739,28.1572174 C44.4367304,27.1440696 43.1091478,26.5851826 41.3974261,26.4104348 L41.3974261,13.9389217 C41.3974261,11.0393043 39.0568348,8.69871304 36.1572174,8.69871304 L21.4846609,8.69871304 C18.5851826,8.69871304 16.2445913,11.0393043 16.2445913,13.9389217 L16.2445913,49.3625043 C16.2445913,52.2619826 18.5851826,54.602713 21.4846609,54.602713 L36.1572174,54.602713 C38.9519304,54.602713 41.2576,52.366887 41.3974261,49.6069565 L44.786087,49.6069565 C47.0917565,49.6069565 48.9782261,47.720487 48.9782261,45.4148174 L48.9782261,38.882087 C48.9431652,37.205287 47.9650783,35.7380174 46.5676522,35.0742261 Z M43.5283478,29.7641739 C44.1921391,30.462887 44.1222957,31.3363478 44.1222957,31.3363478 L44.1222957,31.4061913 L44.1222957,34.6550261 L41.3974261,34.6550261 L41.3974261,28.8559304 C42.3405913,28.9956174 43.0742261,29.3100522 43.5283478,29.7641739 Z M36.6811826,34.6550261 L36.6811826,31.4760348 L36.6811826,31.4061913 L36.6811826,31.3363478 C36.6811826,31.301287 36.6113391,30.4279652 37.2402087,29.7641739 C37.6594087,29.2751304 38.3930435,28.9956174 39.3362087,28.8559304 L39.3362087,34.6550261 L36.6811826,34.6550261 Z M36.1572174,52.5065739 L21.4846609,52.5065739 C19.7380174,52.5065739 18.3405913,51.1091478 18.3405913,49.3625043 L18.3405913,13.9389217 C18.3405913,12.1921391 19.7380174,10.794713 21.4846609,10.794713 L36.1572174,10.794713 C37.9038609,10.794713 39.301287,12.1921391 39.301287,13.9389217 L39.301287,26.4104348 C37.5895652,26.5851826 36.2619826,27.1791304 35.3886609,28.1572174 C34.2009043,29.5197217 34.2358261,31.0917565 34.2358261,31.5109565 L34.2358261,34.8646957 C32.5939478,35.4235826 31.441113,36.9956174 31.441113,38.8122435 L31.441113,45.3449739 C31.441113,47.6506435 33.3274435,49.537113 35.6332522,49.537113 L39.301287,49.537113 C39.1616,51.2140522 37.7990957,52.5065739 36.1572174,52.5065739 Z"/>
  </g>
</svg>
