<svg width="64" height="64" viewBox="0 0 64 64" fill="none" xmlns="http://www.w3.org/2000/svg">
<path fill-rule="evenodd" clip-rule="evenodd" d="M10.4159 16H46.1455V36.3394C46.1455 37.9317 45.8369 39.5088 45.237 40.9807C44.637 42.4527 43.7572 43.7912 42.647 44.9195C41.5368 46.0477 40.2179 46.9436 38.7652 47.5551C37.3125 48.1666 35.7549 48.4815 34.1815 48.4815H22.38C19.2016 48.4815 16.1568 47.1983 13.9144 44.9195C11.6725 42.6412 10.4159 39.5545 10.4159 36.3394V16ZM12.4159 18V36.3394C12.4159 39.0344 13.4695 41.6158 15.34 43.5167C17.2099 45.417 19.7426 46.4815 22.38 46.4815H34.1815C35.4877 46.4815 36.7816 46.2201 37.9893 45.7117C39.197 45.2033 40.2955 44.4577 41.2215 43.5167C42.1475 42.5756 42.8829 41.4575 43.3849 40.2258C43.8869 38.9941 44.1455 37.6735 44.1455 36.3394V18H12.4159Z" fill="white"/>
<path fill-rule="evenodd" clip-rule="evenodd" d="M44.3982 24.4663C45.7051 22.9616 47.5032 21.9858 49.5313 21.9858C53.8539 21.9858 57.0001 26.2794 57.0001 31.0793C57.0001 35.8798 53.8534 40.1689 49.5313 40.1689C47.5032 40.1689 45.7051 39.1931 44.3982 37.6884L44.1532 37.4063V24.7484L44.3982 24.4663ZM46.1532 25.5116V36.6432C47.109 37.6227 48.2879 38.1689 49.5313 38.1689C52.3547 38.1689 55.0001 35.2156 55.0001 31.0793C55.0001 26.9423 52.3542 23.9858 49.5313 23.9858C48.2879 23.9858 47.109 24.532 46.1532 25.5116Z" fill="white"/>
<path fill-rule="evenodd" clip-rule="evenodd" d="M7 47.6892C7 47.1369 7.44772 46.6892 8 46.6892H50.5765C51.1288 46.6892 51.5765 47.1369 51.5765 47.6892C51.5765 48.2415 51.1288 48.6892 50.5765 48.6892H8C7.44772 48.6892 7 48.2415 7 47.6892Z" fill="white"/>
</svg>
