<svg width="160" height="160" viewBox="0 0 160 160" fill="none" xmlns="http://www.w3.org/2000/svg">
<rect width="160" height="160" fill="white"/>
<path fill-rule="evenodd" clip-rule="evenodd" d="M24.5 34.4092C24.5 32.4762 26.067 30.9092 28 30.9092H131.97C133.903 30.9092 135.47 32.4762 135.47 34.4092V138.33C135.47 140.263 133.903 141.83 131.97 141.83H28C26.067 141.83 24.5 140.263 24.5 138.33V34.4092ZM31.5 37.9092V134.83H128.47V37.9092H31.5Z" fill="#005473"/>
<path fill-rule="evenodd" clip-rule="evenodd" d="M24.5 34.4092C24.5 32.4762 26.067 30.9092 28 30.9092H131.97C133.903 30.9092 135.47 32.4762 135.47 34.4092V62.4881C135.47 64.4211 133.903 65.9881 131.97 65.9881H28C26.067 65.9881 24.5 64.4211 24.5 62.4881V34.4092ZM31.5 37.9092V58.9881H128.47V37.9092H31.5Z" fill="#005473"/>
<path fill-rule="evenodd" clip-rule="evenodd" d="M48.6397 17.5C50.5727 17.5 52.1397 19.067 52.1397 21V45.7668C52.1397 47.6998 50.5727 49.2668 48.6397 49.2668C46.7067 49.2668 45.1397 47.6998 45.1397 45.7668V21C45.1397 19.067 46.7067 17.5 48.6397 17.5Z" fill="#005473"/>
<path fill-rule="evenodd" clip-rule="evenodd" d="M111.022 17.5C112.955 17.5 114.522 19.067 114.522 21V45.7668C114.522 47.6998 112.955 49.2668 111.022 49.2668C109.089 49.2668 107.522 47.6998 107.522 45.7668V21C107.522 19.067 109.089 17.5 111.022 17.5Z" fill="#005473"/>
<path fill-rule="evenodd" clip-rule="evenodd" d="M79.9488 79.7839C78.5533 82.6085 77.1482 85.4283 75.7335 88.2433L75.7303 88.2498L75.7269 88.2563C75.4546 88.7927 75.0727 89.2658 74.606 89.6453C74.1393 90.0247 73.5982 90.3018 73.0179 90.4589L72.8268 90.5107L72.631 90.5405C70.7547 90.8268 68.8715 91.096 67.0047 91.3629C66.3171 91.4612 65.6318 91.5592 64.9498 91.6576C64.9497 91.6576 64.9499 91.6576 64.9498 91.6576L64.7169 91.6913C64.2188 91.7632 63.7221 91.8349 63.2265 91.9068L69.8666 98.351C70.3755 98.7928 70.7712 99.3528 71.0175 99.984C71.2993 100.706 71.3741 101.492 71.234 102.254C70.6955 105.332 70.1608 108.413 69.6299 111.498C72.3929 110.042 75.1535 108.586 77.9118 107.13C78.5475 106.77 79.2661 106.58 79.9982 106.58C80.7302 106.58 81.4489 106.77 82.0846 107.13C84.8359 108.582 87.5908 110.035 90.3472 111.487C89.8268 108.462 89.302 105.438 88.7729 102.415C88.6239 101.706 88.6572 100.969 88.871 100.274C89.0941 99.5494 89.5053 98.8976 90.0618 98.3846C91.5643 96.9502 93.0521 95.5018 94.5521 94.0416C94.8051 93.7953 95.0585 93.5487 95.3123 93.3017C95.3147 93.2994 95.3171 93.297 95.3195 93.2947L96.7234 91.9129C96.4938 91.88 96.2642 91.8472 96.0345 91.8144C93.1319 91.3994 90.2178 90.9828 87.3097 90.549L87.1664 90.5276L87.0253 90.4944C86.4612 90.3619 85.9293 90.1174 85.4613 89.7756C84.9932 89.4337 84.5985 89.0013 84.3005 88.504L84.2809 88.4712L84.262 88.4381C83.9585 87.9055 83.6801 87.3262 83.4697 86.8885C83.4225 86.7904 83.3787 86.6993 83.3389 86.6175C82.2036 84.3418 81.0736 82.0639 79.9488 79.7839ZM79.5731 70.5429C80.692 70.4604 81.8078 70.7407 82.755 71.3425C83.6448 71.9079 84.3413 72.7288 84.7544 73.6956C86.3619 76.9703 87.9804 80.2407 89.6097 83.5068L89.6165 83.5204L89.6232 83.5341C89.6759 83.6421 89.7246 83.7427 89.7703 83.8372C92.1801 84.1922 94.5931 84.5371 97.0152 84.8834C97.7167 84.9837 98.4189 85.0841 99.1221 85.1849L99.1362 85.1869L101.246 85.5068C102.245 85.6257 103.188 86.0372 103.956 86.6913C104.735 87.3552 105.297 88.2374 105.568 89.2234C105.842 90.1603 105.844 91.1561 105.574 92.095C105.31 93.013 104.797 93.8387 104.093 94.4812L100.208 98.3048L100.201 98.3119C99.9472 98.5587 99.6931 98.8061 99.4385 99.0539C98.2662 100.195 97.0838 101.346 95.8926 102.492C96.4695 105.796 97.0413 109.102 97.6079 112.41L97.6106 112.425L97.6132 112.441C97.6577 112.717 97.6883 112.876 97.7237 113.061C97.7527 113.212 97.785 113.381 97.831 113.644C98.042 114.601 97.9793 115.6 97.6482 116.525C97.2972 117.505 96.661 118.358 95.8217 118.973C94.9823 119.589 93.9781 119.939 92.9382 119.98C91.9504 120.018 90.973 119.775 90.1194 119.28C86.7448 117.502 83.3693 115.723 79.9982 113.944C76.632 115.72 73.2623 117.497 69.8892 119.274C69.2518 119.648 68.5412 119.883 67.8047 119.962C67.0075 120.047 66.2015 119.946 65.4498 119.668C64.6979 119.389 64.0206 118.941 63.4708 118.357C62.9211 117.773 62.5138 117.07 62.2809 116.303L62.2647 116.249L62.2503 116.196C62.1614 115.865 62.0949 115.529 62.0513 115.189L61.9854 114.675L62.0712 114.164C62.2403 113.157 62.4159 112.138 62.597 111.092C63.09 108.223 63.5863 105.357 64.0858 102.495L55.9344 94.5845C55.3598 94.0764 54.9005 93.4503 54.5883 92.7481C54.2526 91.9931 54.0961 91.1707 54.1311 90.345L54.1337 90.2833L54.1385 90.2218C54.2282 89.0686 54.704 87.9796 55.4888 87.1304C56.2736 86.2813 57.3215 85.7215 58.4633 85.541L58.472 85.5396C60.2228 85.2674 61.9775 85.0141 63.7048 84.7648L63.9495 84.7295C64.6516 84.6282 65.3495 84.5284 66.0441 84.4291C67.4075 84.2341 68.7595 84.0409 70.1111 83.8406C71.8029 80.4657 73.4808 77.0838 75.1449 73.695C75.5112 72.8458 76.0962 72.1076 76.8415 71.5565C77.6374 70.9678 78.5837 70.6165 79.5707 70.5431L79.5731 70.5429Z" fill="#005473"/>
</svg>
