<svg width="64" height="64" viewBox="0 0 64 64" fill="none" xmlns="http://www.w3.org/2000/svg">
<path fill-rule="evenodd" clip-rule="evenodd" d="M15.9731 19C15.427 19 14.9153 19.2039 14.5477 19.5484C14.1823 19.8908 13.9902 20.3409 13.9902 20.7953V28.7542H49.1344V20.7953C49.1344 20.3409 48.9423 19.8908 48.5769 19.5484C48.2093 19.2039 47.6976 19 47.1515 19H15.9731ZM13.1801 18.0891C13.9312 17.3851 14.9369 17 15.9731 17H47.1515C48.1876 17 49.1933 17.3851 49.9445 18.0891C50.6979 18.7951 51.1344 19.767 51.1344 20.7953V30.7542H11.9902V20.7953C11.9902 19.767 12.4267 18.7951 13.1801 18.0891Z" fill="white"/>
<path fill-rule="evenodd" clip-rule="evenodd" d="M11.7589 30.8131C11.2776 30.8131 11 31.1636 11 31.4615V41.2334C11 41.5313 11.2776 41.8818 11.7589 41.8818H51.3658C51.8471 41.8818 52.1248 41.5313 52.1248 41.2334V31.4615C52.1248 31.1636 51.8471 30.8131 51.3658 30.8131H11.7589ZM9 31.4615C9 29.9387 10.2974 28.8131 11.7589 28.8131H51.3658C52.8274 28.8131 54.1248 29.9387 54.1248 31.4615V41.2334C54.1248 42.7562 52.8274 43.8818 51.3658 43.8818H11.7589C10.2974 43.8818 9 42.7562 9 41.2334V31.4615Z" fill="white"/>
<path fill-rule="evenodd" clip-rule="evenodd" d="M45.4847 43.8743C45.4448 43.9116 45.4362 43.9455 45.4362 43.9697V45.0757C45.4362 45.0999 45.4448 45.1338 45.4847 45.1711C45.5256 45.2095 45.5927 45.2425 45.6813 45.2425H48.8892C48.9777 45.2425 49.0449 45.2095 49.0858 45.1711C49.1256 45.1338 49.1343 45.0999 49.1343 45.0757V43.9697C49.1343 43.9455 49.1256 43.9116 49.0858 43.8743C49.0449 43.8359 48.9777 43.8029 48.8892 43.8029H45.6813C45.5927 43.8029 45.5256 43.8359 45.4847 43.8743ZM43.4362 43.9697C43.4362 42.7128 44.5035 41.8029 45.6813 41.8029H48.8892C50.067 41.8029 51.1343 42.7128 51.1343 43.9697V45.0757C51.1343 46.3326 50.067 47.2425 48.8892 47.2425H45.6813C44.5035 47.2425 43.4362 46.3326 43.4362 45.0757V43.9697Z" fill="white"/>
<path fill-rule="evenodd" clip-rule="evenodd" d="M14.0387 43.8743C13.9989 43.9116 13.9902 43.9455 13.9902 43.9697V45.0757C13.9902 45.0999 13.9989 45.1338 14.0387 45.1711C14.0797 45.2095 14.1468 45.2425 14.2354 45.2425H17.4432C17.5318 45.2425 17.5989 45.2095 17.6399 45.1711C17.6797 45.1338 17.6884 45.0999 17.6884 45.0757V43.9697C17.6884 43.9455 17.6797 43.9116 17.6399 43.8743C17.5989 43.8359 17.5318 43.8029 17.4432 43.8029H14.2354C14.1468 43.8029 14.0797 43.8359 14.0387 43.8743ZM11.9902 43.9697C11.9902 42.7128 13.0576 41.8029 14.2354 41.8029H17.4432C18.621 41.8029 19.6884 42.7128 19.6884 43.9697V45.0757C19.6884 46.3326 18.621 47.2425 17.4432 47.2425H14.2354C13.0576 47.2425 11.9902 46.3326 11.9902 45.0757V43.9697Z" fill="white"/>
<path fill-rule="evenodd" clip-rule="evenodd" d="M19.8356 25.4153C19.7958 25.4526 19.7871 25.4865 19.7871 25.5107V28.3881C19.7871 28.4123 19.7958 28.4462 19.8356 28.4835C19.8765 28.5219 19.9437 28.555 20.0322 28.555H26.9643C27.0528 28.555 27.12 28.5219 27.1609 28.4835C27.2007 28.4462 27.2094 28.4123 27.2094 28.3881V25.5107C27.2094 25.4865 27.2007 25.4526 27.1609 25.4153C27.12 25.3769 27.0528 25.3439 26.9643 25.3439H20.0322C19.9437 25.3439 19.8765 25.3769 19.8356 25.4153ZM17.7871 25.5107C17.7871 24.2538 18.8544 23.3439 20.0322 23.3439H26.9643C28.1421 23.3439 29.2094 24.2538 29.2094 25.5107V28.3881C29.2094 29.645 28.1421 30.555 26.9643 30.555H20.0322C18.8544 30.555 17.7871 29.645 17.7871 28.3881V25.5107Z" fill="white"/>
<path fill-rule="evenodd" clip-rule="evenodd" d="M35.9635 25.4153C35.9237 25.4526 35.915 25.4865 35.915 25.5107V28.3881C35.915 28.4123 35.9237 28.4462 35.9635 28.4835C36.0045 28.5219 36.0716 28.555 36.1602 28.555H43.0922C43.1808 28.555 43.2479 28.5219 43.2889 28.4835C43.3287 28.4462 43.3374 28.4123 43.3374 28.3881V25.5107C43.3374 25.4865 43.3287 25.4526 43.2889 25.4153C43.2479 25.3769 43.1808 25.3439 43.0922 25.3439H36.1602C36.0716 25.3439 36.0045 25.3769 35.9635 25.4153ZM33.915 25.5107C33.915 24.2538 34.9824 23.3439 36.1602 23.3439H43.0922C44.27 23.3439 45.3374 24.2538 45.3374 25.5107V28.3881C45.3374 29.645 44.27 30.555 43.0922 30.555H36.1602C34.9824 30.555 33.915 29.645 33.915 28.3881V25.5107Z" fill="white"/>
<path fill-rule="evenodd" clip-rule="evenodd" d="M9 38.4762H54.1248V41.4678C54.1248 42.7415 53.124 43.8737 51.7884 43.8737H11.3364C10.0024 43.8737 9 42.7467 9 41.4678V38.4762ZM11 40.4762V41.4678C11 41.7378 11.2003 41.8737 11.3364 41.8737H51.7884C51.923 41.8737 52.1248 41.7359 52.1248 41.4678V40.4762H11Z" fill="white"/>
</svg>
