<svg width="96" height="96" viewBox="0 0 96 96" fill="none" xmlns="http://www.w3.org/2000/svg">
<path d="M3 48.2527C4.27134 47.1029 5.73394 46.3145 7.46657 46.0079C9.63797 45.6246 12.3607 46.643 13.7108 48.3732C12.1131 49.972 10.2343 50.9356 7.87159 50.7057C6.09397 50.5414 4.54136 49.7858 3.22502 48.6032C3.15751 48.5484 3.0675 48.5156 3 48.4718C3 48.3951 3 48.3294 3 48.2527Z" fill="#005473"/>
<path d="M82.2892 48.6149C83.5606 47.4651 85.0232 46.6767 86.7558 46.3701C88.9272 45.9868 91.6499 47.0052 93 48.7354C91.4024 50.3342 89.5235 51.2978 87.1608 51.0678C85.3832 50.9036 83.8306 50.148 82.5142 48.9653C82.4467 48.9106 82.3567 48.8777 82.2892 48.8339C82.2892 48.7573 82.2892 48.6916 82.2892 48.6149Z" fill="#005473"/>
<path d="M47.6665 5C47.7678 5.1314 47.8578 5.2628 47.959 5.38325C50.4342 8.25219 50.9518 12.0519 47.779 15.2274C47.7115 15.2931 47.644 15.3479 47.5315 15.4464C46.3839 14.4062 45.5289 13.2126 45.2138 11.7234C44.6625 9.0844 45.6189 6.90532 47.4415 5C47.5203 5 47.5878 5 47.6665 5Z" fill="#005473"/>
<path d="M61.4011 15.5017C62.5036 14.9104 63.6175 14.6257 64.7538 14.9871C65.4176 15.1951 66.0364 15.5674 66.6102 15.9507C66.9702 16.1916 67.1952 16.2901 67.6228 16.0711C69.0291 15.3484 70.5142 14.9323 72.1118 15.3046C72.6294 15.4251 73.1132 15.6879 73.6982 15.9178C73.2819 16.3668 72.9444 16.7172 72.6181 17.0785C70.6942 19.2357 69.2541 21.6447 68.8491 24.5245C68.7366 25.3129 68.7928 26.1232 68.7928 26.9226C68.7928 27.3496 68.9841 27.5467 69.4679 27.5796C72.5394 27.8095 75.2171 26.8021 77.6922 25.1706C78.7498 24.4588 79.7174 23.6157 80.775 22.8054C81.4162 23.5828 81.6413 24.5026 81.54 25.51C81.4275 26.6598 80.9437 27.6781 80.3249 28.6527C80.2349 28.795 80.2012 29.0907 80.2912 29.1892C81.7988 30.8536 82.1138 32.6823 81.1125 34.7518C83.4301 35.5621 84.5552 37.1827 84.5665 39.5261C86.9291 40.0736 89.033 40.8291 89.5618 43.3586C87.7842 43.6433 86.0291 43.8075 84.3302 44.2127C81.9 44.793 79.7736 45.9537 78.1085 47.8371C77.7935 48.1985 77.7822 48.4503 78.0973 48.8117C79.7174 50.706 81.7875 51.9105 84.2064 52.4909C85.7253 52.8522 87.3004 52.9617 88.853 53.1807C89.033 53.2026 89.2243 53.2026 89.4268 53.2136C89.2693 54.44 88.6393 55.3926 87.6492 56.0277C86.8391 56.5533 85.9053 56.9147 85.0053 57.3198C84.7577 57.4293 84.544 57.4841 84.5327 57.8235C84.454 59.8493 83.4639 61.229 81.4725 61.886C81.4275 61.8969 81.3825 61.9517 81.315 61.9955C82.3838 63.9993 81.945 65.7623 80.3699 67.35C81.45 69.4086 82.1813 71.4891 80.73 73.7668C80.5162 73.5697 80.3362 73.4273 80.1674 73.2631C77.8497 71.1607 75.2396 69.5729 72.0443 69.102C71.2793 68.9925 70.4805 69.0144 69.6929 69.0254C68.8491 69.0473 68.8153 69.113 68.7703 69.9561C68.6578 71.9491 69.1529 73.8215 70.0304 75.6173C70.863 77.3255 72.0106 78.8366 73.3494 80.2054C73.4732 80.3368 73.5969 80.4682 73.7207 80.5996C72.4831 81.8807 70.5255 81.7055 67.319 80.0411C65.6201 81.6508 63.6625 82.045 61.5361 81.0814C61.086 81.7384 60.726 82.3954 60.2422 82.9538C59.4322 83.8736 58.3296 84.2897 57.1145 84.3445C56.6195 84.3664 56.4619 84.5197 56.3607 84.9905C56.0794 86.3155 55.5394 87.5309 54.4368 88.4288C53.8518 88.9106 53.278 89.1406 52.4567 89.2282C52.4004 88.4179 52.3667 87.6076 52.2654 86.8082C51.9391 84.0817 51.0953 81.5413 49.2727 79.3841C48.8677 78.9133 48.3726 78.5081 47.9338 78.0701C47.6413 77.7854 47.3938 77.8073 47.0675 78.0592C45.5599 79.2308 44.5248 80.72 43.7823 82.4282C42.9835 84.2678 42.6122 86.1841 42.5334 88.166C42.5222 88.4726 42.4884 88.7792 42.4547 89.1296C41.3184 88.9873 40.4633 88.4398 39.7545 87.6514C39.0119 86.8301 38.5394 85.8556 38.2244 84.8153C38.1344 84.5306 38.0331 84.3773 37.7068 84.3664C35.6029 84.2788 34.1853 83.2933 33.544 81.3113C33.5328 81.2566 33.4878 81.2128 33.4428 81.1361C33.0265 81.2566 32.6102 81.4099 32.1827 81.4975C30.7088 81.8041 29.37 81.4646 28.2562 80.512C27.7611 80.0959 27.4574 80.1287 26.9398 80.4463C25.736 81.1909 24.4084 81.6617 22.9458 81.388C22.3607 81.2785 21.8207 80.9938 21.1569 80.7419C21.4382 80.4353 21.5957 80.2601 21.7645 80.0849C23.9359 77.8073 25.5897 75.2669 26.096 72.1352C26.231 71.3139 26.1523 70.4708 26.1973 69.6276C26.2198 69.1568 25.9498 69.0473 25.5447 69.0144C23.6546 68.8173 21.8545 69.1568 20.1106 69.8466C18.0854 70.646 16.3416 71.8615 14.7664 73.3178C14.6202 73.4492 14.4627 73.5806 14.3052 73.7229C13.3826 72.4965 13.2701 71.1606 13.6414 69.7809C13.8326 69.0692 14.1927 68.3903 14.4514 67.6895C14.5077 67.5252 14.5302 67.2405 14.4289 67.131C13.0001 65.5761 12.6963 63.8679 13.6976 61.9626C13.6301 61.9188 13.5739 61.8641 13.5176 61.8422C11.5825 61.2071 10.6149 59.8493 10.4911 57.9221C10.4686 57.495 10.2886 57.3855 9.9286 57.276C8.556 56.849 7.26216 56.2358 6.40709 55.0641C6.01332 54.5385 5.7883 53.8925 5.45078 53.2355C6.64336 53.126 7.66718 53.0822 8.67976 52.9289C11.8525 52.4471 14.6877 51.3083 16.8591 48.8664C17.2416 48.4284 17.2304 48.1328 16.8478 47.7167C15.059 45.7676 12.7863 44.6178 10.2099 44.0594C8.67976 43.7309 7.1159 43.5995 5.54078 43.3695C5.38327 41.7599 7.26216 40.2488 10.4574 39.5151C10.4911 37.2047 11.5712 35.5402 13.9114 34.7409C12.8988 32.5618 13.2476 30.6565 14.9352 28.9812C13.6639 26.9992 12.7413 24.9844 14.2152 22.7835C15.4302 23.6923 16.5553 24.6231 17.7817 25.4224C19.7393 26.7036 21.9107 27.4701 24.2959 27.5905C24.8022 27.6124 25.3085 27.5796 25.8035 27.5029C25.961 27.481 26.1748 27.2182 26.1973 27.043C26.501 25.2034 26.1185 23.4514 25.4435 21.7542C24.6447 19.7722 23.4071 18.064 21.9332 16.5201C21.7645 16.3449 21.6069 16.1806 21.4157 15.9726C22.7095 15.0418 24.0934 14.9761 25.5222 15.3375C26.2423 15.5236 26.9061 15.8631 27.6149 16.104C27.7836 16.1587 28.0762 16.1806 28.1887 16.0821C29.7975 14.6914 31.5414 14.4067 33.499 15.3813C33.544 15.3046 33.6003 15.2608 33.6228 15.1951C34.2416 13.3555 35.5917 12.4029 37.5381 12.2605C38.0444 12.2167 38.2131 12.0306 38.3594 11.5926C38.7532 10.3552 39.372 9.23831 40.4183 8.39516C41.0033 7.91336 41.6671 7.60676 42.4997 7.48631C42.5785 8.38421 42.6235 9.24926 42.736 10.1034C43.141 13.1037 44.1648 15.8521 46.4712 17.9874C47.6976 19.1152 47.4726 19.0605 48.6201 17.9764C50.5665 16.1368 51.5904 13.7935 52.0741 11.2312C52.3104 9.98291 52.4004 8.70176 52.5579 7.38776C53.3567 7.43156 54.0543 7.78196 54.6506 8.32946C55.6744 9.27116 56.1469 10.4866 56.462 11.7787C56.507 11.943 56.687 12.1948 56.822 12.1948C59.0159 12.37 60.591 13.3665 61.4011 15.5017ZM47.6076 64.9958C47.6301 65.0505 47.6976 65.2148 47.7651 65.379C49.3064 69.1568 51.2191 72.7046 54.1668 75.6392C55.8769 77.3474 57.8345 78.6943 60.1972 79.417C60.636 79.5484 60.8948 79.5046 61.1198 79.0666C62.0649 77.3036 62.5149 75.4202 62.6274 73.4492C62.8187 70.1423 62.1436 66.9558 61.041 63.846C60.5797 62.5649 60.051 61.3056 59.5334 59.9916C59.7809 60.0902 59.9835 60.1668 60.186 60.2544C63.9212 61.8203 67.769 62.9919 71.8868 63.0686C74.3957 63.1124 76.8034 62.7291 79.0648 61.5903C79.5149 61.3604 79.6161 61.1304 79.4586 60.6596C78.6373 58.152 77.0734 56.1372 75.1158 54.3743C72.2693 51.812 68.8941 50.0928 65.3276 48.6912C65.0576 48.5817 64.7876 48.4722 64.4275 48.3299C64.72 48.2094 64.9226 48.1328 65.1251 48.0561C68.5566 46.7312 71.8081 45.0996 74.6095 42.7235C76.7472 40.9167 78.491 38.8253 79.3911 36.1534C79.6499 35.376 79.6499 35.365 78.9073 35.0037C75.9596 33.5692 72.8431 33.3721 69.6479 33.7444C66.2952 34.1386 63.1224 35.157 60.0285 36.46C59.8709 36.5257 59.7134 36.5805 59.4772 36.679C59.6122 36.3724 59.6909 36.1972 59.7697 36.0111C61.3336 32.4742 62.5149 28.8388 62.6499 24.9516C62.7399 22.3674 62.3686 19.8598 61.086 17.5384C60.8948 17.188 60.6923 17.0895 60.2872 17.2099C58.0258 17.8779 56.1357 19.1262 54.4706 20.7139C51.7141 23.331 49.8465 26.5174 48.3276 29.9229C48.0576 30.5361 47.7988 31.1602 47.5063 31.861C47.3825 31.5763 47.3038 31.3792 47.225 31.1821C45.7849 27.6343 43.9848 24.2836 41.2959 21.4585C39.5745 19.6408 37.5943 18.1626 35.1529 17.3523C34.1966 17.0347 34.1853 17.0347 33.7578 17.8888C32.2165 20.9658 32.1152 24.207 32.6215 27.5139C33.0828 30.5251 34.0728 33.3831 35.3329 36.1644C35.4004 36.3067 35.4342 36.4491 35.4904 36.6024C35.4004 36.6133 35.3892 36.6134 35.3667 36.6134C34.9054 36.4272 34.4329 36.2301 33.9716 36.0439C30.2701 34.5766 26.456 33.5364 22.417 33.5911C20.1218 33.624 17.9167 34.051 15.869 35.1241C15.5203 35.3103 15.4077 35.4855 15.5315 35.8906C15.9703 37.3032 16.6678 38.5844 17.5679 39.767C19.9756 42.9206 23.2383 45.0339 26.8048 46.7421C28.0087 47.3115 29.2575 47.8043 30.4726 48.3408C30.4501 48.3737 30.4276 48.4065 30.4051 48.4175C30.2476 48.4832 30.09 48.5379 29.9325 48.6036C26.2535 50.0271 22.777 51.7901 19.8518 54.429C17.9279 56.1701 16.3978 58.163 15.5765 60.6267C15.419 61.1085 15.4865 61.3604 15.9815 61.6122C18.7155 62.981 21.6294 63.2547 24.6222 63.0029C28.0874 62.7182 31.3726 61.7108 34.5566 60.3858C34.8491 60.2654 35.1529 60.1449 35.5579 59.9807C35.3329 60.4953 35.1529 60.8895 34.9842 61.2947C33.2628 65.4009 32.0364 69.5948 32.4527 74.1062C32.6215 75.8801 33.0828 77.5774 33.9603 79.1651C34.1403 79.4936 34.3541 79.625 34.7141 79.4717C35.4679 79.1651 36.2667 78.9242 36.9868 78.541C40.1145 76.8985 42.4097 74.4019 44.1648 71.4672C45.4362 69.3539 46.4825 67.131 47.6076 64.9958Z" fill="#005473"/>
<path d="M71.4171 24.9613C71.3833 22.9575 71.9121 21.1398 73.4422 19.6945C74.8598 18.3586 76.6375 17.7783 78.5726 17.6469C78.8314 17.625 79.0227 17.6797 79.0452 18.0191C79.3152 21.7968 75.3999 25.4868 71.5634 25.0379C71.5296 25.027 71.5071 25.0051 71.4171 24.9613Z" fill="#005473"/>
<path d="M71.4252 71.6211C75.7342 71.2817 79.3907 74.8405 78.997 78.9907C77.1068 79.0126 75.3967 78.487 73.9229 77.3481C72.044 75.8917 71.4027 73.9097 71.4252 71.6211Z" fill="#005473"/>
<path d="M23.6472 71.6196C23.636 74.0615 22.9159 76.1311 20.8233 77.5765C19.5632 78.4525 18.1231 78.8796 16.5817 79C16.2217 79.0329 16.0192 78.9562 16.0304 78.5401C16.143 75.0689 18.6181 71.3239 23.6472 71.6196Z" fill="#005473"/>
<path d="M47.5208 81.2226C50.986 84.3104 50.5248 88.4385 47.8583 91.384C47.6108 91.6577 47.4195 91.6358 47.1833 91.373C44.6406 88.6246 43.9431 84.4199 47.5208 81.2226Z" fill="#005473"/>
<path d="M23.6127 25.0055C20.6538 25.3668 17.7511 23.6477 16.6485 20.8226C16.311 19.9684 16.221 19.0267 16.0297 18.1179C15.9622 17.8222 16.0972 17.6361 16.446 17.6251C20.395 17.5156 23.8265 20.9211 23.6465 24.7646C23.6577 24.8412 23.6352 24.9069 23.6127 25.0055Z" fill="#005473"/>
</svg>
