<svg width="64" height="64" viewBox="0 0 64 64" fill="none" xmlns="http://www.w3.org/2000/svg">
<path d="M20.7295 39.5809C18.1258 39.5809 15.6053 39.5915 13.0953 39.5703C12.6474 39.5703 12.1892 39.5386 11.7517 39.4434C9.22087 38.8723 7.62737 36.4399 8.07522 33.8383C8.16895 33.2672 8.31476 32.7067 8.43974 32.1356C8.93967 29.8724 10.252 28.2543 12.2517 27.1862C12.9703 26.8055 13.6889 26.4142 14.3138 26.0863C14.0118 25.0711 13.5952 24.1087 13.439 23.104C12.8245 19.3496 15.5845 15.6164 19.3131 15.0876C23.9269 14.4319 27.843 18.144 27.3952 22.8607C27.1348 25.6527 25.635 27.6727 23.0937 28.7408C20.5004 29.8301 18.0633 29.4071 15.8761 27.6092C15.5636 27.3554 15.3553 27.3131 15.0221 27.514C14.2201 27.9794 13.3973 28.3812 12.5954 28.836C11.106 29.6821 10.2624 31.004 9.91868 32.675C9.82495 33.1403 9.71038 33.6056 9.63748 34.071C9.28336 36.1649 10.679 37.9522 12.762 37.984C15.7303 38.0263 18.6986 37.9945 21.6669 37.9945C21.8023 37.9945 21.9481 37.9628 22.0522 37.8994C23.3437 37.1168 24.6248 36.3236 25.9162 35.5304C25.9579 35.4987 25.9995 35.467 26.0412 35.4352C23.802 31.5328 25.4059 27.6938 27.6868 25.9383C30.3426 23.8866 33.9254 23.9183 36.4979 26.0546C38.8934 28.0534 40.0703 31.8395 37.9873 35.4247C38.9559 35.9746 39.9245 36.5245 40.8827 37.0745C40.9868 37.1379 41.1118 37.1908 41.1847 37.2754C41.8304 38.0157 42.6636 38.0263 43.5489 38.0051C46.0173 37.9734 48.4753 37.9945 50.9436 37.9945C53.3807 37.9945 54.8076 36.239 54.3285 33.8171C54.2452 33.373 54.1619 32.9182 54.0577 32.474C53.6515 30.6973 52.61 29.4282 51.0269 28.5928C50.3083 28.212 49.5793 27.8419 48.8606 27.44C48.6002 27.292 48.444 27.3448 48.2253 27.5352C46.0694 29.3648 43.6322 29.8301 41.0285 28.7831C38.4872 27.7679 37.0187 25.7691 36.6229 23.0194C36.0917 19.2756 38.8309 15.6164 42.5074 15.077C46.4131 14.506 49.9959 17.171 50.5687 21.0417C50.8291 22.8079 50.4645 24.4365 49.5584 26.0017C49.7771 26.1286 49.9854 26.245 50.1833 26.3507C50.8499 26.7209 51.5269 27.0699 52.1934 27.4506C54.1202 28.5505 55.1826 30.2743 55.6512 32.4317C55.8804 33.4787 56.1303 34.5363 55.922 35.615C55.4534 37.9734 53.5474 39.5492 51.1207 39.5597C48.7044 39.5703 46.2985 39.5597 43.8822 39.5597C43.6947 39.5597 43.5073 39.5597 43.424 39.5597C43.726 40.8288 44.1009 42.0556 44.3196 43.3035C44.83 46.2859 42.6637 48.9509 39.6745 48.9721C34.5711 49.0144 29.4678 49.0038 24.3644 48.9721C21.6669 48.9615 19.4172 46.6454 19.6464 44.0121C19.7609 42.7007 20.2192 41.4211 20.5316 40.1203C20.542 39.9722 20.6358 39.8241 20.7295 39.5809ZM31.9882 47.428C34.5087 47.428 37.0187 47.4386 39.5391 47.428C41.1951 47.4175 42.5387 46.3388 42.7678 44.7207C42.8615 44.065 42.7157 43.3564 42.6116 42.6901C42.2991 40.6596 41.3513 39.0521 39.5079 38.0791C38.7372 37.6773 37.9769 37.2542 37.1957 36.8735C37.0603 36.8101 36.7896 36.8418 36.6646 36.937C33.7275 39.3482 30.2176 39.3482 27.3327 36.9475C27.2077 36.8418 26.9161 36.8101 26.7598 36.8841C26.0412 37.2225 25.3434 37.6244 24.6352 37.9945C22.875 38.9041 21.8127 40.3318 21.4586 42.3094C21.3857 42.6901 21.3128 43.0709 21.2503 43.4516C20.8753 45.7042 22.2814 47.4175 24.5414 47.428C27.0202 47.428 29.499 47.428 31.9882 47.428ZM32.0299 37.1591C35.0294 37.1379 37.4874 34.6209 37.4874 31.5857C37.4874 28.5187 35.0086 26.0017 31.9882 26.0017C28.9887 26.0017 26.4682 28.561 26.4995 31.6068C26.5307 34.6844 29.0095 37.1802 32.0299 37.1591ZM25.8746 22.205C25.9058 19.1275 23.4687 16.6105 20.4275 16.5788C17.4488 16.5471 14.9387 19.0641 14.9179 22.0887C14.8971 25.1874 17.303 27.6833 20.3442 27.7361C23.3437 27.789 25.8433 25.2826 25.8746 22.205ZM38.1123 22.1522C38.1227 25.2403 40.5702 27.7256 43.601 27.7361C46.5901 27.7467 49.0793 25.2191 49.0689 22.1839C49.0689 19.0746 46.6005 16.5576 43.5489 16.5788C40.5598 16.5894 38.1123 19.1064 38.1123 22.1522Z" fill="white"/>
</svg>
