<svg xmlns="http://www.w3.org/2000/svg" width="64" height="64" viewBox="0 0 64 64">
  <g fill="#005473" fill-rule="evenodd">
    <path fill-rule="nonzero" d="M32,0 C14.3581217,0 0,14.3581217 0,32 C0,49.6418783 14.3581217,64 32,64 C49.6418783,64 64,49.6418783 64,32 C64,14.3581217 49.6418783,0 32,0 Z M32,61.5546435 C29.6594087,61.5546435 27.3886609,61.2751304 25.2226783,60.7510261 L25.2226783,53.904 L23.8253913,53.904 L23.8253913,60.4018087 C11.4934261,56.8384 2.44535652,45.4497391 2.44535652,32 C2.44535652,18.5502609 11.4934261,7.1616 23.8253913,3.5981913 L23.8253913,8.80347826 L25.2226783,8.80347826 L25.2226783,3.21391304 C27.3886609,2.68994783 29.6594087,2.41043478 32,2.41043478 C48.3144348,2.41043478 61.5546435,15.6855652 61.5546435,31.9650783 C61.5546435,48.2445913 48.279513,61.5546435 32,61.5546435 Z"/>
    <polygon points="25.223 10.585 23.825 10.585 23.825 16.978 25.223 16.978"/>
    <polygon points="25.223 19.424 23.825 19.424 23.825 25.817 25.223 25.817"/>
    <polygon points="25.223 36.891 23.825 36.891 23.825 43.284 25.223 43.284"/>
    <polygon points="25.223 45.415 23.825 45.415 23.825 51.808 25.223 51.808"/>
    <path fill-rule="nonzero" d="M40.1747478 25.6768C40.1747478 22.3579826 37.7990957 19.633113 34.8646957 19.633113 31.9301565 19.633113 29.5546435 22.3579826 29.5546435 25.6768 29.5546435 28.9956174 31.9301565 31.720487 34.8646957 31.720487 37.7990957 31.720487 40.1747478 29.0305391 40.1747478 25.6768zM31.301287 25.6768C31.301287 23.301287 32.9082435 21.3798957 34.8646957 21.3798957 36.8210087 21.3798957 38.4279652 23.301287 38.4279652 25.6768 38.4279652 28.052313 36.8210087 29.9738435 34.8646957 29.9738435 32.9082435 29.9738435 31.301287 28.052313 31.301287 25.6768zM49.0131478 31.1264C46.0786087 31.1264 43.7030957 33.8512696 43.7030957 37.170087 43.7030957 40.4887652 46.0786087 43.2136348 49.0131478 43.2136348 51.9475478 43.2136348 54.3232 40.4887652 54.3232 37.170087 54.3232 33.8512696 51.9475478 31.1264 49.0131478 31.1264zM49.0131478 41.4669913C47.0566957 41.4669913 45.4497391 39.5456 45.4497391 37.170087 45.4497391 34.7944348 47.0566957 32.8730435 49.0131478 32.8730435 50.9694609 32.8730435 52.5764174 34.7944348 52.5764174 37.170087 52.5764174 39.5456 50.9694609 41.4669913 49.0131478 41.4669913z"/>
    <polygon points="49.064 19.908 32.998 41.7 34.685 42.944 50.751 21.152"/>
    <path fill-rule="nonzero" d="M27.5632696,32.7685565 C27.1091478,32.5241043 26.2358261,32.1049043 25.2226783,31.6157217 L25.2226783,27.8427826 L23.8253913,27.8427826 L23.8253913,30.9520696 C21.5895652,29.8690783 19.2489739,28.786087 19.2489739,28.786087 L18.4453565,25.2228174 C18.4453565,25.2228174 18.5851826,24.5939478 19.5283478,24.1049043 C20.4367304,23.6157217 23.0917565,19.7030957 19.3886609,16.9083826 C19.3886609,16.9083826 17.4323478,15.2663652 15.5808,16.8734609 C15.5808,16.8734609 13.1003826,18.8297739 14.2182957,22.1135304 C15.3711304,25.3974261 15.9650783,27.0742261 15.9650783,27.0742261 L18.1659826,30.4978087 L18.2009043,30.5328696 L16.0349217,27.1791304 C16.0349217,27.1791304 14.7424,25.956313 12.2270609,23.5808 C9.71186087,21.205287 6.88208696,22.6725565 6.88208696,22.6725565 C4.68118261,23.6857043 5.37989565,26.1659826 5.37989565,26.1659826 C6.39304348,30.7074783 11.0742261,29.904 11.9126261,29.2402087 C12.7161043,28.6113391 13.3798957,28.7162435 13.3798957,28.7162435 L16.279513,30.9170087 C16.279513,30.9170087 16.3842783,38.3232 16.5239652,40.1398261 C16.6288696,41.956313 19.213913,42.3756522 19.213913,42.3756522 L19.213913,32.0349217 L19.1440696,31.9301565 L23.860313,34.0612174 L23.860313,34.2358261 L24.279513,34.2358261 L28.5414957,36.1572174 C28.5065739,36.1222957 29.1703652,33.6070957 27.5632696,32.7685565 Z M11.7729391,27.2489739 C11.213913,28.366887 9.64187826,28.7162435 8.27951304,28.0175304 C6.9170087,27.3188174 6.28827826,25.8515478 6.88208696,24.7336348 C7.44111304,23.6157217 9.01314783,23.2663652 10.375513,23.9650783 C11.7030957,24.6637913 12.3318261,26.1310609 11.7729391,27.2489739 Z M17.5720348,23.2663652 C16.3144348,23.2663652 15.301287,22.043687 15.301287,20.5065739 C15.301287,19.0043826 16.3144348,17.7467826 17.5720348,17.7467826 C18.8296348,17.7467826 19.8427826,18.9694609 19.8427826,20.5065739 C19.8427826,22.043687 18.8296348,23.2663652 17.5720348,23.2663652 Z"/>
  </g>
</svg>
