<svg width="64" height="64" viewBox="0 0 64 64" fill="none" xmlns="http://www.w3.org/2000/svg">
<path fill-rule="evenodd" clip-rule="evenodd" d="M22.3726 9C20.5759 9 19 10.5863 19 12.6957V40.7925C19 42.902 20.5759 44.4883 22.3726 44.4883H42.3364C44.1331 44.4883 45.709 42.902 45.709 40.7925V12.6957C45.709 10.5863 44.1331 9 42.3364 9H22.3726ZM17 12.6957C17 9.6184 19.3394 7 22.3726 7H42.3364C45.3695 7 47.709 9.6184 47.709 12.6957V40.7925C47.709 43.8699 45.3695 46.4883 42.3364 46.4883H22.3726C19.3394 46.4883 17 43.8699 17 40.7925V12.6957Z" fill="white"/>
<path fill-rule="evenodd" clip-rule="evenodd" d="M24.8359 35.3807C23.8927 35.3807 23.1017 36.1616 23.1017 37.1576C23.1017 38.1536 23.8927 38.9345 24.8359 38.9345C25.7791 38.9345 26.5701 38.1536 26.5701 37.1576C26.5701 36.1616 25.7791 35.3807 24.8359 35.3807ZM21.1017 37.1576C21.1017 35.0863 22.759 33.3807 24.8359 33.3807C26.9128 33.3807 28.5701 35.0863 28.5701 37.1576C28.5701 39.2288 26.9128 40.9345 24.8359 40.9345C22.759 40.9345 21.1017 39.2288 21.1017 37.1576Z" fill="white"/>
<path fill-rule="evenodd" clip-rule="evenodd" d="M39.8737 35.3807C38.9305 35.3807 38.1395 36.1616 38.1395 37.1576C38.1395 38.1536 38.9305 38.9345 39.8737 38.9345C40.8169 38.9345 41.6079 38.1536 41.6079 37.1576C41.6079 36.1616 40.8169 35.3807 39.8737 35.3807ZM36.1395 37.1576C36.1395 35.0863 37.7968 33.3807 39.8737 33.3807C41.9506 33.3807 43.6079 35.0863 43.6079 37.1576C43.6079 39.2288 41.9506 40.9345 39.8737 40.9345C37.7968 40.9345 36.1395 39.2288 36.1395 37.1576Z" fill="white"/>
<path fill-rule="evenodd" clip-rule="evenodd" d="M17.0002 16.7194H47.7092V31.2155H17.0002V16.7194ZM19.0002 18.7194V29.2155H45.7092V18.7194H19.0002Z" fill="white"/>
<path fill-rule="evenodd" clip-rule="evenodd" d="M32.0387 30.2155V17.7194H34.0387V30.2155H32.0387Z" fill="white"/>
<path fill-rule="evenodd" clip-rule="evenodd" d="M30.0853 13.1654C29.9967 13.1654 29.9373 13.2347 29.9373 13.3052V13.8025C29.9373 13.873 29.9967 13.9423 30.0853 13.9423H34.6247C34.7132 13.9423 34.7727 13.873 34.7727 13.8025V13.3052C34.7727 13.2347 34.7132 13.1654 34.6247 13.1654H30.0853ZM27.9373 13.3052C27.9373 12.1167 28.9057 11.1654 30.0853 11.1654H34.6247C35.8043 11.1654 36.7727 12.1167 36.7727 13.3052V13.8025C36.7727 14.9911 35.8043 15.9423 34.6247 15.9423H30.0853C28.9057 15.9423 27.9373 14.9911 27.9373 13.8025V13.3052Z" fill="white"/>
<path fill-rule="evenodd" clip-rule="evenodd" d="M24.1447 45.3304C24.3045 44.9677 24.6634 44.7336 25.0598 44.7336H40.5501C40.9465 44.7336 41.3054 44.9678 41.4652 45.3305L45.852 55.2884C45.9882 55.5977 45.959 55.9548 45.7744 56.2379C45.5898 56.5209 45.2748 56.6916 44.9368 56.6916H20.6719C20.3339 56.6916 20.0189 56.5209 19.8343 56.2378C19.6497 55.9547 19.6205 55.5976 19.7568 55.2883L24.1447 45.3304ZM25.7119 46.7336L22.2053 54.6916H43.4036L39.8979 46.7336H25.7119Z" fill="white"/>
<path fill-rule="evenodd" clip-rule="evenodd" d="M42.4728 51.1595H23.1392V49.1595H42.4728V51.1595Z" fill="white"/>
</svg>
