<svg width="160" height="160" viewBox="0 0 160 160" fill="none" xmlns="http://www.w3.org/2000/svg">
<rect width="160" height="160" fill="white"/>
<path d="M89.0019 106.427C97.0873 106.427 105.119 106.427 113.232 106.427C113.232 109.662 113.232 112.766 113.232 116C112.244 116 111.31 116 110.403 116C103.385 116 96.3668 116 89.3221 116C86.0132 116 84.0119 114.044 84.0119 110.783C83.9852 93.5684 84.0119 76.3534 84.0119 59.1645C84.0119 56.0606 85.9865 54.0261 89.1353 54.0261C100.396 54 111.63 54 122.891 54C125.96 54 127.961 56.0345 127.988 59.0341C128.015 60.4687 127.988 61.9032 127.988 63.4682C126.36 63.4682 124.786 63.4682 123.158 63.4682C123.105 62.764 123.078 62.0858 123.025 61.3033C111.684 61.3033 100.423 61.3033 89.0286 61.3033C89.0019 76.2751 89.0019 91.2469 89.0019 106.427ZM105.867 113.574C107.174 113.6 108.375 112.505 108.375 111.227C108.402 109.975 107.361 108.931 106.027 108.879C104.666 108.827 103.545 109.87 103.545 111.201C103.518 112.453 104.586 113.548 105.867 113.574Z" fill="#005473"/>
<path d="M17.0787 106C17.0525 101.664 17 97.302 17 92.9661C17 80.4284 17 67.8908 17.0262 55.3793C17.0262 53.8643 17.0525 52.2971 17.3936 50.8344C18.3122 46.7858 21.8812 44.1215 26.5262 44.0432C32.7721 43.9648 39.018 44.0171 45.2901 44.0171C64.4475 44.0171 83.5787 44.0171 102.736 44.0171C105.964 44.0171 108.851 44.879 111.055 47.4127C111.344 47.7522 111.58 48.1702 112 48.7709C111.213 48.7709 110.714 48.7709 110.215 48.7709C83.0276 48.7709 55.8398 48.7709 28.6257 48.7709C27.7597 48.7709 26.8674 48.797 26.0276 49.006C23.0622 49.7112 21.855 51.2784 21.8812 54.3084C22.0124 71.0252 22.1436 87.7159 22.2486 104.433C22.2486 104.955 22.1699 105.451 22.1436 105.974C20.4378 105.974 18.7583 106 17.0787 106Z" fill="#005473"/>
<path d="M147 92.0426C147 98.2564 147 104.444 147 110.658C147 114.04 145.099 115.98 141.72 115.98C135.568 116.007 129.391 116.007 123.239 115.98C120.071 115.98 118.012 113.988 118.012 110.841C117.985 98.3089 118.012 85.7763 118.012 73.2175C118.012 69.9402 119.965 68.0262 123.292 68.0262C129.443 68 135.621 68 141.773 68C144.941 68 147 70.0188 147 73.1389C147 79.4576 147 85.7501 147 92.0426ZM122.922 72.5358C122.922 83.705 122.922 94.7694 122.922 105.912C129.364 105.912 135.7 105.912 142.116 105.912C142.116 94.7431 142.116 83.6788 142.116 72.5358C135.727 72.5358 129.417 72.5358 122.922 72.5358ZM132.453 113.568C133.72 113.594 134.803 112.546 134.856 111.287C134.908 109.924 133.905 108.849 132.532 108.823C131.212 108.796 130.156 109.793 130.103 111.077C130.051 112.388 131.133 113.516 132.453 113.568Z" fill="#005473"/>
<path d="M16.8826 106.027C18.5586 106.027 20.2346 106 21.9106 106C29.5313 106.027 37.1781 106.054 44.7988 106.054C55.6667 106.054 66.5346 106.054 77.3764 106.054C77.9001 106.054 78.3977 106.054 79 106.054C79 109.388 79 112.585 79 115.946C78.581 115.973 78.1096 116 77.6644 116C56.5833 116 35.5283 116 14.4471 116C12.3259 116 12.0378 115.702 12.0116 113.507C12.0116 111.664 11.9855 109.794 12.0116 107.951C12.0378 106.569 12.483 106.108 13.8448 106.081C14.8923 106.027 15.8874 106.027 16.8826 106.027ZM64.6491 113.507C66.9012 113.507 69.1796 113.534 71.4317 113.507C73.1601 113.507 74.26 112.531 74.26 111.041C74.2862 109.55 73.2125 108.575 71.4579 108.575C66.9798 108.575 62.4755 108.575 57.9974 108.602C56.1904 108.602 55.1691 109.523 55.1691 111.041C55.1691 112.558 56.1904 113.507 57.9712 113.534C60.2234 113.534 62.4231 113.507 64.6491 113.507Z" fill="#005473"/>
</svg>
