<svg width="160" height="160" viewBox="0 0 160 160" fill="none" xmlns="http://www.w3.org/2000/svg">
<rect width="160" height="160" fill="white"/>
<path d="M35.6599 106.433C35.316 103.142 34.8346 100.399 34.8346 97.6556C34.8346 95.5983 34.2156 94.7069 32.2212 94.0211C25.7565 91.6895 25 90.5237 25 83.8032C25 74.6139 26.3755 72.8309 35.3848 70.705C47.3513 67.9619 59.4554 68.0991 71.5595 69.4706C71.9721 69.5392 72.4535 69.5392 73.4164 69.6078C73.4164 67.2076 73.4164 64.9446 73.4164 62.7501C73.4164 55.7553 73.4164 48.829 73.4164 41.8342C73.4164 37.171 74.3104 35.2509 78.7807 33.8793C83.6636 32.3706 88.7528 31.1363 93.7732 30.6562C105.19 29.559 116.675 29.559 127.816 32.8507C135.037 34.9766 136 36.3481 136 43.6858C136 63.6416 136 83.666 136 103.622C136 109.725 134.831 111.371 128.985 113.291C120.045 116.24 110.76 116.377 101.476 116.583C98.7249 116.651 96.0428 117.954 93.3606 118.777C92.948 118.914 92.5353 119.669 92.5353 120.08C92.6729 124.949 89.0967 126.458 85.4517 127.692C75.961 130.847 66.1264 131.464 56.2918 130.71C49.8271 130.23 43.3625 129.201 37.0353 127.624C30.8457 126.115 29.8141 124.126 29.8141 117.817C29.8141 117.269 29.8829 116.651 29.8141 116.103C29.1264 111.028 30.9145 107.394 35.6599 106.433ZM131.117 45.6059C113.305 50.3377 95.8364 50.3377 78.368 45.5374C76.9926 53.698 77.6803 55.2753 84.4888 56.7154C97.2807 59.4584 110.21 59.8699 123.002 56.9897C132.905 54.8638 131.392 55.6181 131.117 45.6059ZM78.0242 59.9385C78.0242 61.2414 78.0242 62.4072 78.0242 63.573C78.0242 69.4021 77.9554 69.7449 83.6636 70.8422C90.1283 72.0765 96.7305 73.0366 103.333 73.2423C111.654 73.5852 120.045 72.968 128.022 70.0878C129.329 69.6078 130.98 68.3734 131.186 67.2076C131.667 64.876 131.323 62.4072 131.323 59.9385C113.374 64.8074 95.9052 64.8074 78.0242 59.9385ZM131.323 74.2024C116.95 78.9342 102.439 78.4542 87.6524 76.8769C87.6524 79.8257 87.5149 82.363 87.7212 84.8318C87.79 85.5862 88.8903 86.8205 89.5781 86.8891C101.476 87.9863 113.374 88.4664 125.065 85.5176C131.255 84.0089 131.186 83.8717 131.255 77.4941C131.323 76.534 131.323 75.5054 131.323 74.2024ZM30.158 78.2484C38.2045 84.6261 76.855 84.4204 82.7695 77.9056C76.0985 71.7337 36.5539 71.6651 30.158 78.2484ZM130.98 40.3941C130.98 39.9141 131.048 39.434 131.048 38.954C129.467 38.3368 127.954 37.5139 126.372 37.2396C120.251 36.2795 114.199 35.1137 108.009 34.8394C99.0688 34.4279 90.1283 34.7708 81.5316 37.7882C80.3625 38.1997 79.3996 38.954 78.2993 39.5712C78.4368 39.9827 78.5056 40.3255 78.6431 40.737C96.1803 45.6745 113.649 46.086 130.98 40.3941ZM97.7621 92.3067C97.1431 94.5697 96.868 96.3527 99.3439 97.6556C100.444 98.2043 101.063 99.713 102.026 100.673C102.645 101.29 103.539 102.182 104.227 102.113C110.485 101.702 116.881 101.633 122.933 100.33C133.387 98.0671 131.186 98.41 131.323 89.3579C131.323 89.1521 131.186 89.015 130.98 88.6721C120.251 92.4438 109.041 92.581 97.7621 92.3067ZM39.7175 98.4786C39.1673 102.525 39.2361 103.073 42.9498 103.965C48.5204 105.199 54.0911 106.296 59.7993 106.776C69.6338 107.599 79.3996 106.914 88.9591 104.102C91.6413 103.279 93.842 101.976 92.3978 98.5471C74.8606 103.348 57.3922 103.279 39.7175 98.4786ZM30.0204 84.0089C28.9888 86.9577 30.0892 88.8778 33.1152 89.495C38.2732 90.5237 43.3625 91.6895 48.5892 92.1695C58.7677 93.1982 68.9461 92.5124 78.8494 89.7693C81.6004 89.015 84.2825 87.9178 82.7007 84.146C65.1636 88.8778 47.6264 88.9464 30.0204 84.0089ZM34.9721 117.269C33.7342 120.972 35.4535 122.618 38.7546 123.509C48.7268 126.184 58.8364 126.869 69.0149 125.841C74.448 125.292 79.7435 123.989 85.1078 122.823C86.2082 122.618 87.1022 121.589 88.0651 120.903C69.8401 122 52.2342 122 34.9721 117.269ZM44.7379 109.657C44.4628 109.999 44.119 110.274 43.8439 110.617C44.9442 111.508 45.9071 112.948 47.145 113.291C52.2342 114.457 57.3922 115.691 62.5502 116.171C73.21 117.131 83.8011 116.789 94.1171 113.428C97.6933 112.262 97.8996 111.714 96.9368 108.148C79.7435 113.085 62.2751 112.4 44.7379 109.657ZM131.323 103.965C121.626 105.199 112.067 106.433 102.439 107.668C102.439 108.834 102.439 110.205 102.439 111.782C111.242 111.851 119.632 111.371 127.816 108.834C130.636 107.874 132.149 106.365 131.323 103.965ZM93.0855 92.581C88.8216 91.2094 85.8643 91.3466 82.7007 93.1982C80.2249 94.6383 77.1301 95.1183 74.2416 95.7355C71.4219 96.3527 68.5335 96.6956 65.645 97.1756C74.6543 96.9699 83.8011 97.107 93.0855 92.581Z" fill="#005473"/>
</svg>
