<svg width="96" height="96" viewBox="0 0 96 96" fill="none" xmlns="http://www.w3.org/2000/svg">
<path d="M82.1416 61.4355C80.4969 61.4355 79.0536 61.4355 77.476 61.4355C77.476 58.2117 77.476 55.0572 77.476 51.8334C58.5451 51.8334 39.7485 51.8334 20.8176 51.8334C20.8176 54.9879 20.8176 58.1423 20.8176 61.4008C19.1729 61.4008 17.696 61.4008 16.0513 61.4008C16.0513 60.7422 16.0513 60.1182 16.0513 59.4942C16.0513 51.5908 16.0849 43.6526 16.0513 35.7492C16.0177 32.3867 17.1589 29.8215 20.0791 28.1577C20.4819 27.915 20.784 27.0484 20.784 26.4938C20.8511 21.3634 20.8176 16.1985 20.8176 11.0681C20.8176 6.11113 23.7378 3.026 28.5376 3.026C42.2994 2.99133 56.0613 2.99133 69.8231 3.026C74.4887 3.026 77.4424 6.11113 77.476 10.9641C77.5096 16.0945 77.5096 21.2595 77.476 26.3898C77.476 27.3257 77.5767 27.9497 78.5165 28.435C80.7654 29.6482 82.108 31.7281 82.1416 34.2933C82.2087 43.2713 82.1416 52.2494 82.1416 61.4355ZM20.7504 46.8071C39.7485 46.8071 58.5451 46.8071 77.4424 46.8071C77.4424 43.1673 77.4424 39.6316 77.4424 36.1305C77.4424 32.8027 76.8383 32.1787 73.6495 32.1787C57.2696 32.1787 40.8897 32.1787 24.5098 32.1787C23.9392 32.1787 23.3685 32.1441 22.8315 32.2481C21.5224 32.4907 20.7169 33.3227 20.7169 34.7439C20.7169 38.7303 20.7504 42.7167 20.7504 46.8071ZM72.6426 27.3257C72.6762 26.7364 72.7097 26.2165 72.7097 25.7312C72.7097 20.9475 72.7097 16.1638 72.7097 11.3454C72.7097 8.53763 71.9713 7.80968 69.1853 7.80968C55.7592 7.80968 42.3666 7.80968 28.9404 7.80968C28.5041 7.80968 28.0341 7.77502 27.5978 7.84434C26.3559 8.01767 25.4496 8.78028 25.4496 10.0975C25.416 15.8171 25.4496 21.5021 25.4496 27.3257C27.0607 27.3257 28.5376 27.3257 30.2159 27.3257C30.2159 25.1419 30.2159 23.0273 30.2159 20.9128C30.2159 18.417 30.8872 17.6544 33.2703 17.6544C43.7763 17.6544 54.2823 17.6544 64.7883 17.6544C67.205 17.6544 67.9099 18.3823 67.9099 20.8435C67.9434 22.958 67.9099 25.1072 67.9099 27.3257C69.6217 27.3257 71.0986 27.3257 72.6426 27.3257ZM63.2443 22.5767C53.7117 22.5767 44.3134 22.5767 34.9151 22.5767C34.9151 24.2059 34.9151 25.6965 34.9151 27.3257C44.3805 27.3257 53.7788 27.3257 63.2443 27.3257C63.2443 25.6965 63.2443 24.2059 63.2443 22.5767Z" fill="#005473"/>
<path d="M13.4177 69.8755H11.3569V74.9948H10.0701V69.8755H8V68.8404H13.4177V69.8755Z" fill="#BC9764"/>
<path d="M20.0361 68.8404V74.9948H18.7492V72.4025H16.0357V74.9948H14.7489V68.8404H16.0357V71.3674H18.7492V68.8404H20.0361Z" fill="#BC9764"/>
<path d="M26.6683 73.9597V74.9948H21.9221V68.8404H26.5378V69.8755H23.2089V71.4047H25.8291V72.3932H23.2089V73.9597H26.6683Z" fill="#BC9764"/>
<path d="M36.5197 74.9948H35.0464L32.8924 71.3768L32.3609 70.3417H32.3516L32.3889 71.4327V74.9948H31.2326V68.8404H32.6966L34.8506 72.4491L35.3821 73.4935H35.4007L35.3634 72.4025V68.8404H36.5197V74.9948Z" fill="#BC9764"/>
<path d="M43.5716 72.5703C43.5716 73.4033 43.3478 74.0312 42.9002 74.4539C42.4589 74.8767 41.8061 75.088 40.942 75.088C40.0779 75.088 39.4221 74.8767 38.9745 74.4539C38.5332 74.0312 38.3125 73.4033 38.3125 72.5703V68.8404H39.5993V72.5144C39.5993 73.0304 39.7081 73.4127 39.9256 73.6613C40.1494 73.91 40.4882 74.0343 40.942 74.0343C41.3958 74.0343 41.7315 73.91 41.9491 73.6613C42.1667 73.4127 42.2755 73.0304 42.2755 72.5144V68.8404H43.5716V72.5703Z" fill="#BC9764"/>
<path d="M52.0463 74.9948H50.8901V71.7871L50.946 69.9874H50.9274L49.221 74.9948H48.1673L46.4702 69.9874H46.4515L46.5168 71.7871V74.9948H45.3512V68.8404H47.2161L48.3258 72.1973L48.7174 73.5867H48.7361L49.137 72.2067L50.2373 68.8404H52.0463V74.9948Z" fill="#BC9764"/>
<path d="M53.9267 68.8404H56.6215C57.3551 68.8404 57.9021 68.9865 58.2627 69.2787C58.6232 69.5647 58.8035 69.9781 58.8035 70.5189C58.8035 70.8608 58.7009 71.1592 58.4958 71.4141C58.2906 71.6627 58.0016 71.8181 57.6286 71.8803V71.8896C58.0513 71.9518 58.3777 72.1134 58.6077 72.3745C58.8439 72.6294 58.962 72.9402 58.962 73.307C58.962 73.8416 58.7693 74.2581 58.3839 74.5565C57.9985 74.8487 57.4421 74.9948 56.7148 74.9948H53.9267V68.8404ZM56.4443 71.4234C57.1282 71.4234 57.4701 71.1592 57.4701 70.6308C57.4701 70.1024 57.1282 69.8382 56.4443 69.8382H55.1762V71.4234H56.4443ZM56.6029 74.025C56.9448 74.025 57.1996 73.9566 57.3675 73.8199C57.5416 73.6769 57.6286 73.4748 57.6286 73.2137C57.6286 72.9526 57.5416 72.7537 57.3675 72.617C57.1996 72.4802 56.9448 72.4118 56.6029 72.4118H55.1762V74.025H56.6029Z" fill="#BC9764"/>
<path d="M65.2178 73.9597V74.9948H60.4715V68.8404H65.0872V69.8755H61.7583V71.4047H64.3785V72.3932H61.7583V73.9597H65.2178Z" fill="#BC9764"/>
<path d="M69.0764 72.6356H67.9202V74.9948H66.652V68.8404H69.3655C70.068 68.8404 70.615 69.0083 71.0067 69.344C71.4045 69.6734 71.6035 70.1397 71.6035 70.7427C71.6035 71.1841 71.4947 71.5539 71.2771 71.8523C71.0595 72.1507 70.7487 72.3652 70.3446 72.4957L71.9671 74.9948H70.5218L69.0764 72.6356ZM67.9202 71.6565H69.1977C69.5707 71.6565 69.8442 71.585 70.0182 71.442C70.1985 71.2928 70.2887 71.0659 70.2887 70.7613C70.2887 70.4567 70.1985 70.2329 70.0182 70.09C69.8442 69.9408 69.5707 69.8662 69.1977 69.8662H67.9202V71.6565Z" fill="#BC9764"/>
<path d="M79.0572 68.7472C79.6602 68.7472 80.1824 68.8746 80.6238 69.1295C81.0713 69.3844 81.4132 69.7512 81.6495 70.2298C81.8919 70.7023 82.0131 71.2649 82.0131 71.9176C82.0131 72.5703 81.8919 73.136 81.6495 73.6147C81.4132 74.0872 81.0713 74.4508 80.6238 74.7057C80.1824 74.9606 79.6602 75.088 79.0572 75.088C78.4542 75.088 77.9289 74.9606 77.4813 74.7057C77.0337 74.4508 76.6887 74.0872 76.4463 73.6147C76.21 73.136 76.0919 72.5703 76.0919 71.9176C76.0919 71.2649 76.21 70.7023 76.4463 70.2298C76.6887 69.7512 77.0337 69.3844 77.4813 69.1295C77.9289 68.8746 78.4542 68.7472 79.0572 68.7472ZM79.0572 69.8009C78.535 69.8009 78.1309 69.9843 77.845 70.351C77.5652 70.7116 77.4254 71.2338 77.4254 71.9176C77.4254 72.6014 77.5652 73.1267 77.845 73.4935C78.1309 73.854 78.535 74.0343 79.0572 74.0343C79.5732 74.0343 79.971 73.854 80.2508 73.4935C80.5367 73.1267 80.6797 72.6014 80.6797 71.9176C80.6797 71.2338 80.5367 70.7116 80.2508 70.351C79.971 69.9843 79.5732 69.8009 79.0572 69.8009Z" fill="#BC9764"/>
<path d="M84.8778 69.8755V71.4327H87.4981V72.4771H84.8778V74.9948H83.591V68.8404H88.1974V69.8755H84.8778Z" fill="#BC9764"/>
<path d="M21.3721 92.7965H18.1577L13.458 84.9027L12.2983 82.6444H12.278L12.3594 85.0248V92.7965H9.83659V79.3689H13.0307L17.7304 87.2424L18.8901 89.521H18.9308L18.8494 87.1407V79.3689H21.3721V92.7965Z" fill="#BC9764"/>
<path d="M28.2946 92.7965H25.4871V79.3689H28.2946V92.7965Z" fill="#BC9764"/>
<path d="M44.0328 85.6962V92.7965H41.978L41.917 91.1893C41.1032 92.3964 39.7808 93 37.9497 93C36.7155 93 35.6304 92.7287 34.6945 92.1862C33.7587 91.6437 33.0263 90.857 32.4973 89.8262C31.9819 88.7818 31.7242 87.5408 31.7242 86.1031C31.7242 84.6789 31.9887 83.4447 32.5176 82.4003C33.0602 81.3559 33.8197 80.5557 34.7963 79.9996C35.7864 79.4435 36.9393 79.1655 38.2549 79.1655C39.7062 79.1655 40.8862 79.43 41.7949 79.9589C42.7172 80.4879 43.4428 81.322 43.9718 82.4613L41.388 83.5803C41.1846 82.8886 40.8116 82.3664 40.269 82.0138C39.7401 81.6475 39.0958 81.4644 38.3363 81.4644C37.1698 81.4644 36.2611 81.8646 35.6101 82.6648C34.959 83.465 34.6335 84.6043 34.6335 86.0827C34.6335 87.6154 34.9522 88.775 35.5897 89.5617C36.2272 90.3484 37.1631 90.7417 38.3973 90.7417C39.3467 90.7417 40.1198 90.5179 40.7166 90.0703C41.3134 89.6092 41.6118 88.9446 41.6118 88.0765V87.7714H37.6852V85.6962H44.0328Z" fill="#BC9764"/>
<path d="M59.2438 79.3689V92.7965H56.4362V87.1407H50.5159V92.7965H47.7083V79.3689H50.5159V84.8824H56.4362V79.3689H59.2438Z" fill="#BC9764"/>
<path d="M73.9788 81.6272H69.4825V92.7965H66.6749V81.6272H62.1584V79.3689H73.9788V81.6272Z" fill="#BC9764"/>
<path d="M81.4089 79.1655C82.6568 79.1655 83.7283 79.3757 84.6234 79.7962C85.5186 80.2031 86.3053 80.8541 86.9834 81.7493L85.0507 83.6413C84.698 82.9089 84.2301 82.3664 83.6469 82.0138C83.0637 81.6475 82.3245 81.4644 81.4293 81.4644C80.6155 81.4644 79.9848 81.6204 79.5372 81.9324C79.1032 82.2308 78.8862 82.6309 78.8862 83.1327C78.8862 83.5939 79.11 83.9601 79.5576 84.2313C80.0051 84.5026 80.8122 84.74 81.9786 84.9434C83.1993 85.174 84.1691 85.4588 84.8879 85.7979C85.6068 86.137 86.129 86.5642 86.4545 87.0796C86.7936 87.5815 86.9631 88.2122 86.9631 88.9717C86.9631 89.7991 86.7257 90.5179 86.251 91.1283C85.7899 91.725 85.1388 92.1862 84.2979 92.5117C83.4706 92.8372 82.5211 93 81.4496 93C79.9712 93 78.7573 92.7965 77.8079 92.3896C76.872 91.9692 76.1125 91.3385 75.5293 90.4976L77.1975 88.5038C77.6994 89.3311 78.2758 89.9076 78.9269 90.2331C79.5779 90.545 80.3849 90.701 81.3479 90.701C82.216 90.701 82.8738 90.5654 83.3214 90.2941C83.7825 90.0229 84.0131 89.6363 84.0131 89.1345C84.0131 88.7683 83.7961 88.4631 83.362 88.2189C82.9416 87.9748 82.182 87.7442 81.0834 87.5272C79.822 87.2695 78.8116 86.9643 78.052 86.6117C77.3061 86.2591 76.7635 85.825 76.4244 85.3096C76.0854 84.7942 75.9158 84.1567 75.9158 83.3972C75.9158 82.597 76.1328 81.8781 76.5669 81.2406C77.0009 80.5896 77.6316 80.081 78.4589 79.7148C79.2999 79.3486 80.2832 79.1655 81.4089 79.1655Z" fill="#BC9764"/>
</svg>
