<svg width="64" height="64" viewBox="0 0 64 64" fill="none" xmlns="http://www.w3.org/2000/svg">
<path fill-rule="evenodd" clip-rule="evenodd" d="M17.8902 26.0762L15.0061 50.3337L15.0033 50.3554C14.9966 50.4027 15.0002 50.4509 15.0137 50.4964C15.0272 50.5418 15.0501 50.5828 15.0798 50.6166C15.1095 50.6505 15.1453 50.6764 15.1841 50.6935C15.2229 50.7105 15.2643 50.7186 15.3056 50.7175C15.3141 50.7173 15.3225 50.7172 15.331 50.7172H48.4199V51.7172L48.4432 50.7175C48.4842 50.7184 48.5254 50.7103 48.5639 50.6933C48.6025 50.6763 48.638 50.6504 48.6675 50.6167C48.6971 50.5829 48.7197 50.5422 48.7331 50.4969C48.7465 50.4517 48.75 50.4037 48.7433 50.3566L48.7403 50.3337L45.8568 26.0682C45.8523 26.0597 45.8377 26.0372 45.7977 26.0067C45.7263 25.9523 45.6171 25.9103 45.4969 25.9103H18.251C18.1384 25.9103 18.0297 25.9509 17.9547 26.0083C17.9105 26.0421 17.8948 26.0673 17.8902 26.0762ZM45.8584 26.0721C45.8584 26.0721 45.8582 26.0716 45.8579 26.0707L45.8584 26.0721ZM48.4098 52.7172H15.3419C15.0107 52.7235 14.6823 52.6576 14.3791 52.5243C14.0716 52.3891 13.7979 52.188 13.5767 51.936C13.3555 51.684 13.1919 51.387 13.0966 51.0661C13.0024 50.7491 12.9768 50.4157 13.0212 50.0883L15.9054 25.8301C15.9054 25.8299 15.9054 25.8297 15.9054 25.8295C15.9054 25.8294 15.9054 25.8293 15.9055 25.8293C16.0477 24.6289 17.2061 23.9103 18.251 23.9103H45.4969C46.5371 23.9103 47.7048 24.6145 47.8428 25.8327C47.843 25.834 47.8431 25.8353 47.8433 25.8367L50.7252 50.0879C50.7698 50.4146 50.7446 50.7474 50.6511 51.0638C50.5563 51.3845 50.3934 51.6814 50.1729 51.9335C49.9523 52.1856 49.6794 52.3869 49.3724 52.5226C49.0695 52.6565 48.7411 52.723 48.4098 52.7172Z" fill="white"/>
<path fill-rule="evenodd" clip-rule="evenodd" d="M21.6345 23.3549C21.6348 17.1931 26.1156 12 31.8753 12C37.635 12 42.1176 17.1948 42.1176 23.3555V23.3558C42.1174 23.92 42.0798 24.4836 42.005 25.0428C41.9386 25.5395 41.5149 25.9103 41.0139 25.9103H22.7382C22.2377 25.9103 21.8143 25.5402 21.7472 25.0442C21.6716 24.4844 21.6339 23.9199 21.6345 23.3549ZM21.6345 23.3549C21.6345 23.3547 21.6345 23.3545 21.6345 23.3543L22.6341 23.3555H21.6345C21.6345 23.3553 21.6345 23.3551 21.6345 23.3549ZM31.8753 14C27.428 14 23.6345 18.0778 23.6345 23.3555L23.6345 23.3566C23.6343 23.5413 23.639 23.7259 23.6485 23.9103H40.1031C40.1127 23.7256 40.1175 23.5406 40.1176 23.3555M31.8753 14C36.3226 14 40.1174 18.0793 40.1176 23.3552L31.8753 14Z" fill="white"/>
<path d="M22.894 30.371C23.7531 30.371 24.4494 29.6653 24.4494 28.7948C24.4494 27.9243 23.7531 27.2186 22.894 27.2186C22.035 27.2186 21.3386 27.9243 21.3386 28.7948C21.3386 29.6653 22.035 30.371 22.894 30.371Z" fill="white"/>
<path d="M41.1172 30.371C41.9762 30.371 42.6726 29.6653 42.6726 28.7948C42.6726 27.9243 41.9762 27.2186 41.1172 27.2186C40.2581 27.2186 39.5618 27.9243 39.5618 28.7948C39.5618 29.6653 40.2581 30.371 41.1172 30.371Z" fill="white"/>
</svg>
