<svg width="82" height="81" viewBox="0 0 82 81" fill="none" xmlns="http://www.w3.org/2000/svg">
<path d="M41.0409 62.9449C28.5286 62.9449 18.3937 52.9281 18.3937 40.5617C18.3937 28.1953 28.5286 18.1785 41.0409 18.1785C53.5531 18.1785 63.6881 28.1953 63.6881 40.5617C63.6881 52.9281 53.428 62.9449 41.0409 62.9449ZM41.0409 24.2381C32.032 24.2381 24.6498 31.5343 24.6498 40.4381C24.6498 49.3419 32.032 56.6381 41.0409 56.6381C50.0497 56.6381 57.4319 49.4655 57.4319 40.4381C57.4319 31.5343 50.0497 24.2381 41.0409 24.2381Z" fill="white"/>
<path d="M64.0632 21.2703C66.0672 21.2703 67.6918 19.6646 67.6918 17.684C67.6918 15.7034 66.0672 14.0977 64.0632 14.0977C62.0592 14.0977 60.4347 15.7034 60.4347 17.684C60.4347 19.6646 62.0592 21.2703 64.0632 21.2703Z" fill="white"/>
<path d="M61.6855 81H22.397C12.3871 81 6.75663 75.5588 6.13101 74.8168C0.125122 68.7572 0 60.4718 0 60.1008V20.0336C0 11.7481 4.62954 7.17252 5.63052 6.30687C11.6364 0.123664 20.7704 0 21.1457 0H61.8106C62.186 0 70.5692 0.494656 76.5751 6.43053C82.3307 12.1191 82.0805 19.9099 81.9554 21.1466V60.5954C81.9554 68.2626 77.3259 73.3328 76.1997 74.4458C71.32 80.629 62.0609 81 61.6855 81ZM21.1457 5.93588C21.1457 5.93588 14.1389 6.05954 9.8847 10.3878V10.6351L9.63445 10.7588C9.50933 10.8824 6.00589 13.974 6.00589 20.1572V60.1008C6.00589 60.1008 6.13101 66.4076 10.3852 70.6122L10.5103 70.7359C10.6354 70.8595 14.7645 75.0641 22.397 75.0641H61.5604C62.0609 75.0641 68.5673 74.5695 71.4451 70.7359L71.5702 70.4885L71.8204 70.2412C71.8204 70.2412 75.8244 66.4076 75.8244 60.5954V20.7756C75.8244 20.7756 76.3249 14.716 72.1958 10.6351C68.0668 6.5542 62.0609 5.93588 61.4353 5.93588H21.1457Z" fill="white"/>
</svg>
