<svg width="70" height="70" viewBox="0 0 70 70" fill="none" xmlns="http://www.w3.org/2000/svg">
<path d="M54.5521 42.0923L46.002 38.8232C45.6248 38.6974 45.2475 38.5717 44.8703 38.446C47.6365 34.6739 49.5226 29.2672 49.5226 22.7289C49.5226 10.6582 44.8703 5 34.9371 5C25.0039 5 20.3517 10.6582 20.3517 22.7289C20.3517 29.0157 22.112 34.4224 24.8782 38.1945C23.8723 38.446 22.8664 38.8232 21.9862 39.2004L15.3222 41.9666C8.40668 44.8585 3 50.8939 3 55.7976V63.719C3 64.4735 3.62868 64.9764 4.25737 64.9764C5.01179 64.9764 5.51473 64.3477 5.51473 63.719V55.7976C5.51473 52.0255 10.4185 46.7446 16.2024 44.3556L22.8664 41.5894C23.998 41.0864 25.2554 40.7092 26.6385 40.4578C29.1532 42.9725 32.0452 44.3556 34.9371 44.3556C37.7033 44.3556 40.5953 42.9725 42.9843 40.5835C43.7387 40.835 44.3674 40.9607 45.1218 41.2122L53.6719 44.4813C59.4558 46.7446 64.4853 51.7741 64.4853 55.5462V63.4676C64.4853 64.222 65.114 64.7249 65.7426 64.7249C66.3713 64.7249 67 64.0963 67 63.4676V55.5462C67 50.7682 61.4676 44.8585 54.5521 42.0923ZM34.9371 41.7151C30.0334 41.7151 22.9921 34.9253 22.9921 22.7289C22.9921 9.40078 29.0275 7.64047 34.9371 7.64047C40.8468 7.64047 46.8821 9.40078 46.8821 22.7289C46.8821 34.9253 39.8409 41.7151 34.9371 41.7151Z" fill="#292831"/>
</svg>
