<svg width="70" height="70" viewBox="0 0 70 70" fill="none" xmlns="http://www.w3.org/2000/svg">
<path d="M63.9109 13H6.0849C3.24682 13 1 15.2468 1 18.0849V52.8514C1 55.6895 3.24682 57.9363 6.0849 57.9363H63.9109C66.7489 57.9363 68.9958 55.6895 68.9958 52.8514V18.0849C69.114 15.2468 66.7489 13 63.9109 13ZM66.6307 52.8514C66.6307 54.2705 65.4482 55.453 64.0291 55.453H6.0849C4.66586 55.453 3.48332 54.2705 3.48332 52.8514V18.0849C3.48332 16.6659 4.66586 15.4833 6.0849 15.4833H63.9109C65.3299 15.4833 66.5124 16.6659 66.5124 18.0849V52.8514H66.6307Z" fill="#292831"/>
<path d="M29.6175 37.242C29.2627 37.1237 28.7897 37.0055 28.3167 36.8872C29.2627 35.3499 29.7358 33.4579 29.7358 31.211C29.7358 26.1261 27.6072 23.6428 23.3501 23.6428C19.0929 23.6428 16.9644 26.1261 16.9644 31.211C16.9644 33.4579 17.5557 35.3499 18.3834 36.769C17.7922 36.8872 17.3191 37.1237 16.7279 37.242C13.6533 38.5428 10.2239 41.2626 10.2239 43.7459V46.7023C10.2239 47.4118 10.8152 47.8848 11.4065 47.8848C11.9977 47.8848 12.589 47.2935 12.589 46.7023V43.7459C12.589 42.9181 14.5993 40.7896 17.5557 39.4888C18.2652 39.2523 19.093 39.0158 20.039 38.8975C20.985 39.7253 22.0493 40.1983 23.1136 40.1983C24.1778 40.1983 25.2421 39.7253 26.1882 39.0158C27.0159 39.134 27.7255 39.3705 28.435 39.607C31.8643 40.9078 33.7564 43.0364 33.7564 43.8642V46.8205C33.7564 47.53 34.3476 48.003 34.9389 48.003C35.6484 48.003 36.1214 47.4118 36.1214 46.8205V43.8642C36.358 41.1443 32.9286 38.5428 29.6175 37.242ZM23.4683 37.5967C21.931 37.5967 19.566 34.9952 19.566 31.0928C19.566 26.9539 20.985 26.0079 23.4683 26.0079C25.9517 26.0079 27.3707 26.8357 27.3707 31.0928C27.2524 35.1134 25.0056 37.5967 23.4683 37.5967Z" fill="#292831"/>
</svg>
