<svg width="70" height="70" viewBox="0 0 70 70" fill="none" xmlns="http://www.w3.org/2000/svg">
<path d="M63.0629 33.3761H6.93336C5.62802 33.3761 4.44135 33.8507 3.37334 34.5627V18.1867C3.37334 17.4747 2.78001 17 2.18667 17C1.47467 17 1 17.5933 1 18.1867V52.6001C1 53.3121 1.59334 53.7868 2.18667 53.7868C2.89867 53.7868 3.37334 53.1935 3.37334 52.6001V49.0401H66.6229V52.6001C66.6229 53.3121 67.2163 53.7868 67.8096 53.7868C68.5216 53.7868 68.9963 53.1935 68.9963 52.6001V39.3094C69.1149 35.9867 66.3856 33.3761 63.0629 33.3761ZM6.93336 35.8681H63.1816C65.0803 35.8681 66.7416 37.4107 66.7416 39.4281V40.4961H3.37334V39.3094C3.37334 37.4107 4.91601 35.8681 6.93336 35.8681ZM3.37334 46.5481V42.8694H66.6229V46.5481H3.37334Z" fill="#292831"/>
<path d="M7.88197 28.3921C9.06864 29.2227 10.6113 29.8161 12.3913 30.2907C13.4593 30.5281 14.4087 30.6467 15.4767 30.6467C17.9687 30.6467 20.1047 29.9347 20.4607 28.1547C20.5794 27.4427 20.5794 26.1374 18.562 24.7134C17.3753 23.8827 15.8327 23.2894 14.0527 22.8147C10.4926 21.984 6.57663 22.5774 5.9833 24.9507C5.86463 25.5441 5.9833 26.9681 7.88197 28.3921ZM11.086 24.832C11.798 24.832 12.6287 24.9507 13.578 25.0694C16.5447 25.6627 17.9687 26.9681 18.0873 27.4427C17.85 27.7987 15.9513 28.3921 12.9847 27.6801C10.018 26.9681 8.47531 25.6627 8.47531 25.3067C8.59397 25.1881 9.54331 24.832 11.086 24.832Z" fill="#414141"/>
</svg>
