<svg width="54" height="54" viewBox="0 0 54 54" fill="none" xmlns="http://www.w3.org/2000/svg">
<path d="M27.0269 41.7139C18.7871 41.7139 12.1129 35.1553 12.1129 27.0583C12.1129 18.9612 18.7871 12.4026 27.0269 12.4026C35.2667 12.4026 41.9409 18.9612 41.9409 27.0583C41.9409 35.1553 35.1843 41.7139 27.0269 41.7139ZM27.0269 16.3702C21.0943 16.3702 16.2328 21.1474 16.2328 26.9773C16.2328 32.8072 21.0943 37.5844 27.0269 37.5844C32.9596 37.5844 37.821 32.8882 37.821 26.9773C37.821 21.1474 32.9596 16.3702 27.0269 16.3702Z" fill="#414141"/>
<path d="M42.188 14.427C43.5077 14.427 44.5775 13.3757 44.5775 12.0788C44.5775 10.782 43.5077 9.73066 42.188 9.73066C40.8683 9.73066 39.7984 10.782 39.7984 12.0788C39.7984 13.3757 40.8683 14.427 42.188 14.427Z" fill="#414141"/>
<path d="M40.6222 53.5357H14.7492C8.15739 53.5357 4.44949 49.973 4.0375 49.4872C0.0823977 45.5196 0 40.0946 0 39.8517V13.6172C0 8.1922 3.04872 5.19629 3.70791 4.6295C7.663 0.580971 13.6781 0.5 13.9252 0.5H40.7046C40.9518 0.5 46.4724 0.823882 50.4275 4.71047C54.2178 8.43511 54.053 13.5363 53.9706 14.346V40.1756C53.9706 45.1957 50.9219 48.5155 50.1803 49.2443C46.9668 53.2928 40.8694 53.5357 40.6222 53.5357ZM13.9252 4.38659C13.9252 4.38659 9.31096 4.46756 6.50943 7.30153V7.46347L6.34464 7.54444C6.26224 7.62541 3.9551 9.64967 3.9551 13.6982V39.8517C3.9551 39.8517 4.0375 43.9812 6.83903 46.7342L6.92142 46.8152C7.00382 46.8961 9.72295 49.6491 14.7492 49.6491H40.5398C40.8694 49.6491 45.154 49.3252 47.0492 46.8152L47.1316 46.6532L47.2964 46.4913C47.2964 46.4913 49.9331 43.9812 49.9331 40.1756V14.1031C49.9331 14.1031 50.2627 10.1355 47.5436 7.46347C44.8245 4.79144 40.8694 4.38659 40.4574 4.38659H13.9252Z" fill="#414141"/>
</svg>
