<svg width="70" height="70" viewBox="0 0 70 70" fill="none" xmlns="http://www.w3.org/2000/svg">
<path d="M3 34.8581C3.90615 34.0378 4.94863 33.4754 6.18357 33.2566C7.73124 32.9832 9.67186 33.7097 10.6341 34.9441C9.49544 36.0846 8.15625 36.7721 6.47225 36.6081C5.20524 36.4909 4.09861 35.9518 3.16038 35.1081C3.11227 35.069 3.04811 35.0456 3 35.0144C3 34.9597 3 34.9128 3 34.8581Z" fill="#1A1919"/>
<path d="M34.8354 4C34.9076 4.09375 34.9718 4.18749 35.0439 4.27343C36.8081 6.32021 37.177 9.03103 34.9156 11.2966C34.8675 11.3434 34.8194 11.3825 34.7392 11.4528C33.9212 10.7106 33.3118 9.85912 33.0873 8.79667C32.6943 6.91394 33.376 5.35932 34.675 4C34.7312 4 34.7793 4 34.8354 4Z" fill="#1A1919"/>
<path d="M44.6411 11.4448C45.4293 11.0223 46.2255 10.8189 47.0377 11.0771C47.5122 11.2257 47.9545 11.4917 48.3647 11.7656C48.622 11.9377 48.7829 12.0081 49.0885 11.8516C50.0938 11.3353 51.1553 11.0379 52.2973 11.304C52.6673 11.39 53.0131 11.5778 53.4313 11.7421C53.1337 12.0629 52.8925 12.3132 52.6592 12.5714C51.284 14.1128 50.2546 15.834 49.9651 17.8917C49.8847 18.4551 49.9249 19.034 49.9249 19.6052C49.9249 19.9103 50.0616 20.0512 50.4074 20.0746C52.6029 20.2389 54.517 19.5191 56.2863 18.3534C57.0422 17.8448 57.7339 17.2423 58.4898 16.6634C58.9482 17.2189 59.1091 17.8761 59.0367 18.5959C58.9563 19.4174 58.6105 20.145 58.1681 20.8414C58.1038 20.9431 58.0797 21.1543 58.144 21.2247C59.2217 22.414 59.4469 23.7206 58.7311 25.1993C60.3878 25.7783 61.192 26.9362 61.2001 28.6106C62.8889 29.0018 64.3928 29.5416 64.7708 31.349C63.5001 31.5524 62.2455 31.6698 61.0312 31.9592C59.2941 32.3739 57.7741 33.2032 56.5838 34.549C56.3586 34.8072 56.3506 34.9871 56.5758 35.2453C57.7339 36.5989 59.2136 37.4595 60.9427 37.8742C62.0284 38.1324 63.1543 38.2106 64.2641 38.3671C64.3928 38.3827 64.5295 38.3827 64.6743 38.3905C64.5617 39.2668 64.1113 39.9475 63.4036 40.4013C62.8246 40.7769 62.1571 41.035 61.5137 41.3245C61.3368 41.4028 61.184 41.4419 61.1759 41.6844C61.1196 43.1319 60.4119 44.1177 58.9884 44.5871C58.9563 44.595 58.9241 44.6341 58.8759 44.6654C59.6399 46.0972 59.3262 47.3568 58.2003 48.4913C58.9724 49.9622 59.4951 51.4487 58.4577 53.0761C58.3049 52.9353 58.1762 52.8336 58.0556 52.7162C56.3989 51.214 54.5331 50.0796 52.2491 49.7431C51.7022 49.6649 51.1312 49.6805 50.5683 49.6884C49.9651 49.704 49.941 49.7509 49.9088 50.3534C49.8284 51.7774 50.1822 53.1153 50.8095 54.3984C51.4046 55.6189 52.2249 56.6986 53.182 57.6766C53.2704 57.7705 53.3589 57.8644 53.4474 57.9583C52.5627 58.8737 51.1634 58.7485 48.8713 57.5593C47.657 58.7094 46.2576 58.9911 44.7376 58.3025C44.416 58.772 44.1586 59.2414 43.8128 59.6405C43.2338 60.2977 42.4456 60.595 41.5771 60.6341C41.2232 60.6497 41.1106 60.7593 41.0382 61.0957C40.8372 62.0424 40.4512 62.9109 39.663 63.5524C39.2448 63.8967 38.8347 64.061 38.2476 64.1236C38.2074 63.5446 38.1832 62.9656 38.1109 62.3945C37.8776 60.4463 37.2745 58.6312 35.9716 57.0898C35.6821 56.7534 35.3283 56.4639 35.0146 56.151C34.8055 55.9475 34.6286 55.9632 34.3954 56.1431C33.3177 56.9803 32.5778 58.0444 32.047 59.2649C31.476 60.5793 31.2107 61.9485 31.1544 63.3647C31.1463 63.5837 31.1222 63.8028 31.0981 64.0532C30.2858 63.9515 29.6746 63.5603 29.1679 62.9969C28.6371 62.4101 28.2994 61.7138 28.0742 60.9705C28.0099 60.7671 27.9375 60.6576 27.7042 60.6497C26.2004 60.5871 25.187 59.883 24.7286 58.4669C24.7206 58.4277 24.6884 58.3964 24.6562 58.3417C24.3587 58.4277 24.0611 58.5373 23.7555 58.5999C22.702 58.8189 21.745 58.5764 20.9488 57.8957C20.5949 57.5984 20.3778 57.6219 20.0078 57.8488C19.1473 58.3808 18.1984 58.7172 17.1529 58.5216C16.7347 58.4434 16.3486 58.24 15.8742 58.06C16.0752 57.8409 16.1878 57.7157 16.3084 57.5906C17.8606 55.9632 19.0428 54.148 19.4047 51.9104C19.5012 51.3236 19.4449 50.7211 19.4771 50.1187C19.4931 49.7822 19.3001 49.704 19.0106 49.6805C17.6595 49.5397 16.3728 49.7822 15.1262 50.2752C13.6786 50.8463 12.4321 51.7148 11.3062 52.7554C11.2016 52.8492 11.089 52.9431 10.9764 53.0448C10.317 52.1686 10.2366 51.214 10.502 50.2282C10.6387 49.7197 10.896 49.2346 11.081 48.7338C11.1212 48.6165 11.1373 48.4131 11.0649 48.3348C10.0435 47.2238 9.82641 46.0033 10.5422 44.6419C10.4939 44.6106 10.4537 44.5715 10.4135 44.5558C9.03023 44.102 8.3386 43.1319 8.25014 41.7548C8.23405 41.4497 8.10538 41.3715 7.84802 41.2932C6.86687 40.9881 5.94202 40.55 5.33081 39.7128C5.04934 39.3372 4.88849 38.8756 4.64722 38.4062C5.4997 38.3279 6.23154 38.2967 6.95534 38.1871C9.22324 37.8429 11.2499 37.0292 12.802 35.2844C13.0755 34.9715 13.0674 34.7602 12.794 34.4629C11.5153 33.0702 9.89075 32.2487 8.04908 31.8497C6.95534 31.615 5.83747 31.5211 4.71156 31.3568C4.59897 30.2067 5.94202 29.127 8.22601 28.6028C8.25014 26.9519 9.02219 25.7627 10.695 25.1915C9.97117 23.6345 10.2205 22.2732 11.4268 21.0761C10.518 19.66 9.85858 18.2203 10.9121 16.6477C11.7807 17.2971 12.5849 17.9622 13.4615 18.5333C14.8608 19.4487 16.413 19.9964 18.1179 20.0825C18.4798 20.0981 18.8417 20.0746 19.1956 20.0199C19.3082 20.0042 19.461 19.8164 19.4771 19.6913C19.6942 18.3768 19.4208 17.125 18.9382 15.9123C18.3672 14.4961 17.4826 13.2756 16.4291 12.1724C16.3084 12.0472 16.1958 11.9299 16.0591 11.7812C16.984 11.1162 17.9732 11.0692 18.9945 11.3274C19.5092 11.4604 19.9837 11.703 20.4904 11.8751C20.611 11.9142 20.8201 11.9299 20.9005 11.8595C22.0506 10.8658 23.2971 10.6624 24.6965 11.3587C24.7286 11.304 24.7688 11.2727 24.7849 11.2257C25.2272 9.91129 26.1923 9.2306 27.5836 9.12889C27.9455 9.0976 28.0661 8.96459 28.1707 8.65163C28.4522 7.76752 28.8945 6.96948 29.6424 6.36703C30.0606 6.02278 30.5351 5.8037 31.1302 5.71764C31.1865 6.35921 31.2187 6.9773 31.2991 7.58757C31.5886 9.73134 32.3205 11.6952 33.9691 13.2208C34.8457 14.0267 34.6849 13.9876 35.5052 13.213C36.8965 11.8986 37.6283 10.2242 37.9741 8.39344C38.143 7.50151 38.2074 6.5861 38.32 5.64722C38.891 5.67852 39.3896 5.92889 39.8158 6.32009C40.5477 6.99295 40.8854 7.86141 41.1106 8.78464C41.1428 8.902 41.2715 9.08195 41.368 9.08195C42.9362 9.20713 44.0621 9.91911 44.6411 11.4448ZM34.7814 46.8091C34.7975 46.8483 34.8457 46.9656 34.894 47.083C35.9958 49.7822 37.3629 52.3172 39.47 54.414C40.6924 55.6346 42.0918 56.5969 43.7806 57.1133C44.0943 57.2072 44.2792 57.1759 44.4401 56.8629C45.1156 55.6033 45.4373 54.2576 45.5177 52.8492C45.6545 50.4864 45.1719 48.2096 44.3838 45.9876C44.0541 45.0722 43.6761 44.1725 43.3061 43.2336C43.4831 43.304 43.6278 43.3588 43.7726 43.4214C46.4426 44.5402 49.193 45.3773 52.1365 45.4321C53.9299 45.4634 55.6509 45.1896 57.2674 44.3759C57.5891 44.2116 57.6615 44.0473 57.5489 43.7108C56.9618 41.9192 55.8439 40.4795 54.4446 39.2199C52.4099 37.3891 49.9973 36.1607 47.4479 35.1592C47.2549 35.081 47.0618 35.0028 46.8045 34.9011C47.0136 34.815 47.1584 34.7602 47.3031 34.7055C49.756 33.7588 52.0802 32.593 54.0827 30.8952C55.6107 29.6042 56.8573 28.1098 57.5006 26.2008C57.6856 25.6453 57.6856 25.6375 57.1548 25.3793C55.0478 24.3543 52.8201 24.2135 50.5361 24.4795C48.1395 24.7612 45.8716 25.4888 43.66 26.4199C43.5474 26.4668 43.4348 26.5059 43.2659 26.5763C43.3624 26.3573 43.4187 26.2321 43.475 26.0991C44.5929 23.5719 45.4373 20.9744 45.5338 18.1969C45.5982 16.3504 45.3328 14.5587 44.416 12.9C44.2792 12.6497 44.1345 12.5793 43.845 12.6653C42.2285 13.1426 40.8774 14.0345 39.6871 15.169C37.7168 17.0389 36.3818 19.3157 35.2961 21.749C35.1031 22.1871 34.9181 22.6331 34.709 23.1338C34.6205 22.9304 34.5643 22.7895 34.508 22.6487C33.4786 20.1137 32.1918 17.7196 30.2697 15.701C29.0393 14.4022 27.6238 13.346 25.8787 12.767C25.1951 12.5401 25.187 12.5401 24.8814 13.1504C23.7796 15.3489 23.7073 17.6648 24.0692 20.0277C24.3989 22.1793 25.1066 24.2213 26.0073 26.2086C26.0556 26.3103 26.0797 26.412 26.1199 26.5216C26.0556 26.5294 26.0476 26.5294 26.0315 26.5294C25.7017 26.3964 25.364 26.2556 25.0342 26.1226C22.3883 25.0741 19.662 24.3309 16.7749 24.37C15.1343 24.3935 13.558 24.6986 12.0943 25.4653C11.845 25.5984 11.7646 25.7235 11.853 26.013C12.1667 27.0223 12.6653 27.9377 13.3087 28.7827C15.0297 31.036 17.362 32.546 19.9113 33.7666C20.7719 34.1734 21.6645 34.5255 22.5331 34.9089C22.517 34.9323 22.5009 34.9558 22.4848 34.9636C22.3723 35.0106 22.2597 35.0497 22.1471 35.0967C19.5173 36.1138 17.0322 37.3734 14.9413 39.259C13.566 40.503 12.4723 41.927 11.8852 43.6874C11.7726 44.0316 11.8209 44.2116 12.1747 44.3915C14.129 45.3695 16.2119 45.5651 18.3512 45.3852C20.8282 45.1818 23.1765 44.4619 25.4524 43.5152C25.6615 43.4292 25.8787 43.3431 26.1682 43.2258C26.0073 43.5935 25.8787 43.8751 25.758 44.1646C24.5276 47.0986 23.651 50.0952 23.9485 53.3187C24.0692 54.5862 24.3989 55.7989 25.0262 56.9333C25.1549 57.1681 25.3077 57.262 25.565 57.1524C26.1038 56.9334 26.6748 56.7612 27.1895 56.4874C29.4253 55.3138 31.0659 53.5299 32.3205 51.4331C33.2292 49.9231 33.9772 48.3348 34.7814 46.8091Z" fill="#292831"/>
<path d="M51.7646 18.2412C51.7406 16.8116 52.1175 15.5148 53.2081 14.4836C54.2185 13.5305 55.4855 13.1165 56.8648 13.0227C57.0492 13.0071 57.1855 13.0461 57.2016 13.2883C57.394 15.9835 54.6034 18.6162 51.8689 18.2959C51.8448 18.2881 51.8288 18.2725 51.7646 18.2412Z" fill="#1A1919"/>
<path d="M51.7704 51.5294C54.8417 51.2872 57.4479 53.8262 57.1672 56.787C55.82 56.8026 54.6011 56.4276 53.5506 55.6152C52.2114 54.5762 51.7543 53.1622 51.7704 51.5294Z" fill="#1A1919"/>
<path d="M17.7158 51.529C17.7077 53.2712 17.1945 54.7477 15.703 55.7789C14.8048 56.4038 13.7784 56.7085 12.6798 56.7944C12.4232 56.8179 12.2788 56.7632 12.2869 56.4663C12.367 53.9899 14.1312 51.3181 17.7158 51.529Z" fill="#1A1919"/>
<path d="M34.7325 58.3805C37.2024 60.5836 36.8736 63.5288 34.9731 65.6302C34.7967 65.8255 34.6603 65.8099 34.4919 65.6224C32.6796 63.6616 32.1825 60.6617 34.7325 58.3805Z" fill="#1A1919"/>
<path d="M17.6921 18.2726C15.5831 18.5304 13.5142 17.3039 12.7283 15.2883C12.4877 14.679 12.4236 14.0071 12.2873 13.3587C12.2391 13.1478 12.3354 13.015 12.584 13.0072C15.3987 12.929 17.8445 15.3586 17.7162 18.1007C17.7242 18.1554 17.7081 18.2023 17.6921 18.2726Z" fill="#1A1919"/>
<path d="M59.3658 35C60.272 34.1798 61.3145 33.6173 62.5494 33.3985C64.0971 33.1251 66.0377 33.8516 67 35.086C65.8613 36.2266 64.5221 36.914 62.8381 36.75C61.5711 36.6328 60.4645 36.0938 59.5262 35.25C59.4781 35.211 59.414 35.1875 59.3658 35.1563C59.3658 35.1016 59.3658 35.0547 59.3658 35Z" fill="#1A1919"/>
</svg>
