<svg width="91" height="87" viewBox="0 0 91 87" fill="none" xmlns="http://www.w3.org/2000/svg">
<path d="M8.73916 65.8387C8.45725 63.0033 8.06258 60.6405 8.06258 58.2776C8.06258 56.5055 7.55514 55.7376 5.92007 55.1469C0.620198 53.1385 0 52.1343 0 46.3453C0 38.4298 1.12763 36.8939 8.51363 35.0627C18.324 32.6999 28.2472 32.818 38.1704 33.9995C38.5087 34.0585 38.9033 34.0585 39.6927 34.1176C39.6927 32.0501 39.6927 30.1008 39.6927 28.2105C39.6927 22.1853 39.6927 16.2191 39.6927 10.1938C39.6927 6.17701 40.4256 4.52302 44.0905 3.3416C48.0936 2.04204 52.2658 0.978761 56.3817 0.565264C65.741 -0.379873 75.1568 -0.379873 84.2906 2.45554C90.2107 4.28674 91 5.46816 91 11.7888C91 28.9784 91 46.2272 91 63.4168C91 68.6741 90.0415 70.0918 85.2491 71.7458C77.9195 74.2859 70.3079 74.404 62.6964 74.5812C60.4411 74.6403 58.2423 75.7627 56.0434 76.4715C55.7051 76.5897 55.3668 77.2394 55.3668 77.5939C55.4796 81.7879 52.5477 83.0875 49.5595 84.1507C41.7788 86.868 33.7162 87.3997 25.6537 86.7499C20.3538 86.3364 15.0539 85.4503 9.86679 84.0917C4.79244 82.7921 3.94672 81.0791 3.94672 75.6445C3.94672 75.172 4.0031 74.6403 3.94672 74.1677C3.3829 69.7965 4.84882 66.6657 8.73916 65.8387ZM86.9969 13.4427C72.3941 17.5186 58.0731 17.5186 43.7522 13.3837C42.6245 20.4131 43.1884 21.7718 48.7701 23.0122C59.2571 25.3751 69.8569 25.7295 80.3439 23.2485C88.4628 21.4173 87.2224 22.0671 86.9969 13.4427ZM43.4703 25.7886C43.4703 26.9109 43.4703 27.9151 43.4703 28.9193C43.4703 33.9404 43.4139 34.2357 48.0936 35.1809C53.3934 36.2442 58.8061 37.0711 64.2187 37.2484C71.0409 37.5437 77.9195 37.0121 84.4597 34.5311C85.531 34.1176 86.8841 33.0543 87.0533 32.0501C87.448 30.0417 87.1661 27.9151 87.1661 25.7886C72.4504 29.9826 58.1295 29.9826 43.4703 25.7886ZM87.1661 38.0754C75.3823 42.1513 63.4858 41.7378 51.3637 40.3791C51.3637 42.9192 51.2509 45.1048 51.4201 47.2314C51.4765 47.8811 52.3786 48.9444 52.9424 49.0035C62.6964 49.9486 72.4504 50.3621 82.0353 47.8221C87.1097 46.5225 87.0533 46.4044 87.1097 40.9108C87.1661 40.0838 87.1661 39.1977 87.1661 38.0754ZM4.22862 41.5605C10.8253 47.0542 42.5118 46.8769 47.3606 41.2652C41.8916 35.9488 9.47212 35.8897 4.22862 41.5605ZM86.8841 8.95335C86.8841 8.53985 86.9405 8.12635 86.9405 7.71286C85.6437 7.18122 84.4033 6.47237 83.1066 6.23608C78.0886 5.40909 73.127 4.40488 68.0527 4.1686C60.723 3.81417 53.3934 4.10952 46.3457 6.70865C45.3872 7.06307 44.5979 7.71286 43.6958 8.2445C43.8086 8.59892 43.8649 8.89428 43.9777 9.2487C58.355 13.5018 72.676 13.8562 86.8841 8.95335ZM59.6518 53.6701C59.1444 55.6194 58.9188 57.1553 60.9486 58.2776C61.8507 58.7502 62.3581 60.0498 63.1475 60.8768C63.6549 61.4084 64.3879 62.1763 64.9517 62.1173C70.0824 61.7628 75.3259 61.7038 80.2875 60.5814C88.8575 58.6321 87.0533 58.9274 87.1661 51.13C87.1661 50.9528 87.0533 50.8347 86.8841 50.5393C78.0886 53.7882 68.8984 53.9064 59.6518 53.6701ZM12.0657 58.9865C11.6146 62.4717 11.671 62.9443 14.7156 63.7122C19.2825 64.7755 23.8494 65.7206 28.5291 66.1341C36.5917 66.8429 44.5979 66.2522 52.4349 63.8303C54.6338 63.1215 56.438 61.9991 55.254 59.0456C40.8767 63.1805 26.5558 63.1215 12.0657 58.9865ZM4.11586 46.5225C3.27014 49.0626 4.17224 50.7166 6.65304 51.2482C10.8817 52.1343 15.0539 53.1385 19.3389 53.552C27.6834 54.438 36.0279 53.8473 44.1468 51.4845C46.4021 50.8347 48.601 49.8896 47.3042 46.6407C32.9269 50.7166 18.5496 50.7756 4.11586 46.5225ZM8.17534 75.172C7.16047 78.3618 8.57001 79.7795 11.2763 80.5474C19.4517 82.8512 27.7398 83.4419 36.0843 82.5558C40.5384 82.0833 44.8798 80.9609 49.2776 79.9567C50.1797 79.7795 50.9126 78.8934 51.702 78.3027C36.7608 79.2479 22.3271 79.2479 8.17534 75.172ZM16.1815 68.6151C15.956 68.9104 15.6741 69.1467 15.4486 69.4421C16.3507 70.21 17.14 71.4505 18.1549 71.7458C22.3271 72.75 26.5558 73.8133 30.7844 74.2268C39.5235 75.0538 48.2063 74.7585 56.6636 71.864C59.5954 70.8598 59.7646 70.3872 58.9752 67.3155C44.8798 71.5686 30.5589 70.9779 16.1815 68.6151ZM87.1661 63.7122C79.2162 64.7755 71.3792 65.8387 63.4858 66.902C63.4858 67.9062 63.4858 69.0876 63.4858 70.4463C70.7026 70.5053 77.5812 70.0918 84.2906 67.9062C86.6022 67.0792 87.8426 65.7797 87.1661 63.7122ZM55.8178 53.9064C52.3222 52.725 49.8978 52.8431 47.3042 54.438C45.2745 55.6785 42.7373 56.092 40.3693 56.6237C38.0576 57.1553 35.6896 57.4506 33.3216 57.8641C40.7076 57.6869 48.2063 57.8051 55.8178 53.9064Z" fill="white"/>
</svg>
