<svg width="320" height="105" viewBox="0 0 320 105" fill="none" xmlns="http://www.w3.org/2000/svg">
<g clip-path="url(#clip0)">
<path d="M19.7178 81.365V72.3578H5.11759V81.365H0V59.2974H5.11759V67.629H19.7178V59.2974H24.8354V81.365H19.7178Z" fill="#BC9764"/>
<path d="M91.8154 81.365V72.3578H77.14V81.365H72.0977V59.2974H77.14V67.629H91.8154V59.2974H96.933V81.365H91.8154Z" fill="#BC9764"/>
<path d="M35.6733 59.2974H30.5557V81.365H35.6733V59.2974Z" fill="#BC9764"/>
<path d="M53.7345 81.9655C51.853 81.9655 50.122 81.7403 48.4663 81.2149C46.8106 80.6895 45.3807 80.0139 44.1766 79.1132C41.2415 76.8614 39.7363 73.9341 39.7363 70.3312C39.7363 66.8034 41.2415 63.876 44.2519 61.6242C45.456 60.6485 46.9612 59.8979 48.6169 59.4475C50.2725 58.9221 52.0788 58.6969 53.9602 58.6969C56.3685 58.6969 58.551 59.1473 60.4325 59.9729C62.3139 60.7986 64.1202 62.1497 65.6253 63.9511L66.3779 64.7768L61.7119 67.0286L61.2603 66.5782C60.282 65.5274 59.2283 64.7768 58.0242 64.2513C56.8201 63.7259 55.3901 63.4257 53.7345 63.4257C52.5303 63.4257 51.4014 63.5758 50.4231 63.876C49.3694 64.1763 48.5416 64.6266 47.789 65.1521C45.9828 66.5031 45.0797 68.1545 45.0797 70.2561C45.0797 71.2319 45.3055 72.2077 45.6818 73.0334C46.0581 73.859 46.6601 74.6096 47.4127 75.2101C48.1653 75.8106 49.0684 76.336 50.122 76.6362C51.1757 77.0115 52.4551 77.1617 53.8097 77.1617C55.8417 77.1617 57.5726 76.7113 58.9273 75.9607C59.9057 75.3602 60.6583 74.6096 61.2603 73.6338H52.2293V68.9051H67.6573V70.106C67.6573 71.8324 67.281 73.4837 66.6789 74.9849C66.0016 76.4861 65.0233 77.7621 63.8191 78.813C62.615 79.8638 61.1098 80.6895 59.4541 81.2149C57.7232 81.6652 55.8417 81.9655 53.7345 81.9655Z" fill="#BC9764"/>
<path d="M125.456 81.44L119.285 72.7331H107.244V81.44H104.083V59.2223H121.844C124.177 59.2223 125.983 59.8228 127.338 61.0237C128.617 62.2247 129.295 63.9511 129.295 66.0527C129.295 67.0285 129.144 67.8542 128.843 68.6048C128.542 69.3554 128.166 69.9559 127.639 70.4813C127.112 71.0067 126.51 71.4571 125.833 71.7573C125.155 72.0575 124.403 72.2827 123.575 72.4328L123.048 72.5079L129.144 81.2899H125.456V81.44ZM107.244 69.9559H121.242C122.747 69.9559 123.951 69.6556 124.704 68.9801C125.532 68.3045 125.983 67.3288 125.983 66.1278C125.983 63.4256 124.252 61.9995 120.941 61.9995H107.244V69.9559Z" fill="#005473"/>
<path d="M135.992 81.44V59.2223H158.419V61.9995H139.153V68.5297H152.549V71.3069H139.153V78.6628H159.322V81.44H135.992Z" fill="#005473"/>
<path d="M187.093 81.44L181.148 61.5491L175.127 81.44H170.762L163.387 59.2223H166.999L172.945 79.1882L178.965 59.2223H183.255L189.276 79.1882L195.221 59.2223H198.834L191.534 81.44H187.093Z" fill="#005473"/>
<path d="M224.045 81.44L221.411 76.336H205.607L202.973 81.44H199.586L211.402 59.2223H215.767L227.582 81.44H224.045ZM207.112 73.5587H219.83L213.509 61.4741L207.112 73.5587Z" fill="#005473"/>
<path d="M253.773 81.44L247.602 72.7331H235.56V81.44H232.399V59.2223H250.16C252.493 59.2223 254.3 59.8228 255.654 61.0237C256.934 62.2247 257.611 63.9511 257.611 66.0527C257.611 67.0285 257.461 67.8542 257.16 68.6048C256.858 69.3554 256.482 69.9559 255.955 70.4813C255.429 71.0067 254.827 71.4571 254.149 71.7573C253.472 72.0575 252.719 72.2827 251.891 72.4328L251.365 72.5079L257.461 81.2899H253.773V81.44ZM235.56 69.9559H249.558C251.064 69.9559 252.268 69.6556 253.02 68.9801C253.848 68.3045 254.3 67.3288 254.3 66.1278C254.3 63.4256 252.569 61.9995 249.257 61.9995H235.56V69.9559Z" fill="#005473"/>
<path d="M264.309 81.44V59.2223H278.457C280.414 59.2223 282.22 59.5225 283.801 60.0479C285.381 60.5734 286.66 61.324 287.789 62.2997C288.843 63.2755 289.671 64.4765 290.273 65.8276C290.875 67.2537 291.176 68.83 291.176 70.4813C291.176 72.0575 290.875 73.4837 290.273 74.8348C289.671 76.1858 288.768 77.3117 287.563 78.3626C286.51 79.3384 285.23 80.089 283.801 80.5393C282.371 81.0648 280.865 81.2899 279.21 81.2899H264.309V81.44ZM267.469 78.6628H279.511C280.715 78.6628 281.769 78.4376 282.747 78.0623C283.725 77.687 284.628 77.0866 285.306 76.336C285.983 75.5854 286.585 74.7597 286.961 73.7089C287.338 72.7331 287.563 71.6072 287.563 70.4062C287.563 69.1302 287.338 68.0043 286.886 66.9535C286.435 65.9026 285.833 65.0019 285.08 64.2513C284.327 63.5007 283.349 62.9002 282.295 62.5249C281.242 62.1496 280.038 61.9244 278.683 61.9244H267.319V78.6628H267.469Z" fill="#005473"/>
<path d="M307.809 81.9655C304.949 81.9655 302.315 81.6652 300.133 81.0648C298.025 80.4643 296.219 79.5636 294.639 78.3626L296.37 76.1108C298.176 77.1617 299.982 77.9873 301.788 78.5127C303.67 79.0381 305.702 79.3384 307.884 79.3384C310.669 79.3384 312.776 78.9631 314.281 78.2125C315.786 77.4619 316.539 76.336 316.539 74.9849C316.539 74.0842 316.238 73.3336 315.711 72.8832C315.184 72.4329 314.432 72.0576 313.529 71.8324C312.625 71.6072 311.497 71.4571 310.142 71.307C308.787 71.2319 307.282 71.0818 305.626 71.0067C303.895 70.8566 302.315 70.7065 301.036 70.4813C299.756 70.2561 298.703 69.9559 297.8 69.5055C296.972 69.1302 296.37 68.5298 295.918 67.8542C295.542 67.1787 295.316 66.353 295.316 65.3022C295.316 63.2756 296.219 61.6993 298.176 60.4983C300.133 59.2974 302.917 58.6969 306.605 58.6969C311.271 58.6969 315.335 59.7477 318.496 61.8494L316.614 63.9511C314.959 63.1254 313.303 62.525 311.647 62.0746C309.916 61.6242 308.11 61.3991 306.304 61.3991C303.895 61.3991 302.014 61.6993 300.735 62.2998C299.38 62.9003 298.703 63.801 298.703 64.8518C298.703 65.9777 299.455 66.8784 300.885 67.3288C301.562 67.554 302.24 67.7041 303.068 67.8542C303.82 67.9293 304.723 68.0043 305.626 68.0794L308.562 68.2295C309.615 68.3046 310.669 68.3796 311.873 68.5298C314.657 68.9051 316.765 69.5806 318.044 70.5564C319.324 71.5322 320.001 72.8832 320.001 74.6847C320.001 77.0115 319.022 78.7379 316.991 80.0139C314.883 81.2899 311.798 81.9655 307.809 81.9655Z" fill="#005473"/>
<path d="M100.546 6.45516C97.3098 3.30264 100.395 0 100.546 0C100.696 0 103.782 3.30264 100.546 6.45516ZM100.546 53.2175C100.696 53.2175 103.782 49.9149 100.546 46.7624C97.3098 49.9149 100.395 53.2175 100.546 53.2175ZM80.3013 26.5712C77.1405 23.3436 73.8291 26.4211 73.8291 26.5712C73.9044 26.7964 77.1405 29.8739 80.3013 26.5712ZM120.791 26.5712C123.951 29.7988 127.263 26.7213 127.263 26.5712C127.188 26.4211 123.876 23.3436 120.791 26.5712ZM114.845 40.8326C114.77 45.3362 119.285 45.4863 119.436 45.4113C119.511 45.2612 119.361 40.7576 114.845 40.8326ZM86.2468 12.3098C86.322 7.80624 81.8065 7.65612 81.656 7.73118C81.5807 7.8813 81.7313 12.3849 86.2468 12.3098ZM114.845 12.3098C119.361 12.3849 119.511 7.8813 119.436 7.73118C119.285 7.65612 114.77 7.80624 114.845 12.3098ZM86.2468 40.8326C81.7313 40.7576 81.5807 45.2612 81.656 45.4113C81.8065 45.4863 86.322 45.3362 86.2468 40.8326ZM125.682 29.5736C125.381 31.6753 122.747 32.2007 122.747 32.2007C122.747 34.0772 121.618 34.7528 120.791 34.9779C121.242 35.7285 121.543 37.0046 120.264 38.2806C120.264 38.2806 121.769 40.5324 120.489 42.1837C116.727 38.4307 113.415 39.3314 113.415 39.3314C113.415 39.3314 112.587 42.6341 116.35 46.3871C114.695 47.7381 112.512 46.0118 112.512 46.0118C111.157 47.3628 109.727 47.0626 108.975 46.6122C108.674 47.4379 107.997 48.7139 106.04 48.7139C106.04 48.7139 105.739 51.4911 103.556 51.7163C103.556 46.3871 100.621 44.6607 100.621 44.6607C100.621 44.6607 97.6108 46.312 97.6108 51.6413C95.5036 51.341 94.9768 48.7139 94.9768 48.7139C93.0953 48.7139 92.418 47.513 92.1922 46.6873C91.3644 47.0626 90.0097 47.3628 88.7303 46.0118C88.7303 46.0118 86.5478 47.7381 84.8921 46.3871C88.6551 42.6341 87.8272 39.3314 87.8272 39.3314C87.8272 39.3314 84.5158 38.4307 80.7529 42.1837C79.4735 40.5324 80.9787 38.2806 80.9787 38.2806C79.6993 37.0046 80.0003 35.7285 80.4519 34.9779C79.624 34.7528 78.4951 34.0772 78.4951 32.2007C78.4951 32.2007 75.8611 31.6753 75.5601 29.5736C80.9034 29.5736 82.5591 26.5712 82.5591 26.5712C82.5591 26.5712 80.8282 23.6439 75.4848 23.6439C75.7106 21.5422 78.4951 21.1669 78.4951 21.1669C78.4951 19.2154 79.6993 18.4648 80.6024 18.2396C80.2261 17.4139 79.8498 16.0628 81.2045 14.7118C81.2045 14.7118 79.4735 12.535 80.8282 10.8837C84.5911 14.6367 87.9025 13.811 87.9025 13.811C87.9025 13.811 88.8056 10.5084 85.0426 6.7554C86.6983 5.47938 88.9561 6.98058 88.9561 6.98058C90.2355 5.70456 91.5149 6.0048 92.2675 6.45516C92.4933 5.6295 93.1706 4.5036 95.0521 4.5036C95.0521 4.5036 95.5789 1.8765 97.6861 1.57626C97.6861 6.90552 100.696 8.55684 100.696 8.55684C100.696 8.55684 103.632 6.83046 103.632 1.5012C105.739 1.72638 106.115 4.5036 106.115 4.5036C107.997 4.5036 108.749 5.6295 109.05 6.53022C109.803 6.07986 111.082 5.70456 112.437 7.05564C112.437 7.05564 114.695 5.55444 116.35 6.83046C112.587 10.5835 113.49 13.8861 113.49 13.8861C113.49 13.8861 116.802 14.7118 120.565 10.9588C121.919 12.6101 120.188 14.7868 120.188 14.7868C121.543 16.1379 121.242 17.564 120.791 18.3146C121.618 18.6149 122.898 19.2904 122.898 21.242C122.898 21.242 125.682 21.5422 125.908 23.7189C120.565 23.7189 118.834 26.6463 118.834 26.6463C118.834 26.6463 120.339 29.5736 125.682 29.5736ZM108.599 26.5712C114.469 24.3945 115.598 21.317 115.899 20.2662C114.92 19.6657 111.91 18.3146 106.266 20.9417C108.824 15.3122 107.545 12.3098 106.943 11.3341C105.814 11.5592 102.804 12.7602 100.621 18.6149C98.4387 12.8353 95.4283 11.6343 94.2995 11.3341C93.6974 12.3098 92.3427 15.3122 94.9768 20.9417C89.3324 18.3897 86.322 19.6657 85.3437 20.2662C85.5695 21.3921 86.7736 24.3945 92.6438 26.5712C86.7736 28.748 85.6447 31.7504 85.3437 32.8763C86.322 33.4767 89.3324 34.8278 94.9768 32.2007C92.418 37.8302 93.6974 40.8326 94.2995 41.8084C95.4283 41.5832 98.4387 40.3823 100.621 34.5276C102.804 40.3823 105.889 41.5082 106.943 41.8084C107.545 40.8326 108.9 37.8302 106.266 32.2007C111.91 34.7528 114.92 33.4767 115.899 32.8763C115.598 31.8254 114.469 28.748 108.599 26.5712Z" fill="#BC9764"/>
<path d="M104.083 93.5247C104.083 93.2995 104.309 93.0743 104.535 93.0743C104.76 93.0743 104.986 93.2995 104.986 93.5247V103.883H111.458C111.684 103.883 111.835 104.033 111.835 104.258C111.835 104.483 111.684 104.634 111.458 104.634H104.61C104.384 104.634 104.158 104.408 104.158 104.183V93.5247H104.083Z" fill="#939598"/>
<path d="M116.501 98.929C116.501 95.7765 118.834 92.9242 122.296 92.9242C125.758 92.9242 128.091 95.7014 128.091 98.8539C128.091 102.006 125.758 104.784 122.296 104.784C118.834 104.859 116.501 102.082 116.501 98.929ZM127.263 98.929C127.263 96.0767 125.156 93.7499 122.371 93.7499C119.511 93.7499 117.479 96.0767 117.479 98.8539C117.479 101.706 119.587 104.033 122.371 104.033C125.156 104.108 127.263 101.781 127.263 98.929Z" fill="#939598"/>
<path d="M137.272 100.13L132.757 93.8248C132.682 93.7498 132.682 93.6747 132.682 93.5997C132.682 93.3745 132.907 93.1493 133.133 93.1493C133.284 93.1493 133.434 93.2244 133.509 93.3745L137.724 99.3793L141.938 93.3745C142.014 93.2244 142.164 93.1493 142.315 93.1493C142.541 93.1493 142.766 93.3745 142.766 93.5246C142.766 93.6747 142.691 93.7498 142.616 93.8248L138.176 100.055V104.258C138.176 104.483 137.95 104.709 137.724 104.709C137.498 104.709 137.272 104.483 137.272 104.258V100.13Z" fill="#939598"/>
<path d="M146.228 104.108L151.12 93.4496C151.271 93.2245 151.421 93.0743 151.722 93.0743C152.023 93.0743 152.174 93.2245 152.324 93.4496L157.216 104.033C157.291 104.108 157.291 104.183 157.291 104.258C157.291 104.483 157.141 104.634 156.915 104.634C156.689 104.634 156.539 104.483 156.464 104.333L155.109 101.406H148.336L146.981 104.408C146.906 104.634 146.755 104.709 146.605 104.709C146.379 104.709 146.228 104.559 146.228 104.333C146.153 104.258 146.153 104.183 146.228 104.108ZM154.733 100.655L151.722 93.9751L148.712 100.655H154.733Z" fill="#939598"/>
<path d="M163.387 93.5247C163.387 93.2995 163.612 93.0743 163.838 93.0743C164.064 93.0743 164.29 93.2995 164.29 93.5247V103.883H170.762C170.988 103.883 171.138 104.033 171.138 104.258C171.138 104.483 170.988 104.634 170.762 104.634H163.914C163.688 104.634 163.462 104.408 163.462 104.183V93.5247H163.387Z" fill="#939598"/>
<path d="M178.589 93.975H174.902C174.676 93.975 174.525 93.8248 174.525 93.5997C174.525 93.3745 174.676 93.2244 174.902 93.2244H183.105C183.331 93.2244 183.481 93.3745 183.481 93.5997C183.481 93.8248 183.331 93.975 183.105 93.975H179.417V104.333C179.417 104.558 179.191 104.784 178.966 104.784C178.74 104.784 178.514 104.558 178.514 104.333V93.975H178.589Z" fill="#939598"/>
<path d="M193.265 100.13L188.749 93.8248C188.674 93.7498 188.674 93.6747 188.674 93.5997C188.674 93.3745 188.9 93.1493 189.125 93.1493C189.276 93.1493 189.426 93.2244 189.502 93.3745L193.716 99.3793L197.931 93.3745C198.006 93.2244 198.156 93.1493 198.307 93.1493C198.533 93.1493 198.759 93.3745 198.759 93.5246C198.759 93.6747 198.683 93.7498 198.608 93.8248L194.168 100.055V104.258C194.168 104.483 193.942 104.709 193.716 104.709C193.49 104.709 193.265 104.483 193.265 104.258V100.13V100.13Z" fill="#939598"/>
<path d="M213.133 93.5997C213.133 93.3745 213.359 93.1493 213.584 93.1493H217.347C219.906 93.1493 221.637 94.4253 221.637 96.6771C221.637 99.079 219.53 100.355 217.122 100.355H214.036V104.258C214.036 104.483 213.81 104.709 213.584 104.709C213.359 104.709 213.133 104.483 213.133 104.258V93.5997V93.5997ZM217.197 99.6045C219.304 99.6045 220.809 98.4786 220.809 96.7522C220.809 94.9507 219.379 93.975 217.347 93.975H214.111V99.6045H217.197Z" fill="#939598"/>
<path d="M227.583 93.5997C227.583 93.3745 227.809 93.1493 228.035 93.1493H232.475C233.905 93.1493 235.034 93.5997 235.711 94.2752C236.238 94.8006 236.614 95.5512 236.614 96.3769C236.614 98.3284 235.184 99.3793 233.227 99.6795L236.539 103.883C236.614 103.958 236.689 104.108 236.689 104.183C236.689 104.408 236.464 104.633 236.238 104.633C236.087 104.633 235.937 104.558 235.861 104.408L232.324 99.8296H228.561V104.258C228.561 104.483 228.336 104.709 228.11 104.709C227.884 104.709 227.658 104.483 227.658 104.258V93.5997H227.583ZM232.324 99.1541C234.281 99.1541 235.711 98.1783 235.711 96.527C235.711 94.9507 234.507 94.05 232.4 94.05H228.486V99.2292H232.324V99.1541Z" fill="#939598"/>
<path d="M242.483 98.929C242.483 95.7765 244.816 92.9242 248.278 92.9242C251.74 92.9242 254.073 95.7014 254.073 98.8539C254.073 102.006 251.74 104.784 248.278 104.784C244.741 104.859 242.483 102.082 242.483 98.929ZM253.17 98.929C253.17 96.0767 251.063 93.7499 248.278 93.7499C245.418 93.7499 243.386 96.0767 243.386 98.8539C243.386 101.706 245.494 104.033 248.278 104.033C251.138 104.108 253.17 101.781 253.17 98.929Z" fill="#939598"/>
<path d="M259.944 98.929C259.944 95.7765 262.202 92.9242 265.664 92.9242C267.395 92.9242 268.524 93.3746 269.577 94.2002C269.653 94.2753 269.728 94.4254 269.728 94.5755C269.728 94.8007 269.502 95.0259 269.276 95.0259C269.201 95.0259 269.126 95.0259 268.975 94.8758C268.072 94.2002 267.094 93.6748 265.513 93.6748C262.729 93.6748 260.772 96.0767 260.772 98.7789C260.772 101.781 262.654 103.958 265.739 103.958C267.169 103.958 268.599 103.358 269.427 102.682V99.3794H265.815C265.589 99.3794 265.438 99.2292 265.438 99.0041C265.438 98.7789 265.589 98.6288 265.815 98.6288H269.803C270.029 98.6288 270.255 98.8539 270.255 99.0791V102.832C270.255 102.982 270.104 103.207 269.954 103.358C268.9 104.183 267.47 104.859 265.739 104.859C262.052 104.859 259.944 102.157 259.944 98.929Z" fill="#939598"/>
<path d="M276.802 93.5997C276.802 93.3745 277.028 93.1493 277.253 93.1493H281.694C283.123 93.1493 284.252 93.5997 284.93 94.2752C285.456 94.8006 285.833 95.5512 285.833 96.3769C285.833 98.3284 284.403 99.3793 282.446 99.6795L285.757 103.883C285.833 103.958 285.908 104.108 285.908 104.183C285.908 104.408 285.682 104.633 285.456 104.633C285.306 104.633 285.155 104.558 285.08 104.408L281.543 99.8296H277.78V104.258C277.78 104.483 277.554 104.709 277.329 104.709C277.103 104.709 276.877 104.483 276.877 104.258V93.5997H276.802ZM281.543 99.1541C283.5 99.1541 284.93 98.1783 284.93 96.527C284.93 94.9507 283.726 94.05 281.618 94.05H277.705V99.2292H281.543V99.1541Z" fill="#939598"/>
<path d="M291.402 104.108L296.293 93.4496C296.444 93.2245 296.594 93.0743 296.895 93.0743C297.197 93.0743 297.347 93.2245 297.498 93.4496L302.389 104.033C302.465 104.108 302.465 104.183 302.465 104.258C302.465 104.483 302.314 104.634 302.088 104.634C301.863 104.634 301.712 104.483 301.637 104.333L300.282 101.406H293.509L292.154 104.408C292.079 104.634 291.928 104.709 291.778 104.709C291.552 104.709 291.402 104.559 291.402 104.333C291.326 104.258 291.402 104.183 291.402 104.108ZM299.981 100.655L296.971 93.9751L293.96 100.655H299.981Z" fill="#939598"/>
<path d="M308.636 93.5247C308.636 93.2995 308.862 93.0743 309.087 93.0743H309.163C309.313 93.0743 309.464 93.1494 309.614 93.2995L314.13 99.9048L318.645 93.2995C318.72 93.1494 318.871 93.0743 319.097 93.0743H319.172C319.398 93.0743 319.624 93.2995 319.624 93.5247V104.258C319.624 104.483 319.398 104.709 319.172 104.709C318.946 104.709 318.72 104.483 318.72 104.258V94.6506L314.506 100.806C314.431 100.956 314.28 101.031 314.13 101.031C313.979 101.031 313.829 100.956 313.753 100.806L309.539 94.6506V104.333C309.539 104.559 309.388 104.709 309.163 104.709C308.937 104.709 308.786 104.559 308.786 104.333V93.5247H308.636Z" fill="#939598"/>
</g>
<defs>
<clipPath id="clip0">
<rect width="320" height="104.859" fill="white"/>
</clipPath>
</defs>
</svg>
