<svg width="116" height="105" viewBox="0 0 116 105" fill="none" xmlns="http://www.w3.org/2000/svg">
<path d="M85.6644 6.98249C82.0812 3.58026 85.4631 0 85.6644 0C85.8455 0 89.2476 3.56048 85.6644 6.98249Z" fill="white"/>
<path d="M76.2832 7.97163C76.2832 7.97163 81.9197 8.07053 85.664 17.941C89.4082 8.07053 95.0447 7.97163 95.0447 7.97163C95.0447 7.97163 94.9038 4.82654 91.6024 4.82654C91.6024 4.82654 91.2602 1.81992 88.9049 1.56277C88.9049 7.33866 85.664 9.2178 85.664 9.2178C85.664 9.2178 82.3626 7.398 82.3626 1.6419C80.0677 1.9386 79.4638 4.80676 79.4638 4.80676C76.1826 4.82654 76.2832 7.97163 76.2832 7.97163Z" fill="white"/>
<path d="M85.6643 50.7567C82.0811 54.1589 85.463 57.7391 85.6643 57.7391C85.8455 57.7193 89.2475 54.1589 85.6643 50.7567Z" fill="white"/>
<path d="M76.2832 49.7478C76.2832 49.7478 81.9197 49.6489 85.6639 39.7785C89.4082 49.6489 95.0447 49.7478 95.0447 49.7478C95.0447 49.7478 94.9038 52.8929 91.6024 52.8929C91.6024 52.8929 91.2602 55.8798 88.9049 56.1369C88.9049 50.361 85.6639 48.4819 85.6639 48.4819C85.6639 48.4819 82.3626 50.3017 82.3626 56.0578C80.0677 55.7611 79.4638 52.8929 79.4638 52.8929C76.1825 52.9127 76.2832 49.7478 76.2832 49.7478Z" fill="white"/>
<path d="M63.3998 28.8599C59.9373 32.3808 56.3139 29.0577 56.3139 28.8599C56.2937 28.6818 59.9172 25.3587 63.3998 28.8599Z" fill="white"/>
<path d="M64.4064 38.0775C64.4064 38.0775 64.5071 32.539 74.5521 28.8796C64.5071 25.1807 64.4064 19.6619 64.4064 19.6619C64.4064 19.6619 61.2057 19.8004 61.2057 23.0444C61.2057 23.0444 58.1459 23.3806 57.8842 25.695C63.7622 25.695 65.6948 28.8796 65.6948 28.8796C65.6948 28.8796 63.8428 32.1236 57.9848 32.1236C58.2868 34.3786 61.2057 34.972 61.2057 34.972C61.2057 38.1962 64.4064 38.0775 64.4064 38.0775Z" fill="white"/>
<path d="M107.948 28.8599C111.411 32.3808 115.054 29.0577 115.054 28.8599C115.034 28.6818 111.411 25.3587 107.948 28.8599Z" fill="white"/>
<path d="M106.921 38.0775C106.921 38.0775 106.821 32.539 96.7757 28.8796C106.821 25.1807 106.921 19.6619 106.921 19.6619C106.921 19.6619 110.122 19.8004 110.122 23.0444C110.122 23.0444 113.162 23.3806 113.424 25.695C107.545 25.695 105.633 28.8796 105.633 28.8796C105.633 28.8796 107.485 32.1236 113.343 32.1236C113.041 34.3786 110.122 34.972 110.122 34.972C110.142 38.1962 106.921 38.0775 106.921 38.0775Z" fill="white"/>
<path d="M101.426 44.3279C106.398 44.2487 106.579 49.1147 106.438 49.2532C106.297 49.3917 101.345 49.2334 101.426 44.3279Z" fill="white"/>
<path d="M107.324 37.1278C107.324 37.1278 103.278 40.9652 93.5348 36.5938C97.9836 46.1675 94.0783 50.1434 94.0783 50.1434C94.0783 50.1434 96.4537 52.2599 98.7687 49.9653C98.7687 49.9653 101.184 51.8445 103.016 50.4005C98.8492 46.306 99.7953 42.7257 99.7953 42.7257C99.7953 42.7257 103.439 41.7169 107.586 45.7917C108.995 43.9916 107.364 41.5389 107.364 41.5389C109.679 39.2641 107.324 37.1278 107.324 37.1278Z" fill="white"/>
<path d="M69.9217 13.3914C70.0022 8.48589 65.03 8.32765 64.9092 8.46611C64.7683 8.5848 64.9294 13.4508 69.9217 13.3914Z" fill="white"/>
<path d="M77.2695 7.57587C77.2695 7.57587 73.3642 11.5517 77.813 21.1255C68.0498 16.754 64.0036 20.5914 64.0036 20.5914C64.0036 20.5914 61.8496 18.2573 64.1646 15.9825C64.1646 15.9825 62.2522 13.6287 63.7419 11.8089C67.9089 15.9034 71.5323 14.9737 71.5323 14.9737C71.5323 14.9737 72.5388 11.3935 68.4121 7.31872C70.244 5.93409 72.7401 7.53631 72.7401 7.53631C75.0753 5.26156 77.2695 7.57587 77.2695 7.57587Z" fill="white"/>
<path d="M101.426 13.3717C101.325 8.48593 106.298 8.30791 106.438 8.44637C106.559 8.58484 106.398 13.4508 101.426 13.3717Z" fill="white"/>
<path d="M94.0783 7.57587C94.0783 7.57587 97.9836 11.5517 93.5348 21.1255C103.278 16.754 107.324 20.5914 107.324 20.5914C107.324 20.5914 109.478 18.2573 107.143 15.9825C107.143 15.9825 109.055 13.6287 107.586 11.8089C103.419 15.9034 99.7752 14.9737 99.7752 14.9737C99.7752 14.9737 98.7687 11.3935 102.895 7.31872C101.064 5.93409 98.5674 7.53631 98.5674 7.53631C96.2524 5.26156 94.0783 7.57587 94.0783 7.57587Z" fill="white"/>
<path d="M69.9225 44.3279C64.9301 44.2488 64.7691 49.1345 64.91 49.2532C65.0308 49.3917 69.9829 49.2334 69.9225 44.3279Z" fill="white"/>
<path d="M64.004 37.1278C64.004 37.1278 68.0502 40.9652 77.7933 36.5938C73.3445 46.1675 77.2498 50.1631 77.2498 50.1631C77.2498 50.1631 74.8744 52.2796 72.5594 50.0049C72.5594 50.0049 70.1639 51.884 68.3119 50.4203C72.4789 46.3257 71.5328 42.7652 71.5328 42.7652C71.5328 42.7652 67.8892 41.7564 63.7423 45.8312C62.3332 44.0312 63.9638 41.5784 63.9638 41.5784C61.6488 39.2641 64.004 37.1278 64.004 37.1278Z" fill="white"/>
<path d="M0.572906 52.2204C0.572906 51.8644 0.874862 51.5677 1.21708 51.5677C1.57942 51.5677 1.88138 51.8644 1.88138 52.2204V56.7303H8.58478V52.2204C8.58478 51.8644 8.88674 51.5677 9.24908 51.5677C9.5913 51.5677 9.89325 51.8644 9.89325 52.2204V62.5062C9.89325 62.8623 9.5913 63.159 9.24908 63.159C8.88674 63.159 8.58478 62.8623 8.58478 62.5062V57.937H1.90151V62.5062C1.90151 62.8623 1.59955 63.159 1.23721 63.159C0.894992 63.159 0.593037 62.8623 0.593037 62.5062V52.2204H0.572906Z" fill="white"/>
<path d="M12.691 57.3831V57.3633C12.691 54.2182 15.1066 51.4489 18.6294 51.4489C22.1724 51.4489 24.5477 54.1786 24.5477 57.3237V57.3633C24.5477 60.5084 22.1321 63.2776 18.5892 63.2776C15.0462 63.2776 12.691 60.5282 12.691 57.3831ZM23.199 57.3831V57.3633C23.199 54.7721 21.2665 52.6556 18.6093 52.6556C15.9521 52.6556 14.0598 54.7523 14.0598 57.3435V57.3831C14.0598 59.9743 15.9924 62.0908 18.6496 62.0908C21.3068 62.071 23.199 59.9743 23.199 57.3831Z" fill="white"/>
<path d="M29.6211 52.8335H26.2392C25.9171 52.8335 25.6151 52.5764 25.6151 52.2401C25.6151 51.9236 25.8969 51.6269 26.2392 51.6269H34.3114C34.6335 51.6269 34.9355 51.9039 34.9355 52.2401C34.9355 52.5764 34.6536 52.8335 34.3114 52.8335H30.9295V62.4864C30.9295 62.8424 30.6276 63.1391 30.2652 63.1391C29.9029 63.1391 29.6009 62.8424 29.6009 62.4864V52.8335H29.6211Z" fill="white"/>
<path d="M37.3108 62.4073V52.2797C37.3108 51.9236 37.6127 51.6269 37.955 51.6269H45.1818C45.524 51.6269 45.7857 51.8841 45.7857 52.2203C45.7857 52.5368 45.524 52.8137 45.1818 52.8137H38.6193V56.7105H44.4369C44.759 56.7105 45.0408 56.9874 45.0408 57.3039C45.0408 57.6402 44.7791 57.8973 44.4369 57.8973H38.6193V61.893H45.2623C45.6045 61.893 45.8662 62.1501 45.8662 62.4864C45.8662 62.8029 45.6045 63.0798 45.2623 63.0798H37.955C37.6127 63.06 37.3108 62.7633 37.3108 62.4073Z" fill="white"/>
<path d="M48.4431 52.2204C48.4431 51.8644 48.745 51.5677 49.0873 51.5677C49.4496 51.5677 49.7516 51.8644 49.7516 52.2204V61.8733H55.7906C56.1127 61.8733 56.3945 62.1502 56.3945 62.4865C56.3945 62.8029 56.1328 63.0799 55.7906 63.0799H49.0873C48.745 63.0799 48.4431 62.7832 48.4431 62.4271V52.2204Z" fill="white"/>
<path d="M0.572906 72.8317C0.572906 72.4756 0.874861 72.1789 1.21708 72.1789C1.57942 72.1789 1.88138 72.4756 1.88138 72.8317V83.1175C1.88138 83.4735 1.57942 83.7702 1.21708 83.7702C0.874861 83.7702 0.572906 83.4735 0.572906 83.1175V72.8317Z" fill="white"/>
<path d="M5.30365 72.8514C5.30365 72.5152 5.60561 72.2185 5.94782 72.2185H6.12899C6.43095 72.2185 6.61212 72.3569 6.79329 72.5943L13.859 81.4361V72.8119C13.859 72.4756 14.1409 72.1789 14.5032 72.1789C14.8454 72.1789 15.1273 72.4756 15.1273 72.8119V83.1175C15.1273 83.4537 14.8857 83.7307 14.5233 83.7307H14.463C14.1811 83.7307 13.9798 83.5724 13.7785 83.3351L6.57186 74.2756V83.1175C6.57186 83.4537 6.29004 83.7504 5.92769 83.7504C5.58547 83.7504 5.30365 83.4537 5.30365 83.1175V72.8514V72.8514Z" fill="white"/>
<path d="M18.4281 72.9108C18.4281 72.5547 18.7301 72.258 19.0723 72.258H22.4542C26.1179 72.258 28.6342 74.7306 28.6342 77.935V77.9746C28.6342 81.1988 26.0978 83.6911 22.4542 83.6911H19.0723C18.7301 83.6911 18.4281 83.3944 18.4281 83.0383V72.9108ZM22.4743 82.4845C25.4134 82.4845 27.2855 80.5262 27.2855 77.9943V77.9548C27.2855 75.4229 25.4134 73.425 22.4743 73.425H19.7366V82.4845H22.4743Z" fill="white"/>
<path d="M30.909 77.9943V77.9547C30.909 74.8097 33.3246 72.0404 36.8676 72.0404C40.4105 72.0404 42.7859 74.7701 42.7859 77.9152V77.9547C42.7859 81.0998 40.3702 83.8691 36.8474 83.8691C33.2844 83.8691 30.909 81.1592 30.909 77.9943ZM41.417 77.9943V77.9547C41.417 75.3635 39.4845 73.247 36.8273 73.247C34.1701 73.247 32.2779 75.3437 32.2779 77.935V77.9745C32.2779 80.5658 34.2104 82.6823 36.8676 82.6823C39.5248 82.6823 41.417 80.6053 41.417 77.9943Z" fill="white"/>
<path d="M45.5443 72.8514C45.5443 72.5152 45.8462 72.2185 46.1884 72.2185H46.3696C46.6716 72.2185 46.8527 72.3569 47.0339 72.5943L54.0996 81.4361V72.8119C54.0996 72.4756 54.3815 72.1789 54.7438 72.1789C55.086 72.1789 55.3679 72.4756 55.3679 72.8119V83.1175C55.3679 83.4537 55.1263 83.7307 54.7639 83.7307H54.7036C54.4217 83.7307 54.2204 83.5724 54.0191 83.3351L46.8125 74.2756V83.1175C46.8125 83.4537 46.5306 83.7504 46.1683 83.7504C45.8261 83.7504 45.5443 83.4537 45.5443 83.1175V72.8514V72.8514Z" fill="white"/>
<path d="M58.669 83.0383V72.9108C58.669 72.5547 58.971 72.258 59.3132 72.258H66.54C66.8621 72.258 67.1439 72.5151 67.1439 72.8514C67.1439 73.1877 66.8822 73.4448 66.54 73.4448H59.9775V77.3416H65.7952C66.1173 77.3416 66.3991 77.6185 66.3991 77.935C66.3991 78.2713 66.1374 78.5284 65.7952 78.5284H59.9775V82.524H66.6205C66.9426 82.524 67.2244 82.7812 67.2244 83.1175C67.2244 83.434 66.9627 83.7109 66.6205 83.7109H59.3132C58.971 83.6911 58.669 83.3944 58.669 83.0383Z" fill="white"/>
<path d="M69.3982 82.3045C69.2372 82.2056 69.1567 82.0275 69.1567 81.8099C69.1567 81.4539 69.4385 81.177 69.7807 81.177C69.9418 81.177 70.1028 81.2363 70.1833 81.3154C71.2704 82.2253 72.3775 82.6605 73.847 82.6605C75.4172 82.6605 76.4439 81.8495 76.4439 80.722V80.7022C76.4439 79.6341 75.8601 79.0407 73.4243 78.5264C70.747 77.9528 69.519 77.1022 69.519 75.2231V75.1835C69.519 73.3835 71.1294 72.0582 73.3438 72.0582C74.8737 72.0582 75.9809 72.434 77.0478 73.1857C77.1887 73.2846 77.3296 73.4626 77.3296 73.7C77.3296 74.0362 77.0478 74.3132 76.7056 74.3132C76.5646 74.3132 76.4439 74.2736 76.3231 74.1945C75.3367 73.5022 74.3906 73.2055 73.3237 73.2055C71.8139 73.2055 70.8476 74.0165 70.8476 75.045V75.0846C70.8476 76.1527 71.4515 76.7659 74.0081 77.3C76.6049 77.8539 77.7926 78.7835 77.7926 80.5242V80.5638C77.7926 82.522 76.1218 83.788 73.8269 83.788C72.0957 83.8473 70.6866 83.3133 69.3982 82.3045Z" fill="white"/>
<path d="M80.571 72.8317C80.571 72.4756 80.873 72.1789 81.2152 72.1789C81.5775 72.1789 81.8795 72.4756 81.8795 72.8317V83.1175C81.8795 83.4735 81.5775 83.7702 81.2152 83.7702C80.873 83.7702 80.571 83.4735 80.571 83.1175V72.8317Z" fill="white"/>
<path d="M84.5564 82.8394L89.2669 72.7119C89.428 72.3558 89.6897 72.1382 90.0923 72.1382H90.1527C90.5553 72.1382 90.817 72.3558 90.9579 72.7119L95.6684 82.8394C95.7288 82.9581 95.7489 83.0768 95.7489 83.1757C95.7489 83.512 95.4671 83.7889 95.1249 83.7889C94.8028 83.7889 94.6015 83.5713 94.4807 83.3142L93.2729 80.6834H86.8915L85.6837 83.3537C85.5629 83.6307 85.3415 83.7889 85.0597 83.7889C84.7376 83.7889 84.4558 83.5318 84.4558 83.1955C84.4759 83.0768 84.496 82.9581 84.5564 82.8394ZM92.7897 79.4966L90.1124 73.6613L87.4351 79.4966H92.7897Z" fill="white"/>
<path d="M0.0695801 98.6252V98.5857C0.0695801 95.4603 2.4047 92.6713 5.90738 92.6713C7.65872 92.6713 8.80615 93.1262 9.87306 93.8977C10.014 94.0164 10.1347 94.1944 10.1347 94.412C10.1347 94.768 9.83279 95.0647 9.49058 95.0647C9.34967 95.0647 9.20875 95.0054 9.06784 94.9065C8.2425 94.2933 7.29637 93.8581 5.84699 93.8581C3.2703 93.8581 1.41831 95.9944 1.41831 98.5461V98.5857C1.41831 101.315 3.18978 103.333 6.02816 103.333C7.35676 103.333 8.58471 102.819 9.38993 102.186V99.3373H6.26972C5.94764 99.3373 5.68594 99.0802 5.68594 98.7637C5.68594 98.4472 5.94764 98.1703 6.26972 98.1703H10.014C10.3562 98.1703 10.6581 98.467 10.6581 98.823V102.304C10.6581 102.621 10.5172 102.898 10.2153 103.096C9.14836 103.867 7.71911 104.48 5.9879 104.48C2.32418 104.5 0.0695801 101.889 0.0695801 98.6252Z" fill="white"/>
<path d="M13.6176 93.5219C13.6176 93.1658 13.9196 92.8691 14.2618 92.8691H18.61C20.0392 92.8691 21.1866 93.2845 21.9113 94.0164C22.475 94.5702 22.8172 95.3614 22.8172 96.2713V96.3109C22.8172 98.19 21.5289 99.278 19.7171 99.634L22.6159 103.293C22.7568 103.452 22.8373 103.59 22.8373 103.768C22.8373 104.104 22.5153 104.401 22.173 104.401C21.9113 104.401 21.71 104.263 21.549 104.065L18.2678 99.8912H14.9261V103.768C14.9261 104.124 14.6242 104.421 14.2618 104.421C13.9196 104.421 13.6176 104.124 13.6176 103.768V93.5219ZM18.4892 98.7043C20.2405 98.7043 21.4886 97.8142 21.4886 96.3505V96.3307C21.4886 94.9263 20.3814 94.0757 18.5093 94.0757H14.9261V98.7043H18.4892Z" fill="white"/>
<path d="M25.1118 98.6252V98.5856C25.1118 95.4406 27.5274 92.6713 31.0704 92.6713C34.6133 92.6713 36.9887 95.401 36.9887 98.5461V98.5856C36.9887 101.731 34.5731 104.5 31.0301 104.5C27.4872 104.5 25.1118 101.77 25.1118 98.6252ZM35.5997 98.6252V98.5856C35.5997 95.9944 33.6672 93.8581 31.01 93.8581C28.3528 93.8581 26.4605 95.9548 26.4605 98.5461V98.5856C26.4605 101.177 28.393 103.293 31.0502 103.293C33.7074 103.313 35.5997 101.216 35.5997 98.6252Z" fill="white"/>
<path d="M39.5649 99.5352V93.4626C39.5649 93.1065 39.8668 92.8098 40.2091 92.8098C40.5714 92.8098 40.8734 93.1065 40.8734 93.4626V99.4561C40.8734 101.929 42.2221 103.313 44.4364 103.313C46.5703 103.313 47.9391 102.047 47.9391 99.5352V93.4626C47.9391 93.1065 48.2411 92.8098 48.6034 92.8098C48.9456 92.8098 49.2476 93.1065 49.2476 93.4626V99.4363C49.2476 102.759 47.295 104.5 44.3962 104.5C41.5175 104.48 39.5649 102.759 39.5649 99.5352Z" fill="white"/>
<path d="M52.3684 93.5219C52.3684 93.1658 52.6704 92.8691 53.0126 92.8691H56.7166C59.3335 92.8691 61.0647 94.234 61.0647 96.4889V96.5285C61.0647 99.001 58.9712 100.267 56.4952 100.267H53.6769V103.729C53.6769 104.085 53.375 104.381 53.0126 104.381C52.6704 104.381 52.3684 104.085 52.3684 103.729V93.5219ZM56.5556 99.0999C58.4881 99.0999 59.7361 98.0911 59.7361 96.5878V96.5483C59.7361 94.9065 58.4881 94.0757 56.6159 94.0757H53.6769V99.0999H56.5556Z" fill="white"/>
</svg>
