<svg width="109" height="33" viewBox="0 0 109 33" fill="none" xmlns="http://www.w3.org/2000/svg">
<path d="M75.5124 15.6171C75.5124 11.7252 75.5124 7.90652 75.5124 4.08782C75.4636 4.07562 75.4147 4.06341 75.3537 4.03901C75.2071 4.27082 75.0484 4.49043 74.9019 4.72223C72.7405 8.16273 70.5669 11.6032 68.43 15.0559C68.1736 15.4585 67.9171 15.6537 67.4165 15.6293C66.4396 15.5927 65.4627 15.5927 64.4858 15.6293C64.0462 15.6415 63.7898 15.4829 63.5578 15.1169C61.3964 11.6276 59.2229 8.15053 57.0493 4.66123C56.9272 4.45383 56.7807 4.25862 56.5242 4.07561C56.5242 7.89432 56.5242 11.7008 56.5242 15.5683C56.219 15.5927 55.9992 15.6171 55.7794 15.6171C54.5216 15.6171 53.2517 15.5927 51.9939 15.6293C51.4078 15.6537 51.2368 15.4829 51.2368 14.8851C51.2613 10.1758 51.2491 5.45425 51.2491 0.732719C51.2491 0.513113 51.2735 0.293507 51.2857 0.0128988C51.7986 0.0128988 52.2626 0.0128988 52.7266 0.0128988C54.7048 0.0128988 56.6708 0.0250991 58.649 0.000698409C59.113 -0.0115019 59.3816 0.134902 59.6258 0.537514C61.6285 3.80721 63.6555 7.0769 65.6825 10.3344C65.7802 10.5052 65.9023 10.6516 66.0733 10.9078C66.5007 10.2124 66.8792 9.60237 67.2577 8.99236C68.9795 6.16187 70.689 3.33139 72.423 0.500913C72.5573 0.281306 72.8626 0.0372995 73.0946 0.0372995C75.5368 0.000698408 77.979 0.0128988 80.4213 0.0250991C80.4945 0.0250991 80.58 0.0494998 80.7143 0.0739005C80.7265 0.305707 80.751 0.549714 80.751 0.781521C80.751 5.47866 80.7387 10.1758 80.7632 14.8729C80.7632 15.4463 80.6288 15.6537 80.0305 15.6293C78.5652 15.5927 77.0876 15.6171 75.5124 15.6171Z" fill="white"/>
<path d="M19.7177 7.57652C19.8883 7.6254 20.1562 7.69872 20.4241 7.78426C21.642 8.17531 22.4215 9.00628 22.5433 10.2772C22.6163 11.1082 22.5798 12.0002 22.4093 12.819C22.1414 14.1143 21.2036 14.8964 19.9613 15.1897C18.9383 15.4341 17.8787 15.593 16.8435 15.6052C11.4239 15.6418 6.00423 15.6296 0.58459 15.6296C0.426264 15.6296 0.267937 15.6052 0.0487159 15.593C0.0365369 15.373 0.012179 15.1775 0.012179 14.982C0.012179 10.2161 0.0243579 5.45021 0 0.684331C0 0.134422 0.170505 0 0.694201 0C5.50489 0.0244404 10.3156 -0.0244404 15.1263 0.0366606C16.5756 0.0488808 18.0614 0.158862 19.462 0.501028C21.8612 1.07538 22.933 3.996 21.5324 6.06121C21.094 6.68444 20.3267 7.07549 19.7177 7.57652ZM5.33439 12.3668C6.24781 12.3668 7.10034 12.3668 7.95286 12.3668C10.5713 12.3546 13.1898 12.3668 15.7961 12.3302C16.8313 12.318 17.355 11.7803 17.3916 10.8638C17.4403 9.82503 17.0627 9.36067 15.991 9.16514C15.7596 9.11626 15.5038 9.11626 15.2602 9.11626C12.179 9.11626 9.09769 9.11626 6.01641 9.11626C5.79719 9.11626 5.57797 9.12848 5.33439 9.1407C5.33439 10.2283 5.33439 11.2548 5.33439 12.3668ZM10.5348 6.22008C10.7418 6.22008 10.9367 6.22008 11.1438 6.22008C12.4956 6.22008 13.8597 6.24452 15.2115 6.20786C16.539 6.18342 17.1602 5.3891 16.8435 4.19153C16.6608 3.50719 16.198 3.17725 15.1872 3.16503C12.045 3.14059 8.90282 3.15281 5.76065 3.15281C5.37092 3.15281 5.28567 3.32389 5.29785 3.67828C5.31003 4.35039 5.32221 5.0225 5.29785 5.69461C5.26131 6.12232 5.444 6.2323 5.8459 6.2323C7.41699 6.20786 8.9759 6.22008 10.5348 6.22008Z" fill="white"/>
<path d="M84.3229 0.0262236C85.516 0.0262236 86.6844 0.0262236 87.8406 0.0262236C89.1935 0.0262236 90.5464 0.0384248 91.8993 0.0140223C92.3052 0.00182113 92.5758 0.123833 92.8464 0.428864C96.118 4.06483 99.4142 7.68859 102.698 11.3245C102.833 11.471 102.883 11.6906 102.981 11.8736C103.067 11.8126 103.153 11.7516 103.239 11.6906C103.252 11.4344 103.276 11.1781 103.276 10.9219C103.276 7.52997 103.289 4.12583 103.264 0.733894C103.264 0.197041 103.375 -0.0225813 103.977 0.00182113C105.306 0.050626 106.646 0.0262236 107.975 0.0140223C108.38 0.0140223 108.553 0.0994309 108.553 0.550876C108.54 5.40696 108.54 10.2752 108.54 15.1313C108.54 15.2655 108.503 15.3998 108.479 15.6194C108.233 15.6194 108.024 15.6194 107.802 15.6194C105.552 15.6194 103.289 15.6072 101.038 15.6316C100.583 15.6316 100.287 15.4852 99.98 15.1557C96.6961 11.5564 93.3875 7.95701 90.1036 4.36986C89.9683 4.22344 89.8576 4.05262 89.7346 3.89401C89.6731 3.91841 89.6117 3.94281 89.5502 3.97942C89.5502 7.835 89.5502 11.6906 89.5502 15.5706C89.2919 15.595 89.132 15.6316 88.9721 15.6316C87.5823 15.6316 86.1801 15.6316 84.7903 15.6316C84.4705 15.6316 84.2368 15.6194 84.2368 15.1923C84.2491 10.2264 84.2491 5.27275 84.2491 0.306852C84.2491 0.233644 84.286 0.184839 84.3229 0.0262236Z" fill="white"/>
<path d="M25.2988 0C27.0212 0 28.7436 0 30.5637 0C30.5637 0.244188 30.5637 0.476166 30.5637 0.708144C30.5637 3.36979 30.5637 6.04364 30.5637 8.70529C30.5637 9.1082 30.6004 9.52332 30.6492 9.92623C30.808 11.2326 31.3211 11.8309 32.6404 12.0018C35.1934 12.3315 37.7587 12.3315 40.3117 12.0018C41.6798 11.8187 42.2173 11.196 42.3517 9.82855C42.425 9.09599 42.4372 8.36343 42.4372 7.63086C42.4494 5.10352 42.4372 2.58839 42.4372 0.0122094C44.2084 0.0122094 45.943 0.0122094 47.7265 0.0122094C47.7387 0.19535 47.7632 0.378491 47.7632 0.549422C47.7632 3.74828 47.7632 6.93493 47.7632 10.1338C47.7632 10.6588 47.7143 11.1838 47.641 11.7088C47.4455 13.296 46.6149 14.4437 45.0757 14.8832C43.7565 15.2495 42.3761 15.5792 41.008 15.6036C37.6487 15.6768 34.3017 15.5914 30.9424 15.5181C30.1973 15.5059 29.4521 15.3228 28.7192 15.1396C26.4105 14.578 25.3233 13.4303 25.25 11.0495C25.14 7.43551 25.2011 3.80933 25.2011 0.183141C25.2378 0.146513 25.2744 0.0854657 25.2988 0Z" fill="white"/>
<path d="M22.5789 31.9472C39.8666 28.6175 57.2026 27.5076 74.6842 27.8483C73.3992 27.9032 72.1141 27.9582 70.8169 28.0131C69.5319 28.0681 68.2347 28.112 66.9496 28.1999C62.1004 28.5296 57.239 28.7933 52.4019 29.2549C47.1647 29.7494 41.9396 30.3758 36.7388 31.0791C32.9927 31.5846 29.2709 32.2989 25.5491 32.9582C25.0278 33.0461 24.6156 33.0022 24.1792 32.7604C23.7064 32.4857 23.2215 32.2659 22.5789 31.9472Z" fill="white"/>
<path d="M14.63 26.7145C14.3592 26.6112 14.1745 26.5194 13.9899 26.462C13.2266 26.221 13.1774 26.1865 13.4482 25.4864C13.6698 24.9355 13.9652 24.4076 14.2361 23.8682C14.3345 23.6616 14.433 23.4665 14.5807 23.1451C13.6206 23.2484 12.7835 23.3058 11.971 23.455C11.774 23.4894 11.5894 23.7764 11.4786 23.9944C10.9862 24.9355 10.5307 25.8996 10.026 26.921C9.59515 26.7489 9.20123 26.5767 8.6842 26.3702C8.99196 25.716 9.27509 25.0733 9.58284 24.442C9.85366 23.8911 10.4199 23.3862 9.6567 22.6287C10.7277 22.6746 10.9 22.0089 11.2078 21.458C11.417 21.0678 11.6879 20.6891 11.8356 20.2759C12.1803 19.3578 12.9312 19.22 13.8791 19.2545C13.3867 20.2644 12.9066 21.2514 12.3772 22.3647C13.3374 22.2844 14.1991 22.2155 15.0608 22.1122C15.1839 22.1007 15.307 21.8827 15.3932 21.7335C15.7871 21.1252 16.181 20.5284 16.538 19.8972C16.895 19.2545 17.3997 18.9905 18.2368 19.1512C17.0304 21.6531 15.8364 24.1551 14.63 26.7145Z" fill="white"/>
<path d="M86.8421 19.9986C86.3477 21.0307 85.9184 21.9609 85.4761 22.8784C84.7215 24.4584 84.0059 26.0512 83.1863 27.593C82.4837 28.9182 80.9746 29.0202 80.0379 27.8224C79.8687 27.6058 79.9338 27.2235 79.8947 26.9177C80.233 26.9432 80.5973 26.9049 80.8835 27.0324C81.1307 27.147 81.2868 27.4529 81.5991 27.8096C82.1195 26.8412 82.6008 25.9238 83.0952 25.0063C83.0692 24.9808 83.0302 24.9426 83.0041 24.9171C82.6789 25.121 82.3666 25.3631 82.0284 25.5415C81.534 25.8091 81.0006 25.9238 80.4932 25.5925C79.9728 25.2484 79.9338 24.7515 80.0248 24.1781C80.3241 22.3304 82.4577 20.2152 84.3182 20.0113C85.1118 19.9349 85.9054 19.9986 86.8421 19.9986ZM81.3128 24.0124C81.3128 24.5986 81.586 24.6241 81.9373 24.4074C83.0822 23.6684 84.0319 22.7127 84.7475 21.5659C84.8386 21.4257 84.7995 21.2218 84.8125 21.0435C84.6304 21.0435 84.4222 20.9925 84.2661 21.0562C82.9911 21.5531 82.0804 22.4579 81.4429 23.6302C81.3649 23.7576 81.3389 23.936 81.3128 24.0124Z" fill="white"/>
<path d="M25.8819 26.8185C25.5407 26.6881 25.2603 26.5814 24.9434 26.4629C24.9678 26.2614 25.0044 26.0599 25.0531 25.7518C24.8703 25.8821 24.7362 25.9888 24.6021 26.0718C24.2487 26.3088 23.9196 26.5814 23.5417 26.7592C22.5545 27.2215 21.6525 26.6525 21.7134 25.574C21.7866 24.2821 22.4691 23.2628 23.3955 22.3857C24.3096 21.5442 25.3944 21.0464 26.662 20.9516C27.0398 20.9279 27.2349 20.7738 27.3811 20.4419C27.6127 19.8967 27.8809 19.3633 28.1368 18.83C28.4172 18.2492 28.7097 18.1307 29.5263 18.3203C28.3075 21.1649 27.1008 23.9858 25.8819 26.8185ZM23.2005 25.7992C24.2487 25.6688 26.272 23.2865 26.5523 21.8642C24.8337 21.9234 22.6154 24.531 23.2005 25.7992Z" fill="white"/>
<path d="M62.4621 23.7204C62.0161 24.5623 61.6106 25.3018 61.2051 26.0526C60.7726 25.8479 60.3806 25.6545 59.9211 25.4383C60.1103 25.0515 60.2995 24.6761 60.4752 24.2892C61.3538 22.5031 62.2323 20.7283 63.0974 18.9308C63.2866 18.544 63.4623 18.2824 64.057 18.3734C64.3409 18.4189 64.6653 18.3051 65.1519 18.2368C64.3949 19.6362 63.7056 20.9217 63.0163 22.2187C63.0568 22.2528 63.1109 22.2983 63.1514 22.3325C64.1516 21.8205 65.1383 21.3086 66.098 20.8194C66.3683 21.1152 66.5981 21.3768 66.8684 21.6726C65.8547 22.1618 64.8139 22.6738 63.7191 23.2085C64.6653 23.9366 65.5438 24.6192 66.4764 25.3359C65.8817 25.4952 65.3951 25.6658 64.895 25.7568C64.7734 25.7796 64.5707 25.5976 64.4355 25.4724C63.8002 24.9263 63.1785 24.3575 62.4621 23.7204Z" fill="white"/>
<path d="M45.1579 20.8767C44.3254 22.6515 43.5314 24.3342 42.7374 26.0168C41.9562 25.89 41.6232 25.5443 42.0586 24.726C41.4439 25.1409 41.0085 25.4636 40.5346 25.7402C39.9711 26.0744 39.3564 26.2127 38.7544 25.7863C38.1525 25.3714 38.1141 24.8182 38.3318 24.2304C38.7801 23.0088 39.5997 21.9716 40.573 21.0496C40.8035 20.8306 41.3799 20.9228 41.9562 20.8421C41.4055 21.6258 40.9444 22.2712 40.509 22.9166C40.2016 23.3891 39.9327 23.8962 39.6637 24.3918C39.6125 24.4955 39.6381 24.6914 39.715 24.7491C39.7918 24.8067 40.0223 24.8067 40.112 24.7491C40.5346 24.4725 41.0085 24.2074 41.3414 23.8501C42.0714 23.078 42.7246 22.2482 43.4033 21.4299C43.6595 21.1187 43.8644 20.773 44.4151 20.9804C44.5816 21.038 44.8121 20.9343 45.1579 20.8767Z" fill="white"/>
<path d="M56.3544 24.9179C56.7525 24.6632 57.2276 24.4547 57.5358 24.1305C58.332 23.2968 59.0511 22.4168 59.7959 21.5484C60.1041 21.1895 60.3095 20.7263 60.9901 20.9695C61.1314 21.0158 61.3497 20.9116 61.6579 20.8421C60.8104 22.6368 60.0142 24.3389 59.2052 26.0526C58.8841 25.9137 58.6273 25.7979 58.3191 25.6589C58.3576 25.4042 58.3962 25.1495 58.4604 24.7326C58.1393 24.9642 57.9467 25.1495 57.7027 25.2768C57.2533 25.5316 56.8167 25.821 56.3159 25.9716C55.5454 26.2147 54.6978 25.6474 54.7107 24.9179C54.7235 24.5126 54.8134 24.061 55.0189 23.7021C55.4426 22.9726 55.9948 22.301 56.4571 21.5947C56.8809 20.9347 57.4587 20.7147 58.2806 20.9463C57.6257 22.2432 56.3801 23.2737 56.0719 24.721C56.2003 24.7905 56.2773 24.8484 56.3544 24.9179Z" fill="white"/>
<path d="M22.5789 20.8594C21.9364 22.5165 21.2939 24.0572 20.7332 25.6367C20.4528 26.4135 20.1724 27.0608 19.2145 26.763C19.2261 26.6465 19.2378 26.4782 19.2495 26.284C19.1794 26.3099 19.121 26.3099 19.0743 26.3358C18.7472 26.517 18.4318 26.7501 18.0813 26.8537C17.0649 27.1644 16.3173 26.3617 16.5392 25.2483C16.9014 23.4098 19.121 21.2866 20.7916 21.1183C21.107 21.0924 21.399 20.9112 21.7145 20.8594C21.9598 20.8205 22.2168 20.8594 22.5789 20.8594ZM21.0719 22.0116C19.4481 22.2317 17.5906 24.5492 17.8243 25.9474C19.6 25.3648 20.0322 23.5005 21.0719 22.0116Z" fill="white"/>
<path d="M79.404 23.522C79.5447 23.6462 79.6854 23.7705 79.8645 23.933C79.6854 24.1146 79.5319 24.3344 79.3017 24.4682C78.3424 25.0321 77.2424 25.2997 76.0146 25.1372C75.1064 25.0225 74.5948 24.4682 74.6971 23.7801C74.9274 22.1553 77.1529 20.7599 79.3529 20.8459C79.9796 20.8746 80.4656 21.0848 80.6831 21.534C80.9133 21.9928 80.6191 22.356 80.1586 22.614C79.1482 23.1779 77.9715 23.4455 76.7308 23.5985C76.4238 23.6367 76.0401 23.608 76.0657 23.9712C76.0913 24.3344 76.4494 24.3917 76.8331 24.4013C77.8692 24.4109 78.7261 24.1146 79.404 23.522ZM76.4878 22.7383C76.5262 22.7956 76.5773 22.853 76.6157 22.9199C77.4727 22.6809 78.3424 22.4516 79.1994 22.1935C79.3401 22.1457 79.404 21.9546 79.5063 21.8303C79.3273 21.7634 79.1354 21.6392 78.9691 21.6487C77.9075 21.7061 77.0889 22.0979 76.4878 22.7383Z" fill="white"/>
<path d="M90.6791 23.2255C91.3233 23.5958 91.0914 23.943 90.692 24.2554C89.6741 25.0423 88.4759 25.3201 87.1618 25.1233C86.4532 25.0076 86.0022 24.4637 85.9765 23.7925C85.8992 22.2303 87.4452 20.5292 89.3649 20.101C89.7901 20.0084 90.2539 19.9737 90.7048 19.9737C91.3233 19.9737 91.7871 20.2514 91.9804 20.7838C92.1736 21.2929 91.9675 21.7327 91.5036 22.0683C90.4729 22.7858 89.2619 23.0982 88.0121 23.3065C87.7029 23.3528 87.3164 23.3181 87.3422 23.7463C87.3679 24.186 87.7158 24.267 88.1023 24.267C89.133 24.267 89.9833 23.9198 90.6791 23.2255ZM87.7802 22.2187C87.8189 22.2881 87.8575 22.3692 87.8962 22.4386C88.7465 22.1609 89.6097 21.8947 90.4472 21.5822C90.6147 21.5244 90.6791 21.2698 90.795 21.1078C90.5889 21.0383 90.3699 20.8763 90.1766 20.8995C89.1717 21.0268 88.36 21.4665 87.7802 22.2187Z" fill="white"/>
<path d="M72.8629 25.9261C72.7039 25.8456 72.6305 25.8111 72.5571 25.7881C71.7373 25.4315 71.7006 25.3855 72.0799 24.5573C72.4102 23.8327 72.7773 23.1311 73.1198 22.4179C73.2177 22.2224 73.2789 22.0038 73.4257 21.6473C71.1501 22.4869 70.6729 24.4653 69.6574 26.0526C69.3026 25.8571 68.9968 25.6846 68.6053 25.466C69.376 23.9132 70.1591 22.3489 70.9176 20.8421C71.3214 20.8766 71.6272 20.8996 71.9943 20.9226C71.9576 21.0836 71.9209 21.2562 71.8597 21.4977C72.1778 21.3482 72.4592 21.2102 72.7406 21.0837C73.2911 20.8421 73.8539 20.7961 74.3433 21.1987C74.8082 21.5782 74.7226 22.0843 74.5268 22.5329C74.0007 23.6602 73.438 24.7644 72.8629 25.9261Z" fill="white"/>
<path d="M46.6433 20.8421C46.8885 20.9099 47.0478 20.9777 47.2072 21.0003C47.3543 21.0116 47.5137 20.9777 47.7343 20.9438C47.6608 21.1586 47.5995 21.3281 47.5137 21.5768C47.8815 21.3959 48.1757 21.249 48.4822 21.1247C49.0216 20.9099 49.561 20.876 50.0268 21.249C50.4927 21.622 50.4069 22.1306 50.2107 22.5601C49.7081 23.6678 49.1319 24.7415 48.5802 25.8492C48.2002 25.7249 47.8815 25.6231 47.5137 25.4988C47.6976 24.1538 48.6906 23.0913 49.0829 21.6898C47.9428 22.0741 47.2685 22.7862 46.7291 23.5547C46.1897 24.312 45.8341 25.1936 45.3806 26.0526C44.9883 25.8266 44.6695 25.6457 44.2895 25.4423C45.0741 23.9051 45.8587 22.3793 46.6433 20.8421Z" fill="white"/>
<path d="M55.7329 18.3566C55.382 19.0008 55.0686 19.611 54.7177 20.2665C55.3319 20.2665 55.8708 20.2665 56.4474 20.2665C56.3847 20.8428 56.134 21.1254 55.4697 21.0802C54.5547 21.0124 54.0033 21.3966 53.6523 22.1877C53.1384 23.3517 52.4741 24.4705 51.86 25.6006C51.7848 25.7475 51.6845 25.8831 51.5842 26.0526C51.1957 25.8266 50.8572 25.6232 50.3684 25.3294C51.1079 24.0523 51.885 22.7075 52.7123 21.2723C52.0981 21.3175 51.5967 21.3514 51.0829 21.3966C51.0453 21.1367 51.0077 20.9106 50.97 20.5829C51.5591 20.5264 52.1608 20.5038 52.7499 20.3908C53.0256 20.3343 53.339 20.1535 53.5144 19.9501C53.8152 19.5997 54.0283 19.1816 54.279 18.786C54.6425 18.1984 54.818 18.1306 55.7329 18.3566Z" fill="white"/>
<path d="M33.7808 20.8974C33.6475 21.2231 33.5409 21.479 33.3809 21.8745C33.9541 21.5837 34.4207 21.3511 34.874 21.1068C35.4072 20.816 35.9005 20.6182 36.2204 21.3278C36.2604 21.4092 36.3537 21.4674 36.4737 21.5953C35.9538 21.8047 35.5005 22.0257 35.0206 22.1886C33.6209 22.6655 32.621 23.4681 32.1944 24.7592C32.1411 24.9221 32.0478 25.0849 31.9678 25.2478C31.5146 26.2249 31.5146 26.2249 30.3947 25.7131C30.7547 24.1776 31.4746 22.7585 32.2344 21.3394C32.2878 21.2464 32.4611 21.1649 32.5944 21.13C32.9543 21.037 33.3142 20.9905 33.7808 20.8974Z" fill="white"/>
<path d="M97.2632 20.7923C94.8608 21.3123 93.6213 22.8611 93.1606 25.1842C92.8973 25.0293 92.7656 24.9519 92.623 24.8745C92.4804 24.797 92.3378 24.7196 92.0526 24.5647C92.5901 23.2151 93.0728 21.8322 93.6981 20.5158C93.8297 20.2281 94.455 20.1728 94.9596 19.9737C94.8279 20.372 94.7511 20.6153 94.6414 20.9583C95.1351 20.6706 95.5409 20.4383 95.9358 20.1949C96.3417 19.9405 96.6927 19.8188 96.9231 20.4051C96.9779 20.4936 97.0767 20.56 97.2632 20.7923Z" fill="white"/>
<path d="M99.8684 19.9737C99.1423 21.7367 98.468 23.3773 97.7808 24.9934C97.7419 25.1036 97.4566 25.2137 97.3399 25.177C97.0416 25.0791 96.7434 24.9199 96.51 24.724C96.4063 24.6261 96.3544 24.3445 96.4322 24.2098C97.1065 22.9488 97.8197 21.7245 98.481 20.4634C98.7922 19.8513 99.3497 20.2186 99.8684 19.9737Z" fill="white"/>
<path d="M30.3947 21.7105C30.2897 22.0348 30.1846 22.3217 30.0986 22.6336C29.707 23.9309 29.3058 25.2157 28.9332 26.513C28.7995 26.9745 28.6276 27.012 28.3219 26.7874C27.6914 26.3134 27.6723 26.3259 27.9971 25.4777C28.3696 24.5172 28.7422 23.5567 29.1338 22.6086C29.5064 21.723 29.5159 21.723 30.3947 21.7105Z" fill="white"/>
<path d="M30.3947 20.6027C30.3947 20.2167 30.6748 19.9237 30.9229 19.9808C31.059 20.0166 31.227 20.1667 31.2591 20.2953C31.3071 20.5241 30.9229 20.8815 30.6909 20.8386C30.5548 20.8028 30.4508 20.6527 30.3947 20.6027Z" fill="white"/>
<path d="M99 18.6102C99.0159 17.8363 99.2938 17.2668 99.5479 17.3836C99.6829 17.4566 99.8496 17.7779 99.8655 18.0261C99.9052 18.5226 99.532 19.2089 99.2938 19.0921C99.1667 19.0191 99.0635 18.7124 99 18.6102Z" fill="white"/>
</svg>
