<svg width="48" height="48" viewBox="0 0 48 48" fill="none" xmlns="http://www.w3.org/2000/svg">
<path d="M8.09421 10H39.9054C40.7126 10 41.4867 10.3005 42.0574 10.8353C42.6282 11.3702 42.9488 12.0956 42.9488 12.8521V21.9928H5.05084V12.8521C5.05084 12.0956 5.37148 11.3702 5.94222 10.8353C6.51297 10.3005 7.28706 10 8.09421 10V10Z" stroke="white" stroke-width="2" stroke-miterlimit="10"/>
<path d="M44.2054 22.0528H3.79464C2.80349 22.0528 2 22.8058 2 23.7346V33.7049C2 34.6337 2.80349 35.3867 3.79464 35.3867H44.2054C45.1965 35.3867 46 34.6337 46 33.7049V23.7346C46 22.8058 45.1965 22.0528 44.2054 22.0528Z" stroke="white" stroke-width="2" stroke-miterlimit="10"/>
<path d="M41.6784 35.3063H38.4054C37.7038 35.3063 37.135 35.8393 37.135 36.4968V37.6252C37.135 38.2827 37.7038 38.8158 38.4054 38.8158H41.6784C42.38 38.8158 42.9488 38.2827 42.9488 37.6252V36.4968C42.9488 35.8393 42.38 35.3063 41.6784 35.3063Z" stroke="white" stroke-width="2" stroke-miterlimit="10"/>
<path d="M9.59421 35.3063H6.32125C5.61962 35.3063 5.05084 35.8393 5.05084 36.4968V37.6252C5.05084 38.2827 5.61962 38.8158 6.32125 38.8158H9.59421C10.2958 38.8158 10.8646 38.2827 10.8646 37.6252V36.4968C10.8646 35.8393 10.2958 35.3063 9.59421 35.3063Z" stroke="white" stroke-width="2" stroke-miterlimit="10"/>
<path d="M19.3086 16.4726H12.2359C11.5343 16.4726 10.9655 17.0056 10.9655 17.6631V20.5989C10.9655 21.2564 11.5343 21.7894 12.2359 21.7894H19.3086C20.0103 21.7894 20.579 21.2564 20.579 20.5989V17.6631C20.579 17.0056 20.0103 16.4726 19.3086 16.4726Z" stroke="white" stroke-width="2" stroke-miterlimit="10"/>
<path d="M35.7638 16.4726H28.6911C27.9895 16.4726 27.4207 17.0056 27.4207 17.6631V20.5989C27.4207 21.2564 27.9895 21.7894 28.6911 21.7894H35.7638C36.4655 21.7894 37.0343 21.2564 37.0343 20.5989V17.6631C37.0343 17.0056 36.4655 16.4726 35.7638 16.4726Z" stroke="white" stroke-width="2" stroke-miterlimit="10"/>
<path d="M2 31.9121V33.9441C2 34.7343 2.61352 35.3785 3.36352 35.3785H44.6365C45.3865 35.3785 46 34.7307 46 33.9441V31.9121H2Z" stroke="white" stroke-width="2" stroke-miterlimit="10"/>
</svg>
