<svg width="48" height="48" viewBox="0 0 48 48" fill="none" xmlns="http://www.w3.org/2000/svg">
<path d="M39.3438 38.9633L35.0927 20.1847C43.8037 11.1091 45.9468 5.7213 44.6119 4.39017C43.2771 3.05904 37.7557 4.88009 28.4817 13.8211L10.0037 9.64605C7.0861 8.71332 4.52682 8.81695 4.09713 9.95023C3.71323 10.9678 5.17472 12.4981 7.49963 13.6892L7.48481 13.7364L21.4706 21.2225C17.9078 25.3114 14.8165 29.3775 12.7233 32.5943L6.47591 32.3789C5.36734 32.2295 4.32073 32.4718 4.06076 32.9644C3.82503 33.4018 4.29379 33.912 5.14509 34.2094L5.13566 34.2296L10.5708 36.305C10.5708 36.305 10.8752 36.2821 11.7831 37.1853C12.6909 38.0884 12.6707 38.3872 12.6707 38.3872L14.7545 43.8369L14.7747 43.8275C15.0751 44.6768 15.5829 45.1465 16.0234 44.9042C16.5164 44.6418 16.7575 43.5987 16.6093 42.491L16.3898 36.1651C19.5741 34.0358 23.5921 30.9065 27.6574 27.3047L35.249 41.4775L35.2961 41.464C36.4896 43.7938 38.0211 45.2474 39.0394 44.8625C40.1736 44.4385 40.276 41.8812 39.3438 38.9633Z" stroke="white" stroke-width="2" stroke-miterlimit="10"/>
</svg>
