<svg width="48" height="48" viewBox="0 0 48 48" fill="none" xmlns="http://www.w3.org/2000/svg">
<path d="M40.9227 21.0228C41.8696 20.3905 42.5941 19.4563 42.9878 18.3599C43.3814 17.2635 43.423 16.064 43.1063 14.941C42.7895 13.818 42.1315 12.8319 41.2308 12.1304C40.3301 11.429 39.2352 11.0498 38.1099 11.0498C36.9847 11.0498 35.8897 11.429 34.989 12.1304C34.0883 12.8319 33.4303 13.818 33.1136 14.941C32.7968 16.064 32.8384 17.2635 33.232 18.3599C33.6257 19.4563 34.3502 20.3905 35.2972 21.0228C33.4554 21.7573 31.944 23.1811 31.0595 25.0149C30.0535 23.93 28.8314 23.0874 27.4791 22.546C28.6703 21.7507 29.5818 20.5754 30.077 19.1961C30.5722 17.8169 30.6245 16.3079 30.2261 14.8951C29.8276 13.4824 28.9999 12.2419 27.8668 11.3594C26.7337 10.4769 25.3562 10 23.9406 10C22.5251 10 21.1476 10.4769 20.0145 11.3594C18.8814 12.2419 18.0536 13.4824 17.6552 14.8951C17.2567 16.3079 17.309 17.8169 17.8043 19.1961C18.2995 20.5754 19.211 21.7507 20.4022 22.546C19.0818 23.0716 17.8847 23.8849 16.8914 24.9313C16.0018 23.1346 14.5074 21.7415 12.6932 21.0178C13.6402 20.3856 14.3647 19.4513 14.7584 18.3549C15.152 17.2585 15.1936 16.059 14.8768 14.936C14.5601 13.813 13.9021 12.8269 13.0014 12.1255C12.1007 11.424 11.0057 11.0449 9.88049 11.0449C8.75525 11.0449 7.66029 11.424 6.75958 12.1255C5.85886 12.8269 5.20087 13.813 4.88414 14.936C4.56741 16.059 4.60898 17.2585 5.00262 18.3549C5.39627 19.4513 6.12081 20.3856 7.06774 21.0178C5.57601 21.6111 4.29272 22.6617 3.38776 24.0305C2.48281 25.3992 1.99886 27.0215 2 28.6826C2 33.2099 5.52883 33.8362 9.88169 33.8362C11.441 33.8362 12.8876 33.7551 14.1098 33.4444C14.7359 37.9979 18.8993 38.6666 23.9454 38.6666C28.9916 38.6666 33.1681 37.9954 33.781 33.417C35.0249 33.7501 36.5158 33.8362 38.1183 33.8362C42.4712 33.8362 46 33.2124 46 28.6826C45.9994 27.0212 45.5136 25.3991 44.6069 24.0312C43.7002 22.6634 42.4154 21.6142 40.9227 21.0228Z" stroke="white" stroke-width="2" stroke-linecap="round" stroke-linejoin="round"/>
<path d="M27.436 22.5462C28.6269 21.7509 29.5381 20.5758 30.033 19.1968C30.528 17.8178 30.5802 16.3092 30.1818 14.8968C29.7833 13.4844 28.9557 12.2442 27.8228 11.362C26.69 10.4797 25.3128 10.0029 23.8976 10.0029C22.4824 10.0029 21.1052 10.4797 19.9723 11.362C18.8395 12.2442 18.0118 13.4844 17.6134 14.8968C17.215 16.3092 17.2672 17.8178 17.7621 19.1968C18.2571 20.5758 19.1683 21.7509 20.3592 22.5462C18.4837 23.2917 16.87 24.6119 15.7316 26.3321C14.5932 28.0523 13.9838 30.0914 13.984 32.1796C13.984 37.8734 18.422 38.6668 23.8976 38.6668C29.3731 38.6668 33.8112 37.8784 33.8112 32.1796C33.8112 30.0914 33.2017 28.0524 32.0633 26.3322C30.925 24.6121 29.3114 23.2919 27.436 22.5462V22.5462Z" stroke="white" stroke-width="2" stroke-linecap="round" stroke-linejoin="round"/>
</svg>
