<svg width="48" height="48" viewBox="0 0 48 48" fill="none" xmlns="http://www.w3.org/2000/svg">
<path d="M33.4526 2H15.0341C12.8061 2 11 3.93961 11 6.33224V32.2542C11 34.6469 12.8061 36.5865 15.0341 36.5865H33.4526C35.6806 36.5865 37.4867 34.6469 37.4867 32.2542V6.33224C37.4867 3.93961 35.6806 2 33.4526 2Z" stroke="white" stroke-width="2" stroke-miterlimit="10"/>
<path d="M17.3067 31.4626C18.6998 31.4626 19.8292 30.3156 19.8292 28.9006C19.8292 27.4857 18.6998 26.3387 17.3067 26.3387C15.9135 26.3387 14.7841 27.4857 14.7841 28.9006C14.7841 30.3156 15.9135 31.4626 17.3067 31.4626Z" stroke="white" stroke-width="2" stroke-miterlimit="10"/>
<path d="M31.1806 31.4626C32.5737 31.4626 33.7031 30.3156 33.7031 28.9006C33.7031 27.4857 32.5737 26.3387 31.1806 26.3387C29.7874 26.3387 28.658 27.4857 28.658 28.9006C28.658 30.3156 29.7874 31.4626 31.1806 31.4626Z" stroke="white" stroke-width="2" stroke-miterlimit="10"/>
<path d="M37.487 22.4959H11.0002V10.9671H24.2442H37.487V22.4959Z" stroke="white" stroke-width="2" stroke-miterlimit="10"/>
<path d="M24.8746 10.9671V22.4959" stroke="white" stroke-width="2" stroke-miterlimit="10"/>
<path d="M26.3379 5.84298H22.1498C21.5649 5.84298 21.0907 6.31378 21.0907 6.89454V7.35338C21.0907 7.93414 21.5649 8.40494 22.1498 8.40494H26.3379C26.9229 8.40494 27.3971 7.93414 27.3971 7.35338V6.89454C27.3971 6.31378 26.9229 5.84298 26.3379 5.84298Z" stroke="white" stroke-width="2" stroke-linecap="round" stroke-linejoin="round"/>
<path d="M35.8518 46H13.4651L17.5133 36.8129H31.8046L35.8518 46Z" stroke="white" stroke-width="2" stroke-linecap="round" stroke-linejoin="round"/>
<path d="M15.7413 40.8962H33.5784" stroke="white" stroke-width="2" stroke-miterlimit="10"/>
</svg>
