<svg width="48" height="48" viewBox="0 0 48 48" fill="none" xmlns="http://www.w3.org/2000/svg">
<path d="M5.13123 10H36.0501V27.7277C36.0501 29.069 35.7901 30.3972 35.285 31.6363C34.7799 32.8755 34.0396 34.0015 33.1064 34.9499C32.1731 35.8983 31.0652 36.6507 29.8458 37.1639C28.6264 37.6772 27.3195 37.9414 25.9997 37.9414H15.1816C12.5161 37.9414 9.95973 36.8653 8.07492 34.9499C6.1901 33.0345 5.13123 30.4366 5.13123 27.7277V10Z" stroke="white" stroke-width="2" stroke-miterlimit="10"/>
<path d="M40.0703 15.487C38.5212 15.487 37.1124 16.2301 36.0571 17.4452V28.3632C37.1124 29.5783 38.5212 30.3215 40.0703 30.3215C43.3453 30.3215 46 27.002 46 22.906C46 18.81 43.3453 15.487 40.0703 15.487Z" stroke="white" stroke-width="2" stroke-miterlimit="10"/>
<path d="M2 38.1317H41.0285" stroke="white" stroke-width="2" stroke-linecap="round" stroke-linejoin="round"/>
</svg>
