<svg width="48" height="48" viewBox="0 0 48 48" fill="none" xmlns="http://www.w3.org/2000/svg">
<path d="M33.4457 19.1297L7.61368 19.1206C6.6748 19.1206 6.07031 19.1049 6.07031 19.1049L10.6541 11.7463C10.9113 11.3269 11.6136 11 12.2155 11H28.6639C29.2658 11 29.9629 11.3269 30.2252 11.7463L34.8103 19.1206C34.8103 19.1206 34.3807 19.1297 33.4457 19.1297Z" stroke="white" stroke-width="2" stroke-miterlimit="10"/>
<path d="M34.6177 19.1206H3.33758C2.98315 19.1216 2.64352 19.2647 2.39289 19.5185C2.14227 19.7723 2.00102 20.1162 2 20.4751V30.647C2.00102 31.006 2.14223 31.3501 2.39281 31.6041C2.6434 31.8581 2.98303 32.0014 3.33758 32.0028H7.28731C7.39157 30.8955 7.8997 29.8673 8.71245 29.119C9.5252 28.3707 10.5842 27.956 11.6827 27.956C12.7811 27.956 13.8401 28.3707 14.6529 29.119C15.4657 29.8673 15.9738 30.8955 16.078 32.0028H27.189C27.2932 30.8955 27.8014 29.8673 28.6141 29.119C29.4269 28.3707 30.4859 27.956 31.5843 27.956C32.6828 27.956 33.7418 28.3707 34.5546 29.119C35.3673 29.8673 35.8755 30.8955 35.9797 32.0028H44.6611C45.0159 32.0018 45.3559 31.8586 45.6067 31.6046C45.8576 31.3505 45.999 31.0063 46 30.647V30.647C45.9912 27.5928 44.7891 24.6662 42.6565 22.5065C40.5238 20.3468 37.6338 19.1295 34.6177 19.1206V19.1206Z" stroke="white" stroke-width="2" stroke-miterlimit="10"/>
<path d="M7.28718 32.0029C7.27432 32.1448 7.2666 32.2881 7.2666 32.434C7.2666 33.6202 7.73192 34.7577 8.56019 35.5965C9.38846 36.4353 10.5118 36.9065 11.6832 36.9065C12.8545 36.9065 13.9779 36.4353 14.8062 35.5965C15.6345 34.7577 16.0998 33.6202 16.0998 32.434C16.0997 32.29 16.0924 32.1461 16.0779 32.0029" stroke="white" stroke-width="2" stroke-miterlimit="10"/>
<path d="M27.1887 32.0029C27.1759 32.1448 27.1682 32.2881 27.1682 32.434C27.1879 33.6068 27.6619 34.7247 28.4879 35.5471C29.3139 36.3694 30.4258 36.8301 31.5841 36.8301C32.7424 36.8301 33.8543 36.3694 34.6803 35.5471C35.5063 34.7247 35.9803 33.6068 36.0001 32.434C36.0004 32.29 35.9935 32.1461 35.9795 32.0029" stroke="white" stroke-width="2" stroke-miterlimit="10"/>
<path d="M30.2305 11.7463C29.9733 11.3269 29.271 11 28.6691 11H20.4379V19.1258H33.4433C34.3809 19.1258 34.8104 19.1167 34.8104 19.1167L30.2305 11.7463Z" stroke="white" stroke-width="2" stroke-miterlimit="10"/>
</svg>
