<svg width="48" height="48" viewBox="0 0 48 48" fill="none" xmlns="http://www.w3.org/2000/svg">
<path d="M40.4199 43.7172H7.33103C7.1423 43.722 6.95481 43.685 6.78162 43.6089C6.60843 43.5327 6.45371 43.4192 6.32824 43.2763C6.20277 43.1333 6.10958 42.9644 6.05514 42.7812C6.00071 42.598 5.98635 42.405 6.01307 42.2156L8.89846 17.9473C8.96609 17.3747 9.57623 16.9102 10.251 16.9102H37.4969C38.1762 16.9102 38.7848 17.3671 38.8494 17.9473L41.7333 42.2156C41.7602 42.4047 41.7462 42.5974 41.6921 42.7803C41.638 42.9633 41.5452 43.1321 41.4202 43.275C41.2952 43.418 41.1409 43.5316 40.9682 43.6079C40.7954 43.6843 40.6083 43.7216 40.4199 43.7172V43.7172Z" stroke="white" stroke-width="2" stroke-linecap="round" stroke-linejoin="round"/>
<path d="M33.0138 16.9103C33.0827 16.395 33.1174 15.8755 33.1175 15.3555C33.1175 9.63711 28.9788 5 23.8753 5C18.7717 5 14.6345 9.63559 14.6345 15.3555C14.6339 15.8755 14.6686 16.395 14.7382 16.9103H33.0138Z" stroke="white" stroke-width="2" stroke-linecap="round" stroke-linejoin="round"/>
<path d="M14.8941 22.371C15.7531 22.371 16.4495 21.6653 16.4495 20.7948C16.4495 19.9243 15.7531 19.2187 14.8941 19.2187C14.035 19.2187 13.3387 19.9243 13.3387 20.7948C13.3387 21.6653 14.035 22.371 14.8941 22.371Z" fill="white"/>
<path d="M33.1172 22.371C33.9762 22.371 34.6726 21.6653 34.6726 20.7948C34.6726 19.9243 33.9762 19.2187 33.1172 19.2187C32.2582 19.2187 31.5618 19.9243 31.5618 20.7948C31.5618 21.6653 32.2582 22.371 33.1172 22.371Z" fill="white"/>
</svg>
