<svg width="126" height="68" viewBox="0 0 126 68" fill="none" xmlns="http://www.w3.org/2000/svg">
<path d="M71.4674 57.5055C78.6888 57.5055 85.8626 57.5055 93.1079 57.5055C93.1079 60.3756 93.1079 63.1299 93.1079 66C92.2261 66 91.3919 66 90.5816 66C84.3135 66 78.0453 66 71.7534 66C68.7981 66 67.0106 64.2641 67.0106 61.3708C66.9868 46.0946 67.0106 30.8184 67.0106 15.5653C67.0106 12.811 68.7742 11.0056 71.5866 11.0056C81.6442 10.9825 91.6779 10.9825 101.736 10.9825C104.476 10.9825 106.264 12.7878 106.288 15.4496C106.311 16.7226 106.288 17.9956 106.288 19.3844C104.834 19.3844 103.428 19.3844 101.974 19.3844C101.926 18.7594 101.902 18.1577 101.855 17.4633C91.7256 17.4633 81.668 17.4633 71.4912 17.4633C71.4674 30.749 71.4674 44.0346 71.4674 57.5055ZM86.53 63.8474C87.6978 63.8706 88.7703 62.8985 88.7703 61.7643C88.7941 60.6533 87.8646 59.7275 86.673 59.6812C85.4575 59.6349 84.4565 60.5607 84.4565 61.7412C84.4326 62.8522 85.386 63.8243 86.53 63.8474Z" fill="#005473"/>
<path d="M7.56103 57.0175C7.53777 53.1699 7.49124 49.2991 7.49124 45.4515C7.49124 34.3259 7.49124 23.2002 7.5145 12.0978C7.5145 10.7534 7.53777 9.3627 7.84018 8.06471C8.65437 4.47205 11.8181 2.10785 15.9356 2.03832C21.472 1.96878 27.0085 2.01514 32.5683 2.01514C49.55 2.01514 66.5084 2.01514 83.4901 2.01514C86.3514 2.01514 88.9103 2.78003 90.8643 5.02833C91.1202 5.32965 91.3296 5.70051 91.7018 6.23361C91.0039 6.23361 90.5619 6.23361 90.1199 6.23361C66.0199 6.23361 41.9199 6.23361 17.7966 6.23361C17.0289 6.23361 16.238 6.25679 15.4936 6.44222C12.8649 7.06803 11.7948 8.45874 11.8181 11.1474C11.9344 25.9816 12.0507 40.7926 12.1438 55.6268C12.1438 56.0904 12.074 56.5308 12.0507 56.9944C10.5386 56.9944 9.04983 57.0175 7.56103 57.0175Z" fill="#005473"/>
<path d="M123.14 44.7045C123.14 50.228 123.14 55.7281 123.14 61.2515C123.14 64.2579 121.448 65.9825 118.438 65.9825C112.96 66.0058 107.459 66.0058 101.981 65.9825C99.16 65.9825 97.3262 64.2113 97.3262 61.4146C97.3027 50.2746 97.3262 39.1345 97.3262 27.9711C97.3262 25.0579 99.066 23.3566 102.028 23.3566C107.506 23.3333 113.007 23.3333 118.485 23.3333C121.307 23.3333 123.14 25.1279 123.14 27.9012C123.14 33.5179 123.14 39.1112 123.14 44.7045ZM101.699 27.3652C101.699 37.2934 101.699 47.1283 101.699 57.0332C107.436 57.0332 113.078 57.0332 118.791 57.0332C118.791 47.105 118.791 37.2701 118.791 27.3652C113.102 27.3652 107.483 27.3652 101.699 27.3652ZM110.186 63.8384C111.315 63.8617 112.279 62.9295 112.326 61.8108C112.373 60.5989 111.479 59.6434 110.257 59.6201C109.081 59.5968 108.141 60.4824 108.094 61.6244C108.047 62.7897 109.011 63.7918 110.186 63.8384Z" fill="#005473"/>
<path d="M7.33665 57.0419C8.82528 57.0419 10.3139 57.0175 11.8025 57.0175C18.5711 57.0419 25.363 57.0662 32.1315 57.0662C41.7843 57.0662 51.4371 57.0662 61.0667 57.0662C61.5319 57.0662 61.9738 57.0662 62.5088 57.0662C62.5088 60.0604 62.5088 62.9328 62.5088 65.9513C62.1366 65.9757 61.7179 66 61.3225 66C42.5984 66 23.8976 66 5.17349 66C3.28945 66 3.0336 65.7322 3.01034 63.7605C3.01034 62.1052 2.98708 60.4255 3.01034 58.7702C3.0336 57.5287 3.42901 57.1149 4.63852 57.0906C5.56891 57.0419 6.45278 57.0419 7.33665 57.0419ZM49.7624 63.7605C51.7628 63.7605 53.7864 63.7848 55.7867 63.7605C57.3219 63.7605 58.2988 62.8841 58.2988 61.5453C58.322 60.2064 57.3684 59.3301 55.81 59.3301C51.8326 59.3301 47.8319 59.3301 43.8545 59.3544C42.2495 59.3544 41.3424 60.1821 41.3424 61.5453C41.3424 62.9085 42.2495 63.7605 43.8312 63.7848C45.8315 63.7848 47.7854 63.7605 49.7624 63.7605Z" fill="#005473"/>
</svg>
