<svg width="68" height="68" viewBox="0 0 68 68" fill="none" xmlns="http://www.w3.org/2000/svg">
<path d="M66 64C66 64.675 66 65.325 66 66C44.675 66 23.325 66 2 66C2 65.325 2 64.675 2 64C2.675 63.775 3.35 63.375 4.05 63.35C5.95 63.25 7.85 63.325 9.8 63.325C9.825 62.8 9.875 62.425 9.875 62.05C9.875 54.05 9.875 46.075 9.875 38.075C9.875 29.7 9.875 21.35 9.875 12.975C9.875 11.225 10.175 10.95 11.925 10.95C13.325 10.95 14.725 10.95 16.275 10.95C16.275 8.55 16.225 6.275 16.3 4C16.325 3.325 16.75 2.675 17 2C28.325 2 39.675 2 51 2C51.25 2.675 51.675 3.325 51.7 4C51.8 6.275 51.725 8.55 51.725 10.95C53.15 10.95 54.425 10.95 55.7 10.95C57.95 10.95 58.125 11.1 58.125 13.35C58.125 29.45 58.125 45.575 58.125 61.675C58.125 62.2 58.125 62.7 58.125 63.325C60.2 63.325 62.075 63.275 63.95 63.35C64.65 63.375 65.325 63.775 66 64ZM18.3 63.25C18.525 61.875 18.575 60.85 17.2 60.075C15.975 59.375 15.55 58 15.775 56.575C16.025 54.975 16.35 53.375 16.8 51.825C17.05 50.975 17.525 50.125 18.075 49.425C19.025 48.2 20.375 48.225 21.4 49.4C21.725 49.775 22.075 50.2 22.2 50.65C22.75 52.775 23.35 54.9 23.7 57.05C23.9 58.3 23.325 59.575 22.2 60.15C20.725 60.9 21.05 62 21.1 63.225C22.925 63.225 24.675 63.225 26.525 63.225C26.525 58.675 26.525 54.225 26.525 49.775C26.525 48.275 26.875 47.9 28.35 47.9C32.1 47.875 35.85 47.875 39.6 47.9C41.175 47.9 41.5 48.25 41.5 49.825C41.5 53.875 41.5 57.9 41.5 61.95C41.5 62.4 41.5 62.825 41.5 63.25C43.425 63.25 45.15 63.25 46.9 63.25C47.025 61.975 47.275 60.875 45.8 60.15C44.725 59.6 44.125 58.375 44.325 57.175C44.7 54.975 45.2 52.775 45.85 50.65C46.175 49.575 46.95 48.6 48.275 48.575C49.575 48.575 50.375 49.525 50.7 50.6C51.35 52.725 51.85 54.925 52.225 57.125C52.45 58.4 51.8 59.6 50.675 60.2C49.2 60.975 49.55 62.075 49.7 63.25C51.6 63.25 53.4 63.25 55.225 63.25C55.225 46.7 55.225 30.225 55.225 13.7C40.95 13.7 26.775 13.7 12.6 13.7C12.6 30.275 12.6 46.75 12.6 63.275C14.55 63.25 16.4 63.25 18.3 63.25ZM19 10.9C29.05 10.9 38.975 10.9 48.975 10.9C48.975 8.825 48.975 6.825 48.975 4.8C38.925 4.8 28.975 4.8 19 4.8C19 6.85 19 8.8 19 10.9ZM29.275 63.225C32.5 63.225 35.6 63.225 38.7 63.225C38.7 58.95 38.7 54.8 38.7 50.6C35.5 50.6 32.4 50.6 29.275 50.6C29.275 54.85 29.275 59 29.275 63.225ZM20.05 51.9C19.85 51.9 19.625 51.9 19.425 51.9C19.1 53.55 18.725 55.2 18.475 56.875C18.325 57.75 18.825 58.35 19.725 58.4C20.625 58.425 21.175 57.875 21.05 56.975C20.75 55.25 20.375 53.575 20.05 51.9ZM48.575 51.875C48.375 51.875 48.15 51.9 47.95 51.9C47.625 53.55 47.25 55.2 46.975 56.85C46.825 57.725 47.325 58.325 48.225 58.35C49.1 58.375 49.675 57.8 49.55 56.925C49.3 55.25 48.9 53.575 48.575 51.875Z" fill="#005473"/>
<path d="M52.8118 24.0382C52.8118 25.517 52.8382 26.9957 52.8118 28.4745C52.7855 29.8054 52.39 30.2243 51.0456 30.2243C48.4623 30.249 45.8526 30.2243 43.2692 30.2243C42.083 30.2243 41.5294 29.6821 41.5294 28.5484C41.5558 25.5909 41.5294 22.6334 41.5294 19.6759C41.5294 18.3943 41.9775 18 43.3483 18C45.8526 18 48.3568 18 50.8611 18C52.39 18 52.7855 18.3943 52.7855 19.8484C52.8382 21.2533 52.8118 22.6334 52.8118 24.0382ZM44.5082 20.711C44.5082 23.077 44.5082 25.3198 44.5082 27.5133C46.4062 27.5133 48.1723 27.5133 49.8858 27.5133C49.8858 25.1966 49.8858 22.9538 49.8858 20.711C48.0405 20.711 46.3007 20.711 44.5082 20.711Z" fill="#005473"/>
<path d="M52.8169 38.2568C52.8169 39.7317 52.8169 41.2065 52.8169 42.6814C52.8169 43.7876 52.2895 44.3529 51.0763 44.3529C48.4918 44.3529 45.8809 44.3529 43.2964 44.3529C42.1096 44.3529 41.5294 43.8367 41.5294 42.706C41.5558 39.7563 41.5294 36.8065 41.5294 33.8568C41.5294 32.554 41.9777 32.1607 43.3228 32.1361C45.8809 32.1115 48.4127 32.1115 50.9708 32.1361C52.3422 32.1361 52.7642 32.554 52.7906 33.8322C52.8433 35.3071 52.8169 36.7819 52.8169 38.2568ZM49.9423 34.8646C48.0171 34.8646 46.2501 34.8646 44.5095 34.8646C44.5095 37.1752 44.5095 39.4121 44.5095 41.6244C46.382 41.6244 48.1753 41.6244 49.9423 41.6244C49.9423 39.3384 49.9423 37.1261 49.9423 34.8646Z" fill="#005473"/>
<path d="M15.2015 24.1176C15.2015 22.5944 15.2257 21.0957 15.2015 19.5724C15.1773 18.4914 15.6621 18 16.7289 18C19.1533 18.0246 21.5777 18.0246 24.002 18C25.093 18 25.5294 18.5405 25.5294 19.597C25.5294 22.5944 25.5052 25.5672 25.5294 28.5646C25.5294 29.6948 25.0445 30.2353 23.9293 30.2353C21.5534 30.2353 19.1775 30.2353 16.7774 30.2353C15.6864 30.2353 15.153 29.6948 15.1773 28.5646C15.2257 27.0659 15.2015 25.5918 15.2015 24.1176ZM17.8441 20.7271C17.8441 23.0612 17.8441 25.297 17.8441 27.5081C19.5654 27.5081 21.1897 27.5081 22.8868 27.5081C22.8868 25.2232 22.8868 23.012 22.8868 20.7271C21.1897 20.7271 19.5654 20.7271 17.8441 20.7271Z" fill="#005473"/>
<path d="M15.2008 38.1646C15.2008 36.6406 15.2008 35.1411 15.2008 33.6171C15.2008 32.5847 15.6868 32.1176 16.6832 32.1176C19.1621 32.1176 21.6167 32.1176 24.0956 32.1176C25.0434 32.1176 25.5294 32.5847 25.5294 33.5434C25.5294 36.6652 25.5294 39.7624 25.5294 42.8842C25.5294 43.8429 25.0191 44.3345 24.0956 44.3345C21.5924 44.3591 19.0892 44.3591 16.5617 44.3345C15.6382 44.3345 15.1765 43.7937 15.1765 42.8351C15.2008 41.2864 15.2008 39.7378 15.2008 38.1646ZM17.8012 41.6306C19.5509 41.6306 21.2035 41.6306 22.9047 41.6306C22.9047 39.3445 22.9047 37.1322 22.9047 34.8707C21.1792 34.8707 19.5266 34.8707 17.8012 34.8707C17.8012 37.1568 17.8012 39.3445 17.8012 41.6306Z" fill="#005473"/>
<path d="M39.6471 38.2667C39.6471 39.7917 39.6471 41.2921 39.6471 42.817C39.6471 43.8501 39.089 44.3174 38.0261 44.342C35.3689 44.3666 32.7117 44.342 30.0544 44.342C28.9384 44.342 28.3272 43.8747 28.3538 42.7678C28.3803 39.6933 28.3538 36.6188 28.3538 33.5688C28.3538 32.6096 28.8587 32.1176 29.895 32.1176C32.5788 32.1176 35.2892 32.1176 37.973 32.1176C39.1422 32.1176 39.6471 32.6834 39.6205 33.741C39.6471 35.2414 39.6471 36.7663 39.6471 38.2667ZM36.7772 41.6118C36.7772 39.2752 36.7772 37.0615 36.7772 34.8232C34.8906 34.8232 33.1102 34.8232 31.2236 34.8232C31.2236 37.1107 31.2236 39.3244 31.2236 41.6118C33.0837 41.6118 34.8906 41.6118 36.7772 41.6118Z" fill="#005473"/>
<path d="M28.3795 24.0999C28.3795 22.5749 28.4061 21.0745 28.3795 19.5496C28.3529 18.4673 28.9375 18 30.0801 18C32.6842 18.0246 35.2883 18.0246 37.8924 18C39.1147 18 39.6727 18.5165 39.6462 19.648C39.6196 22.6241 39.6196 25.6249 39.6462 28.601C39.6462 29.757 39.0084 30.2244 37.8392 30.2244C35.2883 30.2244 32.7108 30.249 30.1599 30.2244C28.7515 30.1998 28.3795 29.8308 28.3529 28.5026C28.3529 27.0514 28.3795 25.5757 28.3795 24.0999ZM36.7764 27.568C36.7764 25.2067 36.7764 22.993 36.7764 20.7302C34.8897 20.7302 33.1094 20.7302 31.2759 20.7302C31.2759 23.0422 31.2759 25.3051 31.2759 27.568C33.1625 27.568 34.9163 27.568 36.7764 27.568Z" fill="#005473"/>
</svg>
