<svg width="68" height="68" viewBox="0 0 68 68" fill="none" xmlns="http://www.w3.org/2000/svg">
<path fill-rule="evenodd" clip-rule="evenodd" d="M5 10.6166C5 9.66429 5.77165 8.89231 6.72353 8.89231H60.3842C61.336 8.89231 62.1077 9.66429 62.1077 10.6166V64.2757C62.1077 65.228 61.336 66 60.3842 66H6.72353C5.77165 66 5 65.228 5 64.2757V10.6166ZM8.44705 12.3409V62.5514H58.6606V12.3409H8.44705Z" fill="#005473"/>
<path fill-rule="evenodd" clip-rule="evenodd" d="M5 10.5951C5 9.65467 5.77165 8.89231 6.72353 8.89231H60.3842C61.336 8.89231 62.1077 9.65467 62.1077 10.5951V24.9126C62.1077 25.853 61.336 26.6154 60.3842 26.6154H6.72353C5.77165 26.6154 5 25.853 5 24.9126V10.5951ZM8.44705 12.2979V23.2098H58.6606V12.2979H8.44705Z" fill="#005473"/>
<path fill-rule="evenodd" clip-rule="evenodd" d="M17.3077 2C18.1234 2 18.7846 2.74903 18.7846 3.673V16.0808C18.7846 17.0048 18.1234 17.7538 17.3077 17.7538C16.492 17.7538 15.8308 17.0048 15.8308 16.0808V3.673C15.8308 2.74903 16.492 2 17.3077 2Z" fill="#005473"/>
<path fill-rule="evenodd" clip-rule="evenodd" d="M49.8 2C50.6157 2 51.2769 2.74903 51.2769 3.673V16.0808C51.2769 17.0048 50.6157 17.7538 49.8 17.7538C48.9843 17.7538 48.3231 17.0048 48.3231 16.0808V3.673C48.3231 2.74903 48.9843 2 49.8 2Z" fill="#005473"/>
<path fill-rule="evenodd" clip-rule="evenodd" d="M33.553 34.118C32.8335 35.6401 32.1088 37.1596 31.379 38.6764L31.3775 38.6796L31.3759 38.6829C31.2451 38.9518 31.0617 39.1891 30.8377 39.3794C30.6136 39.5697 30.3538 39.7086 30.0752 39.7874L29.9842 39.8132L29.8911 39.828C28.9557 39.9771 28.017 40.1172 27.0861 40.2562C26.7431 40.3075 26.4011 40.3585 26.0606 40.4099C26.0606 40.4099 26.0607 40.4098 26.0606 40.4099L25.9441 40.4274C25.6419 40.473 25.3406 40.5184 25.04 40.5642L28.4702 44.0412C28.7151 44.2628 28.9054 44.5438 29.0238 44.8607C29.159 45.2226 29.1948 45.6164 29.1276 45.9981C28.8496 47.6572 28.5737 49.3184 28.2998 50.9817C29.7263 50.1965 31.1515 49.4114 32.5755 48.6262C32.8807 48.4456 33.226 48.3504 33.5776 48.3504C33.9292 48.3504 34.2745 48.4456 34.5797 48.6262C36.0002 49.4094 37.4226 50.1927 38.8458 50.9762C38.5771 49.3436 38.3061 47.7119 38.0328 46.081C37.9609 45.7248 37.9768 45.3549 38.0796 45.006C38.1868 44.6424 38.3843 44.3154 38.6517 44.0581C39.4016 43.3104 40.1441 42.5554 40.8924 41.7945C41.0186 41.6662 41.1451 41.5376 41.2717 41.4089C41.2728 41.4078 41.274 41.4066 41.2751 41.4054L42.091 40.5667C41.923 40.5416 41.755 40.5165 41.5869 40.4914C40.1393 40.2753 38.6862 40.0583 37.2361 39.8324L37.1679 39.8217L37.1008 39.8053C36.8298 39.7387 36.5744 39.6161 36.3496 39.4446C36.1248 39.2731 35.9353 39.0562 35.7921 38.8067L35.7828 38.7905L35.7738 38.774C35.624 38.4994 35.4868 38.2013 35.3818 37.9732C35.358 37.9215 35.3359 37.8734 35.3157 37.83C34.7253 36.5939 34.1377 35.3565 33.553 34.118ZM33.3715 29.5764C33.9124 29.5347 34.4518 29.6763 34.9096 29.9801C35.3404 30.2659 35.6774 30.6812 35.877 31.1702C36.6791 32.877 37.4867 34.5815 38.2998 36.2838L38.303 36.2906L38.3062 36.2974C38.3396 36.3688 38.3698 36.4342 38.3978 36.4949C39.614 36.6821 40.8316 36.864 42.0538 37.0465C42.4036 37.0987 42.7538 37.151 43.1045 37.2035L43.1112 37.2045L44.1643 37.3713C44.6476 37.4311 45.1037 37.6388 45.4749 37.9691C45.8514 38.3042 46.1228 38.7496 46.2539 39.2474C46.3861 39.7204 46.3872 40.2233 46.2567 40.6974C46.1291 41.1613 45.8807 41.5784 45.54 41.9029L43.6015 43.8957L43.598 43.8992C43.4716 44.0277 43.3449 44.1565 43.218 44.2855C42.6231 44.8904 42.0233 45.5004 41.4188 46.1074C41.7091 47.8432 41.9967 49.5799 42.2817 51.3175L42.283 51.3254L42.2842 51.3333C42.3064 51.4763 42.3219 51.5612 42.3399 51.6594C42.3545 51.7391 42.3707 51.8275 42.3933 51.9628C42.4957 52.4466 42.4656 52.9515 42.3053 53.4191C42.1357 53.9141 41.8281 54.3446 41.4224 54.6554C41.0166 54.9662 40.5312 55.1431 40.0285 55.1634C39.5504 55.1828 39.0775 55.0597 38.6646 54.8094C36.9685 53.8758 35.2719 52.9419 33.5776 52.008C31.8857 52.9407 30.1921 53.8734 28.4966 54.8061C28.1882 54.9959 27.8441 55.1148 27.4875 55.1545C27.1022 55.1973 26.7126 55.1465 26.3493 55.006C25.9859 54.8655 25.6585 54.6391 25.3927 54.3444C25.127 54.0497 24.9302 53.6948 24.8176 53.3073L24.8099 53.2808L24.803 53.254C24.7596 53.0854 24.7272 52.9139 24.7059 52.7407L24.6745 52.4853L24.7154 52.2314C24.7997 51.7068 24.8872 51.1762 24.9775 50.6312C25.2258 49.1221 25.4758 47.6149 25.7274 46.1093L21.63 41.956C21.3514 41.699 21.1287 41.3822 20.9774 41.0268C20.815 40.6452 20.7392 40.2296 20.7562 39.8124L20.7574 39.7817L20.7597 39.7511C20.803 39.1692 21.033 38.6196 21.4122 38.191C21.7914 37.7624 22.2977 37.4799 22.8494 37.3888L22.8535 37.3882C23.7263 37.2464 24.6011 37.1145 25.4626 36.9846L25.5846 36.9662C25.9346 36.9135 26.2825 36.8615 26.6288 36.8098C27.3228 36.7062 28.0111 36.6034 28.6993 36.4968C29.5498 34.7249 30.3933 32.9493 31.2297 31.17C31.4068 30.7404 31.69 30.3669 32.0508 30.0882C32.4356 29.7909 32.8931 29.6135 33.3704 29.5765L33.3715 29.5764Z" fill="#005473"/>
</svg>
