<svg width="86" height="65" viewBox="0 0 86 65" fill="none" xmlns="http://www.w3.org/2000/svg">
<path d="M54.8942 59.2863C53.1279 57.9878 51.9798 59.2415 50.655 60.5847C49.6836 61.5698 48.0497 61.6145 46.9016 60.9429C45.5768 60.137 44.8703 60.5399 44.0755 61.5697C43.8988 61.7936 43.6339 62.0623 43.3689 62.107C40.4986 62.4652 37.9375 63.9428 35.1997 64.6144C32.5502 65.286 30.4747 63.4503 29.8565 60.5399C29.6799 59.6445 29.4149 59.3758 28.5318 59.1967C26.3238 58.749 24.7783 57.4505 24.425 55.1223C24.2926 54.1373 23.8068 54.003 23.0561 53.7791C19.2144 52.6597 17.8455 49.5703 19.7001 46.0332C20.1417 45.1377 19.9209 44.7348 19.4793 44.1079C17.0948 40.929 15.4168 37.3918 14.2686 33.5861C13.6063 31.4817 12.2374 30.0042 10.7801 28.4818C10.6035 28.258 10.2944 27.9893 10.0736 27.9893C6.76175 28.5266 5.48116 25.7506 3.67067 23.9597C-1.23089 19.2136 -1.18673 19.1689 3.58236 14.3781C7.82155 10.1245 12.0166 5.87102 16.2558 1.6175C18.4195 -0.531646 19.9651 -0.531646 22.0847 1.57273C23.5419 3.05027 25.0433 4.48303 26.5005 5.96057C26.9862 6.40831 27.5161 6.85605 27.6044 7.57243C28.046 10.9752 30.8722 12.2737 33.0359 14.1542C34.0957 15.0944 35.288 15.4974 36.701 14.781C37.2751 14.5124 38.0258 14.4228 38.644 14.5124C40.1895 14.7363 41.3818 14.199 42.6624 13.3035C45.4002 11.3782 48.4913 11.3334 51.5382 12.4528C53.7903 13.2587 55.8657 13.2139 57.897 12.0946C58.9568 11.5125 60.1491 10.7961 59.575 9.18429C59.5308 9.00519 59.6192 8.73655 59.6633 8.51268C60.0166 6.7665 66.3312 0.498154 68.0975 0.139963C69.1573 -0.0839069 69.9522 0.363832 70.6587 1.08021C75.3395 5.82625 80.0644 10.5275 84.7452 15.2735C86.379 16.9749 86.3791 18.4525 84.701 20.1539C82.8906 21.9896 80.9918 23.7806 79.0929 25.5715C78.6955 25.9745 78.1215 26.3327 77.5916 26.467C73.0874 27.5416 70.7029 30.6758 69.4223 34.9293C68.23 38.8246 66.4637 42.4065 63.7259 45.4064C63.0193 46.2123 62.4453 46.8391 62.7986 48.0928C63.1077 49.2122 62.7986 50.5106 61.9154 51.1822C60.2374 52.4359 59.6192 53.9134 59.3101 55.973C59.0451 58.1222 57.1905 58.9729 54.8942 59.2863ZM38.2907 17.6018C38.2466 17.4227 38.2466 17.1988 38.2024 17.0197C33.4333 18.4077 30.3864 15.7213 27.5161 12.6767C27.472 12.6319 27.4278 12.5871 27.3836 12.4976C26.633 11.3334 26.0147 11.6916 25.2199 12.5423C21.2015 16.7959 17.0948 21.0046 12.9881 25.1686C12.1491 26.0193 12.1491 26.5566 12.9881 27.2729C15.0193 29.0191 16.0791 31.3474 16.9181 33.8547C17.8896 36.8993 19.3468 39.7649 21.2015 42.3617C21.8639 43.2572 22.5704 43.705 23.7627 43.6602C26.2797 43.6154 28.2227 45.093 28.7526 47.5107C28.9733 48.5405 29.2383 48.8987 30.2981 49.1674C32.4618 49.6599 33.9632 51.0479 34.2282 53.4209C34.3165 54.1373 34.5373 54.4955 35.288 54.585C37.8491 54.9432 39.3064 56.5103 39.8363 59.0624C40.1454 60.6295 41.2052 60.4952 42.1767 59.8683C43.4131 59.0176 43.3689 57.9878 42.265 56.9133C39.2181 53.8686 36.2153 50.824 33.1684 47.7794C32.506 47.1078 31.8878 46.3466 32.6826 45.4959C33.5658 44.5557 34.2723 45.3616 34.8905 46.0332C37.7167 48.854 40.5428 51.7195 43.3689 54.5402C44.6054 55.7939 45.8418 57.0924 47.1665 58.3013C47.9172 59.0176 48.7562 59.0624 49.5511 58.346C50.3018 57.6296 50.3459 56.7789 49.7719 55.9282C49.4186 55.3909 48.9329 54.8984 48.4471 54.4507C45.356 51.3613 42.2208 48.3167 39.1739 45.1825C38.379 44.3766 36.8777 43.5259 37.9816 42.2722C39.1739 40.8842 40.0129 42.5408 40.7636 43.302C43.0598 45.4959 45.3119 47.7794 47.564 50.0181C49.5511 51.9881 51.5382 54.003 53.5253 55.973C54.4526 56.8685 55.5124 57.0476 56.4839 56.1521C57.5437 55.1671 57.4554 54.0477 56.4839 53.0179C56.1748 52.7045 55.8657 52.3911 55.5566 52.0777C51.3174 47.8689 47.0341 43.6154 42.7949 39.4067C42.1325 38.7351 41.426 38.0187 42.265 37.1232C43.1481 36.1829 43.8547 37.0337 44.517 37.6157C44.782 37.8396 45.0469 38.153 45.3119 38.3769C49.0653 42.0483 52.8188 45.7646 56.5722 49.436C57.5437 50.421 58.6477 51.1374 59.7958 49.9285C60.9439 48.7644 60.3257 47.6451 59.3101 46.66C56.7489 44.1527 54.276 41.6454 51.759 39.138C51.0966 38.4664 50.4342 37.7053 51.1849 36.8546C51.9798 35.9591 52.7746 36.6755 53.437 37.3023C55.6008 39.4514 57.8087 41.511 59.8841 43.7497C60.8114 44.7348 61.2972 44.6004 62.092 43.6602C64.4766 40.8394 66.2871 37.7053 67.0819 34.0786C67.5676 31.8399 68.5833 30.0937 70.2171 28.6162C71.1445 27.7655 71.9393 26.7357 72.9108 25.9745C73.8823 25.1686 73.6615 24.6761 72.9108 23.8701C69.4664 20.5121 66.0663 17.0645 62.7102 13.6617C62.0037 12.9453 61.5621 12.5871 60.5465 13.4378C57.632 15.9004 54.3202 16.2586 50.8317 14.9153C47.4315 13.6169 44.6495 14.5124 42.3091 17.1093C39.2622 20.4673 36.2153 23.7806 33.1684 27.1386C32.8593 27.452 32.5502 27.7655 32.2852 28.1236C31.2254 29.6907 31.5345 31.0787 32.8151 32.2876C34.2282 33.6308 35.1555 32.6458 36.127 31.616C38.4674 29.243 40.8077 26.87 43.1481 24.497C43.7222 23.9149 44.3846 23.0642 45.1794 23.7806C45.8859 24.4074 45.7535 25.482 45.0469 26.064C43.7664 27.1834 44.517 27.9446 45.2677 28.84C47.564 31.3474 50.3901 32.5115 53.7461 32.2428C54.6734 32.1533 55.6891 32.0637 55.8216 33.2726C55.954 34.6159 54.8501 34.7054 53.8344 34.795C50.6109 35.0188 47.7848 33.989 45.1353 32.2428C43.8988 31.4369 43.4131 29.1534 41.8234 29.646C40.4986 30.0489 39.5713 31.7056 38.4674 32.8249C37.9816 33.3174 37.54 33.8099 37.0985 34.2577C36.3919 34.974 35.5529 35.2875 34.5373 35.377C32.2411 35.5561 30.7838 34.3024 29.7682 32.4219C28.7084 30.4967 29.0617 27.9446 30.6072 26.1984C33.1242 23.2433 35.7296 20.4225 38.2907 17.6018ZM25.3082 8.51268C25.2199 8.33359 25.1757 8.10971 24.9991 7.97539C23.2769 6.22921 21.5548 4.5278 19.7884 2.8264C19.0377 2.06524 18.5962 2.78162 18.1546 3.22936C13.253 8.15449 8.3956 13.0796 3.44988 18.0047C2.56672 18.9002 2.4784 19.4823 3.40572 20.3778C4.86294 21.7658 6.27601 23.1537 7.60076 24.6313C8.48392 25.6611 9.10214 25.6611 10.0736 24.6761C14.7985 19.7062 19.6118 14.781 24.3809 9.81112C24.7783 9.45293 25.2199 9.13952 25.3082 8.51268ZM68.3625 2.4682C68.0975 2.6473 67.8326 2.78162 67.6118 3.00549C65.8896 4.84122 64.1675 6.67695 62.4453 8.51268C61.7388 9.22906 62.1803 9.6768 62.6661 10.1693C67.0377 14.5572 71.4536 18.945 75.7811 23.3776C76.6642 24.2731 77.1941 24.0492 77.9448 23.2881C79.4021 21.8105 80.8593 20.333 82.4048 18.9898C83.5088 18.0047 83.2438 17.3779 82.3165 16.4824C77.9448 12.1394 73.6615 7.7963 69.334 3.40846C69.069 3.05027 68.7158 2.78162 68.3625 2.4682ZM34.8022 57.0924C33.2125 57.2267 32.3294 58.0774 32.2411 59.6445C32.1527 61.122 33.4775 62.51 34.8905 62.3309C36.3478 62.1518 37.3634 61.3011 37.2751 59.6445C37.2309 58.0326 36.3036 57.2714 34.8022 57.0924ZM23.6302 51.3165C25.4407 51.3165 26.2355 50.3315 26.4563 48.854C26.633 47.466 25.3082 46.078 23.851 46.1675C22.3054 46.2571 21.3781 47.1078 21.3781 48.7196C21.3781 50.3315 22.2613 51.1822 23.6302 51.3165ZM29.3266 51.6299C27.7811 51.6747 26.8096 52.5702 26.7213 54.0477C26.633 55.6596 27.5603 56.6894 29.2383 56.7342C30.9163 56.7789 31.8436 55.7491 31.8436 54.1373C31.8436 52.615 30.8721 51.7195 29.3266 51.6299Z" fill="#005473"/>
</svg>
