<svg width="25" height="25" viewBox="0 0 25 25" fill="none" xmlns="http://www.w3.org/2000/svg"><path d="M14.679 5.725c1.468 1.475 2.95 2.965 4.418 4.445-3.758 3.777-7.527 7.566-11.278 11.34a5113.516 5113.516 0 0 0-4.429-4.445c3.751-3.77 7.52-7.555 11.289-11.34zM15.849 4.488c.548-.551 1.096-1.106 1.655-1.657.18-.177.361-.362.57-.5.714-.475 1.677-.446 2.308.134a38.87 38.87 0 0 1 2.186 2.183c.591.638.57 1.464-.029 2.106-.71.754-1.457 1.476-2.19 2.208-.01.01-.028.018-.035.022-1.482-1.498-2.965-2.988-4.465-4.496zM2.119 18.348c1.475 1.48 2.946 2.962 4.425 4.449l-1.306.323c-1.165.282-2.333.565-3.498.852-.534.13-.833-.16-.714-.7.357-1.624.718-3.252 1.078-4.877l.015-.047z" fill="#000"/></svg>