<svg width="24" height="24" viewBox="0 0 24 24" fill="none" xmlns="http://www.w3.org/2000/svg"><g clip-path="url(#clip0)" fill="#000"><path d="M23.994 12.027c0 1.588.02 3.182-.007 4.77-.055 3.046-1.458 5.247-4.196 6.583-.919.45-1.913.62-2.935.62H7.151C3.235 24 .068 20.92.028 17.002a491.123 491.123 0 0 1 0-10.017C.068 3.107 3.215.02 7.104.007c3.269-.007 6.538-.014 9.807 0 3.922.013 7.035 3.12 7.082 7.046.014 1.656 0 3.318 0 4.974zM2.2 11.966v4.872c0 .756.123 1.492.463 2.174.92 1.812 2.404 2.773 4.434 2.794 3.255.027 6.51.013 9.766 0 .36 0 .729-.034 1.076-.11 2.295-.51 3.841-2.405 3.855-4.756.02-3.291.006-6.582 0-9.874 0-.347-.041-.702-.123-1.042-.51-2.249-2.37-3.796-4.679-3.816-3.337-.028-6.674-.014-10.004-.007-.313 0-.634.04-.947.109-2.288.504-3.834 2.405-3.855 4.756 0 1.629.014 3.264.014 4.9z"/><path d="M12.014 18.542c-3.59.006-6.545-2.944-6.545-6.542-.007-3.578 2.935-6.528 6.51-6.542 3.59-.02 6.559 2.937 6.566 6.528.007 3.591-2.936 6.549-6.531 6.556zm-.028-2.18a4.351 4.351 0 0 0 4.373-4.328 4.335 4.335 0 0 0-4.339-4.388A4.344 4.344 0 0 0 7.648 12a4.36 4.36 0 0 0 4.338 4.361zM19.43 5.588a.995.995 0 0 1-1.015.967.991.991 0 0 1-.953-1.029.982.982 0 0 1 .994-.947.99.99 0 0 1 .974 1.009z"/></g><defs><clipPath id="clip0"><path fill="#fff" d="M0 0h24v24H0z"/></clipPath></defs></svg>