<svg width="24" height="24" viewBox="0 0 24 24" fill="none" xmlns="http://www.w3.org/2000/svg"><path d="M23.348 2.39a5.388 5.388 0 0 1-2.055 2.833c.929-.092 1.806-.368 2.66-.748.015.02.031.041.047.067-.395.488-.77.998-1.193 1.458-.348.376-.755.694-1.126 1.049a.405.405 0 0 0-.119.276c.067 3.87-1.09 7.292-3.414 10.267-1.588 2.035-3.584 3.468-5.942 4.316-1.688.606-3.426.849-5.208.778a13.097 13.097 0 0 1-5.267-1.308c-.573-.276-1.115-.627-1.668-.945-.016-.008-.023-.025-.063-.07 2.09.208 4.042-.18 5.86-1.221.466-.267.897-.593 1.335-.915-2.236-.226-3.746-1.42-4.583-3.67.762.135 1.474.118 2.197-.091-2.924-.74-4.015-3.531-3.884-5.173.671.363 1.37.593 2.189.622-1.083-.823-1.775-1.863-2.055-3.188-.277-1.316-.09-2.562.541-3.76 2.675 3.33 6.05 5.147 10.17 5.457-.03-.339-.07-.652-.086-.97a5.147 5.147 0 0 1 .857-3.192c.925-1.388 2.201-2.157 3.805-2.253 1.403-.083 2.628.401 3.651 1.421.154.155.285.205.498.15.901-.234 1.762-.56 2.569-1.04.079-.042.154-.08.284-.15z" fill="#000"/></svg>