<svg width="28" height="28" viewBox="0 0 28 28" fill="none" xmlns="http://www.w3.org/2000/svg"><path fill-rule="evenodd" clip-rule="evenodd" d="M25.514 10.328a.403.403 0 0 0-.283-.102H2.749a.39.39 0 0 0-.27.098.342.342 0 0 0-.11.223v8.068a.343.343 0 0 0 .115.23.373.373 0 0 0 .283.092l.037-.003h4.17v1.87H2.871a2.26 2.26 0 0 1-1.623-.555A2.214 2.214 0 0 1 .5 18.66V10.498a2.191 2.191 0 0 1 .712-1.55 2.241 2.241 0 0 1 1.58-.592h22.396a2.273 2.273 0 0 1 1.581.586c.438.396.702.95.73 1.541l.001.022v8.15l-.001.022a2.222 2.222 0 0 1-.73 1.541c-.432.392-1 .6-1.58.586h-4.121v-1.87H25.23a.403.403 0 0 0 .283-.101.353.353 0 0 0 .116-.229v-8.047a.353.353 0 0 0-.116-.23z" fill="#000"/><path fill-rule="evenodd" clip-rule="evenodd" d="M6.472 1h14.973v9.206H6.472V1zm1.87 1.87v5.466h11.233V2.87H8.342zM22.535 16.305H5.36v-1.87h17.174v1.87z" fill="#000"/><path fill-rule="evenodd" clip-rule="evenodd" d="M6.472 14.435h14.973v13.542H6.472V14.435zm1.87 1.87v9.803h11.233v-9.803H8.342zM21.523 13.124h-2.046v-1.87h2.046v1.87z" fill="#000"/></svg>