<svg width="24" height="24" viewBox="0 0 24 24" fill="none" xmlns="http://www.w3.org/2000/svg"><g clip-path="url(#clip0)"><path d="M0 19.752V4.236c.004-.025.012-.049.014-.073.018-.147.027-.293.053-.437a4.4 4.4 0 0 1 1.389-2.532C2.299.423 3.296.01 4.437.008 9.48-.004 14.52 0 19.56.002c.542 0 1.068.106 1.574.305a4.499 4.499 0 0 1 2.865 4.217c.002 4.983 0 9.963 0 14.946A4.506 4.506 0 0 1 19.485 24H4.498c-.313 0-.623-.03-.928-.098a4.434 4.434 0 0 1-2.384-1.358 4.39 4.39 0 0 1-1.13-2.317C.036 20.07.02 19.912 0 19.752zm11.443-9.626v2.804h1.454v8.3h3.753v-8.306h2.242c.101-.934.203-1.862.306-2.8h-2.55v-.075c0-.481-.002-.965.002-1.446.002-.185.01-.37.03-.554a.628.628 0 0 1 .457-.56c.191-.063.388-.08.585-.082.532-.004 1.066-.002 1.598-.002h.088V4.62c-.017-.003-.027-.005-.037-.005-1.058.005-2.116.005-3.174.017-.44.006-.873.085-1.291.227-.687.232-1.227.642-1.568 1.291-.309.585-.42 1.22-.437 1.873-.016.668-.006 1.334-.008 2.002v.101h-1.45z" fill="#000"/></g><defs><clipPath id="clip0"><path fill="#fff" d="M0 0h24v24H0z"/></clipPath></defs></svg>