<svg width="28" height="28" viewBox="0 0 28 28" fill="none" xmlns="http://www.w3.org/2000/svg"><path fill-rule="evenodd" clip-rule="evenodd" d="M6.746 2.075c-.39 0-.671.304-.671.639v22.573c0 .334.281.638.67.638h14.369c.39 0 .67-.304.67-.639V2.715a.655.655 0 0 0-.67-.64H6.746zM4 2.714C4 1.196 5.248 0 6.746 0h14.368c1.498 0 2.746 1.196 2.746 2.714v22.573c0 1.517-1.248 2.713-2.746 2.713H6.746C5.248 28 4 26.803 4 25.287V2.713z" fill="#000"/><path fill-rule="evenodd" clip-rule="evenodd" d="M23.183 5.557H5.398V3.483h17.785v2.074zM23.183 24.2H5.398v-2.075h17.785V24.2zM19.164 10.736l-7.35 7.213-3.119-3.06 1.453-1.48 1.665 1.633 5.898-5.787 1.453 1.48z" fill="#000"/></svg>