<svg width="24" height="24" viewBox="0 0 24 24" fill="none" xmlns="http://www.w3.org/2000/svg"><path d="M3.113 17.633c-.068-.716-.164-1.313-.164-1.91 0-.448-.122-.642-.518-.79C1.15 14.424 1 14.17 1 12.708c0-2 .273-2.388 2.058-2.85 2.372-.598 4.771-.568 7.17-.27.082.015.177.015.368.03V8.127 3.575c0-1.014.177-1.432 1.063-1.73.968-.33 1.977-.598 2.972-.702 2.262-.239 4.539-.239 6.747.477C22.809 2.083 23 2.381 23 3.978v13.043c0 1.329-.232 1.687-1.39 2.105-1.772.641-3.613.671-5.453.716-.545.015-1.076.298-1.608.478-.082.03-.164.194-.164.283.028 1.06-.681 1.388-1.404 1.656-1.88.687-3.83.821-5.779.657a20.91 20.91 0 0 1-3.817-.671c-1.226-.329-1.43-.762-1.43-2.134 0-.12.013-.254 0-.373-.137-1.105.217-1.896 1.158-2.105zm18.92-13.237c-3.531 1.03-6.993 1.03-10.456-.015-.272 1.776-.136 2.12 1.214 2.433 2.535.597 5.098.686 7.633.06 1.963-.463 1.663-.299 1.608-2.478zm-10.524 3.12v.79c0 1.269-.013 1.343 1.118 1.582 1.281.269 2.59.478 3.898.522 1.65.075 3.313-.06 4.894-.686.259-.105.586-.373.627-.627.095-.507.027-1.045.027-1.582-3.558 1.06-7.02 1.06-10.564 0zm10.564 3.103c-2.849 1.03-5.725.925-8.655.582 0 .642-.028 1.194.013 1.731.014.165.232.433.368.448 2.358.239 4.716.343 7.034-.298 1.227-.329 1.213-.359 1.227-1.747.013-.208.013-.432.013-.716zm-20.05.88c1.594 1.389 9.255 1.344 10.427-.074-1.322-1.343-9.16-1.358-10.428.075zm19.982-8.237c0-.105.014-.209.014-.313-.314-.135-.614-.314-.927-.374-1.213-.208-2.413-.462-3.64-.522-1.772-.09-3.544-.015-5.248.642-.231.09-.422.254-.64.388.027.09.04.164.068.254C15.108 4.41 18.57 4.5 22.005 3.262zm-6.584 11.297c-.122.493-.177.88.314 1.164.218.12.34.448.531.657.123.134.3.328.437.313 1.24-.09 2.508-.104 3.707-.388 2.072-.492 1.636-.418 1.663-2.388 0-.044-.027-.074-.068-.149-2.126.82-4.348.85-6.584.791zM3.917 15.902c-.11.88-.095 1 .64 1.194 1.105.269 2.209.507 3.34.612 1.95.179 3.885.03 5.78-.582.531-.18.967-.463.681-1.209-3.476 1.045-6.938 1.03-10.441-.015zm-1.922-3.149c-.204.642.014 1.06.613 1.194 1.023.224 2.031.478 3.067.582 2.018.224 4.035.075 5.998-.522.545-.164 1.077-.403.763-1.224-3.476 1.03-6.951 1.045-10.441-.03zm.981 7.238c-.245.806.096 1.164.75 1.358 1.977.582 3.98.732 5.998.508 1.076-.12 2.126-.403 3.19-.657.217-.045.395-.269.585-.418-3.612.239-7.101.239-10.523-.79zm1.936-1.656c-.054.074-.123.134-.177.209.218.194.409.507.654.582 1.009.253 2.031.522 3.053.626 2.113.21 4.212.135 6.257-.596.709-.254.75-.374.559-1.15-3.408 1.075-6.87.926-10.346.329zm17.161-1.239c-1.922.269-3.817.537-5.725.806v.895c1.745.015 3.408-.09 5.03-.641.559-.21.859-.538.695-1.06zm-7.579-2.477c-.845-.299-1.43-.269-2.058.134-.49.313-1.104.418-1.676.552-.56.135-1.132.21-1.704.314 1.785-.045 3.598-.015 5.438-1z" fill="#000"/></svg>