<svg width="24" height="24" viewBox="0 0 24 24" fill="none" xmlns="http://www.w3.org/2000/svg"><path fill-rule="evenodd" clip-rule="evenodd" d="M12 1.173C6.02 1.173 1.173 6.02 1.173 12c0 5.98 4.847 10.827 10.827 10.827 5.98 0 10.827-4.847 10.827-10.827C22.827 6.02 17.98 1.173 12 1.173zM.5 12C.5 5.649 5.649.5 12 .5S23.5 5.649 23.5 12 18.351 23.5 12 23.5.5 18.351.5 12z" fill="#000"/><path d="M17.019 12.93l-2.195-.806-.29-.093c.71-.93 1.194-2.263 1.194-3.875 0-2.975-1.194-4.37-3.744-4.37-2.55 0-3.744 1.395-3.744 4.37 0 1.55.452 2.883 1.162 3.813a5.158 5.158 0 0 0-.743.248l-1.71.682c-1.775.713-3.163 2.2-3.163 3.41v1.952c0 .186.161.31.322.31a.317.317 0 0 0 .323-.31V16.31c0-.93 1.259-2.232 2.744-2.821l1.71-.682a4.38 4.38 0 0 1 .969-.28c.645.62 1.388.962 2.13.962.71 0 1.452-.341 2.066-.93.193.062.355.093.548.155l2.195.806c1.485.558 2.776 1.798 2.776 2.728V18.2c0 .185.161.31.323.31.16 0 .322-.156.322-.31v-1.953c0-1.178-1.42-2.635-3.195-3.317zm-5.035-.093c-1.259 0-3.066-1.674-3.066-4.68 0-3.286 1.549-3.72 3.066-3.72s3.066.434 3.066 3.72c0 3.006-1.807 4.68-3.066 4.68z" fill="#000"/></svg>