<svg width="28" height="28" viewBox="0 0 28 28" fill="none" xmlns="http://www.w3.org/2000/svg"><path fill-rule="evenodd" clip-rule="evenodd" d="M3.13 7.977a.705.705 0 0 0-.704.706v14.492c0 .392.316.707.703.707h21.742a.705.705 0 0 0 .703-.707V8.683a.705.705 0 0 0-.703-.706H3.129zM.5 8.683A2.63 2.63 0 0 1 3.13 6.05h21.74a2.63 2.63 0 0 1 2.63 2.632v14.492a2.63 2.63 0 0 1-2.63 2.633H3.13A2.63 2.63 0 0 1 .5 23.175V8.683z" fill="#000"/><path fill-rule="evenodd" clip-rule="evenodd" d="M3.812 6.05h4.811v19.758h-4.81V6.05zm1.926 1.927v15.905h.96V7.977h-.96zM19.478 6.05h4.811v19.758h-4.811V6.05zm1.926 1.927v15.905h.96V7.977h-.96z" fill="#000"/><path fill-rule="evenodd" clip-rule="evenodd" d="M5.255 2h17.592v4.098H20.92V3.926H7.18v2.172H5.255V2z" fill="#000"/></svg>