<svg width="28" height="28" viewBox="0 0 28 28" fill="none" xmlns="http://www.w3.org/2000/svg"><path fill-rule="evenodd" clip-rule="evenodd" d="M14.177 20.523c-4.3-.113-8.585.563-12.642 1.996l-.517-1.464a36.735 36.735 0 0 1 13.19-2.084c4.157 0 7.19.54 9.2 1.088 1.006.274 1.755.55 2.258.762a9.93 9.93 0 0 1 .77.362l.013.008.004.002.002.001c.001.001.002.001-.386.674-.387.672-.387.673-.386.673l-.002-.001a8.495 8.495 0 0 0-.616-.288A16.725 16.725 0 0 0 23 21.556c-1.877-.512-4.776-1.033-8.802-1.033h-.02zM4.054 6.957a2.005 2.005 0 0 0-2.002 2.009c0 1.11.898 2.008 2.002 2.008a2.005 2.005 0 0 0 2.002-2.008c0-1.111-.898-2.009-2.002-2.009zM.5 8.966C.5 7 2.09 5.405 4.054 5.405a3.557 3.557 0 0 1 3.554 3.56c0 1.965-1.59 3.561-3.554 3.561A3.557 3.557 0 0 1 .5 8.966z" fill="#000"/><path fill-rule="evenodd" clip-rule="evenodd" d="M19.172 11.72c.41.125.642.558.517.968l-2.23 7.318a.776.776 0 1 1-1.484-.452l2.229-7.318a.776.776 0 0 1 .968-.516z" fill="#000"/><path fill-rule="evenodd" clip-rule="evenodd" d="M12.687 9.246L25.94 13.29a4.802 4.802 0 0 0-.125-.794c-.163-.69-.478-1.467-.937-2.23-.924-1.533-2.375-2.916-4.213-3.454-1.846-.54-3.83-.184-5.448.572-.805.376-1.496.84-2.012 1.312-.21.192-.382.377-.52.55zm1.874-3.269c1.858-.867 4.236-1.329 6.54-.654 2.314.676 4.045 2.377 5.108 4.142.534.887.914 1.813 1.118 2.673.2.844.247 1.694.033 2.395a.776.776 0 0 1-.968.517l-15.07-4.598a.777.777 0 0 1-.516-.969c.21-.688.722-1.355 1.352-1.932.644-.59 1.47-1.138 2.403-1.574z" fill="#000"/><path fill-rule="evenodd" clip-rule="evenodd" d="M21.604 5.923a.776.776 0 0 1-.656.88c-1.353.196-2.401 1.194-3.15 2.282a9.945 9.945 0 0 0-1.061 2.025l-.01.029-.003.005a.777.777 0 0 1-1.468-.505l.734.252-.734-.252.001-.002.002-.005.005-.013.016-.045c.014-.037.033-.09.06-.156a11.508 11.508 0 0 1 1.18-2.212c.839-1.22 2.213-2.65 4.204-2.94a.776.776 0 0 1 .88.657z" fill="#000"/><path fill-rule="evenodd" clip-rule="evenodd" d="M19.99 5.529a.776.776 0 0 1 1.094-.083c1.51 1.299 1.84 3.25 1.847 4.72a11.49 11.49 0 0 1-.323 2.706l-.003.014-.002.004v.002l-.749-.204.749.205a.776.776 0 0 1-1.498-.408l.002-.006.007-.03c.007-.028.018-.071.03-.129a9.94 9.94 0 0 0 .234-2.148c-.005-1.318-.312-2.694-1.306-3.549a.776.776 0 0 1-.082-1.094z" fill="#000"/></svg>