<svg width="24" height="24" viewBox="0 0 24 24" fill="none" xmlns="http://www.w3.org/2000/svg"><path d="M22.989 20.801v.44L21.229 23h-.439c-2.32-2.364-4.64-4.717-6.937-7.059-.275.165-.418.253-.561.33-4.662 2.716-10.632.253-12.017-4.97-.11-.384-.187-.769-.275-1.165V8.267c.033-.099.077-.198.099-.307a8.17 8.17 0 0 1 6.157-6.696c.44-.11.89-.176 1.33-.264h1.1c.154.033.319.088.472.099 4.211.44 7.488 4.409 7.158 8.609-.121 1.45-.55 2.781-1.396 4.112.176.131.362.252.516.395 2.188 2.21 4.376 4.398 6.553 6.586zM15.117 9.224c.01-3.276-2.628-5.937-5.926-5.97-3.254-.022-5.96 2.65-5.981 5.915-.022 3.276 2.683 6.003 5.959 6.003 3.265 0 5.937-2.66 5.948-5.948z" fill="#000"/></svg>