<svg width="28" height="28" viewBox="0 0 28 28" fill="none" xmlns="http://www.w3.org/2000/svg"><path fill-rule="evenodd" clip-rule="evenodd" d="M2.681 5.323c.488 0 .883.395.883.883v17.733a.883.883 0 0 1-1.766 0V6.206c0-.488.395-.883.883-.883zM25.32 5.323c.487 0 .882.395.882.883v17.733a.883.883 0 0 1-1.766 0V6.206c0-.488.396-.883.883-.883z" fill="#000"/><path fill-rule="evenodd" clip-rule="evenodd" d="M25.375 10.52H2.888V8.752h22.487v1.766zM25.375 19.892H2.888v-1.765h22.487v1.765z" fill="#000"/><path d="M2.681 7.35a2.178 2.178 0 0 0 2.181-2.175A2.178 2.178 0 0 0 2.682 3 2.178 2.178 0 0 0 .5 5.175c0 1.2.976 2.174 2.181 2.174zM25.319 7.35A2.178 2.178 0 0 0 27.5 5.174 2.178 2.178 0 0 0 25.319 3a2.178 2.178 0 0 0-2.181 2.175c0 1.2.976 2.174 2.18 2.174z" fill="#000"/><path fill-rule="evenodd" clip-rule="evenodd" d="M7.608 19.01V9.635h1.766v9.373H7.608zM13.249 19.01V9.635h1.766v9.373h-1.766zM18.89 19.01V9.635h1.765v9.373H18.89z" fill="#000"/></svg>