<svg width="28" height="28" viewBox="0 0 28 28" fill="none" xmlns="http://www.w3.org/2000/svg"><path fill-rule="evenodd" clip-rule="evenodd" d="M9.786 6.282l9.286 3.466v11.631L9.78 25.15.5 21.222V9.748l9.286-3.466zM1.885 10.71v9.596l7.907 3.346 7.895-3.204v-9.738l-7.901-2.95-7.901 2.95z" fill="#000"/><path fill-rule="evenodd" clip-rule="evenodd" d="M9.094 7.021h1.384v10.08l8.152 3.167-.5 1.29-9.036-3.51V7.022z" fill="#000"/><path fill-rule="evenodd" clip-rule="evenodd" d="M.951 20.115l8.594-3.189.482 1.298-8.594 3.189-.482-1.298zM11.602 11.317l4.059 1.528v7.733L11.6 19.02v-7.704zm1.384 2v4.752l1.29.495v-4.76l-1.29-.486zM8.08 11.614v4.51l-4.666 1.67v-4.51l4.667-1.67zm-3.282 2.645v1.569l1.898-.68V13.58l-1.898.679z" fill="#000"/><path fill-rule="evenodd" clip-rule="evenodd" d="M18.38 3l9.12 3.43v11.498l-9.115 3.731-9.143-3.593V6.43L18.38 3zm-7.754 4.39v9.732l7.749 3.045L26.115 17v-9.61l-7.735-2.91-7.754 2.91z" fill="#000"/><path fill-rule="evenodd" clip-rule="evenodd" d="M17.687 3.74h1.385v9.968l7.986 3.11-.502 1.29-8.869-3.453V3.74z" fill="#000"/><path fill-rule="evenodd" clip-rule="evenodd" d="M20.14 7.974l4.022 1.536v7.635L20.14 15.61V7.974zm1.384 2.01v4.672l1.253.478v-4.67l-1.253-.48z" fill="#000"/></svg>