<svg width="27" height="27" viewBox="0 0 27 27" fill="none" xmlns="http://www.w3.org/2000/svg"><path fill-rule="evenodd" clip-rule="evenodd" d="M13.5 2.678C7.523 2.678 2.678 7.523 2.678 13.5c0 5.977 4.845 10.822 10.822 10.822 5.977 0 10.822-4.845 10.822-10.822 0-5.977-4.845-10.822-10.822-10.822zM.5 13.5c0-7.18 5.82-13 13-13s13 5.82 13 13-5.82 13-13 13-13-5.82-13-13z" fill="#000"/><path d="M13.7 9.669c1.123 0 2.003.265 2.64.797.635.523.953 1.259.953 2.209 0 .95-.318 1.69-.954 2.221-.636.523-1.516.784-2.64.784h-2.836v3.137h-.261V9.669h3.097zm.025 5.763c1.063 0 1.878-.24 2.444-.719.575-.479.863-1.158.863-2.038 0-.88-.288-1.56-.863-2.04-.566-.478-1.38-.718-2.444-.718h-2.862v5.515h2.862z" fill="#000"/><path fill-rule="evenodd" clip-rule="evenodd" d="M9.513 8.58h4.186c1.287 0 2.444.304 3.335 1.047.926.763 1.348 1.83 1.348 3.048 0 1.22-.423 2.287-1.345 3.057l-.006.006c-.892.733-2.047 1.032-3.332 1.032h-1.747v3.136h-2.44V8.58zm2.44 5.763h1.772c.915 0 1.441-.207 1.74-.461l.007-.005c.282-.235.47-.583.47-1.202 0-.62-.188-.968-.47-1.203l-.006-.005c-.3-.253-.826-.46-1.74-.46h-1.774v3.336z" fill="#000"/></svg>