<svg width="28" height="28" viewBox="0 0 28 28" fill="none" xmlns="http://www.w3.org/2000/svg"><path fill-rule="evenodd" clip-rule="evenodd" d="M.5 13.107h27v7.796H.5v-7.796zm1.824 1.824v4.148h23.352V14.93H2.324z" fill="#000"/><path fill-rule="evenodd" clip-rule="evenodd" d="M2.377 5h23.269v10.014H2.376V5zM4.2 6.824v6.367h19.622V6.824H4.2zM2.377 23.101v-3.11H4.2v3.11H2.377zM23.8 23.101v-3.11h1.824v3.11H23.8z" fill="#000"/><path fill-rule="evenodd" clip-rule="evenodd" d="M5.124 9.727h8.392v5.266H5.124V9.727zm1.824 1.824v1.618h4.744v-1.618H6.948zM14.551 9.727h8.392v5.266H14.55V9.727zm1.824 1.824v1.618h4.744v-1.618h-4.744z" fill="#000"/></svg>