<svg width="28" height="28" viewBox="0 0 28 28" fill="none" xmlns="http://www.w3.org/2000/svg"><path fill-rule="evenodd" clip-rule="evenodd" d="M24.291 9.474c-.878-.587-2.121-.873-3.46-.873V6.786c1.552 0 3.19.324 4.47 1.18 1.326.886 2.199 2.305 2.199 4.28 0 1.973-.873 3.392-2.2 4.279-1.28.855-2.917 1.18-4.47 1.18v-1.816c1.34 0 2.583-.286 3.461-.873.832-.556 1.394-1.413 1.394-2.77 0-1.359-.562-2.216-1.394-2.772z" fill="#000"/><path fill-rule="evenodd" clip-rule="evenodd" d="M.5 5h21.777v.908c0 2.207 0 4.357-.162 6.321-.161 1.963-.487 3.804-1.169 5.387-.69 1.602-1.747 2.941-3.346 3.866-1.585.917-3.627 1.384-6.222 1.384-2.596 0-4.637-.467-6.22-1.384-1.596-.925-2.65-2.265-3.338-3.867C1.14 16.032.818 14.19.659 12.228.5 10.271.5 8.13.5 5.931V5zm1.816 1.815c.002 1.883.02 3.647.152 5.266.152 1.879.453 3.496 1.02 4.818.559 1.302 1.374 2.313 2.58 3.012 1.222.708 2.92 1.14 5.31 1.14 2.39 0 4.089-.432 5.313-1.14 1.209-.7 2.027-1.71 2.588-3.013.57-1.322.873-2.94 1.027-4.817.133-1.62.153-3.384.155-5.266H2.317z" fill="#000"/></svg>