<svg width="28" height="28" viewBox="0 0 28 28" fill="none" xmlns="http://www.w3.org/2000/svg"><path fill-rule="evenodd" clip-rule="evenodd" d="M8.992 14.277h9.985l3.072 6.095H5.92l3.072-6.095zm.933 1.515L8.38 18.857H19.59l-1.545-3.065H9.925zM4.207 10.432c-.512 0-.897.4-.897.858 0 .457.385.858.897.858s.897-.401.897-.858c0-.457-.385-.858-.897-.858zm-2.411.858c0-1.328 1.096-2.373 2.411-2.373s2.411 1.045 2.411 2.373c0 1.327-1.096 2.372-2.41 2.372-1.316 0-2.412-1.045-2.412-2.372zM23.764 11.018c-.453 0-.788.353-.788.751s.335.752.788.752c.451 0 .787-.354.787-.752s-.335-.751-.787-.751zm-2.303.751c0-1.268 1.048-2.266 2.303-2.266 1.254 0 2.302.998 2.302 2.266 0 1.269-1.048 2.266-2.302 2.266-1.255 0-2.303-.997-2.303-2.266z" fill="#000"/><path fill-rule="evenodd" clip-rule="evenodd" d="M4.395 12.943l.068.005a4.347 4.347 0 0 1 1.638.455c.51.258.962.614 1.33 1.048.368.434.644.937.81 1.48.165.542.218 1.112.153 1.675l-.077.671H.607l-.079-.669a4.124 4.124 0 0 1 .14-1.647 4.172 4.172 0 0 1 .776-1.465 4.265 4.265 0 0 1 1.287-1.056 4.344 4.344 0 0 1 1.597-.49l.067-.007zm.023 1.522c-.341.044-.671.15-.972.31a2.75 2.75 0 0 0-.83.681 2.658 2.658 0 0 0-.576 1.306h4.84a2.66 2.66 0 0 0-.603-1.332 2.754 2.754 0 0 0-.86-.675 2.833 2.833 0 0 0-.999-.29zM23.762 13.208l.08.008a4.106 4.106 0 0 1 2.734 1.447 3.953 3.953 0 0 1 .904 2.933l-.069.681h-7.276l-.07-.68a3.953 3.953 0 0 1 .897-2.927 4.106 4.106 0 0 1 2.72-1.453l.08-.009zm.004 1.524a2.589 2.589 0 0 0-1.639.905c-.273.33-.452.718-.527 1.125h4.345a2.456 2.456 0 0 0-.532-1.129 2.59 2.59 0 0 0-1.647-.9zM13.985 8.515c-.452 0-.788.353-.788.751s.336.752.788.752.787-.354.787-.752-.335-.751-.787-.751zm-2.303.751C11.682 7.998 12.73 7 13.985 7c1.254 0 2.302.998 2.302 2.266s-1.048 2.266-2.302 2.266c-1.255 0-2.303-.998-2.303-2.266z" fill="#000"/><path fill-rule="evenodd" clip-rule="evenodd" d="M13.985 10.723l.08.009a4.105 4.105 0 0 1 2.722 1.453c.68.82 1.003 1.871.895 2.926l-.069.681h-7.28l-.065-.685a3.971 3.971 0 0 1 .91-2.925 4.124 4.124 0 0 1 2.725-1.45l.082-.009zm0 1.525a2.608 2.608 0 0 0-1.644.905c-.275.33-.456.717-.534 1.124h4.341a2.456 2.456 0 0 0-.527-1.125 2.588 2.588 0 0 0-1.637-.904z" fill="#000"/></svg>