<svg width="28" height="28" viewBox="0 0 28 28" fill="none" xmlns="http://www.w3.org/2000/svg"><path fill-rule="evenodd" clip-rule="evenodd" d="M14 17.986a5.09 5.09 0 0 0-3.01.986l-1.082.793L8.322 17.6l1.082-.793a7.774 7.774 0 0 1 9.192 0l1.082.793-1.586 2.164-1.082-.793a5.09 5.09 0 0 0-3.01-.986z" fill="#000"/><path fill-rule="evenodd" clip-rule="evenodd" d="M14 12.833c-2.594 0-5.121.82-7.223 2.343l-1.087.787-1.574-2.173 1.087-.787a14.995 14.995 0 0 1 17.595 0l1.086.787-1.574 2.173-1.087-.787A12.312 12.312 0 0 0 14 12.833z" fill="#000"/><path fill-rule="evenodd" clip-rule="evenodd" d="M14 7.683a18.389 18.389 0 0 0-10.835 3.533l-1.084.79L.5 9.838l1.084-.79a21.072 21.072 0 0 1 24.832 0l1.084.79-1.58 2.168-1.085-.79A18.39 18.39 0 0 0 14 7.683z" fill="#000"/><path d="M14.01 23.945c.884 0 1.6-.718 1.6-1.603s-.716-1.603-1.6-1.603c-.884 0-1.6.718-1.6 1.603s.716 1.603 1.6 1.603z" fill="#000"/></svg>