<svg width="28" height="28" viewBox="0 0 28 28" fill="none" xmlns="http://www.w3.org/2000/svg"><path fill-rule="evenodd" clip-rule="evenodd" d="M5.49 9.126a10.985 10.985 0 0 0-.62 9.666 10.94 10.94 0 0 0 2.887 4.037 10.863 10.863 0 0 0 4.364 2.335 10.823 10.823 0 0 0 9.438-1.907 10.93 10.93 0 0 0 3.129-3.85 10.991 10.991 0 0 0 1.11-4.846v-.001a11.153 11.153 0 0 0-1.156-4.934l1.524-.755a12.854 12.854 0 0 1 1.334 5.686l-.85.002.85-.003v.002a12.693 12.693 0 0 1-1.283 5.594 12.63 12.63 0 0 1-3.616 4.45 12.525 12.525 0 0 1-10.92 2.206 12.563 12.563 0 0 1-5.047-2.701A12.64 12.64 0 0 1 3.3 19.442 12.696 12.696 0 0 1 4.015 8.28l1.476.846zM9.252 5.953L7.404 3.247l1.405-.96 1.848 2.706-1.405.96zM12.578 4.554l-.663-3.21L13.58 1l.663 3.21-1.666.344zM16.008 4.236l.562-3.21 1.676.293-.562 3.21-1.676-.293zM19.348 5.14l1.668-2.807 1.462.869-1.667 2.806-1.463-.869zM22.039 6.982l2.35-2.281 1.185 1.22-2.35 2.282-1.185-1.22z" fill="#000"/><path fill-rule="evenodd" clip-rule="evenodd" d="M5.849 6.488l2.023 5.049-1.579.633-1.392-3.473L1.13 10.2.5 8.62l5.349-2.132z" fill="#000"/><path d="M15.243 18.118v1.347h-5.4v-1.072L12.6 15.79c.293-.278.49-.517.592-.714a1.34 1.34 0 0 0 .153-.602c0-.286-.098-.504-.295-.654-.191-.156-.473-.234-.848-.234-.313 0-.595.06-.847.183a1.58 1.58 0 0 0-.633.531l-1.204-.776a2.79 2.79 0 0 1 1.153-.97c.49-.238 1.052-.357 1.684-.357.531 0 .994.089 1.389.266.401.17.71.415.928.735.225.313.337.684.337 1.112 0 .388-.081.752-.245 1.093-.163.34-.48.728-.949 1.163l-1.643 1.552h3.072zM22.369 17.965h-1.164v1.5h-1.613v-1.5h-3.848v-1.113l3.369-4.532h1.735l-3.124 4.297h1.92V15.28h1.561v1.337h1.164v1.348z" fill="#000"/></svg>