<svg width="28" height="28" viewBox="0 0 28 28" fill="none" xmlns="http://www.w3.org/2000/svg"><path fill-rule="evenodd" clip-rule="evenodd" d="M12.573 5.89a.881.881 0 0 1 .987-.002l11.829 7.94a.881.881 0 0 1-.491 1.613h-3.58v-1.763h.685l-8.931-5.995-8.825 5.995h.552v1.763H1.38a.881.881 0 0 1-.495-1.61l11.688-7.94z" fill="#000"/><path fill-rule="evenodd" clip-rule="evenodd" d="M11.017 2.661v.012V2.661zm2.247.86a7.745 7.745 0 0 0-1.023 2.211.881.881 0 0 0 1.696.479 5.985 5.985 0 0 1 .793-1.713l.007-.01c.452-.693.7-1.744.407-2.688a2.413 2.413 0 0 0-.958-1.304C13.692.162 13.074 0 12.36 0c-1.439 0-2.305.593-2.746 1.353a2.7 2.7 0 0 0-.36 1.381l.001.014V2.757l.88-.048-.88.049a.881.881 0 0 0 1.762-.096.938.938 0 0 1 .121-.424c.09-.154.335-.475 1.222-.475.45 0 .7.1.836.193.13.088.214.207.263.365.112.362.016.87-.197 1.2zM4.564 12.162c0-.486.395-.88.881-.88h15.388c.487 0 .881.394.881.88V27.12a.881.881 0 0 1-.88.881H5.444a.881.881 0 0 1-.88-.881V12.162zm1.763.882v13.193h13.625V13.044H6.327z" fill="#000"/></svg>