<svg width="25" height="25" viewBox="0 0 25 25" fill="none" xmlns="http://www.w3.org/2000/svg"><path d="M4.19 5.4v-.076c0-.334-.004-.666.002-1 .013-.74.457-1.282 1.286-1.641.256-.11.539-.17.833-.175.416-.008.833-.012 1.25-.002.596.015 1.09.212 1.506.534.434.337.652.747.66 1.221.008.355.004.709.004 1.063v.072h5.536V5.33c0-.335-.006-.67.001-1.006.018-.779.497-1.335 1.393-1.68a2.14 2.14 0 0 1 .728-.137c.416-.007.833-.012 1.25 0 .6.014 1.099.215 1.516.542.454.355.655.787.653 1.28v1.069h.092c.58 0 1.158.002 1.738 0 .89-.004 1.615.496 1.801 1.08.04.124.058.255.058.383.003 4.788.005 9.575 0 14.363 0 .626-.393 1.077-1.116 1.354-.209.08-.437.103-.668.11h-.103c-6.739 0-13.478-.002-20.217.003-.905 0-1.637-.491-1.83-1.075a1.312 1.312 0 0 1-.057-.407C.5 18.066.5 14.92.5 11.775V6.869c0-.542.31-.957.879-1.26.295-.158.634-.21.989-.21H4.191zm18.46 4.33H2.352v11.53H22.65V9.73zM18.96 5.96V4.354c0-.249-.17-.38-.494-.38h-.48c-.166 0-.332-.004-.496.007-.19.01-.327.113-.364.258a.512.512 0 0 0-.013.124v3.174l.001.057c.014.19.17.318.416.328.163.007.325.004.488.004.185-.002.37.003.555-.007.167-.01.294-.078.353-.201a.414.414 0 0 0 .034-.174c.002-.526 0-1.056 0-1.585zM7.883 5.954v-1.61c0-.236-.171-.37-.476-.37-.299-.001-.596-.003-.895 0-.303.002-.476.136-.476.37v3.21c0 .237.173.37.48.372h.644c.114 0 .228.002.34-.007.2-.015.339-.119.373-.272a.488.488 0 0 0 .01-.113c.002-.524 0-1.052 0-1.58z" fill="#000"/></svg>