<svg width="28" height="28" viewBox="0 0 28 28" fill="none" xmlns="http://www.w3.org/2000/svg"><path fill-rule="evenodd" clip-rule="evenodd" d="M.5 16.66h25.723v5.455H.5V16.66zm1.648 1.65v2.156h22.427V18.31H2.148z" fill="#000"/><path fill-rule="evenodd" clip-rule="evenodd" d="M23.51 17.485v3.806h-1.65v-3.806h1.65zM8.663 17.09v4.596H7.014V17.09h1.649zM22.703 8.44a3.89 3.89 0 0 0-.678-1.45L23.344 6a5.511 5.511 0 0 1 1.013 4.343l-.008.04-.01.037c-.149.508-.32.94-.468 1.315l-.002.006c-.152.382-.273.687-.358.996-.155.567-.202 1.186.119 2.193l-1.571.5c-.414-1.299-.38-2.243-.137-3.13.11-.398.26-.776.4-1.129.005-.014.01-.029.017-.043.144-.364.284-.721.405-1.13a3.861 3.861 0 0 0-.04-1.557zM25.772 9.958a3.04 3.04 0 0 0-.523-1.123l1.322-.985a4.689 4.689 0 0 1 .852 3.642l-.006.034-.01.033c-.12.439-.26.807-.381 1.12l-.029.074c-.112.288-.198.51-.261.736-.12.426-.162.887.088 1.68l-1.573.495c-.341-1.086-.311-1.873-.103-2.619.086-.31.203-.607.309-.879l.032-.084c.115-.295.225-.586.319-.922a3.02 3.02 0 0 0-.036-1.202z" fill="#000"/></svg>